<?xml version="1.0" encoding="UTF-8"?>
<svg width="107px" height="107px" viewBox="0 0 107 107" version="1.1" xmlns="http://www.w3.org/2000/svg" xmlns:xlink="http://www.w3.org/1999/xlink">
    <!-- Generator: Sketch 49.3 (51167) - http://www.bohemiancoding.com/sketch -->
    <title>competition</title>
    <desc>Created with Sketch.</desc>
    <defs></defs>
    <g id="Треки" stroke="none" stroke-width="1" fill="none" fill-rule="evenodd">
        <g id="Треки-–-компетенции" transform="translate(-898.000000, -188.000000)">
            <g id="как-построить" transform="translate(304.000000, 104.000000)">
                <g id="3" transform="translate(528.000000, 48.000000)">
                    <g id="competition" transform="translate(55.000000, 24.000000)">
                        <path d="M65.1081081,37 C49.6097973,37 37,49.6087416 37,65.1081081 C37,80.6064189 49.6097973,93.2162162 65.1081081,93.2162162 C80.6064189,93.2162162 93.2162162,80.6064189 93.2162162,65.1081081 C93.2162162,49.6087416 80.6064189,37 65.1081081,37 Z M50.0785473,83.5202703 C50.6211995,78.0631335 55.2052365,73.7567568 60.7837838,73.7567568 L69.4324324,73.7567568 C75.0109797,73.7567568 79.5939611,78.0631335 80.1366132,83.5202703 C76.0371622,86.8743668 70.8048986,88.8918919 65.1081081,88.8918919 C59.4102619,88.8918919 54.1779984,86.8743668 50.0785473,83.5202703 Z M65.1081081,69.4324324 C60.3382603,69.4324324 56.4594595,65.5525762 56.4594595,60.7837838 C56.4594595,56.0139359 60.3382603,52.1351351 65.1081081,52.1351351 C69.8779562,52.1351351 73.7567568,56.0139359 73.7567568,60.7837838 C73.7567568,65.5525762 69.8779562,69.4324324 65.1081081,69.4324324 Z M83.7799832,79.7934968 C82.251267,75.2390205 78.6152873,71.6399916 74.0460305,70.1651184 C76.5259714,67.7991978 78.0810811,64.4714951 78.0810811,60.7837838 C78.0810811,53.6290119 72.26288,47.8108108 65.1081081,47.8108108 C57.9533362,47.8108108 52.1351351,53.6290119 52.1351351,60.7837838 C52.1351351,64.4714951 53.6891892,67.7991978 56.1712416,70.163007 C51.6030405,71.6368243 47.9660051,75.2369089 46.4372889,79.7913854 C43.245777,75.7436657 41.3243243,70.6497046 41.3243243,65.1081081 C41.3243243,51.9936657 51.9947214,41.3243243 65.1081081,41.3243243 C78.2214951,41.3243243 88.8918919,51.9936657 88.8918919,65.1081081 C88.8918919,70.6497046 86.9693835,75.7436657 83.7799832,79.7934968 Z" id="Shape" fill="#FFFFFF" fill-rule="nonzero"></path>
                        <path d="M60.4142136,21.4142136 C59.633165,22.1952621 58.366835,22.1952621 57.5857864,21.4142136 C56.8047379,20.633165 56.8047379,19.3699951 57.5857864,18.5857864 L63.5857864,12.5857864 C64.4365712,11.7350017 65.6951644,11.8656081 66.422868,12.5887842 L72.4099731,18.5857864 C73.1682321,19.349491 73.2094283,20.6151904 72.4099731,21.4142136 C71.610518,22.2132368 70.373686,22.1801112 69.5800171,21.4142136 L67,18.8284271 L67,30 C67,31.1045695 66.1045695,32 65,32 C63.8954305,32 63,31.1045695 63,30 L63,18.8284271 L60.4142136,21.4142136 Z" id="Path" fill="#FFFFFF" fill-rule="nonzero"></path>
                        <path d="M60.4142136,107.638224 C59.633165,108.419273 58.366835,108.419273 57.5857864,107.638224 C56.8047379,106.857176 56.8047379,105.594006 57.5857864,104.809797 L63.5857864,98.8097972 C64.4365712,97.9590124 65.6951644,98.0896189 66.422868,98.812795 L72.4099731,104.809797 C73.1682321,105.573502 73.2094283,106.839201 72.4099731,107.638224 C71.610518,108.437247 70.373686,108.404122 69.5800171,107.638224 L67,105.052438 L67,116.224011 C67,117.32858 66.1045695,118.224011 65,118.224011 C63.8954305,118.224011 63,117.32858 63,116.224011 L63,105.052438 L60.4142136,107.638224 Z" id="Path" fill="#FFFFFF" fill-rule="nonzero" transform="translate(64.997109, 108.222006) scale(1, -1) translate(-64.997109, -108.222006) "></path>
                        <path d="M90.8220695,34.0071649 C90.0410209,34.7882135 88.7746909,34.7882135 87.9936424,34.0071649 C87.2125938,33.2261163 87.2125938,31.9629465 87.9936424,31.1787378 L93.9936424,25.1787378 C94.8444271,24.327953 96.1030204,24.4585595 96.8307239,25.1817356 L102.817829,31.1787378 C103.576088,31.9424423 103.617284,33.2081417 102.817829,34.0071649 C102.018374,34.8061881 100.781542,34.7730625 99.987873,34.0071649 L97.4078559,31.4213785 L97.4078559,42.5929513 C97.4078559,43.6975208 96.5124254,44.5929513 95.4078559,44.5929513 C94.3032864,44.5929513 93.4078559,43.6975208 93.4078559,42.5929513 L93.4078559,31.4213785 L90.8220695,34.0071649 Z" id="Path" fill="#FFFFFF" fill-rule="nonzero" transform="translate(95.404965, 34.590947) rotate(45.000000) translate(-95.404965, -34.590947) "></path>
                        <path d="M29.8524868,94.9767476 C29.0714382,95.7577962 27.8051083,95.7577962 27.0240597,94.9767476 C26.2430111,94.195699 26.2430111,92.9325292 27.0240597,92.1483205 L33.0240597,86.1483205 C33.8748444,85.2975357 35.1334377,85.4281422 35.8611412,86.1513183 L41.8482464,92.1483205 C42.6065053,92.912025 42.6477015,94.1777244 41.8482464,94.9767476 C41.0487913,95.7757708 39.8119592,95.7426452 39.0182903,94.9767476 L36.4382732,92.3909612 L36.4382732,103.562534 C36.4382732,104.667104 35.5428427,105.562534 34.4382732,105.562534 C33.3337037,105.562534 32.4382732,104.667104 32.4382732,103.562534 L32.4382732,92.3909612 L29.8524868,94.9767476 Z" id="Path" fill="#FFFFFF" fill-rule="nonzero" transform="translate(34.435382, 95.560529) scale(1, -1) rotate(-45.000000) translate(-34.435382, -95.560529) "></path>
                        <path d="M30.0080511,34.0112534 C29.2270026,34.792302 27.9606726,34.792302 27.179624,34.0112534 C26.3985754,33.2302048 26.3985754,31.9670349 27.179624,31.1828263 L33.179624,25.1828263 C34.0304088,24.3320415 35.289002,24.4626479 36.0167056,25.1858241 L42.0038107,31.1828263 C42.7620697,31.9465308 42.8032658,33.2122302 42.0038107,34.0112534 C41.2043556,34.8102766 39.9675236,34.777151 39.1738547,34.0112534 L36.5938376,31.425467 L36.5938376,42.5970398 C36.5938376,43.7016093 35.6984071,44.5970398 34.5938376,44.5970398 C33.4892681,44.5970398 32.5938376,43.7016093 32.5938376,42.5970398 L32.5938376,31.425467 L30.0080511,34.0112534 Z" id="Path" fill="#FFFFFF" fill-rule="nonzero" transform="translate(34.590947, 34.595035) rotate(-45.000000) translate(-34.590947, -34.595035) "></path>
                        <path d="M90.9776338,94.9808361 C90.1965853,95.7618847 88.9302553,95.7618847 88.1492067,94.9808361 C87.3681581,94.1997875 87.3681581,92.9366176 88.1492067,92.152409 L94.1492067,86.152409 C94.9999915,85.3016242 96.2585847,85.4322306 96.9862883,86.1554067 L102.973393,92.152409 C103.731652,92.9161135 103.772849,94.1818129 102.973393,94.9808361 C102.173938,95.7798593 100.937106,95.7467337 100.143437,94.9808361 L97.5634203,92.3950496 L97.5634203,103.566623 C97.5634203,104.671192 96.6679898,105.566623 95.5634203,105.566623 C94.4588508,105.566623 93.5634203,104.671192 93.5634203,103.566623 L93.5634203,92.3950496 L90.9776338,94.9808361 Z" id="Path" fill="#FFFFFF" fill-rule="nonzero" transform="translate(95.560529, 95.564618) scale(1, -1) rotate(45.000000) translate(-95.560529, -95.564618) "></path>
                        <path d="M103.419109,64.4133273 C102.638061,65.1943759 101.371731,65.1943759 100.590682,64.4133273 C99.8096336,63.6322787 99.8096336,62.3691089 100.590682,61.5849002 L106.590682,55.5849002 C107.441467,54.7341154 108.70006,54.8647219 109.427764,55.587898 L115.414869,61.5849002 C116.173128,62.3486047 116.214324,63.6143041 115.414869,64.4133273 C114.615414,65.2123505 113.378582,65.1792249 112.584913,64.4133273 L110.004896,61.8275409 L110.004896,72.9991138 C110.004896,74.1036833 109.109465,74.9991138 108.004896,74.9991138 C106.900326,74.9991138 106.004896,74.1036833 106.004896,72.9991138 L106.004896,61.8275409 L103.419109,64.4133273 Z" id="Path" fill="#FFFFFF" fill-rule="nonzero" transform="translate(108.002005, 64.997109) rotate(90.000000) translate(-108.002005, -64.997109) "></path>
                        <path d="M17.1950986,64.4133273 C16.41405,65.1943759 15.14772,65.1943759 14.3666715,64.4133273 C13.5856229,63.6322787 13.5856229,62.3691089 14.3666715,61.5849002 L20.3666715,55.5849002 C21.2174562,54.7341154 22.4760495,54.8647219 23.203753,55.587898 L29.1908582,61.5849002 C29.9491171,62.3486047 29.9903133,63.6143041 29.1908582,64.4133273 C28.391403,65.2123505 27.154571,65.1792249 26.3609021,64.4133273 L23.780885,61.8275409 L23.780885,72.9991138 C23.780885,74.1036833 22.8854545,74.9991138 21.780885,74.9991138 C20.6763155,74.9991138 19.780885,74.1036833 19.780885,72.9991138 L19.780885,61.8275409 L17.1950986,64.4133273 Z" id="Path" fill="#FFFFFF" fill-rule="nonzero" transform="translate(21.777994, 64.997109) scale(1, -1) rotate(-90.000000) translate(-21.777994, -64.997109) "></path>
                        <rect id="Rectangle" fill="#D8D8D8" opacity="0" x="0" y="0" width="130" height="130"></rect>
                    </g>
                </g>
            </g>
        </g>
    </g>
</svg>