<?xml version="1.0" encoding="UTF-8"?>
<svg width="130px" height="130px" viewBox="0 0 130 130" version="1.1" xmlns="http://www.w3.org/2000/svg" xmlns:xlink="http://www.w3.org/1999/xlink">
    <!-- Generator: Sketch 49.3 (51167) - http://www.bohemiancoding.com/sketch -->
    <title>work</title>
    <desc>Created with Sketch.</desc>
    <defs></defs>
    <g id="Треки" stroke="none" stroke-width="1" fill="none" fill-rule="evenodd">
        <g id="Треки-–-профессии" transform="translate(-628.000000, -176.000000)">
            <g id="как-построить" transform="translate(304.000000, 104.000000)">
                <g id="2" transform="translate(264.000000, 48.000000)">
                    <g id="work" transform="translate(60.000000, 24.000000)">
                        <path d="M119.830025,112.527449 C121.942568,110.217483 123.244299,107.153716 123.244299,103.785895 C123.244299,97.3701435 118.558911,92.0428632 112.433488,91.0071789 L112.433488,73.5156249 C112.433488,72.9402449 112.206503,72.3912584 111.800042,71.9869086 L103.094384,63.28125 C103.488176,62.5337838 103.905194,61.7979308 104.251478,61.0325168 C104.634713,60.1900338 104.435177,59.1955238 103.758446,58.5641892 L99.7307854,54.7888514 C100.174198,53.4480573 100.539485,52.0819257 100.824535,50.6978462 L106.232052,49.4351773 C107.133657,49.2250843 107.801943,48.4638935 107.892736,47.5432854 C108.035262,46.0842484 108.109164,44.6389357 108.109164,43.2453546 C108.109164,41.8507178 108.035262,40.4064611 107.890625,38.9463681 C107.799831,38.02576 107.131546,37.2645692 106.229941,37.0544762 L100.822424,35.7918076 C100.537373,34.4077281 100.172086,33.0437078 99.7286741,31.7008024 L103.756335,27.9254646 C104.430954,27.29413 104.63049,26.29962 104.249366,25.4571368 C103.073269,22.8600084 101.624789,20.3557854 99.9398227,18.0194257 C99.3992822,17.2666808 98.4480573,16.9404562 97.5548986,17.2128378 L92.3141892,18.8059543 C91.3692989,17.7459881 90.3642314,16.7366976 89.3000422,15.7918076 L90.8963259,10.5510978 C91.1644849,9.66638514 90.8414273,8.70671459 90.0897381,8.16617405 C87.7544341,6.48331919 85.2502111,5.03272811 82.6499157,3.85663 C81.8063768,3.48078541 80.8139781,3.67293081 80.1805322,4.34966216 L76.4051943,8.38048973 C75.0665119,7.93707784 73.6982686,7.56967892 72.3141892,7.2835727 L71.0515203,1.87605568 C70.8414273,0.974451081 70.0812922,0.306165405 69.1596284,0.215371622 C66.2404984,-0.0717905405 63.4797297,-0.0717905405 60.5605997,0.215371622 C59.6399916,0.306165405 58.8788005,0.974451081 58.6687078,1.87605568 L57.4060389,7.2835727 C56.0219595,7.56967892 54.6579392,7.93496622 53.3150338,8.3773227 L49.5407516,4.34966216 C48.90625,3.67504216 47.91913,3.48289703 47.0713681,3.85663 C44.47424,5.03272811 41.9700168,6.48120784 39.633657,8.16617405 C38.8809122,8.70671459 38.5589105,9.66427351 38.8270692,10.5510978 L40.4201859,15.7918076 C39.3591638,16.7388092 38.3488176,17.7438768 37.4060389,18.803843 L32.1737754,17.2107265 C31.2932854,16.9404562 30.3293919,17.2666808 29.7888514,18.0162584 C28.1070524,20.3515624 26.6564611,22.8557854 25.4793076,25.4571368 C25.0971284,26.29962 25.2956081,27.29413 25.9723395,27.9254646 L30.0031673,31.7008024 C29.5597551,33.0394849 29.1923565,34.4077281 28.90625,35.7918076 L23.498733,37.0544762 C22.5971284,37.2645692 21.9298986,38.02576 21.8391049,38.9463681 C21.6955238,40.4064611 21.6226773,41.8507178 21.6226773,43.2453546 C21.6226773,44.6389357 21.6955238,46.0842484 21.8412162,47.5432854 C21.9320103,48.4638935 22.59924,49.2250843 23.5008446,49.4351773 L28.9094173,50.6978462 C29.1944678,52.0819257 29.5597551,53.4459459 30.0031673,54.7888514 L25.9744511,58.5641892 C25.2998311,59.1955238 25.1013514,60.1900338 25.4814189,61.0325168 C25.8277027,61.7979308 26.2447214,62.5358951 26.6385135,63.28125 L17.9339105,71.9869086 C17.5253378,72.3912584 17.298353,72.9402449 17.298353,73.5156249 L17.298353,91.0071789 C11.1729308,92.0428632 6.48754216,97.3701435 6.48754216,103.785895 C6.48754216,107.153716 7.78927351,110.217483 9.90181595,112.527449 C4.37288865,113.000422 0.00105574324,117.601351 0.00105574324,123.253801 L0.00105574324,127.569679 C0.00105574324,128.764781 0.967060811,129.731841 2.16321784,129.731841 L36.7578124,129.731841 C37.9529138,129.731841 38.9199746,128.764781 38.9199746,127.569679 L38.9199746,123.253801 C38.9199746,117.603463 34.5481419,113.002534 29.0192146,112.527449 C31.1317568,110.217483 32.4334881,107.153716 32.4334881,103.785895 C32.4334881,97.3701435 27.7480997,92.0428632 21.6226773,91.0071789 L21.6226773,74.4098395 L28.9136403,67.1199324 C29.2113597,67.5665119 29.4752957,68.0363176 29.7888514,68.4712838 C30.3293919,69.2208616 31.2806165,69.5470862 32.1737754,69.2768159 L37.4144849,67.6836995 C38.3593751,68.7436654 39.3654984,69.7529562 40.4286319,70.6978462 L38.8334038,75.9385557 C38.5652449,76.8232686 38.8872465,77.7829392 39.6399916,78.3234797 C41.9752957,80.0063346 44.4784627,81.4569257 47.0798141,82.6330238 C47.9275759,83.0109797 48.9157516,82.8188346 49.5491976,82.1399916 L53.3245354,78.1102195 C54.6621622,78.5525759 56.0314611,78.9210303 57.4144849,79.2060811 L58.6771538,84.6135978 C58.8872465,85.5152027 59.6484376,86.1834881 60.5690457,86.2742822 C61.2932854,86.3450168 61.9921876,86.3450168 62.70587,86.3819678 L62.70587,91.0114022 C56.5804476,92.0449746 51.8950592,97.3722551 51.8950592,103.790118 C51.8950592,107.157939 53.1967905,110.221706 55.3093327,112.531672 C49.7782941,113.000422 45.4064611,117.601351 45.4064611,123.253801 L45.4064611,127.569679 C45.4064611,128.764781 46.3724662,129.731841 47.5686232,129.731841 L82.1632178,129.731841 C83.3583192,129.731841 84.32538,128.764781 84.32538,127.569679 L84.32538,123.253801 C84.32538,117.603463 79.9535473,113.002534 74.42462,112.527449 C76.5371622,110.217483 77.8388935,107.153716 77.8388935,103.785895 C77.8388935,97.3701435 73.1535051,92.0428632 67.0280827,91.0071789 L67.0280827,86.3777449 C67.7417651,86.3407941 68.4396114,86.3407941 69.1638514,86.2700592 C70.0855151,86.1792651 70.8467059,85.5109797 71.0557432,84.6093751 L72.3184122,79.2018581 C73.7024916,78.9157516 75.0665119,78.5504646 76.4094173,78.1070524 L80.1847551,82.1357686 C80.8182011,82.8125 81.8105997,83.0046454 82.6541384,82.6288005 C85.2502111,81.4527027 87.7544341,80.004223 90.0918497,78.3192568 C90.8435389,77.7787162 91.1665962,76.821157 90.8984376,75.9343327 L89.3042651,70.6936232 C90.3642314,69.748733 91.3735219,68.7436654 92.3184122,67.6794762 L97.5601773,69.2747043 C98.441723,69.5428632 99.4045608,69.21875 99.9451014,68.4691724 C100.257601,68.0320946 100.523649,67.5622889 100.820312,67.1146538 L108.109164,74.4098395 L108.109164,91.0071789 C101.983742,92.0407516 97.298353,97.3680322 97.298353,103.785895 C97.298353,107.153716 98.6000843,110.217483 100.712627,112.527449 C95.1836995,113.000422 90.8118665,117.601351 90.8118665,123.253801 L90.8118665,127.569679 C90.8118665,128.764781 91.7778716,129.731841 92.9740286,129.731841 L127.568623,129.731841 C128.763725,129.731841 129.730785,128.764781 129.730785,127.569679 L129.730785,123.253801 C129.730785,117.601351 125.358953,113.000422 119.830025,112.527449 Z M34.5956503,123.253801 L34.5956503,125.407517 L4.32538,125.407517 L4.32538,123.253801 C4.32538,119.672719 7.23923135,116.758868 10.8203124,116.758868 L28.1007178,116.758868 C31.6807432,116.758868 34.5956503,119.672719 34.5956503,123.253801 Z M28.1091638,103.785895 C28.1091638,108.554688 24.2303632,112.434544 19.4605151,112.434544 C14.6906673,112.434544 10.8118665,108.554688 10.8118665,103.785895 C10.8118665,99.0160473 14.6906673,95.1372465 19.4605151,95.1372465 C24.2303632,95.1372465 28.1091638,99.0160473 28.1091638,103.785895 Z M80.0010557,123.253801 L80.0010557,125.407517 L49.7307854,125.407517 L49.7307854,123.253801 C49.7307854,119.672719 52.6446368,116.758868 56.2257178,116.758868 L73.5061232,116.758868 C77.0861486,116.758868 80.0010557,119.672719 80.0010557,123.253801 Z M73.5145692,103.785895 C73.5145692,108.554688 69.6357686,112.434544 64.8659205,112.434544 C60.0960727,112.434544 56.2172719,108.554688 56.2172719,103.785895 C56.2172719,99.0160473 60.0960727,95.1372465 64.8659205,95.1372465 C69.6357686,95.1372465 73.5145692,99.0160473 73.5145692,103.785895 Z M97.3067989,64.6822214 L92.2233951,63.1345016 C91.3840795,62.8747889 90.4782516,63.1566724 89.9250422,63.8281249 C88.5863597,65.4592484 87.0819257,66.9636824 85.4518581,68.3023649 C84.7772381,68.8576859 84.5048565,69.7656249 84.7571789,70.6007178 L86.303843,75.6841216 C85,76.5466638 83.6465373,77.3310811 82.2603462,78.0278716 L78.6021959,74.1205659 C78.0046454,73.4807854 77.0777027,73.2643581 76.2647805,73.5736908 C74.3010978,74.3105997 72.2561232,74.8574746 70.1868665,75.1995354 C69.3243243,75.3399492 68.6296454,75.9881757 68.4311654,76.8401605 L67.2075592,82.08826 C65.620777,82.1853886 64.115287,82.1853886 62.5285051,82.08826 L61.3048986,76.8401605 C61.1053632,75.9881757 60.4138514,75.3420608 59.5491976,75.1995354 C57.4778295,74.8574746 55.4339105,74.3105997 53.4733951,73.5736908 C52.652027,73.2580238 51.7282516,73.4786741 51.1338681,74.1184543 L47.4736065,78.02576 C46.0853041,77.3310811 44.7318411,76.5445524 43.4301097,75.6841216 L44.9778295,70.6007178 C45.2312078,69.7635135 44.9567146,68.8555743 44.2842059,68.3023649 C42.6541384,66.9636824 41.1486486,65.4592484 39.8110219,63.8281249 C39.2546454,63.1545608 38.3488176,62.8769003 37.5126689,63.1345016 L32.4292651,64.6801097 C31.566723,63.376267 30.78125,62.0228041 30.0855151,60.6376689 L33.9917651,56.9784627 C34.6304897,56.3819678 34.8458616,55.4613597 34.5396959,54.642103 C33.8017314,52.6784205 33.2548565,50.6334459 32.9127957,48.5641892 C32.7723816,47.7005914 32.1241554,47.0069678 31.2721705,46.8084881 L26.0240708,45.5838259 C25.9723395,44.7909627 25.9470016,44.0107686 25.9470016,43.2453546 C25.9470016,42.4799408 25.9723395,41.6986908 26.0198481,40.9058276 L31.2679476,39.6811654 C32.1199324,39.4826859 32.7660473,38.7911741 32.9085727,37.9254646 C33.2506335,35.8540962 33.7975084,33.811233 34.5344173,31.8507178 C34.84375,31.0304054 34.6273227,30.1076859 33.9896538,29.5111908 L30.0834038,25.8498732 C30.777027,24.4626268 31.5635557,23.1091638 32.4250422,21.8074324 L37.5073903,23.3551519 C38.3445946,23.6106419 39.2525338,23.3340373 39.8057432,22.6594173 C41.1402027,21.0346284 42.6446368,19.5301943 44.2799832,18.1872889 C44.954603,17.6319678 45.2269849,16.7240286 44.9736065,15.8889357 L43.4279984,10.8055322 C44.7318411,9.94298973 46.0853041,9.1585727 47.4714949,8.46178216 L51.1296454,12.3690878 C51.7240286,13.0067568 52.6499157,13.2210727 53.4670608,12.9159627 C55.4296876,12.1790541 57.4757178,11.6321789 59.5449746,11.2901184 C60.4075168,11.1497043 61.1011403,10.5014781 61.3006757,9.64949324 L62.5242822,4.40139351 C64.1110643,4.30426514 65.6154984,4.30426514 67.2033362,4.40139351 L68.4269427,9.64949324 C68.6254222,10.5014781 69.3179897,11.147593 70.1826435,11.2901184 C72.2540119,11.6321789 74.2968751,12.1790541 76.2584459,12.9159627 C77.0777027,13.227407 78.0004222,13.0109797 78.597973,12.3711995 L82.2582349,8.46389351 C83.6465373,9.1585727 85,9.94510135 86.3017314,10.8055322 L84.7529562,15.8889357 C84.5006335,16.7261403 84.7751268,17.6340795 85.4476351,18.1872889 C87.0777027,19.5259714 88.5821368,21.0304054 89.9208192,22.6615286 C90.4761403,23.3361486 91.3840795,23.6127535 92.2191724,23.3551519 L97.3025759,21.8095438 C98.1651184,23.1133868 98.9495354,24.4668497 99.6463259,25.8519849 L95.7390203,29.5111908 C95.1013514,30.1076859 94.8849241,31.0282941 95.1921454,31.8486065 C95.9290541,33.811233 96.4769849,35.8572635 96.8179897,37.9254646 C96.9584038,38.7890624 97.6076859,39.4826859 98.4596705,39.6811654 L103.706715,40.9058276 C103.758446,41.6986908 103.784839,42.4799408 103.784839,43.2453546 C103.784839,44.0107686 103.758446,44.7909627 103.710938,45.5838259 L98.4638935,46.8084881 C97.6119086,47.0069678 96.9647381,47.6984797 96.822213,48.5641892 C96.4812078,50.6334459 95.933277,52.6763092 95.1963681,54.642103 C94.889147,55.4613597 95.1055743,56.3819678 95.7432432,56.9784627 L99.6505489,60.6376689 C98.9548141,62.0280827 98.1672297,63.3794341 97.3067989,64.6822214 Z M110.271326,95.1372465 C115.041174,95.1372465 118.919975,99.0160473 118.919975,103.785895 C118.919975,108.554688 115.041174,112.434544 110.271326,112.434544 C105.501478,112.434544 101.622677,108.554688 101.622677,103.785895 C101.622677,99.0160473 105.501478,95.1372465 110.271326,95.1372465 Z M125.406461,125.407517 L95.1361908,125.407517 L95.1361908,123.253801 C95.1361908,119.672719 98.0500422,116.758868 101.631123,116.758868 L118.911529,116.758868 C122.491554,116.758868 125.406461,119.672719 125.406461,123.253801 L125.406461,125.407517 Z" id="Shape" fill="#FFFFFF" fill-rule="nonzero"></path>
                        <path d="M64.8659205,15.1372465 C49.3676097,15.1372465 36.7578124,27.7459881 36.7578124,43.2453546 C36.7578124,58.7436654 49.3676097,71.3534627 64.8659205,71.3534627 C80.3642314,71.3534627 92.9740286,58.7436654 92.9740286,43.2453546 C92.9740286,27.7459881 80.3642314,15.1372465 64.8659205,15.1372465 Z M49.8363597,61.6575168 C50.3790119,56.20038 54.9630489,51.8940032 60.5415962,51.8940032 L69.1902449,51.8940032 C74.7687922,51.8940032 79.3517735,56.20038 79.8944257,61.6575168 C75.7949746,65.0116132 70.5627111,67.0291384 64.8659205,67.0291384 C59.1680743,67.0291384 53.9358108,65.0116132 49.8363597,61.6575168 Z M64.8659205,47.5696789 C60.0960727,47.5696789 56.2172719,43.6898227 56.2172719,38.9210303 C56.2172719,34.1511824 60.0960727,30.2723816 64.8659205,30.2723816 C69.6357686,30.2723816 73.5145692,34.1511824 73.5145692,38.9210303 C73.5145692,43.6898227 69.6357686,47.5696789 64.8659205,47.5696789 Z M83.5377957,57.9307432 C82.0090795,53.376267 78.3730997,49.7772381 73.803843,48.3023649 C76.2837838,45.9364443 77.8388935,42.6087416 77.8388935,38.9210303 C77.8388935,31.7662584 72.0206924,25.9480573 64.8659205,25.9480573 C57.7111486,25.9480573 51.8929476,31.7662584 51.8929476,38.9210303 C51.8929476,42.6087416 53.4470016,45.9364443 55.9290541,48.3002535 C51.360853,49.7740708 47.7238176,53.3741554 46.1951014,57.9286319 C43.0035895,53.8809122 41.0821368,48.7869511 41.0821368,43.2453546 C41.0821368,30.1309122 51.7525338,19.4615708 64.8659205,19.4615708 C77.9793076,19.4615708 88.6497043,30.1309122 88.6497043,43.2453546 C88.6497043,48.7869511 86.7271959,53.8809122 83.5377957,57.9307432 Z" id="Shape" fill="#FFFFFF" fill-rule="nonzero"></path>
                        <polygon id="Shape" fill="#FFFFFF" fill-rule="nonzero" points="116.757812 41.0831924 121.082137 41.0831924 121.082137 45.4075168 116.757812 45.4075168"></polygon>
                        <polygon id="Shape" fill="#FFFFFF" fill-rule="nonzero" points="125.406461 41.0831924 129.730785 41.0831924 129.730785 45.4075168 125.406461 45.4075168"></polygon>
                        <polygon id="Shape" fill="#FFFFFF" fill-rule="nonzero" points="125.406461 49.7318411 129.730785 49.7318411 129.730785 54.0561654 125.406461 54.0561654"></polygon>
                        <polygon id="Shape" fill="#FFFFFF" fill-rule="nonzero" points="125.406461 32.4345438 129.730785 32.4345438 129.730785 36.7588681 125.406461 36.7588681"></polygon>
                        <polygon id="Shape" fill="#FFFFFF" fill-rule="nonzero" points="0.00105574324 41.0831924 4.32538 41.0831924 4.32538 45.4075168 0.00105574324 45.4075168"></polygon>
                        <polygon id="Shape" fill="#FFFFFF" fill-rule="nonzero" points="0.00105574324 49.7318411 4.32538 49.7318411 4.32538 54.0561654 0.00105574324 54.0561654"></polygon>
                        <polygon id="Shape" fill="#FFFFFF" fill-rule="nonzero" points="0.00105574324 32.4345438 4.32538 32.4345438 4.32538 36.7588681 0.00105574324 36.7588681"></polygon>
                        <polygon id="Shape" fill="#FFFFFF" fill-rule="nonzero" points="8.64970432 41.0831924 12.9740286 41.0831924 12.9740286 45.4075168 8.64970432 45.4075168"></polygon>
                        <rect id="Rectangle" fill="#D8D8D8" opacity="0" x="0" y="0" width="130" height="130"></rect>
                    </g>
                </g>
            </g>
        </g>
    </g>
</svg>