<?xml version="1.0" encoding="utf-8"?>
<!-- Generator: Adobe Illustrator 18.1.1, SVG Export Plug-In . SVG Version: 6.00 Build 0)  -->
<svg version="1.1" id="Слой_1" xmlns="http://www.w3.org/2000/svg" xmlns:xlink="http://www.w3.org/1999/xlink" x="0px" y="0px"
	 viewBox="0 0 100 100" enable-background="new 0 0 100 100" xml:space="preserve">
<circle fill="#7563C7" cx="50.3" cy="50.5" r="40"/>
<circle opacity="0.16" cx="50.3" cy="50.5" r="36.7"/>
<g>
	<g>
		<g>
			<path fill="#FFC500" d="M62.8,56c-1.4,0-2.7-0.5-3.8-1.5c-0.2-0.2-0.3-0.5-0.3-0.7c0-0.3,0.2-0.5,0.5-0.6
				c1.1-0.5,1.8-1.6,1.8-2.7c0-1.2-0.7-2.3-1.8-2.7c-0.3-0.1-0.4-0.3-0.5-0.6c0-0.3,0.1-0.5,0.3-0.7c1-0.9,2.4-1.5,3.8-1.5
				c3.1,0,5.6,2.5,5.6,5.6C68.4,53.5,65.9,56,62.8,56z"/>
		</g>
		<g>
			<path fill="#FFC500" d="M44.4,55.3c-2.7,0-4.9-2.2-4.9-4.9s2.2-4.9,4.9-4.9s4.9,2.2,4.9,4.9S47.1,55.3,44.4,55.3z"/>
		</g>
		<g>
			<g>
				<g>
					<path fill="#FFC500" d="M44.4,44.2c-0.4,0-0.7-0.3-0.7-0.7V39c0-0.4,0.3-0.7,0.7-0.7c0.4,0,0.7,0.3,0.7,0.7v4.4
						C45.1,43.8,44.8,44.2,44.4,44.2z"/>
				</g>
				<g>
					<path fill="#FFC500" d="M44.4,62.6c-0.4,0-0.7-0.3-0.7-0.7v-4.4c0-0.4,0.3-0.7,0.7-0.7c0.4,0,0.7,0.3,0.7,0.7v4.4
						C45.1,62.3,44.8,62.6,44.4,62.6z"/>
				</g>
			</g>
			<g>
				<g>
					<path fill="#FFC500" d="M37.4,51.2h-4.4c-0.4,0-0.7-0.3-0.7-0.7s0.3-0.7,0.7-0.7h4.4c0.4,0,0.7,0.3,0.7,0.7
						S37.8,51.2,37.4,51.2z"/>
				</g>
				<g>
					<path fill="#FFC500" d="M55.8,51.2h-4.4c-0.4,0-0.7-0.3-0.7-0.7s0.3-0.7,0.7-0.7h4.4c0.4,0,0.7,0.3,0.7,0.7
						S56.2,51.2,55.8,51.2z"/>
				</g>
			</g>
			<g>
				<g>
					<path fill="#FFC500" d="M39.4,46.2c-0.2,0-0.4-0.1-0.5-0.2l-3.1-3.1c-0.3-0.3-0.3-0.7,0-1c0.3-0.3,0.7-0.3,1,0l3.1,3.1
						c0.3,0.3,0.3,0.7,0,1C39.8,46.1,39.6,46.2,39.4,46.2z"/>
				</g>
				<g>
					<path fill="#FFC500" d="M52.5,59.3c-0.2,0-0.4-0.1-0.5-0.2l-3.1-3.1c-0.3-0.3-0.3-0.7,0-1s0.7-0.3,1,0L53,58
						c0.3,0.3,0.3,0.7,0,1C52.8,59.2,52.6,59.3,52.5,59.3z"/>
				</g>
			</g>
			<g>
				<g>
					<path fill="#FFC500" d="M36.3,59.3c-0.2,0-0.4-0.1-0.5-0.2c-0.3-0.3-0.3-0.7,0-1l3.1-3.1c0.3-0.3,0.7-0.3,1,0s0.3,0.7,0,1
						L36.8,59C36.6,59.2,36.5,59.3,36.3,59.3z"/>
				</g>
				<g>
					<path fill="#FFC500" d="M49.3,46.2c-0.2,0-0.4-0.1-0.5-0.2c-0.3-0.3-0.3-0.7,0-1l3.1-3.1c0.3-0.3,0.7-0.3,1,0
						c0.3,0.3,0.3,0.7,0,1L49.8,46C49.7,46.1,49.5,46.2,49.3,46.2z"/>
				</g>
			</g>
		</g>
	</g>
	<path fill="#FFC500" d="M50.3,23.3c-14.9,0-27.1,12.2-27.1,27.1c0,14.9,12.2,27.1,27.1,27.1s27.1-12.2,27.1-27.1
		C77.4,35.5,65.3,23.3,50.3,23.3L50.3,23.3z M50.3,72.9c-12.4,0-22.4-10.1-22.4-22.4C27.9,38.1,38,28,50.3,28
		c12.4,0,22.4,10.1,22.4,22.4C72.7,62.8,62.7,72.9,50.3,72.9L50.3,72.9z M50.3,72.9"/>
</g>
<g>
	
		<image overflow="visible" width="526" height="526" xlink:href="4403DFD6.png"  transform="matrix(0.24 0 0 0.24 -12.791 -12.6508)">
	</image>
</g>
</svg>
