<?xml version="1.0" encoding="utf-8"?>
<!-- Generator: Adobe Illustrator 18.1.1, SVG Export Plug-In . SVG Version: 6.00 Build 0)  -->
<svg version="1.1" id="Слой_1" xmlns="http://www.w3.org/2000/svg" xmlns:xlink="http://www.w3.org/1999/xlink" x="0px" y="0px"
	 viewBox="0 0 100 100" enable-background="new 0 0 100 100" xml:space="preserve">
<circle fill="#7563C7" cx="50.6" cy="49.6" r="40"/>
<circle opacity="0.16" cx="50.6" cy="49.6" r="36.7"/>
<g>
	<path fill="#00CD6A" d="M47.5,40.4H36.6v-6c0-0.7-0.4-1.3-1.1-1.6c-0.6-0.3-1.4-0.1-1.9,0.4L18.6,48.3c-0.3,0.3-0.5,0.8-0.5,1.2
		c0,0.5,0.2,0.9,0.5,1.2l15.1,15.1c0.3,0.3,0.8,0.5,1.2,0.5c0.2,0,0.4,0,0.7-0.1c0.6-0.3,1.1-0.9,1.1-1.6v-6h10.9
		c0.9,0,1.7-0.8,1.7-1.7V42.1C49.2,41.1,48.5,40.4,47.5,40.4L47.5,40.4z M45.8,55.3H34.9c-0.9,0-1.7,0.8-1.7,1.7v3.5l-11-11l11-11
		v3.5c0,0.9,0.8,1.7,1.7,1.7h10.9V55.3z M45.8,55.3"/>
	<path fill="#00CD6A" d="M82.7,48.3L67.6,33.2c-0.5-0.5-1.2-0.6-1.9-0.4c-0.6,0.3-1.1,0.9-1.1,1.6v6H53.8c-0.9,0-1.7,0.8-1.7,1.7V57
		c0,0.9,0.8,1.7,1.7,1.7h10.9v6c0,0.7,0.4,1.3,1.1,1.6c0.2,0.1,0.4,0.1,0.7,0.1c0.4,0,0.9-0.2,1.2-0.5l15.1-15.1
		c0.3-0.3,0.5-0.8,0.5-1.2C83.2,49.1,83.1,48.7,82.7,48.3L82.7,48.3z M68.1,60.6V57c0-0.9-0.8-1.7-1.7-1.7H55.5V43.8h10.9
		c0.9,0,1.7-0.8,1.7-1.7v-3.5l11,11L68.1,60.6z M68.1,60.6"/>
</g>
<g>
	
		<image overflow="visible" width="572" height="441" xlink:href="B2E847F7.png"  transform="matrix(0.24 0 0 0.24 -17.947 -3.2852)">
	</image>
</g>
</svg>
