<?xml version="1.0" encoding="utf-8"?>
<!-- Generator: Adobe Illustrator 18.1.1, SVG Export Plug-In . SVG Version: 6.00 Build 0)  -->
<svg version="1.1" id="Слой_1" xmlns="http://www.w3.org/2000/svg" xmlns:xlink="http://www.w3.org/1999/xlink" x="0px" y="0px"
	 viewBox="0 0 100 100" enable-background="new 0 0 100 100" xml:space="preserve">
<circle fill="#7563C7" cx="51.7" cy="49.5" r="40"/>
<circle opacity="0.16" cx="51.7" cy="49.5" r="36.7"/>
<g>
	<g>
		<g>
			<path fill="none" d="M46.8,45.3h-3.2c-0.3,0-0.5,0.2-0.5,0.5v10.7c0,0.3,0.2,0.5,0.5,0.5h3.2c0.3,0,0.5-0.2,0.5-0.5V45.8
				C47.4,45.5,47.1,45.3,46.8,45.3z"/>
			<path fill="#FF800B" d="M47.4,56.5c0,0.3-0.2,0.5-0.5,0.5h-3.2c-0.3,0-0.5-0.2-0.5-0.5V45.8c0-0.3,0.2-0.5,0.5-0.5h3.2
				c0.3,0,0.5,0.2,0.5,0.5V56.5z"/>
		</g>
		<g>
			<path fill="#FF800B" d="M48.2,56.1h9.7c0.4,0,0.7-0.3,0.7-0.7V55c0-0.4-0.3-0.7-0.7-0.7c-0.2,0-0.4-0.2-0.4-0.4s0.2-0.4,0.4-0.4
				h0.7c0.4,0,0.8-0.4,0.8-0.8v-0.2c0-0.4-0.4-0.8-0.8-0.8c-0.2,0-0.4-0.2-0.4-0.4c0-0.2,0.2-0.4,0.4-0.4H59c0.4,0,0.8-0.4,0.8-0.8
				v-0.2c0-0.4-0.4-0.8-0.8-0.8c-0.2,0-0.4-0.2-0.4-0.4c0-0.2,0.2-0.4,0.4-0.4h0.5c0.5,0,0.8-0.4,0.8-0.8V47c0-0.5-0.4-0.8-0.8-0.8
				h-6.7c-0.2,0-0.3-0.1-0.4-0.2c-0.1-0.1-0.1-0.3,0-0.4l0.5-0.9c0.3-0.6,0.6-1.3,0.8-2l0.1-0.5c0.2-0.6-0.1-1.3-0.7-1.6l-0.3-0.2
				c0,0-0.1,0-0.1,0c0,0-0.1,0-0.1,0.1c-1,2-2.3,3.7-4,5.2l-0.4,0.4V56.1z"/>
		</g>
	</g>
	<g>
		<g>
			<defs>
				<rect id="SVGID_1_" x="24" y="19.3" width="55.5" height="48.3"/>
			</defs>
			<clipPath id="SVGID_2_">
				<use xlink:href="#SVGID_1_"  overflow="visible"/>
			</clipPath>
			<path clip-path="url(#SVGID_2_)" fill="#FF800B" d="M78.9,64.6L53.3,20.2c-0.3-0.6-1-1-1.7-1c-0.7,0-1.3,0.4-1.7,1L24.2,64.7
				c-0.3,0.6-0.3,1.3,0,1.9c0.3,0.6,1,1,1.7,1h51.4c1.1,0,1.9-0.9,1.9-1.9C79.2,65.3,79.1,64.9,78.9,64.6L78.9,64.6z M29.3,63.7
				l22.3-38.6l22.3,38.6H29.3z M29.3,63.7"/>
		</g>
	</g>
</g>
<g>
	
		<image overflow="visible" width="661" height="660" xlink:href="43DB4D89.png"  transform="matrix(0.24 0 0 0.24 -28.8581 -29.4075)">
	</image>
</g>
</svg>
