<?xml version="1.0" encoding="utf-8"?>
<!-- Generator: Adobe Illustrator 18.1.1, SVG Export Plug-In . SVG Version: 6.00 Build 0)  -->
<svg version="1.1" id="Слой_1" xmlns="http://www.w3.org/2000/svg" xmlns:xlink="http://www.w3.org/1999/xlink" x="0px" y="0px"
	 viewBox="0 0 100 100" enable-background="new 0 0 100 100" xml:space="preserve">
<circle fill="#7563C7" cx="50.9" cy="49.8" r="40"/>
<circle opacity="0.16" cx="50.9" cy="49.8" r="36.7"/>
<g>
	<path fill="#00CD6A" d="M26.4,45.7l7-2.3l0.4-7.7c0-0.5,0.4-1,0.8-1.1l18.4-6.1c0.4-0.1,0.9,0,1.2,0.2l6.5,5.6l9-3
		c0.6-0.2,1.2,0.1,1.5,0.6l4.7,9.3c0.2,0.3,0.2,0.7,0,1c-0.1,0.3-0.4,0.6-0.8,0.7L71,44.4c-0.3,2.4-2,4.6-4.3,5.3
		c-2.4,0.8-5,0.1-6.7-1.7l-15.1,5c-0.3,2.4-2,4.6-4.3,5.3c-2.4,0.8-5,0.1-6.7-1.7l-3.5,1.2c-0.6,0.2-1.3-0.1-1.6-0.8l-3.3-9.8
		C25.4,46.6,25.8,45.9,26.4,45.7L26.4,45.7z M30.9,55.1l3.1-1c0.5-0.2,1.1,0,1.4,0.5c1,1.4,2.8,2,4.4,1.5c1.6-0.5,2.7-2.1,2.7-3.8
		c0-0.5,0.3-1,0.8-1.2L60,45.5c0.5-0.2,1.1,0,1.4,0.5c1,1.4,2.8,2,4.4,1.5c1.6-0.5,2.7-2.1,2.7-3.8c0-0.5,0.3-1,0.8-1.2l3.8-1.3
		L69.6,34l-8.6,2.9c-0.4,0.1-0.9,0-1.2-0.2L53.2,31l-17,5.6l-0.4,7.7c0,0.5-0.4,1-0.8,1.1l-6.6,2.2L30.9,55.1z M30.9,55.1"/>
	<g>
		<path fill="#00CD6A" d="M82.6,46.6L27.8,64.8c-0.5,0.2-1.1-0.1-1.3-0.7c-0.2-0.5,0.1-1.1,0.7-1.3l54.8-18.2
			c0.5-0.2,1.1,0.1,1.3,0.7C83.4,45.8,83.1,46.4,82.6,46.6z"/>
	</g>
	<g>
		<path fill="#00CD6A" d="M39.3,65.6l-15.1,5.2c-0.5,0.2-1.1-0.1-1.3-0.7c-0.2-0.5,0.1-1.1,0.7-1.3l15.1-5.2
			c0.5-0.2,1.1,0.1,1.3,0.7C40.2,64.8,39.9,65.4,39.3,65.6z"/>
	</g>
	<g>
		<path fill="#00CD6A" d="M26.8,59.5L19.6,62c-0.5,0.2-1.1-0.1-1.3-0.7s0.1-1.1,0.7-1.3l7.2-2.6c0.5-0.2,1.1,0.1,1.3,0.7
			S27.3,59.3,26.8,59.5z"/>
	</g>
</g>
<g>
	<image overflow="visible" width="572" height="477" xlink:href="4D669DA0.png"  transform="matrix(0.24 0 0 0.24 -17.77 -7.6021)">
	</image>
</g>
</svg>
