<?xml version="1.0" encoding="utf-8"?>
<!-- Generator: Adobe Illustrator 18.1.1, SVG Export Plug-In . SVG Version: 6.00 Build 0)  -->
<svg version="1.1" id="Слой_1" xmlns="http://www.w3.org/2000/svg" xmlns:xlink="http://www.w3.org/1999/xlink" x="0px" y="0px"
	 viewBox="0 0 100 100" enable-background="new 0 0 100 100" xml:space="preserve">
<circle fill="#7563C7" cx="50.2" cy="49.8" r="40"/>
<circle opacity="0.16" cx="50.2" cy="49.8" r="36.7"/>
<g>
	<g>
		<path fill="#00CD6A" d="M58.5,75.6c0.7,3.3-0.2,4.3-3.3,4.2c-0.5,0-1-0.4-1.4-0.7c-0.2-0.2-0.3-0.6-0.5-0.8
			c-0.9-1.3-0.5-3.6-3-3.6c-2.6-0.1-2.4,2.1-3,3.5c-0.7,1.4-1.4,1.8-3.1,1.5c-2.5-0.4-3-1.7-2.6-3.8c0.2-1.5,0.3-2.7-1.4-3.5
			c-1.7-0.8-2.4,0.3-3.3,1.2c-1.1,1.1-2,2.5-4.1,1.1c-2.2-1.4-1.9-2.8-1-4.7c0.5-0.9,0.6-2.4,0.2-3.3c-0.7-1.6-2.1-1.2-3.6-0.6
			c-3,1.3-3.6,0.9-4.9-1.9c-1.1-2.4,1.5-2.7,2.3-4c0.5-0.7,1-1.8,0.8-2.4c-0.3-0.8-1.3-1.4-2.1-2c-0.3-0.2-0.8-0.1-1.2-0.1
			c-2.4,0.2-3.3-0.9-3.3-3.3c0-2,1.2-2.2,2.5-2.7c1.2-0.4,2.8-0.1,3.1-2.2c0.3-2.2-1.2-2.6-2.6-3.3c-0.1,0-0.1-0.1-0.2-0.1
			c-1.7-0.7-1.9-1.8-1.5-3.5c0.6-2.2,1.9-2.4,3.7-2.1c1.4,0.3,2.8,0.9,3.8-1c1-1.9-0.3-2.7-1.2-3.8c-1.1-1.3-1.6-2.5-0.1-4.1
			c1.4-1.5,2.6-1.8,4.1-0.5c0.4,0.3,0.8,0.8,1.2,0.8c0.9,0.1,2.2,0.3,2.8-0.2c0.6-0.5,0.8-1.7,0.8-2.6c-0.1-1.6-1.6-3.2,0.7-4.5
			c2.6-1.4,3.1-1.3,4.7,1.2c0.7,1,1,2.4,2.9,2.1c2.1-0.3,2.1-1.7,2.3-3.2c0.2-2.1,0.9-3.3,3.4-3.1c1.6,0.1,2.4,0.6,2.6,2.2
			c0.1,0.7,0,1.4,0.4,1.9c0.5,0.8,1.2,1.8,2,1.9c0.8,0.1,1.9-0.5,2.5-1.1c1.2-1.2,1.4-3.7,4.2-2.4c2.1,0.9,2.7,2.1,1.9,4.2
			c-0.5,1.3-1,2.5,0.6,3.7c1.6,1.1,2.6,0.2,3.7-0.6c1.4-0.9,2.6-1.8,4.2,0c1.6,1.8,1.2,3.2-0.2,4.7c-1,1.1-1.8,2-0.8,3.6
			c1,1.6,2.1,1.2,3.4,0.9c2.1-0.5,3.6-0.1,4.2,2.4c0.3,1.4,0.1,2.4-1.3,3c-0.4,0.2-0.7,0.4-1.1,0.6c-1.3,0.5-2.2,1.1-2.1,2.8
			c0.2,1.7,1.3,1.8,2.5,2.2c1.3,0.5,3.1,0.2,3.1,2.4c0,3.1-0.3,3.5-3.4,3.7c-1.4,0.1-2.7,0-3.3,1.8c-0.7,2,0.8,2.4,1.7,3.3
			c2.2,1.9,2.4,3.6,0.1,5.4c-0.7,0.5-2.2,0.1-3.3-0.2c-1.3-0.3-2.3-1.1-3.5,0.2c-1.4,1.4-0.6,2.5,0.1,3.7c1.2,1.9,1,3.3-1.1,4.7
			c-2.1,1.4-3.1-0.1-4.1-1.3c-1.1-1.3-2.4-2-3.7-0.7C59.1,73.4,58.9,74.6,58.5,75.6z M50.3,70.3c11.4,0,20.3-9,20.3-20.3
			c0-11.2-9.2-20.4-20.3-20.4c-11.2,0-20.3,9.2-20.3,20.4C29.9,61.4,38.9,70.3,50.3,70.3z"/>
	</g>
	<path fill-rule="evenodd" clip-rule="evenodd" fill="#00CD6A" d="M55.9,52.2c-0.1-0.1-0.3-0.2-0.5-0.2c-0.2,0-0.4,0.1-0.5,0.2
		l-0.6,0.6c-1-1-1.8-1.8-2.6-2.6l2.9-2.9l1.2-1.2c1.7,0.7,3.7,0.3,5-1c1.2-1.2,1.6-2.9,1.2-4.5l-0.1-0.5l-3.1,3.1l-2.6-2.6l3.1-3.1
		l-0.4-0.1c-1.6-0.4-3.3,0-4.5,1.2c-1.3,1.3-1.7,3.3-1,5l-1.2,1.2v0v0l-2.9,2.9c-1.4-1.4-3.2-3.2-5.8-5.8c0,0,0,0,0,0l-1.2-2.1
		c0,0,0-0.1-0.1-0.1L40,38.2c-0.1-0.1-0.3-0.1-0.4,0l-0.9,0.9c-0.1,0.1-0.1,0.3,0,0.4l1.5,2.1c0,0,0.1,0.1,0.1,0.1l2.1,1.2
		c0,0,0,0,0,0c2.5,2.5,4.3,4.3,5.8,5.8l-2.9,2.9l0,0l0,0L44,52.8c-1.7-0.7-3.7-0.3-5,1c-1.2,1.2-1.6,2.9-1.2,4.5l0.1,0.5l3.1-3.1
		l2.6,2.6l-3.1,3.1l0.5,0.1c1.6,0.4,3.3,0,4.5-1.2c1.3-1.3,1.7-3.3,1-5l1.2-1.2l2.9-2.9c0.9,0.8,1.7,1.7,2.6,2.6l-0.6,0.6
		c-0.1,0.1-0.2,0.3-0.2,0.5c0,0.2,0.1,0.4,0.2,0.5l6.6,6.6c0.1,0.1,0.3,0.2,0.5,0.2c0.2,0,0.4-0.1,0.5-0.2l2.3-2.3
		c0.1-0.1,0.2-0.3,0.2-0.5c0-0.2-0.1-0.4-0.2-0.5L55.9,52.2z M59.3,60.6l-5.1-5.1l0.5-0.5l5.1,5.1L59.3,60.6z M60.5,59.3l-5.1-5.1
		l0.5-0.5l5.1,5.1L60.5,59.3z"/>
</g>
<g>
	
		<image overflow="visible" width="552" height="551" xlink:href="5734ADD2.png"  transform="matrix(0.24 0 0 0.24 -15.8902 -16.2855)">
	</image>
</g>
</svg>
