<?xml version="1.0" encoding="utf-8"?>
<!-- Generator: Adobe Illustrator 18.1.1, SVG Export Plug-In . SVG Version: 6.00 Build 0)  -->
<svg version="1.1" id="Слой_1" xmlns="http://www.w3.org/2000/svg" xmlns:xlink="http://www.w3.org/1999/xlink" x="0px" y="0px"
	 viewBox="0 0 100 100" enable-background="new 0 0 100 100" xml:space="preserve">
<circle fill="#7563C7" cx="50.2" cy="45.8" r="40"/>
<circle opacity="0.16" cx="50.2" cy="45.8" r="36.7"/>
<g>
	<path fill="#1289F4" d="M37.9,57.9c-3.4,0-6.8-0.5-8.5-1.5c-0.5-0.3-0.8-0.6-0.8-0.6c0.5-6.8,1.9-7.9,4.6-10.2l0.7-0.6
		c1.2,0.6,2.6,0.9,4,0.9c0.6,0,1.1-0.1,1.6-0.1v-3.2c-0.5,0.1-1,0.2-1.6,0.2c-3.5,0-6.4-2.9-6.4-6.4c0-3.5,2.9-6.4,6.4-6.4
		c3.5,0,6.4,2.9,6.4,6.4c0,0.5-0.1,0.9-0.2,1.4h3.2c0.1-0.5,0.1-0.9,0.1-1.4c0-5.3-4.3-9.5-9.5-9.5c-5.3,0-9.5,4.3-9.5,9.5
		c0,2.7,1.1,5.1,2.9,6.8l-0.1,0c-3.2,2.7-5.1,4.6-5.7,12.4c0,1,0.4,2.3,2.3,3.5C30,60.4,34.1,61,37.9,61L37.9,57.9z"/>
	<path fill="#1289F4" d="M56.4,37.8c-0.1-0.5-0.2-0.9-0.2-1.4c0-3.5,2.9-6.4,6.4-6.4c3.5,0,6.4,2.9,6.4,6.4c0,3.5-2.9,6.4-6.4,6.4
		c-0.5,0-1-0.1-1.5-0.2l0,3.2c0.5,0.1,1,0.1,1.5,0.1c1.4,0,2.8-0.3,4-0.9l0.7,0.6c2.7,2.3,4,3.4,4.6,10.1c0,0.2-0.2,0.5-0.8,0.8
		c-1.7,1-5.1,1.5-8.5,1.5l0,3.1c3.8,0,7.9-0.7,10.1-1.9c1.9-1.1,2.3-2.5,2.3-3.6c-0.6-7.7-2.4-9.6-5.7-12.3l-0.1-0.1
		c1.8-1.7,2.8-4.1,2.8-6.8c0-5.3-4.3-9.5-9.5-9.5c-5.3,0-9.5,4.3-9.5,9.5c0,0.5,0,1,0.1,1.4L56.4,37.8z"/>
	<path fill="#1289F4" d="M57,55.6L57,55.6c1.7-1.8,2.8-4.2,2.8-6.8c0-5.3-4.3-9.5-9.5-9.5c-5.3,0-9.5,4.3-9.5,9.5
		c0,2.7,1.1,5.1,2.9,6.8l-0.1,0c-3.2,2.7-5.1,4.6-5.7,12.4c0,1,0.4,2.3,2.3,3.5c2.3,1.3,6.2,2,10.1,2c3.9,0,7.8-0.7,10.1-2
		c1.9-1.1,2.3-2.5,2.3-3.6C62,60.2,60.2,58.3,57,55.6z M50.2,42.3c3.5,0,6.4,2.9,6.4,6.4c0,3.5-2.9,6.4-6.4,6.4
		c-3.5,0-6.4-2.9-6.4-6.4C43.8,45.2,46.7,42.3,50.2,42.3z M58.8,68.8c-1.5,0.9-4.3,1.4-7.3,1.5c0,0-0.8,0.1-2.5,0
		c-2.9-0.1-5.7-0.6-7.2-1.5c-0.5-0.3-0.8-0.6-0.8-0.6c0.5-6.8,1.9-7.9,4.6-10.2l0.7-0.6c0,0,3.8,1.7,8,0L55,58
		c2.7,2.3,4,3.4,4.6,10.1C59.5,68.2,59.3,68.5,58.8,68.8z"/>
</g>
<g>
	
		<image overflow="visible" width="507" height="495" xlink:href="F09132A1.png"  transform="matrix(0.24 0 0 0.24 -10.535 -9.1651)">
	</image>
</g>
</svg>
