<svg width="190" height="103.726" xmlns="http://www.w3.org/2000/svg"><defs><linearGradient x1="0%" y1="50%" x2="100%" y2="50%" id="a"><stop stop-color="#1588EE" offset="0%"/><stop stop-color="#7563C7" offset="100%"/></linearGradient></defs><g fill="none"><path d="M95 0c14.047 0 27.677 3.056 40.141 8.874a94.925 94.925 0 0115.073 8.81 95.46 95.46 0 0111.96 10.14C179.87 45.518 190 69.467 190 95c0 2.508-.097 5.005-.291 7.487l-.105 1.24-15.934-1.453A80.1 80.1 0 00174 95c0-21.245-8.414-41.138-23.14-55.863a79.46 79.46 0 00-9.955-8.44 78.925 78.925 0 00-12.532-7.324C118.018 18.538 106.697 16 95 16s-23.02 2.539-33.375 7.373A78.925 78.925 0 0049.093 30.7a79.46 79.46 0 00-9.956 8.44C24.413 53.866 16 73.757 16 95c0 2.033.077 4.056.229 6.066l.1 1.204-15.933 1.452A96.1 96.1 0 010 95c0-25.53 10.128-49.478 27.823-67.174a95.46 95.46 0 0111.96-10.14 94.925 94.925 0 0115.073-8.81C67.321 3.055 80.952 0 95 0z" fill="url(#a)"/><path d="M172 94a1 1 0 01.117 1.993L172 96h-4a1 1 0 01-.117-1.993L168 94h4zM22 94a1 1 0 01.117 1.993L22 96h-4a1 1 0 01-.117-1.993L18 94h4zm6.712-38.419l.104.053 3.464 2a1 1 0 01-.895 1.785l-.105-.053-3.464-2a1 1 0 01.896-1.785zM162.55 56a1 1 0 01-.268 1.302l-.098.064-3.464 2a1 1 0 01-1.098-1.668l.098-.064 3.464-2a1 1 0 011.366.366zM57.302 27.718l.064.098 2 3.464a1 1 0 01-1.668 1.098l-.064-.098-2-3.464a1 1 0 011.668-1.098zM134 27.45a1 1 0 01.419 1.262l-.053.104-2 3.464a1 1 0 01-1.785-.895l.053-.105 2-3.464A1 1 0 01134 27.45zM95 17a1 1 0 01.993.883L96 18v4a1 1 0 01-1.993.117L94 22v-4a1 1 0 011-1z" fill="#90A4AE"/></g></svg>