<svg width="252" height="126" xmlns="http://www.w3.org/2000/svg"><g fill="none" fill-rule="evenodd"><path fill="#000" opacity=".2" d="M16 125h16v1H16zm37.107-68.6l5.657 5.657-.707.707-5.657-5.657zM121 20h1v16h-1zm69.757 36.3l.707.707-5.657 5.657-.707-.707zM212 125h16v1h-16z"/><path d="M58.353 62.368C41.601 79.124 32 101.827 32 126h40c0-13.457 5.314-26.022 14.64-35.351L58.354 62.368z" fill="#00CD6A" fill-rule="nonzero"/><path d="M185.447 62.168C168.707 45.528 146.08 36 122 36c-24.18 0-46.89 9.607-63.647 26.368l28.288 28.28C95.97 81.318 108.539 76 122 76c13.406 0 25.928 5.273 35.248 14.537l28.199-28.37z" fill="#FFC500" fill-rule="nonzero"/><path d="M212 126c0-24.272-9.68-47.06-26.553-63.832l-28.2 28.37C166.643 99.874 172 112.487 172 126h40z" fill="#FF4B3A" fill-rule="nonzero"/><path d="M7.138 120.755c0 1.481-.253 2.582-.76 3.302-.505.72-1.296 1.08-2.371 1.08-1.062 0-1.848-.352-2.359-1.056-.51-.705-.774-1.756-.793-3.155v-1.689c0-1.463.253-2.55.76-3.26.505-.711 1.298-1.067 2.378-1.067 1.071 0 1.86.343 2.365 1.029.506.686.766 1.744.78 3.175v1.64zm-1.265-1.73c0-1.07-.15-1.851-.451-2.34-.3-.49-.777-.736-1.429-.736-.647 0-1.119.244-1.415.732-.296.487-.449 1.237-.458 2.249v2.023c0 1.076.156 1.87.468 2.382.313.513.785.77 1.419.77.624 0 1.088-.242 1.39-.725.304-.483.462-1.244.476-2.283v-2.072zM41.86 37.04v1.073h-.233c-.984.019-1.768.31-2.352.875-.583.565-.92 1.36-1.011 2.386.524-.602 1.24-.902 2.146-.902.866 0 1.558.305 2.075.916.517.61.776 1.399.776 2.365 0 1.025-.28 1.846-.838 2.46-.558.616-1.306.924-2.245.924-.953 0-1.725-.366-2.318-1.097-.592-.732-.888-1.674-.888-2.827v-.485c0-1.833.39-3.233 1.172-4.201.782-.969 1.945-1.464 3.49-1.487h.225zm-1.662 4.484c-.433 0-.831.13-1.196.39a2.03 2.03 0 00-.759.978v.464c0 .82.185 1.482.554 1.983.369.501.83.752 1.38.752.57 0 1.018-.21 1.344-.63.326-.418.489-.968.489-1.647 0-.683-.165-1.236-.496-1.657-.33-.422-.769-.633-1.316-.633zM119.122 11h-1.271V2.571l-2.55.937V2.359L118.924 1h.198v10zm10.227 0h-6.522v-.91l3.445-3.827c.51-.58.863-1.05 1.057-1.412.193-.362.29-.737.29-1.124 0-.52-.157-.946-.472-1.279-.314-.332-.733-.499-1.257-.499-.63 0-1.118.18-1.467.537-.348.358-.523.855-.523 1.493h-1.264c0-.916.295-1.656.885-2.221.59-.565 1.38-.848 2.369-.848.925 0 1.656.243 2.194.728.538.486.807 1.132.807 1.938 0 .98-.625 2.147-1.873 3.5l-2.666 2.892h4.997V11zm74.773 36h-1.271v-8.429l-2.55.937v-1.149l3.623-1.36h.198V47zm9.741-7.355c0 .496-.13.938-.393 1.326-.262.387-.616.69-1.063.909.52.223.931.549 1.234.977.303.429.455.914.455 1.456 0 .862-.29 1.548-.872 2.058-.58.51-1.345.766-2.293.766-.957 0-1.724-.257-2.3-.77-.577-.512-.865-1.197-.865-2.054 0-.537.147-1.023.44-1.456a2.75 2.75 0 011.22-.984 2.608 2.608 0 01-1.045-.91 2.344 2.344 0 01-.383-1.318c0-.839.269-1.504.807-1.997.537-.492 1.246-.738 2.126-.738.875 0 1.582.246 2.122.738.54.493.81 1.158.81 1.997zm-1.032 4.641c0-.556-.177-1.01-.53-1.36-.353-.351-.814-.527-1.384-.527s-1.027.174-1.37.52c-.345.346-.517.802-.517 1.367s.168 1.01.503 1.333c.335.324.8.485 1.398.485.592 0 1.057-.162 1.394-.488.337-.326.506-.77.506-1.33zm-1.9-6.337c-.497 0-.9.154-1.207.462-.307.307-.461.725-.461 1.254 0 .506.151.915.454 1.227.303.312.708.468 1.214.468s.91-.156 1.213-.468c.303-.312.455-.721.455-1.227 0-.506-.158-.918-.472-1.237-.315-.32-.713-.479-1.196-.479zM243.487 125h-6.521v-.91l3.445-3.827c.51-.58.863-1.05 1.056-1.412a2.35 2.35 0 00.29-1.124c0-.52-.156-.946-.47-1.279-.315-.332-.735-.499-1.259-.499-.629 0-1.117.18-1.466.537-.349.358-.523.855-.523 1.493h-1.265c0-.916.295-1.656.886-2.221.59-.565 1.38-.848 2.368-.848.925 0 1.657.243 2.195.728.537.486.806 1.132.806 1.938 0 .98-.624 2.147-1.873 3.5l-2.666 2.892h4.997V125zm6.679-3.343h1.38v1.032h-1.38V125h-1.271v-2.31h-4.533v-.746l4.457-6.897h1.347v6.61zm-4.368 0h3.097v-4.88l-.15.273-2.947 4.607z" fill="#000" fill-rule="nonzero" opacity=".25"/></g></svg>