<svg width="198" height="56" xmlns="http://www.w3.org/2000/svg"><path d="M49.373.907c5.313 0 9.719 4.276 9.719 9.72a9.674 9.674 0 01-4.163 7.978l-.085 3.009a6.36 6.36 0 017.488 6.247 6.36 6.36 0 01-6.35 6.35 6.343 6.343 0 01-4.973-2.407l-4.438 2.32a12.84 12.84 0 011.247 5.53c0 7.127-5.832 12.958-12.96 12.958-4.784 0-8.985-2.628-11.229-6.512l-3.028 1.429c.171.584.262 1.203.262 1.844a6.36 6.36 0 01-6.35 6.35 6.36 6.36 0 01-6.349-6.35c0-2.966 2.049-5.467 4.804-6.16l-.502-2.65a655.646 655.646 0 00-1.344-6.829c-.416.06-.842.088-1.273.088-5.443 0-9.72-4.276-9.72-9.719s4.407-9.719 9.72-9.719a9.72 9.72 0 017.47 3.493l5.809-6.866a6.309 6.309 0 01-.969-3.365 6.36 6.36 0 016.35-6.35 6.36 6.36 0 016.317 6.998h5.106a9.714 9.714 0 019.44-7.387zM14.513 50.41c-1.614 0-2.99 1.31-3.102 2.901l-.007.21v.129h6.22v-.13c0-1.684-1.426-3.11-3.11-3.11zm0-5.054a2.323 2.323 0 00-2.332 2.333 2.323 2.323 0 002.333 2.332 2.323 2.323 0 002.332-2.332 2.323 2.323 0 00-2.332-2.333zm20.346-3.887l-.282.006a6.362 6.362 0 00-6.062 6.061l-.006.283v.259h12.7v-.26c0-3.404-2.7-6.195-6.068-6.343l-.282-.006zm-11.525-7.72l-5.947-3.5a9.735 9.735 0 01-4.992 3.237l.594 2.976.201 1.022.58 3 .48 2.545.264-.005c2.484 0 4.544 1.337 5.595 3.303l2.927-1.382a12.84 12.84 0 01-1.136-5.29c0-2.124.518-4.133 1.434-5.907l-5.947-3.499 5.947 3.5zm11.525-2.388a4.646 4.646 0 00-4.665 4.665 4.646 4.646 0 004.665 4.665 4.646 4.646 0 004.665-4.665 4.646 4.646 0 00-4.665-4.665zm10.114-12.059l-3.977 8.95a13.109 13.109 0 014.96 4.73l4.35-2.274a6.306 6.306 0 01-.674-2.846c0-2.634 1.615-4.9 3.906-5.86l.073-2.625a9.709 9.709 0 01-4.238.97 9.693 9.693 0 01-4.4-1.045zM39.707 9.59h-5.153c-.824 2.552-3.224 4.405-6.045 4.405-1.79 0-3.41-.745-4.565-1.942l-5.842 6.904a9.673 9.673 0 011.466 5.146 9.674 9.674 0 01-1.428 5.086l5.845 3.438c2.315-3.563 6.331-5.932 10.874-5.932 1.757 0 3.436.354 4.968.996l4.026-9.057a9.724 9.724 0 01-4.146-9.044zm16.274 19.178l-.209.008c-1.522.107-2.786 1.37-2.893 2.893l-.008.21v.129h6.22v-.13c0-1.614-1.309-2.99-2.9-3.102l-.21-.008zM9.85 25.4a4.644 4.644 0 00-4.66 4.416l-.006.25v.258h9.33v-.259A4.646 4.646 0 009.85 25.4zm46.132-1.685a2.323 2.323 0 00-2.332 2.333 2.323 2.323 0 002.332 2.333 2.323 2.323 0 002.333-2.333 2.323 2.323 0 00-2.333-2.333zM9.85 17.754a3.484 3.484 0 00-3.5 3.498 3.484 3.484 0 003.5 3.5 3.484 3.484 0 003.498-3.5 3.484 3.484 0 00-3.498-3.499zm39.394-5.832l-.25.006a4.643 4.643 0 00-4.409 4.41l-.006.25v.258h9.33v-.259a4.644 4.644 0 00-4.416-4.659l-.249-.006zM28.51 8.682l-.21.008c-1.522.107-2.786 1.37-2.893 2.893l-.007.21v.129h6.22v-.13c0-1.614-1.309-2.99-2.9-3.102l-.21-.008zm20.864-4.406a3.484 3.484 0 00-3.5 3.5 3.484 3.484 0 003.5 3.498 3.484 3.484 0 003.498-3.499 3.484 3.484 0 00-3.498-3.499zM28.51 3.628c-1.296 0-2.332.908-2.332 2.203a2.323 2.323 0 002.332 2.333c1.296 0 2.333-.907 2.333-2.203a2.323 2.323 0 00-2.333-2.333zm121.422 28.121v11.533h-3.24V34.47h-2.721l-.003 1.375c-.008.688-.034 1.31-.127 1.865 0 .777-.13 1.555-.259 2.073-.13.648-.259 1.037-.389 1.555-.13.389-.388.778-.518 1.037-.26.259-.389.518-.777.648l-.778.389c-.26 0-.648.13-.907.13-.389 0-.778 0-1.166-.13-.39-.13-.778-.13-.907-.13l.259-2.462h1.166c.104 0 .207-.083.311-.183l.078-.076c.13-.13.259-.26.388-.519.13-.259.13-.518.26-.907s.13-.777.259-1.296c0-.518.13-1.166.13-1.943v-4.147h8.94zm-12.83 0v11.533h-3.239V34.47h-2.721l-.003 1.375c-.008.688-.034 1.31-.127 1.865 0 .777-.13 1.555-.259 2.073-.13.648-.26 1.037-.389 1.555-.13.389-.388.778-.518 1.037-.26.259-.389.518-.778.648l-.777.389c-.26 0-.648.13-.907.13-.389 0-.778 0-1.166-.13-.39-.13-.648-.13-.908-.13l.26-2.462h1.166c.104 0 .207-.083.31-.183l.079-.076c.13-.13.259-.26.388-.519.13-.259.13-.518.26-.907s.13-.777.259-1.296c0-.518.13-1.166.13-1.943v-4.147h8.94zm48.337 0v2.85h-3.5v8.813H178.7V34.6h-3.499v-2.851h10.238zm-61.036 0v2.721h-6.09v1.814h5.572v2.592h-5.572v1.814h6.22v2.722h-9.46V31.749h9.33zm-10.755 0v2.85h-3.5v8.813h-3.239V34.6h-3.499v-2.851h10.238zm52.612 0v4.665l4.017-4.665h3.758l-4.406 5.054 4.536 6.609h-3.888l-2.85-4.277-1.167 1.296v2.98h-3.24V31.75h3.24zm-5.184 0v2.721h-6.09v1.814h5.572v2.592h-5.572v1.814h6.22v2.722h-9.46V31.749h9.33zm31.36-.13l4.925 11.663h-3.5l-.906-2.073h-4.536l-.777 2.073h-3.24l4.924-11.663h3.11zm-97.967.13v4.406h4.147v-4.406h3.24v11.533h-3.24v-4.406h-4.147v4.406h-3.24V31.749h3.24zm-12.57 0v6.48l4.535-6.48h2.98v11.533h-3.239v-6.48l-4.535 6.48h-2.98V31.749h3.239zm108.853 3.758l-1.296 3.24h2.592l-1.296-3.24zm-37.45-19.827c.906 0 1.684.13 2.461.518.778.26 1.426.778 1.944 1.296.518.519 1.037 1.166 1.296 1.944.26.778.518 1.555.518 2.333 0 .777-.13 1.555-.518 2.332-.26.778-.778 1.426-1.296 1.944s-1.166.907-1.944 1.296c-.777.259-1.555.518-2.462.518a7.025 7.025 0 01-3.24-.777 5.988 5.988 0 01-2.202-2.203c-.519-1.037-.778-2.074-.778-3.11 0-.778.13-1.555.518-2.333.26-.778.778-1.425 1.296-1.944.519-.518 1.166-.907 1.944-1.296.778-.259 1.555-.518 2.462-.518zm-47.43.26c1.426 0 2.592.388 3.5 1.036.906.777 1.295 1.684 1.295 2.98 0 .907-.26 1.685-.648 2.333a3.352 3.352 0 01-1.814 1.425l-.587.19c-.596.183-1.227.329-2.005.329h-1.555v3.369h-3.11V15.939h4.924zm11.274 0c1.426 0 2.592.388 3.5 1.036.906.777 1.295 1.684 1.295 2.98 0 .907-.259 1.685-.648 2.333a3.352 3.352 0 01-1.814 1.425l-.587.19c-.595.183-1.227.329-2.005.329h-1.555v3.369h-3.11V15.939h4.924zm49.114 0c1.425 0 2.592.388 3.499 1.036.907.777 1.296 1.684 1.296 2.98 0 .907-.26 1.685-.648 2.333a3.352 3.352 0 01-1.815 1.425l-.587.19c-.595.183-1.227.329-2.004.329h-1.426v3.369h-3.24V15.939h4.925zm-20.216 0v2.85h-3.499v8.812h-3.24V18.79h-3.498v-2.85h10.237zm-46.91 0v2.72h-6.09v1.815h5.442v2.591h-5.572v1.815h6.22v2.721h-9.33V15.939h9.33zm-10.756 0v2.85H84.88v8.812h-3.24V18.79h-3.498v-2.85h10.237zm38.358 0v6.479l4.535-6.48h2.98v11.533h-3.239v-6.479l-4.535 6.48h-2.98V15.938h3.239zm49.113 0v6.479l4.536-6.48h2.98v11.533h-3.24v-6.479l-4.535 6.48h-2.98V15.938h3.24zm9.246 11.273l-.175.26v-.26h.175zm10.451-11.533v11.533h-3.24v-3.499h-1.425l-2.332 3.5h-3.454l2.547-3.759c-.778-.259-1.296-.777-1.685-1.425s-.648-1.296-.648-2.203c0-.648.13-1.296.389-1.814.259-.519.648-.908 1.037-1.296.388-.26.907-.519 1.555-.778.518-.13 1.166-.259 1.814-.259h5.442zm-42.504 2.98c-.907 0-1.555.26-2.073.908-.39.518-.648 1.295-.648 2.203 0 .907.259 1.555.777 2.203.519.647 1.296.907 2.074.907.907 0 1.555-.26 2.073-.907.518-.648.777-1.296.777-2.203 0-.908-.259-1.555-.777-2.203-.518-.648-1.296-.908-2.203-.908zm-47.429-.13h-1.555v3.111h1.685c.518 0 1.037-.13 1.296-.389.388-.259.518-.648.518-1.166 0-.518-.13-.907-.518-1.166-.39-.26-.778-.39-1.426-.39zm11.274 0h-1.555v3.111h1.685c.518 0 1.037-.13 1.296-.389.388-.259.518-.648.518-1.166 0-.518-.13-.907-.518-1.166-.389-.26-.778-.39-1.426-.39zm49.114 0h-1.426v3.111h1.555c.519 0 1.037-.13 1.296-.389.389-.259.518-.648.518-1.166 0-.518-.13-.907-.518-1.166-.389-.26-.777-.39-1.425-.39zm26.435.13h-2.073c-.518 0-1.037.13-1.296.39-.26.258-.518.647-.518 1.036s.13.777.518 1.037c.26.259.778.388 1.296.388h2.073v-2.85z" fill="#FFF"/></svg>