<svg xmlns="http://www.w3.org/2000/svg" width="90" height="80"><path d="M83.442 40.354l1.761-2.649h1.062v2.649h2.424v-8.746h-4.136c-1.986 0-3.623.937-3.623 2.986a2.776 2.776 0 001.8 2.711l-2.087 3.049h2.799zm1.236-6.684h1.587v2.173h-1.6c-.824 0-1.298-.437-1.298-1.074 0-.712.5-1.1 1.311-1.1zm-19.422 4.185h1.2c2.173 0 3.76-1.087 3.76-3.148 0-1.962-1.425-3.099-3.636-3.099h-3.748v8.746h2.424v-2.5zm0-4.21h1.137c.874 0 1.399.4 1.399 1.149 0 .712-.525 1.162-1.387 1.162h-1.15v-2.311zm11.872-2.037h2.262v8.746h-2.4V35.43l-3.386 4.923h-2.261v-8.746h2.399v4.923l3.385-4.923zM28.21 37.855h1.199c2.174 0 3.76-1.087 3.76-3.148 0-1.962-1.424-3.099-3.635-3.099h-3.748v8.746h2.424v-2.5zm0-4.21h1.136c.875 0 1.4.4 1.4 1.149 0 .712-.525 1.162-1.387 1.162h-1.15v-2.311zm17.923.087h-2.624v-2.124h7.671v2.124h-2.623v6.622h-2.424v-6.622zm-26.435 4.123h1.199c2.174 0 3.76-1.087 3.76-3.148 0-1.962-1.424-3.099-3.635-3.099h-3.748v8.746h2.424v-2.5zm0-4.21h1.136c.875 0 1.4.4 1.4 1.149 0 .712-.525 1.162-1.387 1.162h-1.15v-2.311zm16.861 6.709h-2.261v-8.746h2.398v4.923l3.386-4.923h2.262v8.746h-2.4V35.43l-3.385 4.923zm24.907-4.373c0-2.536-1.999-4.548-4.697-4.548-2.699 0-4.723 2.037-4.723 4.548 0 2.536 2 4.548 4.698 4.548 2.698 0 4.722-2.037 4.722-4.548zm-6.934 0c0-1.287.888-2.361 2.212-2.361a2.27 2.27 0 012.249 2.361c0 1.287-.887 2.361-2.224 2.361a2.267 2.267 0 01-2.236-2.361zM2.624 33.732H0v-2.124h7.671v2.124H5.047v6.622H2.624v-6.622zm13.31 6.622H8.836v-8.746h7.034v2.062h-4.635v1.324h4.197v1.911h-4.197v1.387h4.697v2.062zM66.48 52.27h-2.423v-8.745h2.423v3.548l3.011-3.548h2.874l-3.311 3.76 3.423 4.985h-2.91l-2.2-3.248-.887.987v2.261zm19.747-8.808H83.89l-3.723 8.808h2.55l.624-1.561h3.373l.637 1.561h2.599l-3.723-8.808zm-2.174 5.36l.987-2.486.974 2.486h-1.961zm-8.205 3.448v-6.62h-2.624v-2.124h7.67v2.124h-2.623v6.621H75.85zM6.196 43.525h2.261v8.745H6.058v-4.922L2.673 52.27H.41v-8.745h2.4v4.922l3.386-4.922zm9.255 5.422H12.34v3.323H9.916v-8.745h2.424v3.273h3.11v-3.273h2.424v8.745h-2.423v-3.323zm19.508 3.323h-7.096v-8.745h7.034v2.061h-4.635v1.325h4.198v1.911h-4.198v1.387h4.697v2.061zm27.702 0h-7.096v-8.745h7.034v2.061h-4.635v1.325h4.198v1.911h-4.198v1.387h4.697v2.061zm-40.942 0v-6.62h-2.623v-2.124h7.67v2.124h-2.623v6.621h-2.424zm20.296 0v-6.62H39.98v.337c0 5.335-1.174 6.41-2.874 6.41a5.584 5.584 0 01-1.449-.2l.163-1.862c.186.029.374.046.562.05.687 0 1.337-.35 1.337-5.647v-1.212h6.721v8.745h-2.424zm9.667 0v-6.62h-2.036v.337c0 5.335-1.174 6.41-2.873 6.41a5.592 5.592 0 01-1.45-.2l.163-1.862c.186.029.374.046.562.05.687 0 1.337-.35 1.337-5.647v-1.212h6.721v8.745h-2.424zm27.482 5.588a2.332 2.332 0 00-1.486-2.767l.319-.923h-.664l-.273.791c-.058-.004-.115-.008-.174-.008-1.024 0-1.93.665-2.24 1.642l-2.2-.062a3.847 3.847 0 00-.551-2.363h-6.606a3.853 3.853 0 00-.567 2.019l.001.027-3.77-.482a3.187 3.187 0 00.209-1.564H54.84a3.17 3.17 0 00.799 2.503l-.695.46-8.017-2.33c.012-.121.018-.243.018-.364 0-.035 0-.085-.004-.15l-.006-.119h-7.143l-.006.119a3.574 3.574 0 00.449 1.892l-2.18 1.653-1.914-2.979c.17-.206.305-.437.403-.685H31.73a2.58 2.58 0 003.946 1.127l1.876 2.919-4.596 3.487-4.67-1.734a3.041 3.041 0 00-2.836-3.64l-.124-2.159h-.63l.126 2.192a3.054 3.054 0 00-2.178 1.513L16.257 55.5l-.342-1.333h-.648l.464 1.807 6.661 2.473a3.047 3.047 0 005.707 2.119l4.684 1.74 2.344 4.678a2.383 2.383 0 103.933 1.388l.986-.65 3.58 3.01 5.04-.262c.022.894.623 1.67 1.483 1.915l-.395 2.798a2.423 2.423 0 102.804 2.453l11.51-5.257a2.515 2.515 0 004.309-.912l7.76-.182.105-.003 3.055-2.382c.904.3 1.896-.05 2.41-.852.515-.8.422-1.849-.227-2.546l1.73-5.419-4.046-2.226zm3.289 2.528l-1.501 4.701a2.084 2.084 0 00-1.001-.256c-.026 0-.051.003-.076.004l-1.893-5.46c.398-.212.727-.533.95-.926l3.52 1.937zm-7.911-3.168c-.001.027-.004.054-.004.08 0 .822.431 1.584 1.135 2.008l-1.02 1.956-8.5.684a1.585 1.585 0 00-.492-.89l1.249-1.388a3.855 3.855 0 005.425-2.512l2.207.062zm-2.702 8.366c-.568-.001-1.1.28-1.418.752a1.705 1.705 0 00-.169 1.596l-2.34 1.203a2.53 2.53 0 00-1.261-.823l-1.21-4.74a1.6 1.6 0 00.698-.993l8.192-.659-1.95 3.753a1.688 1.688 0 00-.542-.09zm-6.73-4.858a1.574 1.574 0 00-.526-.096 1.6 1.6 0 00-1.598 1.598c.001.236.055.469.158.681l-.828.92-1.777-.53.45-3.16 4.38.299-.26.288zm-1.58 2.694c.355.328.845.469 1.32.378l1.126 4.417h-.009c-.32 0-.637.061-.934.181L62.8 64.234l.732-.813zm1.252-6.566a3.864 3.864 0 001.573 2.487l-.451.5-5.015-.342-1.47-2.11a3.21 3.21 0 001.219-1.065l4.144.53zm-5.515 8.488a2.252 2.252 0 00-2.631 1.465L51.4 65.245l.161-2.703a2.479 2.479 0 001.741-.741l6.47 1.927-.504 1.615zm-3.37 5.777a1.341 1.341 0 00-1.856.487l-1.413-.496a2.034 2.034 0 00-1.42-2.67l.152-2.55 5.154 1.539c-.002.04-.006.08-.006.12 0 .673.299 1.31.816 1.74l-1.428 1.83zm-2.193-9.857a2.47 2.47 0 00-.065-2.519l2.48-1.637c.771.572 1.763.76 2.69.511l1.578 2.265-.46 3.234-6.223-1.854zm.548-3.677l-1.013.669a2.481 2.481 0 00-4.035 2.665l-2.407 1.59-2.276-4.687a3.561 3.561 0 002.282-2.402l7.45 2.165zm-17.538 8.786c-.37 0-.735.088-1.065.255l-2.245-4.48 7.182-5.448a3.533 3.533 0 003.309 1.276l2.372 4.885-7.4 4.887a2.382 2.382 0 00-2.153-1.375zm3.88.988l8.903-5.88c.344.491.854.842 1.436.987l-.353 5.916a2.047 2.047 0 00-1.832 1.453l-4.908.255-3.247-2.731zm11.889 9.618a2.429 2.429 0 00-2.09-1.813l.38-2.703a2.042 2.042 0 001.547-.79l1.54.539c-.002.025-.008.049-.008.074a1.358 1.358 0 001.142 1.337l.295 2.074-2.806 1.282zm3.404-1.555l-.263-1.85a1.348 1.348 0 00.729-2.014l1.51-1.936a2.263 2.263 0 001.995-4.059l.517-1.656 1.825.544 2.283 4.252a2.502 2.502 0 00-.77 3.145l-7.826 3.574zm12.593-4.588c.002-.034.006-.067.006-.101 0-.367-.082-.73-.239-1.063l2.347-1.206c.585.627 1.545.72 2.24.219l2.618 1.988-6.972.163zm7.764-.353l-2.97-2.256a1.707 1.707 0 00-.341-2.246l3.332-6.418a2.3 2.3 0 001.124.03l1.86 5.363a2.084 2.084 0 00-.563 3.623l-2.442 1.904zm-64.08-46.49l1.393 5.502.649-.002-1.394-5.508a3.055 3.055 0 002.15-1.293l6.313 2.049a1.956 1.956 0 001.594 2.533l.127 2.22.63-.001-.128-2.232c.539-.1 1.01-.422 1.302-.886l5.041 2.123-.002.055c0 .322.059.641.175.942h4.871a2.602 2.602 0 00-.009-1.902l3.786-2.708c.28.243.64.377 1.01.379a1.566 1.566 0 001.46-2.145l9.512-6.805-.864 3.847a2.209 2.209 0 00-1.239 3.705l-4.396 3.354a3.565 3.565 0 00-6.012 2.275h7.106a3.55 3.55 0 00-.677-1.801l4.49-3.426a2.21 2.21 0 003.24-2.473l4.823-3.68c.048.046.098.089.147.133l-1.05 8.469a3.164 3.164 0 00-3.033 2.778h6.288a3.16 3.16 0 00-1.35-2.222l5.477-4.12a2.67 2.67 0 002.388 1.071l.107 3.574a3.778 3.778 0 00-2.382 1.696h6.43a3.775 3.775 0 00-3.215-1.795c-.013 0-.024.002-.037.003l-.107-3.676a2.667 2.667 0 001.079-4.08l2.557-1.923 6.034 5.1a1.58 1.58 0 00-.386 1.03c0 .64.382 1.219.97 1.471l-1.328 3.869.664.002 1.286-3.742.008.001a1.6 1.6 0 100-3.2c-.246.001-.488.06-.708.172l-6.453-5.454-7.212-1.373a3.637 3.637 0 00-2.754-3.906l.109-1.311a1.567 1.567 0 10-1.002-2.898L55.444 4.83l-2.878 1.743a3.285 3.285 0 00-2.643-1.54 3.286 3.286 0 00-2.764 1.31l-3.02-.686-.023-.024-.016.015-12.326-2.803a3.256 3.256 0 10-5.756 2.468L23.997 9.55a1.559 1.559 0 00-.379-.051 1.575 1.575 0 00-1.572 1.572c.002.258.069.512.193.738l-8.124 6.587a3.05 3.05 0 10-1.948 5.596zm3.107-1.862a3.045 3.045 0 00-.657-3.33l8.025-6.508c.18.146.39.25.614.304l-.372 10.799c-.525.07-1 .352-1.313.778l-6.297-2.043zm11.14-5.778c0 1.264.494 2.477 1.376 3.38l-3.582 3.96a1.914 1.914 0 00-.693-.28l.371-10.796c.238-.041.462-.137.656-.28l2.28 2.074a4.812 4.812 0 00-.408 1.942zm6.038 9.589a2.61 2.61 0 00-2.514 1.914l-4.89-2.06a1.938 1.938 0 00-.374-1.682l3.582-3.959a4.84 4.84 0 006.095-.047l3.978 2.786a1.52 1.52 0 00-.054 1.497l-3.7 2.646a2.605 2.605 0 00-2.123-1.095zm7.223-3.822c-.33 0-.653.107-.919.303l-3.939-2.758a4.822 4.822 0 00.865-5.339l2.925-2.715a1.56 1.56 0 002.18.014l3.757 2.482a1.543 1.543 0 00-.163.683 1.568 1.568 0 001.108 1.495L44.69 19.8l-3.898 2.788c-.294-.3-.697-.47-1.118-.47zm10.758-1.972l.955-4.255h4.663c.065.628.292 1.228.66 1.74l-4.669 3.563a2.216 2.216 0 00-1.61-1.048zm19.281-2.386l-2.296 1.727a2.67 2.67 0 00-4.139 3.113l-5.769 4.34a3.101 3.101 0 00-.664-.185l1.003-8.087c.97.566 2.148.65 3.19.23a3.634 3.634 0 002.132-2.384l6.543 1.246zM55.417 5.581l3.748 2.636a1.56 1.56 0 00.851 2.419l-.105 1.26c-.08-.005-.16-.012-.241-.012a3.641 3.641 0 00-3.626 3.377h-5.01l-5.573 3.987.66-2.904a1.557 1.557 0 001.084-2.491l1.686-2.366a3.285 3.285 0 003.96-4.351l2.566-1.555zm-8.924 2.741a3.293 3.293 0 001.793 2.927l-1.556 2.184a1.531 1.531 0 00-1.801.172l-3.782-2.497a1.546 1.546 0 00-.248-1.627l3.388-3.145 2.529.574a3.272 3.272 0 00-.323 1.412zm-6.096.764a1.549 1.549 0 00-.694-.169 1.57 1.57 0 00-1.455 2.163l-2.88 2.674a4.853 4.853 0 00-3.681-2.239l-1.989-5.211a3.26 3.26 0 002.094-2.81l11.75 2.672-3.145 2.92zm-13.905-3.3a3.203 3.203 0 002.594.684l1.923 5.037a4.853 4.853 0 00-3.885 2.326l-2.16-1.964a1.546 1.546 0 00-.4-2.045l1.928-4.038z" fill="#BFBFBF"/></svg>