<svg width="164" height="50" xmlns="http://www.w3.org/2000/svg"><defs><linearGradient x1="7.119%" y1="25.002%" x2="50%" y2="50%" id="a"><stop stop-color="#7563C7" offset="0%"/><stop stop-color="#FFF" offset="100%"/></linearGradient><linearGradient x1="50%" y1="0%" x2="50%" y2="166.587%" id="b"><stop stop-color="#7563C7" offset=".038%"/><stop stop-color="#FFF" offset="100%"/></linearGradient><linearGradient x1="96.757%" y1="59.852%" x2="59.849%" y2="66.619%" id="c"><stop stop-color="#7563C7" offset="0%"/><stop stop-color="#FFF" offset="100%"/></linearGradient></defs><g fill="none"><path d="M25 0c12.488 0 22.838 9.157 24.701 21.123a10.541 10.541 0 00-4.676-3.824l-.254-.101-.064-.163-.11-.265-.159-.37-.118-.26-.263-.552c-.213-.43-.44-.852-.68-1.265l-.263-.44-.147-.235-.27-.416-.123-.182c-.108-.16-.22-.318-.333-.474l-.297-.402-.308-.397-.308-.377a21.378 21.378 0 00-1.924-2.023l-.565-.503-.26-.22a21.35 21.35 0 00-.69-.55L37.4 7.74l-.396-.278-.34-.229-.151-.098-.456-.287-.563-.332-.262-.146-.538-.286-.222-.112-.297-.146-.573-.264-.489-.21-.58-.23-.478-.174-.59-.198-.558-.17-.598-.162-.519-.127-.521-.113-.673-.126-.42-.067c-.21-.032-.42-.06-.63-.085l-.728-.074-.58-.042-.585-.025-.462-.01H25C13.264 3.75 3.75 13.264 3.75 25c0 11.619 9.325 21.06 20.899 21.247l.351.003c5.101 0 9.783-1.798 13.446-4.794l-.223-.328c-.31-.457-.61-.906-.898-1.348l-.56-.872a64.895 64.895 0 01-.53-.852l-.497-.83C33.246 32.986 32 29.578 32 27a9 9 0 0118 0l-.001.17c-.033 2.109-.668 4.512-1.693 6.893-.075.194-.154.388-.234.58l-.207.482-.255.555-.037.079c-.153.32-.312.636-.478.949l-.283.517-.28.486-.313.515-.37.574-.39.572-.314.435-.322.428-.385.488-.265.321c-.232.277-.47.549-.713.815l-.424.452-.359.367-.423.414a25.129 25.129 0 01-2.61 2.173l-.296.21-.45.309-.403.264c-.262.169-.527.332-.796.491l-.526.302-.292.16c-.275.15-.553.294-.835.433l-.617.293-.579.258-.663.273-.621.236-.696.242-.655.207-.264.078-.398.111-.73.186-.204.048-.434.096-.758.147-.505.085-.508.075-.325.042-.513.058-.47.044-.623.044-.488.024-.582.016L25 50C11.193 50 0 38.807 0 25S11.193 0 25 0zm16 22a5 5 0 100 10 5 5 0 000-10z" fill="url(#a)"/><path d="M45.9 26a5 5 0 11-9.8 0 5.002 5.002 0 009.788.059l.012-.06z" fill="url(#b)"/><path d="M9 25c0 8.837 7.163 16 16 16 3.52 0 6.775-1.137 9.417-3.064l.028.05.504.841c.182.298.362.588.548.882l.566.882.35.53-.466.32-.313.204-.34.214-.346.206c-.2.117-.402.23-.606.34l-.44.23-.35.172-.305.144-.17.077-.42.183-.425.173-.355.136-.432.155-.437.144-.398.123-.209.06-.49.133-.35.086-.2.046-.468.1-.473.088-.35.058-.449.065-.324.04-.457.047-.444.036-.554.031c-.28.012-.56.018-.842.018-10.908 0-19.75-8.842-19.75-19.75H9z" fill="url(#c)"/><path d="M25 5.25l.482.006.433.015.556.033.327.027c.286.026.57.058.854.095l.423.062.328.054.327.06.558.115.335.077c.194.047.386.096.577.148l.479.137.423.132.369.123.366.131c.422.156.837.326 1.244.509l.335.154.435.212.36.185.426.232.322.184.177.105.359.22.354.228.24.16c.342.233.676.476 1.002.728l.483.387.293.247.25.22.343.311.347.33.437.442.331.353.332.372.1.116a19.854 19.854 0 011.008 1.28l.282.4.166.246c.325.49.629.994.91 1.512l.153.288.148.29.24.498a10.558 10.558 0 00-4.203.076C35.911 12.106 30.818 9 25 9 16.163 9 9 16.163 9 25H5.25c0-10.793 8.657-19.564 19.406-19.747L25 5.25zM69.032 39l1.344-10.56.324.81.146.366 3.284 8.208.146.366.324.81h1.536l.324-.81.146-.366 3.284-8.208.146-.366.324-.81L81.704 39h3.264l-.176-1.23-.099-.692-.744-5.213-.106-.743-.054-.372-.106-.743-.744-5.213-.1-.693-.175-1.229h-3.072L75.368 33.24l-4.224-10.368h-3.072l-.176 1.23-.099.692-.744 5.213-.106.743-.054.372-.106.743-.744 5.213-.1.693L65.769 39h3.264zm21.696 6.144l7.68-18.048h-3.456l-2.88 7.008-2.88-7.008h-3.456l4.608 11.04-3.072 7.008h3.456zM106.472 39V25.944h4.224v-3.072h-11.52v3.072h4.224V39h3.072zm9.6 0v-4.992c0-.984.264-1.776.792-2.424a3.823 3.823 0 011.896-1.248 4.176 4.176 0 012.304 0v-3.624c-1.152.072-2.184.36-3.072.84-.888.504-1.536 1.176-1.92 2.064v-2.52H113V39h3.072zm12.48.384c1.464 0 2.688-.552 3.648-1.656V39h3.072V27.096H132.2v1.272c-.96-1.104-2.184-1.656-3.648-1.656-1.656 0-3.048.624-4.2 1.848-1.176 1.248-1.752 2.736-1.752 4.488 0 1.752.576 3.24 1.752 4.464 1.152 1.248 2.544 1.872 4.2 1.872zm.384-3.072c-.888 0-1.656-.312-2.304-.96-.648-.648-.96-1.416-.96-2.304 0-.888.312-1.656.96-2.304.648-.648 1.416-.96 2.304-.96.888 0 1.656.312 2.304.96.648.648.96 1.416.96 2.304 0 .888-.312 1.656-.96 2.304-.648.648-1.416.96-2.304.96zm15.264 3.072c1.776 0 3.144-.48 4.128-1.416l-1.272-2.736c-.72.72-1.632 1.08-2.76 1.08-1.104 0-1.992-.312-2.64-.936-.672-.624-1.008-1.392-1.008-2.328 0-.936.336-1.704 1.008-2.328.648-.624 1.536-.936 2.64-.936s2.016.36 2.76 1.104l1.272-2.76c-1.056-.936-2.424-1.416-4.128-1.416-2.016 0-3.624.6-4.824 1.8-1.2 1.224-1.8 2.736-1.8 4.536 0 1.8.6 3.312 1.8 4.512 1.176 1.224 2.784 1.824 4.824 1.824zm9.504-.384v-4.704L158.696 39h3.84l-.009-.009-6.135-6.135.01-.01 5.75-5.75h-3.84l-2.008 1.967-.592.578-2.008 1.967v-9.504h-3.072V39h3.072z" fill="#FFF"/></g></svg>