<svg width="64" height="56" xmlns="http://www.w3.org/2000/svg"><path d="M50.667 0c5.466 0 10 4.369 10 9.93 0 3.408-1.704 6.37-4.283 8.15l-.088 3.074a6.58 6.58 0 011.17-.104c3.6 0 6.534 2.912 6.534 6.487 0 3.574-2.933 6.487-6.533 6.487a6.543 6.543 0 01-5.117-2.46l-4.566 2.371a13.04 13.04 0 011.283 5.649c0 7.281-6 13.239-13.334 13.239-4.923 0-9.245-2.685-11.554-6.653l-3.116 1.46a6.64 6.64 0 01.27 1.883C21.333 53.087 18.4 56 14.8 56c-3.6 0-6.533-2.913-6.533-6.487 0-3.03 2.107-5.584 4.942-6.292l-.516-2.709c-.448-2.324-.932-4.77-1.383-6.975a9.44 9.44 0 01-1.31.09c-5.6 0-10-4.37-10-9.93s4.533-9.929 10-9.929a10.03 10.03 0 017.687 3.569l5.976-7.015a6.411 6.411 0 01-.996-3.438C22.667 3.31 25.6.397 29.2.397c3.6 0 6.533 2.913 6.533 6.487 0 .224-.011.445-.034.663h5.255C42.03 3.17 46.01 0 50.667 0zM14.8 50.572c-1.661 0-3.077 1.338-3.192 2.964l-.008.213v.133H18v-.133c0-1.72-1.467-3.177-3.2-3.177zm0-5.163c-1.333 0-2.4 1.06-2.4 2.383a2.382 2.382 0 002.4 2.383c1.333 0 2.4-1.06 2.4-2.383a2.382 2.382 0 00-2.4-2.383zm20.933-3.972l-.29.007c-3.37.147-6.088 2.846-6.237 6.192l-.006.288v.265h13.067v-.265c0-3.478-2.777-6.329-6.243-6.48l-.29-.007zM23.875 33.55l-6.119-3.574a10.024 10.024 0 01-5.136 3.306l.611 3.04.207 1.045.597 3.064.493 2.6.272-.005c2.557 0 4.675 1.366 5.757 3.375l3.012-1.412a13.038 13.038 0 01-1.169-5.405c0-2.17.533-4.222 1.475-6.034l-6.119-3.574 6.119 3.574zm11.858-2.439c-2.666 0-4.8 2.118-4.8 4.766s2.134 4.766 4.8 4.766c2.667 0 4.8-2.118 4.8-4.766s-2.133-4.766-4.8-4.766zm10.406-12.32l-4.091 9.143a13.447 13.447 0 015.103 4.834l4.477-2.324a6.405 6.405 0 01-.695-2.907c0-2.691 1.662-5.007 4.02-5.987l.075-2.682c-1.323.636-2.804.99-4.361.99-1.639 0-3.175-.385-4.528-1.066zm-5.417-9.92H35.42a6.544 6.544 0 01-6.22 4.5 6.538 6.538 0 01-4.697-1.984l-6.01 7.053A9.83 9.83 0 0120 23.697a9.83 9.83 0 01-1.469 5.196l6.014 3.512c2.382-3.64 6.515-6.06 11.188-6.06 1.809 0 3.536.362 5.112 1.017l4.142-9.251a9.914 9.914 0 01-4.265-9.24zm16.745 19.592l-.216.008c-1.566.11-2.867 1.4-2.977 2.956l-.007.214v.132h6.4v-.132c0-1.65-1.347-3.056-2.985-3.17l-.215-.008zM10 25.021c-2.58 0-4.662 1.984-4.793 4.512l-.007.254v.265h9.6v-.265c0-2.648-2.133-4.766-4.8-4.766zm47.467-1.72a2.382 2.382 0 100 4.766c1.333 0 2.4-1.06 2.4-2.384a2.382 2.382 0 00-2.4-2.383zM10 17.21c-2 0-3.6 1.588-3.6 3.574 0 1.986 1.6 3.574 3.6 3.574s3.6-1.588 3.6-3.574c0-1.986-1.6-3.575-3.6-3.575zm40.533-5.958l-.256.007a4.76 4.76 0 00-4.537 4.504l-.007.255v.265h9.6v-.265a4.76 4.76 0 00-4.543-4.76l-.257-.006zM29.2 7.943l-.215.008c-1.567.11-2.867 1.4-2.977 2.956L26 11.12v.132h6.4v-.132c0-1.65-1.347-3.056-2.985-3.17l-.215-.008zm21.467-4.5c-2 0-3.6 1.588-3.6 3.574 0 1.985 1.6 3.574 3.6 3.574s3.6-1.589 3.6-3.574c0-1.986-1.6-3.575-3.6-3.575zM29.2 2.78c-1.333 0-2.4.927-2.4 2.25a2.382 2.382 0 002.4 2.384c1.333 0 2.4-.927 2.4-2.25a2.382 2.382 0 00-2.4-2.384z" fill="#FFF"/></svg>