<svg xmlns="http://www.w3.org/2000/svg" width="9" height="3" viewBox="0 0 9 3">
    <path fill="#000" fill-rule="evenodd" d="M0 1.06C0 .745.106.49.318.294.53.098.795 0 1.114 0c.324 0 .592.098.803.294a.995.995 0 0 1 .318.766c0 .31-.104.561-.314.755-.21.194-.479.29-.807.29-.323 0-.59-.096-.8-.29A.981.981 0 0 1 0 1.06zm3.233 0c0-.315.106-.57.318-.766C3.763.098 4.03 0 4.348 0c.323 0 .591.098.803.294a.995.995 0 0 1 .318.766c0 .31-.105.561-.315.755-.21.194-.478.29-.806.29-.324 0-.59-.096-.8-.29a.981.981 0 0 1-.315-.755zm3.172 0c0-.315.106-.57.318-.766C6.935.098 7.201 0 7.52 0c.323 0 .59.098.803.294a.995.995 0 0 1 .318.766c0 .31-.105.561-.315.755-.21.194-.478.29-.806.29-.324 0-.59-.096-.8-.29a.981.981 0 0 1-.315-.755z" opacity=".25"/>
</svg>
