<?xml version="1.0" encoding="UTF-8"?>
<svg width="60px" height="88px" viewBox="0 0 60 88" version="1.1" xmlns="http://www.w3.org/2000/svg" xmlns:xlink="http://www.w3.org/1999/xlink">
    <!-- Generator: sketchtool 59.1 (101010) - https://sketch.com -->
    <title>BCABA186-CD61-405B-8D83-CF88B530D765</title>
    <desc>Created with sketchtool.</desc>
    <g id="Профайл" stroke="none" stroke-width="1" fill="none" fill-rule="evenodd">
        <g id="Профайл-2" transform="translate(-600.000000, -427.000000)" fill="#7462C7" fill-rule="nonzero">
            <g id="навыки" transform="translate(304.000000, 355.000000)">
                <g id="Start" transform="translate(0.000000, 48.000000)">
                    <path d="M325.915493,24 C342.478873,24 356,37.21673 356,53.6121673 C356,70.0076046 326.084507,112 326.084507,112 C326.084507,112 296,70.0076046 296,53.6121673 C296,37.21673 309.352113,24 325.915493,24 Z M325.915493,38.0532319 C318.167949,38.0532319 311.887324,44.2701753 311.887324,51.9391635 C311.887324,59.6081517 318.167949,65.8250951 325.915493,65.8250951 C333.663037,65.8250951 339.943662,59.6081517 339.943662,51.9391635 C339.943662,44.2701753 333.663037,38.0532319 325.915493,38.0532319 Z" id="Combined-Shape"></path>
                </g>
            </g>
        </g>
    </g>
</svg>