<?xml version="1.0" encoding="UTF-8"?>
<svg width="60px" height="88px" viewBox="0 0 60 88" version="1.1" xmlns="http://www.w3.org/2000/svg" xmlns:xlink="http://www.w3.org/1999/xlink">
    <!-- Generator: sketchtool 59.1 (101010) - https://sketch.com -->
    <title>71119C81-BA29-4A4B-8E81-44120DB26844</title>
    <desc>Created with sketchtool.</desc>
    <g id="Профайл" stroke="none" stroke-width="1" fill="none" fill-rule="evenodd">
        <g id="Профайл-2" transform="translate(-680.000000, -571.000000)" fill="#9DE12F" fill-rule="nonzero">
            <g id="навыки" transform="translate(304.000000, 355.000000)">
                <g id="Start" transform="translate(0.000000, 48.000000)">
                    <path d="M405.915493,168 C422.478873,168 436,181.21673 436,197.612167 C436,214.007605 406.084507,256 406.084507,256 C406.084507,256 376,214.007605 376,197.612167 C376,181.21673 389.352113,168 405.915493,168 Z M405.915493,182.053232 C398.167949,182.053232 391.887324,188.270175 391.887324,195.939163 C391.887324,203.608152 398.167949,209.825095 405.915493,209.825095 C413.663037,209.825095 419.943662,203.608152 419.943662,195.939163 C419.943662,188.270175 413.663037,182.053232 405.915493,182.053232 Z" id="Combined-Shape"></path>
                </g>
            </g>
        </g>
    </g>
</svg>