<?xml version="1.0" encoding="UTF-8"?>
<svg width="60px" height="88px" viewBox="0 0 60 88" version="1.1" xmlns="http://www.w3.org/2000/svg" xmlns:xlink="http://www.w3.org/1999/xlink">
    <!-- Generator: sketchtool 59.1 (101010) - https://sketch.com -->
    <title>60EAC9B2-2A52-4BDA-996D-2701DAF2199E</title>
    <desc>Created with sketchtool.</desc>
    <g id="Профайл" stroke="none" stroke-width="1" fill="none" fill-rule="evenodd">
        <g id="Профайл-2" transform="translate(-368.000000, -571.000000)" fill="#1588EE" fill-rule="nonzero">
            <g id="навыки" transform="translate(304.000000, 355.000000)">
                <g id="Start" transform="translate(0.000000, 48.000000)">
                    <path d="M93.915493,168 C110.478873,168 124,181.21673 124,197.612167 C124,214.007605 94.084507,256 94.084507,256 C94.084507,256 64,214.007605 64,197.612167 C64,181.21673 77.3521127,168 93.915493,168 Z M93.915493,182.053232 C86.1679491,182.053232 79.8873239,188.270175 79.8873239,195.939163 C79.8873239,203.608152 86.1679491,209.825095 93.915493,209.825095 C101.663037,209.825095 107.943662,203.608152 107.943662,195.939163 C107.943662,188.270175 101.663037,182.053232 93.915493,182.053232 Z" id="Combined-Shape"></path>
                </g>
            </g>
        </g>
    </g>
</svg>