<?xml version="1.0" encoding="UTF-8"?>
<svg width="60px" height="88px" viewBox="0 0 60 88" version="1.1" xmlns="http://www.w3.org/2000/svg" xmlns:xlink="http://www.w3.org/1999/xlink">
    <!-- Generator: sketchtool 59.1 (101010) - https://sketch.com -->
    <title>B5387A79-205A-4760-A18B-0E8DC2E76F7A</title>
    <desc>Created with sketchtool.</desc>
    <g id="Профайл" stroke="none" stroke-width="1" fill="none" fill-rule="evenodd">
        <g id="Профайл-2" transform="translate(-448.000000, -427.000000)" fill="#FF1A4F" fill-rule="nonzero">
            <g id="навыки" transform="translate(304.000000, 355.000000)">
                <g id="Start" transform="translate(0.000000, 48.000000)">
                    <path d="M173.915493,24 C190.478873,24 204,37.21673 204,53.6121673 C204,70.0076046 174.084507,112 174.084507,112 C174.084507,112 144,70.0076046 144,53.6121673 C144,37.21673 157.352113,24 173.915493,24 Z M173.915493,38.0532319 C166.167949,38.0532319 159.887324,44.2701753 159.887324,51.9391635 C159.887324,59.6081517 166.167949,65.8250951 173.915493,65.8250951 C181.663037,65.8250951 187.943662,59.6081517 187.943662,51.9391635 C187.943662,44.2701753 181.663037,38.0532319 173.915493,38.0532319 Z" id="Combined-Shape"></path>
                </g>
            </g>
        </g>
    </g>
</svg>