<?xml version="1.0" encoding="UTF-8"?>
<svg width="60px" height="88px" viewBox="0 0 60 88" version="1.1" xmlns="http://www.w3.org/2000/svg" xmlns:xlink="http://www.w3.org/1999/xlink">
    <!-- Generator: sketchtool 59.1 (101010) - https://sketch.com -->
    <title>97C38585-5208-435D-9FE9-4882C8119758</title>
    <desc>Created with sketchtool.</desc>
    <g id="Профайл" stroke="none" stroke-width="1" fill="none" fill-rule="evenodd">
        <g id="Профайл-2" transform="translate(-524.000000, -686.000000)" fill="#1FB6FF" fill-rule="nonzero">
            <g id="навыки" transform="translate(304.000000, 355.000000)">
                <g id="Start" transform="translate(0.000000, 48.000000)">
                    <path d="M249.915493,283 C266.478873,283 280,296.21673 280,312.612167 C280,329.007605 250.084507,371 250.084507,371 C250.084507,371 220,329.007605 220,312.612167 C220,296.21673 233.352113,283 249.915493,283 Z M249.915493,297.053232 C242.167949,297.053232 235.887324,303.270175 235.887324,310.939163 C235.887324,318.608152 242.167949,324.825095 249.915493,324.825095 C257.663037,324.825095 263.943662,318.608152 263.943662,310.939163 C263.943662,303.270175 257.663037,297.053232 249.915493,297.053232 Z" id="Combined-Shape"></path>
                </g>
            </g>
        </g>
    </g>
</svg>