<?xml version="1.0" encoding="UTF-8"?>
<svg width="252px" height="126px" viewBox="0 0 252 126" version="1.1" xmlns="http://www.w3.org/2000/svg" xmlns:xlink="http://www.w3.org/1999/xlink">
    <!-- Generator: Sketch 55.1 (78136) - https://sketchapp.com -->
    <title>Artboard</title>
    <desc>Created with Sketch.</desc>
    <g id="Artboard" stroke="none" stroke-width="1" fill="none" fill-rule="evenodd">
        <rect id="Rectangle" fill="#000000" opacity="0.200000003" x="16" y="125" width="16" height="1"></rect>
        <rect id="Rectangle" fill="#000000" opacity="0.200000003" transform="translate(55.582005, 59.582005) rotate(45.000000) translate(-55.582005, -59.582005) " x="51.5820049" y="59.0820049" width="8" height="1"></rect>
        <rect id="Rectangle" fill="#000000" opacity="0.200000003" x="121" y="20" width="1" height="16"></rect>
        <rect id="Rectangle" fill="#000000" opacity="0.200000003" transform="translate(188.281956, 59.482029) rotate(45.000000) translate(-188.281956, -59.482029) " x="187.781956" y="55.4820293" width="1" height="8"></rect>
        <rect id="Rectangle" fill="#000000" opacity="0.200000003" x="212" y="125" width="16" height="1"></rect>
        <path d="M58.3529753,62.3678049 C41.6010963,79.123569 32,101.826881 32,126 L72,126 C72,112.54295 77.3137585,99.9777269 86.6405258,90.6487965 L58.3529753,62.3678049 Z" id="Path" fill="#00CD6A" fill-rule="nonzero"></path>
        <path d="M185.446547,62.1679073 C168.706182,45.5281645 146.081432,36 122,36 C97.8195447,36 75.1099501,45.6069439 58.3529753,62.3678049 L86.6405258,90.6487965 C95.9701518,81.3170068 108.53888,76 122,76 C135.406188,76 147.92758,81.273246 157.247664,90.5373104 L185.446547,62.1679073 Z" id="Path" fill="#FFC500" fill-rule="nonzero"></path>
        <path d="M212,126 C212,101.727839 202.319807,78.9397467 185.446547,62.1679073 L157.247664,90.5373104 C166.642301,99.8754786 172,112.488009 172,126 L212,126 Z" id="Path" fill="#FF4B3A" fill-rule="nonzero"></path>
        <path d="M7.13769531,120.754883 C7.13769531,122.23601 6.88476815,123.336585 6.37890625,124.056641 C5.87304435,124.776696 5.08236215,125.136719 4.00683594,125.136719 C2.94498167,125.136719 2.15885672,124.784671 1.6484375,124.080566 C1.13801828,123.376461 0.873698008,122.324877 0.85546875,120.925781 L0.85546875,119.237305 C0.85546875,117.774407 1.10839591,116.687504 1.61425781,115.976562 C2.12011972,115.265621 2.91308054,114.910156 3.99316406,114.910156 C5.06413296,114.910156 5.85253653,115.253089 6.35839844,115.938965 C6.86426034,116.624841 7.12402337,117.683261 7.13769531,119.114258 L7.13769531,120.754883 Z M5.87304688,119.025391 C5.87304688,117.954422 5.72265775,117.173993 5.421875,116.684082 C5.12109225,116.194171 4.64486003,115.949219 3.99316406,115.949219 C3.34602541,115.949219 2.87435044,116.193031 2.578125,116.680664 C2.28189956,117.168297 2.12923182,117.917964 2.12011719,118.929688 L2.12011719,120.953125 C2.12011719,122.028651 2.27620287,122.822751 2.58837891,123.335449 C2.90055495,123.848147 3.37336923,124.104492 4.00683594,124.104492 C4.63118802,124.104492 5.09488781,123.862958 5.39794922,123.379883 C5.70101063,122.896807 5.85937493,122.135747 5.87304688,121.09668 L5.87304688,119.025391 Z" id="0" fill="#000000" fill-rule="nonzero" opacity="0.25"></path>
        <path d="M41.859375,37.0400391 L41.859375,38.1132812 L41.6269531,38.1132812 C40.6425732,38.1315105 39.8587269,38.4231743 39.2753906,38.9882812 C38.6920544,39.5533882 38.3548182,40.3486277 38.2636719,41.3740234 C38.787763,40.7724579 39.5032507,40.4716797 40.4101562,40.4716797 C41.276046,40.4716797 41.9676081,40.7770152 42.4848633,41.3876953 C43.0021185,41.9983754 43.2607422,42.786779 43.2607422,43.7529297 C43.2607422,44.7783254 42.9816109,45.5986297 42.4233398,46.2138672 C41.8650688,46.8291046 41.1165412,47.1367188 40.1777344,47.1367188 C39.2252557,47.1367188 38.4528024,46.7709998 37.8603516,46.0395508 C37.2679007,45.3081018 36.9716797,44.3658912 36.9716797,43.2128906 L36.9716797,42.7275391 C36.9716797,40.8954987 37.3624635,39.4952848 38.144043,38.5268555 C38.9256224,37.5584261 40.0888595,37.0628256 41.6337891,37.0400391 L41.859375,37.0400391 Z M40.1982422,41.5244141 C39.7652973,41.5244141 39.3665383,41.6542956 39.0019531,41.9140625 C38.637368,42.1738294 38.3844408,42.4996725 38.2431641,42.8916016 L38.2431641,43.3564453 C38.2431641,44.1767619 38.4277325,44.8375626 38.796875,45.3388672 C39.1660175,45.8401718 39.6262993,46.0908203 40.1777344,46.0908203 C40.7473987,46.0908203 41.1951481,45.881187 41.5209961,45.4619141 C41.8468441,45.0426411 42.0097656,44.493493 42.0097656,43.8144531 C42.0097656,43.130856 41.8445655,42.5782899 41.5141602,42.1567383 C41.1837549,41.7351867 40.7451199,41.5244141 40.1982422,41.5244141 Z" id="6" fill="#000000" fill-rule="nonzero" opacity="0.25"></path>
        <path d="M119.12207,11 L117.850586,11 L117.850586,2.57128906 L115.300781,3.5078125 L115.300781,2.359375 L118.923828,0.999023438 L119.12207,0.999023438 L119.12207,11 Z M129.348633,11 L122.827148,11 L122.827148,10.0908203 L126.272461,6.26269531 C126.78288,5.68391638 127.134927,5.21338072 127.328613,4.85107422 C127.522299,4.48876772 127.619141,4.11393423 127.619141,3.7265625 C127.619141,3.20702865 127.461916,2.78092614 127.147461,2.44824219 C126.833006,2.11555823 126.41374,1.94921875 125.889648,1.94921875 C125.260739,1.94921875 124.771974,2.12809066 124.42334,2.48583984 C124.074705,2.84358903 123.900391,3.34146816 123.900391,3.97949219 L122.635742,3.97949219 C122.635742,3.06347198 122.930824,2.32291949 123.520996,1.7578125 C124.111168,1.19270551 124.900711,0.91015625 125.889648,0.91015625 C126.814783,0.91015625 127.546221,1.1528296 128.083984,1.63818359 C128.621747,2.12353758 128.890625,2.76952722 128.890625,3.57617188 C128.890625,4.55599448 128.266282,5.72264948 127.017578,7.07617188 L124.351562,9.96777344 L129.348633,9.96777344 L129.348633,11 Z" id="12" fill="#000000" fill-rule="nonzero" opacity="0.25"></path>
        <path d="M204.12207,47 L202.850586,47 L202.850586,38.5712891 L200.300781,39.5078125 L200.300781,38.359375 L203.923828,36.9990234 L204.12207,36.9990234 L204.12207,47 Z M213.863281,39.6445312 C213.863281,40.1412785 213.73226,40.5833314 213.470215,40.9707031 C213.208169,41.3580749 212.853843,41.6611317 212.407227,41.8798828 C212.92676,42.1031912 213.338052,42.4290343 213.641113,42.8574219 C213.944175,43.2858094 214.095703,43.7711561 214.095703,44.3134766 C214.095703,45.174809 213.805179,45.8606745 213.224121,46.3710938 C212.643064,46.881513 211.878585,47.1367188 210.930664,47.1367188 C209.973628,47.1367188 209.206871,46.8803737 208.630371,46.3676758 C208.053871,45.8549779 207.765625,45.1702517 207.765625,44.3134766 C207.765625,43.7757135 207.912596,43.2903667 208.206543,42.8574219 C208.50049,42.424477 208.907224,42.0963553 209.426758,41.8730469 C208.984698,41.6542958 208.636069,41.3512389 208.380859,40.9638672 C208.12565,40.5764955 207.998047,40.1367212 207.998047,39.6445312 C207.998047,38.8059854 208.266924,38.1406275 208.804688,37.6484375 C209.342451,37.1562475 210.051102,36.9101562 210.930664,36.9101562 C211.805668,36.9101562 212.513181,37.1562475 213.053223,37.6484375 C213.593264,38.1406275 213.863281,38.8059854 213.863281,39.6445312 Z M212.831055,44.2861328 C212.831055,43.7301404 212.654461,43.2766945 212.30127,42.9257812 C211.948078,42.574868 211.486656,42.3994141 210.916992,42.3994141 C210.347328,42.3994141 209.890464,42.5725894 209.546387,42.9189453 C209.202309,43.2653012 209.030273,43.7210258 209.030273,44.2861328 C209.030273,44.8512398 209.197752,45.2955713 209.532715,45.6191406 C209.867677,45.94271 210.333656,46.1044922 210.930664,46.1044922 C211.523115,46.1044922 211.987954,45.9415706 212.325195,45.6157227 C212.662437,45.2898747 212.831055,44.8466825 212.831055,44.2861328 Z M210.930664,37.9492188 C210.433917,37.9492188 210.03174,38.1030258 209.724121,38.4106445 C209.416502,38.7182633 209.262695,39.1363906 209.262695,39.6650391 C209.262695,40.170901 209.414224,40.5799138 209.717285,40.8920898 C210.020347,41.2042659 210.424802,41.3603516 210.930664,41.3603516 C211.436526,41.3603516 211.840982,41.2042659 212.144043,40.8920898 C212.447104,40.5799138 212.598633,40.170901 212.598633,39.6650391 C212.598633,39.1591772 212.441408,38.7467464 212.126953,38.4277344 C211.812498,38.1087224 211.413739,37.9492188 210.930664,37.9492188 Z" id="18" fill="#000000" fill-rule="nonzero" opacity="0.25"></path>
        <path d="M243.487305,125 L236.96582,125 L236.96582,124.09082 L240.411133,120.262695 C240.921552,119.683916 241.273599,119.213381 241.467285,118.851074 C241.660971,118.488768 241.757812,118.113934 241.757812,117.726562 C241.757812,117.207029 241.600588,116.780926 241.286133,116.448242 C240.971678,116.115558 240.552411,115.949219 240.02832,115.949219 C239.399411,115.949219 238.910646,116.128091 238.562012,116.48584 C238.213377,116.843589 238.039062,117.341468 238.039062,117.979492 L236.774414,117.979492 C236.774414,117.063472 237.069496,116.322919 237.659668,115.757812 C238.24984,115.192706 239.039383,114.910156 240.02832,114.910156 C240.953455,114.910156 241.684893,115.15283 242.222656,115.638184 C242.760419,116.123538 243.029297,116.769527 243.029297,117.576172 C243.029297,118.555994 242.404954,119.722649 241.15625,121.076172 L238.490234,123.967773 L243.487305,123.967773 L243.487305,125 Z M250.166016,121.657227 L251.546875,121.657227 L251.546875,122.689453 L250.166016,122.689453 L250.166016,125 L248.894531,125 L248.894531,122.689453 L244.362305,122.689453 L244.362305,121.944336 L248.819336,115.046875 L250.166016,115.046875 L250.166016,121.657227 Z M245.797852,121.657227 L248.894531,121.657227 L248.894531,116.776367 L248.744141,117.049805 L245.797852,121.657227 Z" id="24" fill="#000000" fill-rule="nonzero" opacity="0.25"></path>
    </g>
</svg>