<?xml version="1.0" encoding="UTF-8"?>
<svg width="190px" height="103.726464px" viewBox="0 0 190 103.726464" version="1.1" xmlns="http://www.w3.org/2000/svg" xmlns:xlink="http://www.w3.org/1999/xlink">
    <title>speedometer-2</title>
    <defs>
        <linearGradient x1="-1.11022302e-14%" y1="50%" x2="100%" y2="50%" id="linearGradient-1">
            <stop stop-color="#00CD6A" offset="0%"></stop>
            <stop stop-color="#40A5FF" offset="100%"></stop>
        </linearGradient>
    </defs>
    <g id="speedometer-2" stroke="none" stroke-width="1" fill="none" fill-rule="evenodd">
        <path d="M95,0 C109.0473,0 122.67748,3.05617426 135.141349,8.87441711 C140.427567,11.3420696 145.472228,14.2926623 150.213635,17.6841902 C154.471129,20.7295745 158.471935,24.1218194 162.173571,27.8232827 C179.87031,45.5191973 190,69.4676761 190,95 C190,97.5078867 189.902647,100.004754 189.708926,102.486733 L189.60404,103.726464 L173.670122,102.273789 C173.889558,99.8668677 174,97.440723 174,95 C174,73.7548882 165.585869,53.862312 150.860126,39.1372546 C147.778596,36.0558681 144.44828,33.232126 140.905087,30.6976807 C136.961413,27.8767708 132.767026,25.4234986 128.373491,23.372558 C118.017923,18.5384888 106.696559,16 95,16 C83.3027548,16 71.9807514,18.538787 61.6247002,23.3734026 C57.2309623,25.4245738 53.0364049,27.878118 49.0926018,30.6993336 C45.5492905,33.2340557 42.2188918,36.0581004 39.1373201,39.1398085 C24.4131259,53.8646541 16,73.7561481 16,95 C16,97.0330009 16.0766254,99.0558875 16.2290393,101.065976 L16.3295756,102.270471 L0.395596827,103.722477 C0.132385732,100.834059 0,97.9245219 0,95 C0,69.4691918 10.1284816,45.5220128 27.8233613,27.8263503 C31.5250469,24.124501 35.5259528,20.731893 39.7835873,17.6861768 C44.525148,14.2942821 49.5700129,11.343363 54.8564731,8.87543369 C67.3209238,3.05653356 80.9518756,0 95,0 Z" id="Path" fill="url(#linearGradient-1)" fill-rule="nonzero"></path>
        <path d="M172,94 C172.552285,94 173,94.4477153 173,95 C173,95.5128358 172.61396,95.9355072 172.116621,95.9932723 L172,96 L168,96 C167.447715,96 167,95.5522847 167,95 C167,94.4871642 167.38604,94.0644928 167.883379,94.0067277 L168,94 L172,94 Z M22,94 C22.5522847,94 23,94.4477153 23,95 C23,95.5128358 22.6139598,95.9355072 22.1166211,95.9932723 L22,96 L18,96 C17.4477153,96 17,95.5522847 17,95 C17,94.4871642 17.3860402,94.0644928 17.8833789,94.0067277 L18,94 L22,94 Z M28.7116832,55.5814904 L28.8160439,55.6339746 L32.2801455,57.6339746 C32.7584381,57.910117 32.9223133,58.5217074 32.6461709,59 C32.389753,59.4441289 31.8440967,59.6171529 31.3845062,59.4185096 L31.2801455,59.3660254 L27.8160439,57.3660254 C27.3377513,57.089883 27.1738761,56.4782926 27.4500185,56 C27.7064364,55.5558711 28.2520927,55.3828471 28.7116832,55.5814904 Z M162.549981,56 C162.806399,56.4441289 162.683414,57.0031931 162.281589,57.3018885 L162.183956,57.3660254 L158.719854,59.3660254 C158.241562,59.6421678 157.629971,59.4782926 157.353829,59 C157.097411,58.5558711 157.220396,57.9968069 157.622221,57.6981115 L157.719854,57.6339746 L161.183956,55.6339746 C161.662249,55.3578322 162.273839,55.5217074 162.549981,56 Z M57.3018885,27.7184109 L57.3660254,27.8160439 L59.3660254,31.2801455 C59.6421678,31.7584381 59.4782926,32.3700286 59,32.6461709 C58.5558711,32.9025888 57.9968069,32.7796039 57.6981115,32.3777785 L57.6339746,32.2801455 L55.6339746,28.8160439 C55.3578322,28.3377513 55.5217074,27.7261609 56,27.4500185 C56.4441289,27.1936006 57.0031931,27.3165855 57.3018885,27.7184109 Z M134,27.4500185 C134.444129,27.7064364 134.617153,28.2520927 134.41851,28.7116832 L134.366025,28.8160439 L132.366025,32.2801455 C132.089883,32.7584381 131.478293,32.9223133 131,32.6461709 C130.555871,32.389753 130.382847,31.8440967 130.58149,31.3845062 L130.633975,31.2801455 L132.633975,27.8160439 C132.910117,27.3377513 133.521707,27.1738761 134,27.4500185 Z M95,17 C95.5128358,17 95.9355072,17.3860402 95.9932723,17.8833789 L96,18 L96,22 C96,22.5522847 95.5522847,23 95,23 C94.4871642,23 94.0644928,22.6139598 94.0067277,22.1166211 L94,22 L94,18 C94,17.4477153 94.4477153,17 95,17 Z" id="Shape" fill="#90A4AE" fill-rule="nonzero"></path>
    </g>
</svg>