<?xml version="1.0" encoding="UTF-8"?>
<svg width="81px" height="20px" viewBox="0 0 81 20" version="1.1" xmlns="http://www.w3.org/2000/svg" xmlns:xlink="http://www.w3.org/1999/xlink">
    <title>speedometer-arrow</title>
    <g id="speedometer-arrow" stroke="none" stroke-width="1" fill="none" fill-rule="evenodd">
        <path d="M78.6055305,10 C78.6055305,5.581722 75.0238085,2 70.6055305,2 L70.3021572,2.0063051 L69.5507652,2.0448361 L68.7284586,2.1008812 L66.8163153,2.2529035 L63.893699,2.510711 L60.6912639,2.8098518 L53.1463802,3.5475455 L46.7064384,4.1969682 L29.8422666,5.9406716 L4.77322047,8.5916052 L0.893891562,9.0055998 C0.344710285,9.0642692 -0.0529281674,9.5570295 0.00574122257,10.1062108 C0.0557627036,10.5744423 0.425659981,10.9443396 0.893891562,10.9943611 L29.8422643,14.0593281 L42.6985942,15.3932018 L54.4423041,16.5813581 L59.6656854,17.0920692 L64.6980837,17.5621476 L67.1263439,17.7730173 L68.7284586,17.8991188 L69.5507651,17.9551639 L70.3021572,17.9936949 L70.6055305,18 C75.0238085,18 78.6055305,14.418278 78.6055305,10 Z" id="Oval" fill="#455A64" fill-rule="nonzero"></path>
        <path d="M81,10 C81,4.4771525 76.5228475,0 71,0 C65.4771525,0 61,4.4771525 61,10 C61,15.5228475 65.4771525,20 71,20 C76.5228475,20 81,15.5228475 81,10 Z" id="Oval" fill="#90A4AE" fill-rule="nonzero"></path>
    </g>
</svg>