<?xml version="1.0" encoding="UTF-8"?>
<svg width="198px" height="56px" viewBox="0 0 198 56" version="1.1" xmlns="http://www.w3.org/2000/svg" xmlns:xlink="http://www.w3.org/1999/xlink">
    <!-- Generator: Sketch 59.1 (86144) - https://sketch.com -->
    <title>Logo</title>
    <desc>Created with Sketch.</desc>
    <g id="Symbols" stroke="none" stroke-width="1" fill="none" fill-rule="evenodd">
        <g id="o-left_menu_1" transform="translate(-24.000000, -12.000000)" fill="#FFFFFF" fill-rule="nonzero">
            <g id="left_menu">
                <g id="exterium">
                    <g id="Logo" transform="translate(24.000000, 12.000000)">
                        <path d="M49.372562,0.907107438 C54.6856198,0.907107438 59.0915702,5.18347107 59.0915702,10.6261157 C59.0915702,13.9630777 57.4353345,16.8616243 54.9292588,18.6049592 L54.8436674,21.6137098 C55.2129556,21.54651 55.5932324,21.511405 55.9814876,21.511405 C59.4803306,21.511405 62.3312397,24.362314 62.3312397,27.861157 C62.3312397,31.36 59.4803306,34.2109091 55.9814876,34.2109091 C53.9704018,34.2109091 52.1733796,33.2690289 51.0087599,31.8036071 L46.5711665,34.124558 C47.369919,35.8037889 47.8175207,37.6789378 47.8175207,39.6535537 C47.8175207,46.7808264 41.9861157,52.6122314 34.858843,52.6122314 C30.0741563,52.6122314 25.8734804,49.9841824 23.6290209,46.1002898 L20.600798,47.5289709 C20.7721988,48.1127487 20.8634711,48.7317896 20.8634711,49.372562 C20.8634711,52.871405 18.012562,55.722314 14.513719,55.722314 C11.014876,55.722314 8.16396694,52.871405 8.16396694,49.372562 C8.16396694,46.4066276 10.2125687,43.9062845 12.96787,43.213435 L12.4663995,40.5622065 C12.030796,38.286798 11.5600074,35.8932803 11.1222347,33.7342993 C10.7055432,33.7939469 10.2800602,33.8221488 9.84859504,33.8221488 C4.40595041,33.8221488 0.129586777,29.5457851 0.129586777,24.1031405 C0.129586777,18.6604959 4.53553719,14.3841322 9.84859504,14.3841322 C12.8312059,14.3841322 15.5279505,15.7317872 17.3198433,17.8768877 L23.1278282,11.0112117 C22.5144507,10.0346191 22.1593388,8.88047306 22.1593388,7.64561983 C22.1593388,4.14677686 25.0102479,1.29586777 28.5090909,1.29586777 C32.0079339,1.29586777 34.858843,4.14677686 34.858843,7.64561983 C34.858843,7.86463206 34.8476725,8.08110555 34.8258719,8.29449998 L39.9323865,8.29363478 C40.9791899,4.01004861 44.8467761,0.907107438 49.372562,0.907107438 Z M14.513719,50.4092562 C12.8992837,50.4092562 11.5228742,51.7183976 11.4109762,53.3101946 L11.4036364,53.5193388 L11.4036364,53.6489256 L17.6238017,53.6489256 L17.6238017,53.5193388 C17.6238017,51.8347107 16.1983471,50.4092562 14.513719,50.4092562 Z M14.513719,45.3553719 C13.2178512,45.3553719 12.181157,46.3920661 12.181157,47.6879339 C12.181157,48.9838017 13.2178512,50.0204959 14.513719,50.0204959 C15.8095868,50.0204959 16.846281,48.9838017 16.846281,47.6879339 C16.846281,46.3920661 15.8095868,45.3553719 14.513719,45.3553719 Z M34.858843,41.4677686 L34.5766164,41.4739725 C31.3015525,41.6182236 28.6595459,44.2602302 28.5152948,47.5352941 L28.5090909,47.8175207 L28.5090909,48.0766942 L41.208595,48.0766942 L41.208595,47.8175207 C41.208595,44.413241 38.5097067,41.6223451 35.1410696,41.4739725 L34.858843,41.4677686 Z M23.3335694,33.7472764 L17.3867077,30.2484645 C16.1166438,31.8026984 14.3762463,32.9494963 12.3945327,33.485287 L12.9890283,36.4607523 L12.9890283,36.4607523 L13.1900593,37.4831206 L13.7706677,40.4830377 L14.249362,43.0279934 L14.513719,43.0228099 C16.9984105,43.0228099 19.0577326,44.3596851 20.1091128,46.3260261 L23.0360966,44.9441885 C22.3066307,43.3266125 21.9001653,41.5352459 21.9001653,39.6535537 C21.9001653,37.5297235 22.41797,35.520961 23.3335694,33.7472764 L17.3867077,30.2484645 L23.3335694,33.7472764 Z M34.858843,31.36 C32.2671074,31.36 30.193719,33.4333884 30.193719,36.025124 C30.193719,38.6168595 32.2671074,40.6902479 34.858843,40.6902479 C37.4505785,40.6902479 39.5239669,38.6168595 39.5239669,36.025124 C39.5239669,33.4333884 37.4505785,31.36 34.858843,31.36 Z M44.9725428,19.3011661 L40.9957944,28.2503137 C43.0387767,29.3575648 44.7553508,30.9980223 45.9555405,32.98171 L50.3068203,30.7069344 C49.8750757,29.8502704 49.6317355,28.883366 49.6317355,27.861157 C49.6317355,25.2273933 51.2471653,22.9607728 53.5383736,22.0009465 L53.6110232,19.3761266 C52.3257056,19.9981667 50.8859323,20.345124 49.372562,20.345124 C47.780073,20.345124 46.2874312,19.9679232 44.9725428,19.3011661 Z M39.7074423,9.58990149 L34.5539068,9.58990149 C33.7299919,12.1420159 31.3301501,13.9953719 28.5090909,13.9953719 C26.7196113,13.9953719 25.0996183,13.249631 23.9438366,12.0528739 L18.1023726,18.9566257 C19.0294007,20.4411456 19.5676033,22.2009103 19.5676033,24.1031405 C19.5676033,25.9795162 19.0439315,27.7172728 18.1399563,29.1889717 L23.9847679,32.6267744 C26.3003038,29.0635656 30.3163857,26.694876 34.858843,26.694876 C36.6164019,26.694876 38.2951595,27.0494822 39.8271032,27.690682 L43.8525167,18.6344569 C41.3011242,16.8723057 39.6535537,13.923953 39.6535537,10.6261157 C39.6535537,10.2755967 39.6718281,9.92991505 39.7074423,9.58990149 Z M55.9814876,28.7682645 L55.7723433,28.7756043 C54.2497549,28.8826372 52.9857777,30.1466144 52.8787448,31.6692028 L52.871405,31.8783471 L52.871405,32.0079339 L59.0915702,32.0079339 L59.0915702,31.8783471 C59.0915702,30.2639118 57.7824288,28.8875023 56.1906319,28.7756043 L55.9814876,28.7682645 Z M9.84859504,25.3990083 C7.34046388,25.3990083 5.31777745,27.3407872 5.18989147,29.8149895 L5.18347107,30.0641322 L5.18347107,30.3233058 L14.513719,30.3233058 L14.513719,30.0641322 C14.513719,27.4723967 12.4403306,25.3990083 9.84859504,25.3990083 Z M55.9814876,23.7143802 C54.6856198,23.7143802 53.6489256,24.7510744 53.6489256,26.0469421 C53.6489256,27.3428099 54.6856198,28.3795041 55.9814876,28.3795041 C57.2773554,28.3795041 58.3140496,27.3428099 58.3140496,26.0469421 C58.3140496,24.7510744 57.2773554,23.7143802 55.9814876,23.7143802 Z M9.84859504,17.7533884 C7.90479339,17.7533884 6.34975207,19.3084298 6.34975207,21.2522314 C6.34975207,23.1960331 7.90479339,24.7510744 9.84859504,24.7510744 C11.7923967,24.7510744 13.347438,23.1960331 13.347438,21.2522314 C13.347438,19.3084298 11.7923967,17.7533884 9.84859504,17.7533884 Z M49.2429752,11.9219835 L48.9938324,11.9284039 C46.6021036,12.052027 44.7078948,13.9462358 44.5842716,16.3379647 L44.5778512,16.5871074 L44.5778512,16.846281 L53.9080992,16.846281 L53.9080992,16.5871074 C53.9080992,14.0789763 51.9663202,12.0562898 49.492118,11.9284039 L49.2429752,11.9219835 Z M28.5090909,8.68231405 L28.2999466,8.68965393 C26.7773582,8.79668675 25.513381,10.060664 25.4063481,11.5832524 L25.3990083,11.7923967 L25.3990083,11.9219835 L31.6191736,11.9219835 L31.6191736,11.7923967 C31.6191736,10.1779614 30.3100321,8.80155188 28.7182352,8.68965393 L28.5090909,8.68231405 Z M49.372562,4.27636364 C47.4287603,4.27636364 45.873719,5.83140496 45.873719,7.77520661 C45.873719,9.71900826 47.4287603,11.2740496 49.372562,11.2740496 C51.3163636,11.2740496 52.871405,9.71900826 52.871405,7.77520661 C52.871405,5.83140496 51.3163636,4.27636364 49.372562,4.27636364 Z M28.5090909,3.62842975 C27.2132231,3.62842975 26.1765289,4.53553719 26.1765289,5.83140496 C26.1765289,7.12727273 27.2132231,8.16396694 28.5090909,8.16396694 C29.8049587,8.16396694 30.8416529,7.2568595 30.8416529,5.96099174 C30.8416529,4.66512397 29.8049587,3.62842975 28.5090909,3.62842975 Z" id="Shape"></path>
                        <path d="M149.931901,31.7487603 L149.931901,43.2819835 L146.692231,43.2819835 L146.692231,34.4700826 L143.970909,34.4700826 L143.967887,35.8452893 C143.960331,36.5328926 143.933884,37.1543802 143.841322,37.7097521 C143.841322,38.4872727 143.711736,39.2647934 143.582149,39.7831405 C143.452562,40.4310744 143.322975,40.8198347 143.193388,41.3381818 C143.063802,41.7269421 142.804628,42.1157025 142.675041,42.374876 C142.415868,42.6340496 142.286281,42.8932231 141.897521,43.0228099 L141.12,43.4115702 C140.860826,43.4115702 140.472066,43.541157 140.212893,43.541157 C139.824132,43.541157 139.435372,43.541157 139.046612,43.4115702 C138.657851,43.2819835 138.269091,43.2819835 138.139504,43.2819835 L138.398678,40.8198347 L139.564959,40.8198347 C139.668628,40.8198347 139.772298,40.7368992 139.875967,40.6373765 L139.953719,40.5606612 C140.083306,40.4310744 140.212893,40.3014876 140.342479,40.042314 C140.472066,39.7831405 140.472066,39.5239669 140.601653,39.1352066 C140.73124,38.7464463 140.73124,38.357686 140.860826,37.8393388 C140.860826,37.3209917 140.990413,36.6730579 140.990413,35.8955372 L140.990413,31.7487603 L149.931901,31.7487603 Z M137.10281,31.7487603 L137.10281,43.2819835 L133.86314,43.2819835 L133.86314,34.4700826 L131.141818,34.4700826 L131.138796,35.8452893 C131.13124,36.5328926 131.104793,37.1543802 131.012231,37.7097521 C131.012231,38.4872727 130.882645,39.2647934 130.753058,39.7831405 C130.623471,40.4310744 130.493884,40.8198347 130.364298,41.3381818 C130.234711,41.7269421 129.975537,42.1157025 129.84595,42.374876 C129.586777,42.6340496 129.45719,42.8932231 129.06843,43.0228099 L128.290909,43.4115702 C128.031736,43.4115702 127.642975,43.541157 127.383802,43.541157 C126.995041,43.541157 126.606281,43.541157 126.217521,43.4115702 C125.82876,43.2819835 125.569587,43.2819835 125.310413,43.2819835 L125.569587,40.8198347 L126.735868,40.8198347 C126.839537,40.8198347 126.943207,40.7368992 127.046876,40.6373765 L127.124628,40.5606612 C127.254215,40.4310744 127.383802,40.3014876 127.513388,40.042314 C127.642975,39.7831405 127.642975,39.5239669 127.772562,39.1352066 C127.902149,38.7464463 127.902149,38.357686 128.031736,37.8393388 C128.031736,37.3209917 128.161322,36.6730579 128.161322,35.8955372 L128.161322,31.7487603 L137.10281,31.7487603 Z M185.438678,31.7487603 L185.438678,34.5996694 L181.939835,34.5996694 L181.939835,43.4115702 L178.700165,43.4115702 L178.700165,34.5996694 L175.201322,34.5996694 L175.201322,31.7487603 L185.438678,31.7487603 Z M124.403306,31.7487603 L124.403306,34.4700826 L118.312727,34.4700826 L118.312727,36.2842975 L123.884959,36.2842975 L123.884959,38.8760331 L118.312727,38.8760331 L118.312727,40.6902479 L124.532893,40.6902479 L124.532893,43.4115702 L115.073058,43.4115702 L115.073058,31.7487603 L124.403306,31.7487603 Z M113.647603,31.7487603 L113.647603,34.5996694 L110.14876,34.5996694 L110.14876,43.4115702 L106.909091,43.4115702 L106.909091,34.5996694 L103.410248,34.5996694 L103.410248,31.7487603 L113.647603,31.7487603 Z M166.259835,31.7487603 L166.259835,36.4138843 L170.277025,31.7487603 L174.035041,31.7487603 L169.629091,36.8026446 L174.164628,43.4115702 L170.277025,43.4115702 L167.426116,39.1352066 L166.259835,40.4310744 L166.259835,43.4115702 L163.020165,43.4115702 L163.020165,31.7487603 L166.259835,31.7487603 Z M161.076364,31.7487603 L161.076364,34.4700826 L154.985785,34.4700826 L154.985785,36.2842975 L160.558017,36.2842975 L160.558017,38.8760331 L154.985785,38.8760331 L154.985785,40.6902479 L161.20595,40.6902479 L161.20595,43.4115702 L151.746116,43.4115702 L151.746116,31.7487603 L161.076364,31.7487603 Z M192.436364,31.6191736 L197.360661,43.2819835 L193.861818,43.2819835 L192.954711,41.208595 L188.419174,41.208595 L187.641653,43.2819835 L184.401983,43.2819835 L189.326281,31.6191736 L192.436364,31.6191736 Z M94.4687603,31.7487603 L94.4687603,36.1547107 L98.6155372,36.1547107 L98.6155372,31.7487603 L101.855207,31.7487603 L101.855207,43.2819835 L98.6155372,43.2819835 L98.6155372,38.8760331 L94.4687603,38.8760331 L94.4687603,43.2819835 L91.2290909,43.2819835 L91.2290909,31.7487603 L94.4687603,31.7487603 Z M81.898843,31.7487603 L81.898843,38.2280992 L86.4343802,31.7487603 L89.414876,31.7487603 L89.414876,43.2819835 L86.1752066,43.2819835 L86.1752066,36.8026446 L81.6396694,43.2819835 L78.6591736,43.2819835 L78.6591736,31.7487603 L81.898843,31.7487603 Z M190.751736,35.5067769 L189.455868,38.7464463 L192.047603,38.7464463 L190.751736,35.5067769 Z M153.301157,15.68 C154.208264,15.68 154.985785,15.8095868 155.763306,16.1983471 C156.540826,16.4575207 157.18876,16.9758678 157.707107,17.4942149 C158.225455,18.012562 158.743802,18.6604959 159.002975,19.4380165 C159.262149,20.2155372 159.521322,20.9930579 159.521322,21.7705785 C159.521322,22.5480992 159.391736,23.3256198 159.002975,24.1031405 C158.743802,24.8806612 158.225455,25.528595 157.707107,26.0469421 C157.18876,26.5652893 156.540826,26.9540496 155.763306,27.3428099 C154.985785,27.6019835 154.208264,27.861157 153.301157,27.861157 C152.134876,27.861157 151.098182,27.6019835 150.061488,27.0836364 C149.15438,26.5652893 148.37686,25.7877686 147.858512,24.8806612 C147.340165,23.8439669 147.080992,22.8072727 147.080992,21.7705785 C147.080992,20.9930579 147.210579,20.2155372 147.599339,19.4380165 C147.858512,18.6604959 148.37686,18.012562 148.895207,17.4942149 C149.413554,16.9758678 150.061488,16.5871074 150.839008,16.1983471 C151.616529,15.9391736 152.39405,15.68 153.301157,15.68 Z M105.872397,15.9391736 C107.297851,15.9391736 108.464132,16.3279339 109.37124,16.9758678 C110.278347,17.7533884 110.667107,18.6604959 110.667107,19.9563636 C110.667107,20.8634711 110.407934,21.6409917 110.019174,22.2889256 C109.630413,22.9368595 108.982479,23.4552066 108.204959,23.7143802 L107.617769,23.9047107 C107.022479,24.0869421 106.390744,24.2327273 105.613223,24.2327273 L104.058182,24.2327273 L104.058182,27.6019835 L100.948099,27.6019835 L100.948099,15.9391736 L105.872397,15.9391736 Z M117.146446,15.9391736 C118.571901,15.9391736 119.738182,16.3279339 120.645289,16.9758678 C121.552397,17.7533884 121.941157,18.6604959 121.941157,19.9563636 C121.941157,20.8634711 121.681983,21.6409917 121.293223,22.2889256 C120.904463,22.9368595 120.256529,23.4552066 119.479008,23.7143802 L118.891818,23.9047107 C118.296529,24.0869421 117.664793,24.2327273 116.887273,24.2327273 L115.332231,24.2327273 L115.332231,27.6019835 L112.222149,27.6019835 L112.222149,15.9391736 L117.146446,15.9391736 Z M166.259835,15.9391736 C167.685289,15.9391736 168.85157,16.3279339 169.758678,16.9758678 C170.665785,17.7533884 171.054545,18.6604959 171.054545,19.9563636 C171.054545,20.8634711 170.795372,21.6409917 170.406612,22.2889256 C170.017851,22.9368595 169.369917,23.4552066 168.592397,23.7143802 L168.005207,23.9047107 C167.409917,24.0869421 166.778182,24.2327273 166.000661,24.2327273 L164.575207,24.2327273 L164.575207,27.6019835 L161.335537,27.6019835 L161.335537,15.9391736 L166.259835,15.9391736 Z M146.044298,15.9391736 L146.044298,18.7900826 L142.545455,18.7900826 L142.545455,27.6019835 L139.305785,27.6019835 L139.305785,18.7900826 L135.806942,18.7900826 L135.806942,15.9391736 L146.044298,15.9391736 Z M99.1338843,15.9391736 L99.1338843,18.6604959 L93.0433058,18.6604959 L93.0433058,20.4747107 L98.4859504,20.4747107 L98.4859504,23.0664463 L92.913719,23.0664463 L92.913719,24.8806612 L99.1338843,24.8806612 L99.1338843,27.6019835 L89.8036364,27.6019835 L89.8036364,15.9391736 L99.1338843,15.9391736 Z M88.3781818,15.9391736 L88.3781818,18.7900826 L84.8793388,18.7900826 L84.8793388,27.6019835 L81.6396694,27.6019835 L81.6396694,18.7900826 L78.1408264,18.7900826 L78.1408264,15.9391736 L88.3781818,15.9391736 Z M126.735868,15.9391736 L126.735868,22.4185124 L131.271405,15.9391736 L134.251901,15.9391736 L134.251901,27.4723967 L131.012231,27.4723967 L131.012231,20.9930579 L126.476694,27.4723967 L123.496198,27.4723967 L123.496198,15.9391736 L126.735868,15.9391736 Z M175.849256,15.9391736 L175.849256,22.4185124 L180.384793,15.9391736 L183.365289,15.9391736 L183.365289,27.4723967 L180.12562,27.4723967 L180.12562,20.9930579 L175.590083,27.4723967 L172.609587,27.4723967 L172.609587,15.9391736 L175.849256,15.9391736 Z M185.095273,27.2132231 L184.920331,27.4723967 L184.920331,27.2132231 L185.095273,27.2132231 Z M195.546446,15.68 L195.546446,27.2132231 L192.306777,27.2132231 L192.306777,23.7143802 L190.881322,23.7143802 L188.54876,27.2132231 L185.095273,27.2132231 L187.641653,23.4552066 C186.864132,23.1960331 186.345785,22.677686 185.957025,22.0297521 C185.568264,21.3818182 185.309091,20.7338843 185.309091,19.8267769 C185.309091,19.178843 185.438678,18.5309091 185.697851,18.012562 C185.957025,17.4942149 186.345785,17.1054545 186.734545,16.7166942 C187.123306,16.4575207 187.641653,16.1983471 188.289587,15.9391736 C188.807934,15.8095868 189.455868,15.68 190.103802,15.68 L195.546446,15.68 Z M153.041983,18.6604959 C152.134876,18.6604959 151.486942,18.9196694 150.968595,19.5676033 C150.579835,20.0859504 150.320661,20.8634711 150.320661,21.7705785 C150.320661,22.677686 150.579835,23.3256198 151.098182,23.9735537 C151.616529,24.6214876 152.39405,24.8806612 153.17157,24.8806612 C154.078678,24.8806612 154.726612,24.6214876 155.244959,23.9735537 C155.763306,23.3256198 156.022479,22.677686 156.022479,21.7705785 C156.022479,20.8634711 155.763306,20.2155372 155.244959,19.5676033 C154.726612,18.9196694 153.949091,18.6604959 153.041983,18.6604959 Z M105.613223,18.5309091 L104.058182,18.5309091 L104.058182,21.6409917 L105.74281,21.6409917 C106.261157,21.6409917 106.779504,21.511405 107.038678,21.2522314 C107.427438,20.9930579 107.557025,20.6042975 107.557025,20.0859504 C107.557025,19.5676033 107.427438,19.178843 107.038678,18.9196694 C106.649917,18.6604959 106.261157,18.5309091 105.613223,18.5309091 Z M116.887273,18.5309091 L115.332231,18.5309091 L115.332231,21.6409917 L117.01686,21.6409917 C117.535207,21.6409917 118.053554,21.511405 118.312727,21.2522314 C118.701488,20.9930579 118.831074,20.6042975 118.831074,20.0859504 C118.831074,19.5676033 118.701488,19.178843 118.312727,18.9196694 C117.923967,18.6604959 117.535207,18.5309091 116.887273,18.5309091 Z M166.000661,18.5309091 L164.575207,18.5309091 L164.575207,21.6409917 L166.130248,21.6409917 C166.648595,21.6409917 167.166942,21.511405 167.426116,21.2522314 C167.814876,20.9930579 167.944463,20.6042975 167.944463,20.0859504 C167.944463,19.5676033 167.814876,19.178843 167.426116,18.9196694 C167.037355,18.6604959 166.648595,18.5309091 166.000661,18.5309091 Z M192.436364,18.6604959 L190.362975,18.6604959 C189.844628,18.6604959 189.326281,18.7900826 189.067107,19.0492562 C188.807934,19.3084298 188.54876,19.6971901 188.54876,20.0859504 C188.54876,20.4747107 188.678347,20.8634711 189.067107,21.1226446 C189.326281,21.3818182 189.844628,21.511405 190.362975,21.511405 L192.436364,21.511405 L192.436364,18.6604959 Z" id="Shape"></path>
                    </g>
                </g>
            </g>
        </g>
    </g>
</svg>