<?xml version="1.0" encoding="UTF-8"?>
<svg width="64px" height="56px" viewBox="0 0 64 56" version="1.1" xmlns="http://www.w3.org/2000/svg" xmlns:xlink="http://www.w3.org/1999/xlink">
    <!-- Generator: Sketch 59.1 (86144) - https://sketch.com -->
    <title>tintel-logo-mini</title>
    <desc>Created with Sketch.</desc>
    <g id="tintel-logo-mini" stroke="none" stroke-width="1" fill="none" fill-rule="evenodd">
        <path d="M50.6666667,0 C56.1333333,0 60.6666667,4.36879433 60.6666667,9.92907801 C60.6666667,13.3381661 58.9625465,16.2993629 56.3840163,18.0803788 L56.2959503,21.1541615 C56.6759152,21.0855092 57.0671864,21.0496454 57.4666667,21.0496454 C61.0666667,21.0496454 64,23.9621749 64,27.536643 C64,31.1111111 61.0666667,34.0236407 57.4666667,34.0236407 C55.3974372,34.0236407 53.5484603,33.0614023 52.3501696,31.5643065 L47.7842785,33.9354232 C48.6061241,35.6509495 49.0666667,37.5666284 49.0666667,39.5839243 C49.0666667,46.8652482 43.0666667,52.822695 35.7333333,52.822695 C30.8103138,52.822695 26.4881899,50.1378425 24.1788395,46.1700022 L21.063066,47.6295633 C21.2394223,48.2259591 21.3333333,48.8583801 21.3333333,49.5130024 C21.3333333,53.0874704 18.4,56 14.8,56 C11.2,56 8.26666667,53.0874704 8.26666667,49.5130024 C8.26666667,46.4829613 10.3744967,43.928575 13.2094581,43.22075 L12.6934893,40.5122171 C12.2452918,38.1876271 11.760892,35.7423751 11.3104625,33.5367292 C10.8817239,33.5976662 10.4439395,33.6264775 10,33.6264775 C4.4,33.6264775 0,29.2576832 0,23.6973995 C0,18.1371158 4.53333333,13.7683215 10,13.7683215 C13.0688428,13.7683215 15.8435545,15.1451052 17.6872537,17.3365705 L23.6631566,10.3224976 C23.0320453,9.32479657 22.6666667,8.1457045 22.6666667,6.88416076 C22.6666667,3.30969267 25.6,0.397163121 29.2,0.397163121 C32.8,0.397163121 35.7333333,3.30969267 35.7333333,6.88416076 C35.7333333,7.10790678 35.7218399,7.32905919 35.699409,7.547066 L40.9535609,7.5461821 C42.0306291,3.17000913 46.0100333,0 50.6666667,0 Z M14.8,50.572104 C13.1388889,50.572104 11.7226852,51.9095416 11.6075521,53.5357442 L11.6,53.749409 L11.6,53.8817967 L18,53.8817967 L18,53.749409 C18,52.0283688 16.5333333,50.572104 14.8,50.572104 Z M14.8,45.4089835 C13.4666667,45.4089835 12.4,46.4680851 12.4,47.7919622 C12.4,49.1158392 13.4666667,50.1749409 14.8,50.1749409 C16.1333333,50.1749409 17.2,49.1158392 17.2,47.7919622 C17.2,46.4680851 16.1333333,45.4089835 14.8,45.4089835 Z M35.7333333,41.4373522 L35.4429471,41.4436903 C32.0731961,41.5910593 29.3548049,44.290171 29.2063833,47.6360231 L29.2,47.9243499 L29.2,48.1891253 L42.2666667,48.1891253 L42.2666667,47.9243499 C42.2666667,44.446489 39.4897492,41.5952698 36.0237196,41.4436903 L35.7333333,41.4373522 Z M23.8748461,33.5499869 L17.7560513,29.9755506 C16.4492678,31.5633781 14.6585527,32.7349633 12.6195447,33.2823348 L13.2312281,36.3221127 L13.2312281,36.3221127 L13.4380712,37.3665788 L14.0354659,40.4313371 L14.528,43.0313002 L14.8,43.0260047 C17.3565278,43.0260047 19.4753881,44.3917756 20.5571654,46.4006177 L23.5687729,44.9889126 C22.818217,43.3363738 22.4,41.5062881 22.4,39.5839243 C22.4,37.414189 22.9327753,35.3620085 23.8748461,33.5499869 L17.7560513,29.9755506 L23.8748461,33.5499869 Z M35.7333333,31.1111111 C33.0666667,31.1111111 30.9333333,33.2293144 30.9333333,35.8770686 C30.9333333,38.5248227 33.0666667,40.643026 35.7333333,40.643026 C38.4,40.643026 40.5333333,38.5248227 40.5333333,35.8770686 C40.5333333,33.2293144 38.4,31.1111111 35.7333333,31.1111111 Z M46.139436,18.7916337 L42.0477136,27.934211 C44.1497618,29.0653947 45.9159647,30.7413096 47.1508537,32.7678732 L51.6279359,30.4439299 C51.1837089,29.5687497 50.9333333,28.5809463 50.9333333,27.536643 C50.9333333,24.8459523 52.5954677,22.5303403 54.9529184,21.5497681 L55.0276685,18.8682145 C53.7051902,19.5036996 52.2237908,19.858156 50.6666667,19.858156 C49.0281363,19.858156 47.4923399,19.4728023 46.139436,18.7916337 Z M40.7221132,8.87046674 L35.419581,8.87046674 C34.5718454,11.4777434 32.1026204,13.3711584 29.2,13.3711584 C27.3587838,13.3711584 25.6919543,12.6092988 24.502757,11.3866747 L18.4924072,18.4396464 C19.4462371,19.9562531 20,21.754054 20,23.6973995 C20,25.6143318 19.461188,27.3896488 18.5310775,28.8931575 L24.5448718,32.405266 C26.9273534,28.7650409 31.0595465,26.3451537 35.7333333,26.3451537 C37.541706,26.3451537 39.2689991,26.7074244 40.8452338,27.3624833 L44.9870283,18.110514 C42.3618709,16.3102751 40.6666667,13.2981958 40.6666667,9.92907801 C40.6666667,9.57098279 40.6854694,9.21782946 40.7221132,8.87046674 Z M57.4666667,28.463357 L57.2514757,28.4708555 C55.6848669,28.5802018 54.3843461,29.871499 54.2742187,31.4269971 L54.2666667,31.6406619 L54.2666667,31.7730496 L60.6666667,31.7730496 L60.6666667,31.6406619 C60.6666667,29.9913318 59.3196759,28.5851721 57.6818576,28.4708555 L57.4666667,28.463357 Z M10,25.0212766 C7.41935484,25.0212766 5.33818939,27.0050258 5.20660602,29.5327062 L5.2,29.787234 L5.2,30.0520095 L14.8,30.0520095 L14.8,29.787234 C14.8,27.1394799 12.6666667,25.0212766 10,25.0212766 Z M57.4666667,23.3002364 C56.1333333,23.3002364 55.0666667,24.3593381 55.0666667,25.6832151 C55.0666667,27.0070922 56.1333333,28.0661939 57.4666667,28.0661939 C58.8,28.0661939 59.8666667,27.0070922 59.8666667,25.6832151 C59.8666667,24.3593381 58.8,23.3002364 57.4666667,23.3002364 Z M10,17.2104019 C8,17.2104019 6.4,18.7990544 6.4,20.78487 C6.4,22.7706856 8,24.3593381 10,24.3593381 C12,24.3593381 13.6,22.7706856 13.6,20.78487 C13.6,18.7990544 12,17.2104019 10,17.2104019 Z M50.5333333,11.2529551 L50.2769875,11.2595143 C47.81611,11.3858094 45.8671366,13.3209603 45.7399394,15.7643847 L45.7333333,16.0189125 L45.7333333,16.2836879 L55.3333333,16.2836879 L55.3333333,16.0189125 C55.3333333,13.4565698 53.3354145,11.3901644 50.7896792,11.2595143 L50.5333333,11.2529551 Z M29.2,7.94326241 L28.984809,7.95076093 C27.4182002,8.0601072 26.1176794,9.35140449 26.0075521,10.9069026 L26,11.1205674 L26,11.2529551 L32.4,11.2529551 L32.4,11.1205674 C32.4,9.47123719 31.0530093,8.06507749 29.415191,7.95076093 L29.2,7.94326241 Z M50.6666667,3.44208038 C48.6666667,3.44208038 47.0666667,5.03073286 47.0666667,7.01654846 C47.0666667,9.00236407 48.6666667,10.5910165 50.6666667,10.5910165 C52.6666667,10.5910165 54.2666667,9.00236407 54.2666667,7.01654846 C54.2666667,5.03073286 52.6666667,3.44208038 50.6666667,3.44208038 Z M29.2,2.78014184 C27.8666667,2.78014184 26.8,3.70685579 26.8,5.03073286 C26.8,6.35460993 27.8666667,7.41371158 29.2,7.41371158 C30.5333333,7.41371158 31.6,6.48699764 31.6,5.16312057 C31.6,3.8392435 30.5333333,2.78014184 29.2,2.78014184 Z" id="Shape" fill="#FFFFFF" fill-rule="nonzero"></path>
    </g>
</svg>