<?xml version="1.0" encoding="UTF-8"?>
<svg width="164px" height="50px" viewBox="0 0 164 50" version="1.1" xmlns="http://www.w3.org/2000/svg" xmlns:xlink="http://www.w3.org/1999/xlink">
    <title>mytrack-logo</title>
    <defs>
        <linearGradient x1="7.11914063%" y1="25.0019531%" x2="50%" y2="50%" id="linearGradient-1">
            <stop stop-color="#7563C7" offset="0%"></stop>
            <stop stop-color="#FFFFFF" offset="100%"></stop>
        </linearGradient>
        <linearGradient x1="50%" y1="0%" x2="50%" y2="166.587269%" id="linearGradient-2">
            <stop stop-color="#7563C7" offset="0.038243007%"></stop>
            <stop stop-color="#FFFFFF" offset="100%"></stop>
        </linearGradient>
        <linearGradient x1="96.7566697%" y1="59.8520808%" x2="59.8492542%" y2="66.6186204%" id="linearGradient-3">
            <stop stop-color="#7563C7" offset="0%"></stop>
            <stop stop-color="#FFFFFF" offset="100%"></stop>
        </linearGradient>
    </defs>
    <g id="mytrack-logo" stroke="none" stroke-width="1" fill="none" fill-rule="evenodd">
        <path d="M25,0 C37.4883128,0 47.8379425,9.1567913 49.7011251,21.12261 C48.5560358,19.4312529 46.9326353,18.0920101 45.025186,17.2993773 L44.7706963,17.1975278 L44.7067921,17.034825 L44.5976131,16.7701421 L44.4380632,16.400562 L44.3201414,16.1392091 L44.0574135,15.5883848 C43.8444091,15.1579235 43.6174834,14.7361152 43.3770364,14.323149 L43.1137556,13.8832628 L42.9670267,13.6481391 L42.6966479,13.2319197 L42.5741188,13.0500661 C42.4655095,12.8906424 42.3545253,12.7324098 42.2414593,12.5757795 L41.9440389,12.1737813 L41.6361299,11.7774211 L41.3284916,11.3997979 C40.7319053,10.6842865 40.0889786,10.0084239 39.4044251,9.37695106 L38.8393637,8.87391756 L38.5798418,8.65455291 C38.353513,8.46631098 38.1232125,8.28268079 37.8890845,8.10380657 L37.4002736,7.74127948 L37.0041606,7.46294822 L36.6633036,7.23398355 L36.5126612,7.13579602 L36.0566177,6.84940575 L35.4935114,6.517435 L35.2324227,6.37130871 L34.6937042,6.08479386 L34.4718871,5.97252849 L34.1745851,5.82713618 L33.6016833,5.56293176 L33.11312,5.35371597 L32.5327829,5.12378387 L32.0549568,4.94915884 L31.4651714,4.75137336 L30.9065961,4.58166257 L30.3089565,4.4185562 L29.7901713,4.29210326 L29.2689263,4.17892784 L28.59587,4.052977 L28.1752934,3.9856371 C27.96659,3.95436387 27.7565397,3.92608329 27.5455398,3.90089454 L26.8184568,3.82671673 L26.2382076,3.78547342 L25.6526249,3.75983079 L25.1914783,3.75084514 L25,3.75 C13.2639491,3.75 3.75,13.2639491 3.75,25 C3.75,36.6186904 13.0746215,46.0594988 24.6485924,46.2471531 L25,46.25 C30.1014564,46.25 34.7830491,44.4523497 38.4458783,41.4559488 L38.2234746,41.1277402 C37.9123009,40.6708221 37.6127961,40.2216833 37.3249604,39.780324 L36.7648477,38.9079776 C36.5833297,38.620653 36.4069979,38.3367859 36.2358524,38.0563762 L35.7379744,37.2255197 C33.2459915,32.9863522 32,29.5778456 32,27 C32,22.0294373 36.0294373,18 41,18 C45.9705627,18 50,22.0294373 50,27 L49.9986636,27.170832 C49.965862,29.2787736 49.3311392,31.6819309 48.3063375,34.062541 C48.230519,34.2574492 48.1523252,34.4511705 48.0717916,34.6436695 L47.8645918,35.1252681 L47.6101065,35.6801782 L47.5727776,35.7586517 C47.4200071,36.0789719 47.2605704,36.3954013 47.0946821,36.7078498 L46.8118216,37.2254143 L46.5321928,37.7105058 L46.218952,38.2258947 L45.8492288,38.8001082 L45.4581851,39.3724526 L45.1453916,39.806947 L44.8231094,40.2350159 L44.4377311,40.7231067 L44.1729912,41.0444965 C43.9412129,41.3211743 43.7036567,41.5926517 43.4604528,41.8588137 L43.0364862,42.311464 L42.677095,42.678242 L42.25396,43.0915188 C41.4347874,43.8729977 40.5626156,44.5994055 39.6433851,45.2648017 L39.3480778,45.475326 L38.8982947,45.7838425 L38.4953803,46.0482263 C38.2333478,46.2165898 37.9677266,46.3803296 37.6987932,46.5392241 L37.1732652,46.8411831 L36.8812805,47.0017224 C36.6059566,47.1507153 36.3275202,47.2946911 36.0460939,47.4335271 L35.4291337,47.7274313 L34.8501663,47.9846614 L34.1867579,48.2580648 L33.5655271,48.4940827 L32.8701452,48.7360415 L32.2149151,48.9431546 L31.9506261,49.0210855 L31.5534732,49.1322322 L30.8229633,49.3182757 L30.6188518,49.3660602 L30.1851141,49.4615993 L29.4270026,49.6092438 L28.9223302,49.6940857 L28.4141091,49.7688184 L28.0886544,49.8110872 L27.5757313,49.8689268 L27.1065554,49.912503 L26.4826758,49.9567613 L25.9945956,49.9805775 L25.4134207,49.9966507 L25,50 C11.1928813,50 -6.82121026e-13,38.8071187 -6.82121026e-13,25 C-6.82121026e-13,11.1928813 11.1928813,0 25,0 Z M41,22 C38.2385763,22 36,24.2385763 36,27 C36,29.7614237 38.2385763,32 41,32 C43.7614237,32 46,29.7614237 46,27 C46,24.2385763 43.7614237,22 41,22 Z" id="Shape" fill="url(#linearGradient-1)" fill-rule="nonzero"></path>
        <path d="M45.8999437,25.999812 C45.9655564,26.3229802 46,26.6574677 46,27 C46,29.7614237 43.7614237,32 41,32 C38.2385763,32 36,29.7614237 36,27 C36,26.6574677 36.0344436,26.3229802 36.1000563,25.999812 C36.5638213,28.2826939 38.5813615,30 41,30 C43.3980785,30 45.4018489,28.3117662 45.8876389,26.058971 L45.8999437,25.999812 Z" id="Path" fill="url(#linearGradient-2)" fill-rule="nonzero"></path>
        <path d="M9,25 C9,33.836556 16.163444,41 25,41 C28.5203298,41 31.7751222,39.8630994 34.4172414,37.936434 L34.4448539,37.9856771 L34.9491787,38.8273956 C35.1306964,39.1248945 35.3111037,39.4153226 35.4967137,39.7091243 L36.0627445,40.5907626 L36.4125145,41.120798 L35.9469623,41.4410922 L35.6342825,41.6454587 L35.2935651,41.858733 L34.9479212,42.0654107 C34.7481256,42.1821298 34.5460428,42.295469 34.3418043,42.4053184 L33.9029393,42.6342978 L33.5526046,42.8071723 L33.2465735,42.9511949 L33.076781,43.02835 L32.6566907,43.2109851 L32.2317623,43.38404 L31.8765906,43.5199034 L31.4447856,43.6745742 L31.0084161,43.8194362 L30.6100906,43.9418487 L30.4014526,44.0022909 L29.9106822,44.1346709 L29.5603537,44.2208859 L29.361509,44.2667951 L28.8925454,44.3665013 L28.4196886,44.455016 L28.0698086,44.512849 L27.6213385,44.5775688 L27.2968375,44.617873 L26.8403753,44.6653869 L26.3964967,44.7013919 L25.8416742,44.7323891 C25.5623427,44.7440956 25.2818609,44.75 25,44.75 C14.0923762,44.75 5.25,35.9076238 5.25,25 L9,25 Z" id="Path" fill="url(#linearGradient-3)" fill-rule="nonzero"></path>
        <path d="M25,5.25 L25.4818509,5.25576292 L25.9147284,5.27080749 L26.4714196,5.30398397 L26.7979268,5.33073654 C27.0841565,5.35655728 27.3688903,5.38852648 27.651816,5.42649604 L28.0748297,5.48793528 L28.403089,5.54209365 L28.7295199,5.6016277 L29.288039,5.71679218 L29.6232435,5.79408844 C29.8168923,5.84054087 30.0088483,5.88968717 30.199655,5.94162235 L30.6786366,6.0785576 L31.1018371,6.21062255 L31.4709232,6.33446548 L31.8365748,6.46528211 C32.2585285,6.62097521 32.6736562,6.79064386 33.0814449,6.97374341 L33.4164117,7.12793975 L33.8514444,7.33974754 L34.2109856,7.52495417 L34.6367312,7.75656849 L34.9588135,7.94095712 L35.1356692,8.04566565 L35.49471,8.2660071 L35.8487654,8.49381664 L36.0890173,8.65457186 C36.430689,8.88681338 36.7647735,9.12954993 37.0907584,9.3822862 L37.5735968,9.76882849 L37.8667501,10.015909 L38.117679,10.2352659 L38.4602274,10.5470473 L38.8068489,10.8778991 L39.2439383,11.3188558 L39.5749801,11.6719365 L39.9066882,12.0437336 L40.0070815,12.1600472 C40.148398,12.3250618 40.2869679,12.4923442 40.4227993,12.6619152 C40.6265983,12.9163457 40.8241454,13.175802 41.0152781,13.4401374 L41.297146,13.8402815 L41.4629846,14.0859231 C41.7883961,14.5758589 42.0919716,15.0801422 42.3730321,15.5984143 L42.5258038,15.8857609 L42.674039,16.1760621 L42.9145118,16.6741701 C42.2932018,16.5597141 41.6535747,16.5 41,16.5 C40.2138411,16.5 39.4478617,16.5863987 38.7110391,16.7502188 C35.9114213,12.105726 30.8184012,9 25,9 C16.163444,9 9,16.163444 9,25 L5.25,25 C5.25,14.2071933 13.9072007,5.43638412 24.6562431,5.25293139 L25,5.25 Z" id="Path" fill="#FFFFFF" fill-rule="nonzero"></path>
        <path d="M69.032,39 C69.032,39 70.376,28.44 70.376,28.44 C70.376,28.44 70.4978028,28.7445069 70.7000413,29.2501034 L70.8463295,29.6158238 C71.659029,31.6475724 73.316971,35.7924276 74.1296705,37.8241762 L74.2759587,38.1898966 C74.4781972,38.6954931 74.6,39 74.6,39 L76.136,39 L76.136,39 C76.136,39 76.2578028,38.6954931 76.4600413,38.1898966 L76.6063295,37.8241762 C77.419029,35.7924276 79.076971,31.6475724 79.8896705,29.6158238 L80.0359587,29.2501034 C80.2381972,28.7445069 80.36,28.44 80.36,28.44 C80.36,28.44 81.704,39 81.704,39 L84.968,39 L84.968,39 C84.968,39 84.9020156,38.5381093 84.79238,37.7706603 L84.6933909,37.0777362 C84.5017048,35.7359336 84.2305522,33.8378655 83.9486609,31.8646263 L83.8425825,31.1220776 C83.8248636,30.9980455 83.8071364,30.8739545 83.7894175,30.7499224 L83.6833391,30.0073737 C83.4014478,28.0341345 83.1302952,26.1360664 82.9386091,24.7942638 L82.83962,24.1013397 C82.7299844,23.3338907 82.664,22.872 82.664,22.872 L79.592,22.872 L79.592,22.872 C79.592,22.872 75.368,33.24 75.368,33.24 C75.368,33.24 71.144,22.872 71.144,22.872 L68.072,22.872 L68.072,22.872 C68.072,22.872 68.0060156,23.3338907 67.89638,24.1013397 L67.7973909,24.7942638 C67.6057048,26.1360664 67.3345522,28.0341345 67.0526609,30.0073737 L66.9465825,30.7499224 C66.9288636,30.8739545 66.9111364,30.9980455 66.8934175,31.1220776 L66.7873391,31.8646263 C66.5054478,33.8378655 66.2342952,35.7359336 66.0426091,37.0777362 L65.94362,37.7706603 C65.8339844,38.5381093 65.768,39 65.768,39 L69.032,39 L69.032,39 Z M90.728,45.144 C90.728,45.144 98.408,27.096 98.408,27.096 L94.952,27.096 L94.952,27.096 C94.952,27.096 92.072,34.104 92.072,34.104 C92.072,34.104 89.192,27.096 89.192,27.096 L85.736,27.096 L85.736,27.096 C85.736,27.096 90.344,38.136 90.344,38.136 C90.344,38.136 87.272,45.144 87.272,45.144 L90.728,45.144 L90.728,45.144 Z M106.472,39 L106.472,25.944 L106.472,25.944 L110.696,25.944 L110.696,25.944 L110.696,22.872 L110.696,22.872 L99.176,22.872 L99.176,22.872 L99.176,25.944 L99.176,25.944 L103.4,25.944 L103.4,25.944 L103.4,39 L103.4,39 L106.472,39 L106.472,39 Z M116.072,39 L116.072,34.008 L116.072,34.008 C116.072,33.024 116.336,32.232 116.864,31.584 C117.392,30.96 118.016,30.552 118.76,30.336 C119.504,30.12 120.272,30.12 121.064,30.336 L121.064,26.712 L121.064,26.712 C119.912,26.784 118.88,27.072 117.992,27.552 C117.104,28.056 116.456,28.728 116.072,29.616 L116.072,27.096 L116.072,27.096 L113,27.096 L113,27.096 L113,39 L113,39 L116.072,39 L116.072,39 Z M128.552,39.384 C130.016,39.384 131.24,38.832 132.2,37.728 L132.2,39 L132.2,39 L135.272,39 L135.272,39 L135.272,27.096 L135.272,27.096 L132.2,27.096 L132.2,27.096 L132.2,28.368 L132.2,28.368 C131.24,27.264 130.016,26.712 128.552,26.712 C126.896,26.712 125.504,27.336 124.352,28.56 C123.176,29.808 122.6,31.296 122.6,33.048 C122.6,34.8 123.176,36.288 124.352,37.512 C125.504,38.76 126.896,39.384 128.552,39.384 Z M128.936,36.312 C128.048,36.312 127.28,36 126.632,35.352 C125.984,34.704 125.672,33.936 125.672,33.048 C125.672,32.16 125.984,31.392 126.632,30.744 C127.28,30.096 128.048,29.784 128.936,29.784 C129.824,29.784 130.592,30.096 131.24,30.744 C131.888,31.392 132.2,32.16 132.2,33.048 C132.2,33.936 131.888,34.704 131.24,35.352 C130.592,36 129.824,36.312 128.936,36.312 Z M144.2,39.384 C145.976,39.384 147.344,38.904 148.328,37.968 C148.328,37.968 147.056,35.232 147.056,35.232 C146.336,35.952 145.424,36.312 144.296,36.312 C143.192,36.312 142.304,36 141.656,35.376 C140.984,34.752 140.648,33.984 140.648,33.048 C140.648,32.112 140.984,31.344 141.656,30.72 C142.304,30.096 143.192,29.784 144.296,29.784 C145.4,29.784 146.312,30.144 147.056,30.888 C147.056,30.888 148.328,28.128 148.328,28.128 C147.272,27.192 145.904,26.712 144.2,26.712 C142.184,26.712 140.576,27.312 139.376,28.512 C138.176,29.736 137.576,31.248 137.576,33.048 C137.576,34.848 138.176,36.36 139.376,37.56 C140.552,38.784 142.16,39.384 144.2,39.384 Z M153.704,39 L153.704,34.296 L153.704,34.296 C153.704,34.296 158.696,39 158.696,39 L162.536,39 L162.536,39 L162.527033,38.9910326 L162.527033,38.9910326 L156.392,32.856 L156.392,32.856 L156.401201,32.8467993 L156.401201,32.8467993 L162.152,27.096 L162.152,27.096 L158.312,27.096 L158.312,27.096 C158.312,27.096 157.349022,28.0389159 156.303503,29.0626532 L155.712497,29.6413468 C154.666978,30.6650841 153.704,31.608 153.704,31.608 L153.704,22.104 L153.704,22.104 L150.632,22.104 L150.632,22.104 L150.632,39 L150.632,39 L153.704,39 L153.704,39 Z" id="MyTrack" fill="#FFFFFF" fill-rule="nonzero"></path>
    </g>
</svg>