<svg xmlns="http://www.w3.org/2000/svg" width="50" height="50" viewBox="0 0 50 50">
    <defs>
        <linearGradient id="0tkndu3eua" x1="7.119%" x2="50%" y1="25.002%" y2="50%">
            <stop offset="0%" stop-color="#FFF" stop-opacity="0"/>
            <stop offset="100%" stop-color="#FFF"/>
        </linearGradient>
        <linearGradient id="69xesutvfb" x1="50%" x2="50%" y1="0%" y2="166.587%">
            <stop offset=".038%" stop-color="#FFF" stop-opacity="0"/>
            <stop offset="100%" stop-color="#FFF"/>
        </linearGradient>
        <linearGradient id="2007vtq29c" x1="96.757%" x2="59.849%" y1="59.852%" y2="66.619%">
            <stop offset="0%" stop-color="#FFF" stop-opacity="0"/>
            <stop offset="100%" stop-color="#FFF"/>
        </linearGradient>
    </defs>
    <g fill="none" fill-rule="evenodd">
        <g fill-rule="nonzero">
            <g>
                <path fill="url(#0tkndu3eua)" d="M25 0c12.488 0 22.838 9.157 24.701 21.123-1.145-1.692-2.768-3.031-4.676-3.824l-.254-.101-.064-.163-.11-.265-.159-.37-.118-.26-.263-.552c-.213-.43-.44-.852-.68-1.265l-.263-.44-.147-.235-.27-.416-.123-.182c-.108-.16-.22-.318-.333-.474l-.297-.402-.308-.397-.308-.377c-.596-.716-1.239-1.392-1.924-2.023l-.565-.503-.26-.22c-.225-.188-.456-.371-.69-.55L37.4 7.74l-.396-.278-.34-.229-.151-.098-.456-.287-.563-.332-.262-.146-.538-.286-.222-.112-.297-.146-.573-.264-.489-.21-.58-.23-.478-.174-.59-.198-.558-.17-.598-.162-.519-.127-.521-.113-.673-.126-.42-.067c-.21-.032-.42-.06-.63-.085l-.728-.074-.58-.042-.585-.025-.462-.01H25C13.264 3.75 3.75 13.264 3.75 25c0 11.619 9.325 21.06 20.899 21.247l.351.003c5.101 0 9.783-1.798 13.446-4.794l-.223-.328c-.31-.457-.61-.906-.898-1.348l-.56-.872c-.182-.287-.358-.571-.53-.852l-.497-.83C33.246 32.986 32 29.578 32 27c0-4.97 4.03-9 9-9s9 4.03 9 9l-.001.17c-.033 2.109-.668 4.512-1.693 6.893-.075.194-.154.388-.234.58l-.207.482-.255.555-.037.079c-.153.32-.312.636-.478.949l-.283.517-.28.486-.313.515-.37.574-.39.572-.314.435-.322.428-.385.488-.265.321c-.232.277-.47.549-.713.815l-.424.452-.359.367-.423.414c-.82.781-1.691 1.507-2.61 2.173l-.296.21-.45.309-.403.264c-.262.169-.527.332-.796.491l-.526.302-.292.16c-.275.15-.553.294-.835.433l-.617.293-.579.258-.663.273-.621.236-.696.242-.655.207-.264.078-.398.111-.73.186-.204.048-.434.096-.758.147-.505.085-.508.075-.325.042-.513.058-.47.044-.623.044-.488.024-.582.016L25 50C11.193 50 0 38.807 0 25S11.193 0 25 0zm16 22c-2.761 0-5 2.239-5 5s2.239 5 5 5 5-2.239 5-5-2.239-5-5-5z" transform="translate(-24 -15) translate(24 15)"/>
                <path fill="url(#69xesutvfb)" d="M45.9 26c.066.323.1.657.1 1 0 2.761-2.239 5-5 5s-5-2.239-5-5c0-.343.034-.677.1-1 .464 2.283 2.481 4 4.9 4 2.398 0 4.402-1.688 4.888-3.941l.012-.06z" transform="translate(-24 -15) translate(24 15)"/>
                <path fill="url(#2007vtq29c)" d="M9 25c0 8.837 7.163 16 16 16 3.52 0 6.775-1.137 9.417-3.064l.028.05.504.841c.182.298.362.588.548.882l.566.882.35.53-.466.32-.313.204-.34.214-.346.206c-.2.117-.402.23-.606.34l-.44.23-.35.172-.305.144-.17.077-.42.183-.425.173-.355.136-.432.155-.437.144-.398.123-.209.06-.49.133-.35.086-.2.046-.468.1-.473.088-.35.058-.449.065-.324.04-.457.047-.444.036-.554.031c-.28.012-.56.018-.842.018-10.908 0-19.75-8.842-19.75-19.75H9z" transform="translate(-24 -15) translate(24 15)"/>
                <path fill="#FFF" d="M25 5.25l.482.006.433.015.556.033.327.027c.286.026.57.058.854.095l.423.062.328.054.327.06.558.115.335.077c.194.047.386.096.577.148l.479.137.423.132.369.123.366.131c.422.156.837.326 1.244.509l.335.154.435.212.36.185.426.232.322.184.177.105.359.22.354.228.24.16c.342.233.676.476 1.002.728l.483.387.293.247.25.22.343.311.347.33.437.442.331.353.332.372.1.116c.141.165.28.332.416.502.204.254.401.514.592.778l.282.4.166.246c.325.49.629.994.91 1.512l.153.288.148.29.24.498c-.62-.114-1.26-.174-1.914-.174-.786 0-1.552.086-2.289.25C35.911 12.106 30.818 9 25 9 16.163 9 9 16.163 9 25H5.25c0-10.793 8.657-19.564 19.406-19.747L25 5.25z" transform="translate(-24 -15) translate(24 15)"/>
            </g>
        </g>
    </g>
</svg>
