<svg xmlns="http://www.w3.org/2000/svg" width="90" height="80" viewBox="0 0 90 80">
    <g fill="none" fill-rule="evenodd">
        <g fill="#BFBFBF" fill-rule="nonzero">
            <g>
                <path d="M83.442 40.354l1.761-2.649h1.062v2.649h2.424v-8.746h-4.136c-1.986 0-3.623.937-3.623 2.986-.048 1.197.677 2.29 1.8 2.711l-2.087 3.049h2.799zm1.236-6.684h1.587v2.173h-1.6c-.824 0-1.298-.437-1.298-1.074 0-.712.5-1.1 1.311-1.1zm-19.422 4.185h1.2c2.173 0 3.76-1.087 3.76-3.148 0-1.962-1.425-3.099-3.636-3.099h-3.748v8.746h2.424v-2.5zm0-4.21h1.137c.874 0 1.399.4 1.399 1.149 0 .712-.525 1.162-1.387 1.162h-1.15v-2.311zm11.872-2.037h2.262v8.746H76.99V35.43l-3.386 4.923h-2.261v-8.746h2.399v4.923l3.385-4.923zM28.21 37.855h1.199c2.174 0 3.76-1.087 3.76-3.148 0-1.962-1.424-3.099-3.635-3.099h-3.748v8.746h2.424v-2.5zm0-4.21h1.136c.875 0 1.4.4 1.4 1.149 0 .712-.525 1.162-1.387 1.162h-1.15v-2.311zm17.923.087h-2.624v-2.124h7.671v2.124h-2.623v6.622h-2.424v-6.622zm-26.435 4.123h1.199c2.174 0 3.76-1.087 3.76-3.148 0-1.962-1.424-3.099-3.635-3.099h-3.748v8.746h2.424v-2.5zm0-4.21h1.136c.875 0 1.4.4 1.4 1.149 0 .712-.525 1.162-1.387 1.162h-1.15v-2.311zm16.861 6.709h-2.261v-8.746h2.398v4.923l3.386-4.923h2.262v8.746h-2.4V35.43l-3.385 4.923zm24.907-4.373c0-2.536-1.999-4.548-4.697-4.548-2.699 0-4.723 2.037-4.723 4.548 0 2.536 2 4.548 4.698 4.548 2.698 0 4.722-2.037 4.722-4.548zm-6.934 0c0-1.287.888-2.361 2.212-2.361.614.006 1.2.26 1.623.705.424.445.65 1.042.626 1.656 0 1.287-.887 2.361-2.224 2.361-.612-.008-1.195-.264-1.616-.709-.421-.444-.645-1.04-.62-1.652zM2.624 33.732H0v-2.124h7.671v2.124H5.047v6.622H2.624v-6.622zm13.31 6.622H8.836v-8.746h7.034v2.062h-4.635v1.324h4.197v1.911h-4.197v1.387h4.697v2.062zM66.48 52.27h-2.423v-8.745h2.423v3.548l3.011-3.548h2.874l-3.311 3.76 3.423 4.985h-2.91l-2.2-3.248-.887.987v2.261zm19.747-8.808H83.89l-3.723 8.808h2.55l.624-1.561h3.373l.637 1.561h2.599l-3.723-8.808zm-2.174 5.36l.987-2.486.974 2.486h-1.961zm-8.205 3.448V45.65h-2.624v-2.124h7.67v2.124h-2.623v6.621H75.85zM6.196 43.525h2.261v8.745H6.058v-4.922L2.673 52.27H.41v-8.745H2.81v4.922l3.386-4.922zm9.255 5.422H12.34v3.323H9.916v-8.745h2.424v3.273h3.11v-3.273h2.424v8.745h-2.423v-3.323zm19.508 3.323h-7.096v-8.745h7.034v2.061h-4.635v1.325h4.198v1.911h-4.198v1.387h4.697v2.061zm27.702 0h-7.096v-8.745h7.034v2.061h-4.635v1.325h4.198v1.911h-4.198v1.387h4.697v2.061zm-40.942 0V45.65h-2.623v-2.124h7.67v2.124h-2.623v6.621h-2.424zm20.296 0V45.65H39.98v.337c0 5.335-1.174 6.41-2.874 6.41-.49-.003-.977-.07-1.449-.2l.163-1.862c.186.029.374.046.562.05.687 0 1.337-.35 1.337-5.647v-1.212h6.721v8.745h-2.424zm9.667 0V45.65h-2.036v.337c0 5.335-1.174 6.41-2.873 6.41-.49-.003-.978-.07-1.45-.2l.163-1.862c.186.029.374.046.562.05.687 0 1.337-.35 1.337-5.647v-1.212h6.721v8.745h-2.424zm27.482 5.588c.293-1.167-.35-2.366-1.486-2.767l.319-.923h-.664l-.273.791c-.058-.004-.115-.008-.174-.008-1.024 0-1.93.665-2.24 1.642l-2.2-.062c.01-.114.016-.228.016-.344.002-.713-.195-1.411-.567-2.019h-6.606c-.372.607-.568 1.306-.567 2.019l.001.027-3.77-.482c.152-.378.231-.781.231-1.19 0-.124-.007-.25-.022-.374H54.84c-.014.124-.022.25-.022.375 0 .787.293 1.545.821 2.128l-.695.46-8.017-2.33c.012-.121.018-.243.018-.364 0-.035 0-.085-.004-.15l-.006-.119h-7.143l-.006.119c-.003.065-.004.115-.004.15 0 .61.156 1.21.453 1.742l-2.18 1.653-1.914-2.979c.17-.206.305-.437.403-.685H31.73c.293.75.92 1.321 1.694 1.542.774.221 1.608.068 2.252-.415l1.876 2.919-4.596 3.487-4.67-1.734c.175-.87-.038-1.771-.583-2.47-.545-.7-1.367-1.127-2.253-1.17l-.124-2.159h-.63l.126 2.192c-.918.146-1.72.703-2.178 1.513L16.257 55.5l-.342-1.333h-.648l.464 1.807 6.661 2.473c-.49 1.55.321 3.21 1.845 3.776 1.523.566 3.222-.163 3.862-1.657l4.684 1.74 2.344 4.678c-.857.76-1.052 2.023-.463 3.007.588.983 1.793 1.409 2.869 1.013 1.075-.396 1.717-1.502 1.527-2.632l.986-.65 3.58 3.01 5.04-.262c.022.894.623 1.67 1.483 1.915l-.395 2.798c-1.265.202-2.154 1.353-2.03 2.628.124 1.275 1.22 2.233 2.5 2.186 1.28-.046 2.303-1.08 2.334-2.361l11.51-5.257c.598.694 1.527 1.007 2.424.818.896-.19 1.619-.853 1.885-1.73l7.76-.182.105-.003 3.055-2.382c.904.3 1.896-.05 2.41-.852.515-.8.422-1.849-.227-2.546l1.73-5.419-4.046-2.226zm3.289 2.528l-1.501 4.701c-.307-.168-.651-.256-1.001-.256-.026 0-.051.003-.076.004l-1.893-5.46c.398-.212.727-.533.95-.926l3.52 1.937zm-7.911-3.168c-.001.027-.004.054-.004.08 0 .822.431 1.584 1.135 2.008l-1.02 1.956-8.5.684c-.062-.343-.235-.656-.492-.89l1.249-1.388c1.042.508 2.257.52 3.309.032 1.052-.487 1.829-1.421 2.116-2.544l2.207.062zm-2.702 8.366c-.568-.001-1.1.28-1.418.752-.319.47-.382 1.069-.169 1.596l-2.34 1.203c-.327-.396-.767-.683-1.261-.823l-1.21-4.74c.354-.227.605-.583.698-.993l8.192-.659-1.95 3.753c-.174-.059-.357-.09-.542-.09zm-6.73-4.858c-.169-.062-.346-.094-.526-.096-.882 0-1.597.716-1.598 1.598.001.236.055.469.158.681l-.828.92-1.777-.53.45-3.16 4.38.299-.26.288zM63.53 63.42c.355.328.845.469 1.32.378l1.126 4.417h-.009c-.32 0-.637.061-.934.181L62.8 64.234l.732-.813zm1.252-6.566c.176 1.004.741 1.898 1.573 2.487l-.451.5-5.015-.342-1.47-2.11c.49-.245.91-.611 1.219-1.065l4.144.53zm-5.515 8.488c-1.123-.256-2.257.376-2.631 1.465L51.4 65.245l.161-2.703c.656-.007 1.282-.274 1.741-.741l6.47 1.927-.504 1.615zm-3.37 5.777c-.31-.187-.682-.24-1.031-.149-.35.092-.647.32-.825.636l-1.413-.496c.197-.542.155-1.142-.116-1.65-.27-.51-.745-.88-1.304-1.02l.152-2.55 5.154 1.539c-.002.04-.006.08-.006.12 0 .673.299 1.31.816 1.74l-1.428 1.83zm-2.193-9.857c.44-.788.416-1.754-.065-2.519l2.48-1.637c.771.572 1.763.76 2.69.511l1.578 2.265-.46 3.234-6.223-1.854zm.548-3.677l-1.013.669c-.837-.798-2.114-.912-3.079-.275-.965.637-1.362 1.857-.956 2.94l-2.407 1.59-2.276-4.687c1.11-.377 1.963-1.275 2.282-2.402l7.45 2.165zm-17.538 8.786c-.37 0-.735.088-1.065.255l-2.245-4.48 7.182-5.448c.794.988 2.056 1.475 3.309 1.276l2.372 4.885-7.4 4.887c-.39-.837-1.23-1.373-2.153-1.375zm3.88.988l8.903-5.88c.344.491.854.842 1.436.987l-.353 5.916c-.854.053-1.585.633-1.832 1.453l-4.908.255-3.247-2.731zm11.889 9.618c-.251-.981-1.084-1.704-2.09-1.813l.38-2.703c.608-.02 1.175-.31 1.547-.79l1.54.539c-.002.025-.008.049-.008.074.002.665.485 1.231 1.142 1.337l.295 2.074-2.806 1.282zm3.404-1.555l-.263-1.85c.4-.126.72-.431.863-.826.144-.395.094-.835-.134-1.188l1.51-1.936c1.11.488 2.407.015 2.942-1.074.535-1.088.117-2.404-.947-2.985l.517-1.656 1.825.544 2.283 4.252c-.992.719-1.318 2.05-.77 3.145l-7.826 3.574zm12.593-4.588c.002-.034.006-.067.006-.101 0-.367-.082-.73-.239-1.063l2.347-1.206c.585.627 1.545.72 2.24.219l2.618 1.988-6.972.163zm7.764-.353l-2.97-2.256c.473-.727.327-1.693-.341-2.246l3.332-6.418c.367.103.753.113 1.124.03l1.86 5.363c-.722.256-1.245.887-1.363 1.643-.117.757.19 1.517.8 1.98l-2.442 1.904zm-64.08-46.49l1.393 5.502.649-.002-1.394-5.508c.869-.103 1.651-.574 2.15-1.293l6.313 2.049c-.175.55-.1 1.148.208 1.637.307.488.814.816 1.386.896l.127 2.22.63-.001-.128-2.232c.539-.1 1.01-.422 1.302-.886l5.041 2.123-.002.055c0 .322.059.641.175.942h4.871c.237-.613.234-1.292-.009-1.902l3.786-2.708c.28.243.64.377 1.01.379.52.002 1.008-.254 1.301-.685.293-.43.352-.978.159-1.46l9.512-6.805-.864 3.847c-.807.134-1.475.703-1.734 1.48-.26.776-.07 1.632.495 2.225l-4.396 3.354c-.992-.946-2.44-1.24-3.722-.755s-2.173 1.663-2.29 3.03h7.106c-.056-.652-.29-1.275-.677-1.801l4.49-3.426c.771.444 1.734.382 2.442-.158.708-.54 1.023-1.453.798-2.315l4.823-3.68c.048.046.098.089.147.133l-1.05 8.469c-1.557.053-2.843 1.231-3.033 2.778h6.288c-.11-.9-.602-1.709-1.35-2.222l5.477-4.12c.502.68 1.298 1.083 2.143 1.084.083 0 .164-.005.245-.013l.107 3.574c-.99.223-1.848.834-2.382 1.696h6.43c-.688-1.116-1.905-1.796-3.215-1.795-.013 0-.024.002-.037.003l-.107-3.676c.76-.321 1.33-.976 1.542-1.775.211-.798.04-1.65-.463-2.305l2.557-1.923 6.034 5.1c-.248.286-.385.652-.386 1.03 0 .64.382 1.219.97 1.471l-1.328 3.869.664.002 1.286-3.742.008.001c.884 0 1.6-.716 1.6-1.6 0-.884-.716-1.6-1.6-1.6-.246.001-.488.06-.708.172l-6.453-5.454-7.212-1.373c.187-1.807-.99-3.475-2.754-3.906l.109-1.311c.634-.079 1.157-.535 1.321-1.152.165-.617-.062-1.273-.573-1.657-.51-.383-1.204-.419-1.75-.089L55.444 4.83l-2.878 1.743c-.573-.917-1.562-1.493-2.643-1.54-1.08-.045-2.115.445-2.764 1.31l-3.02-.686-.023-.024-.016.015-12.326-2.803C31.6 1.475 30.579.363 29.228.073c-1.352-.29-2.739.304-3.46 1.483-.723 1.179-.622 2.685.25 3.757L23.997 9.55c-.124-.032-.25-.05-.379-.051-.867.001-1.57.704-1.572 1.572.002.258.069.512.193.738l-8.124 6.587c-1.062-.689-2.44-.65-3.461.098-1.022.748-1.475 2.05-1.14 3.27.337 1.221 1.392 2.108 2.653 2.228zm3.107-1.862c.477-1.14.218-2.456-.657-3.33l8.025-6.508c.18.146.39.25.614.304l-.372 10.799c-.525.07-1 .352-1.313.778l-6.297-2.043zm11.14-5.778c0 1.264.494 2.477 1.376 3.38l-3.582 3.96c-.21-.138-.446-.233-.693-.28l.371-10.796c.238-.041.462-.137.656-.28l2.28 2.074c-.27.612-.408 1.274-.408 1.942zm6.038 9.589c-1.172 0-2.2.783-2.514 1.914l-4.89-2.06c.145-.588.007-1.21-.374-1.682l3.582-3.959c1.787 1.426 4.33 1.407 6.095-.047l3.978 2.786c-.28.454-.3 1.023-.054 1.497l-3.7 2.646c-.488-.687-1.28-1.095-2.123-1.095zm7.223-3.822c-.33 0-.653.107-.919.303l-3.939-2.758c1.353-1.435 1.696-3.55.865-5.339l2.925-2.715c.602.595 1.57.602 2.18.014l3.757 2.482c-.106.212-.162.446-.163.683.002.688.451 1.293 1.108 1.495L44.69 19.8l-3.898 2.788c-.294-.3-.697-.47-1.118-.47zm10.758-1.972l.955-4.255h4.663c.065.628.292 1.228.66 1.74l-4.669 3.563c-.35-.576-.941-.961-1.61-1.048zm19.281-2.386l-2.296 1.727c-.952-.77-2.305-.793-3.284-.057-.978.736-1.33 2.043-.855 3.17l-5.769 4.34c-.213-.086-.436-.148-.664-.185l1.003-8.087c.97.566 2.148.65 3.19.23 1.04-.422 1.828-1.302 2.132-2.384l6.543 1.246zM55.417 5.581l3.748 2.636c-.3.415-.378.95-.208 1.433.17.483.565.851 1.059.986l-.105 1.26c-.08-.005-.16-.012-.241-.012-1.906.003-3.488 1.476-3.626 3.377h-5.01l-5.573 3.987.66-2.904c.56-.056 1.047-.411 1.272-.928.225-.517.153-1.114-.188-1.563l1.686-2.366c1.2.342 2.49-.025 3.33-.947.84-.923 1.083-2.242.63-3.404l2.566-1.555zm-8.924 2.741c.002 1.235.694 2.365 1.793 2.927l-1.556 2.184c-.574-.341-1.302-.272-1.801.172l-3.782-2.497c.237-.545.14-1.178-.248-1.627l3.388-3.145 2.529.574c-.212.441-.322.923-.323 1.412zm-6.096.764c-.215-.11-.452-.167-.694-.169-.523-.001-1.013.259-1.305.693-.292.434-.348.986-.15 1.47l-2.88 2.674c-.81-1.28-2.172-2.108-3.681-2.239l-1.989-5.211c1.185-.45 2.002-1.546 2.094-2.81l11.75 2.672-3.145 2.92zm-13.905-3.3c.723.597 1.671.846 2.594.684l1.923 5.037c-1.6.087-3.053.957-3.885 2.326l-2.16-1.964c.415-.683.242-1.57-.4-2.045l1.928-4.038z" transform="translate(-632 -620) translate(632 620)"/>
            </g>
        </g>
    </g>
</svg>
