<?xml version="1.0" encoding="UTF-8"?>
<svg width="24px" height="24px" viewBox="0 0 24 24" version="1.1" xmlns="http://www.w3.org/2000/svg" xmlns:xlink="http://www.w3.org/1999/xlink">
    <!-- Generator: Sketch 49.3 (51167) - http://www.bohemiancoding.com/sketch -->
    <title>a-card-events</title>
    <desc>Created with Sketch.</desc>
    <defs></defs>
    <g id="a-card-events" stroke="none" stroke-width="1" fill="none" fill-rule="evenodd">
        <path d="M5.25,3 L6,3 L6,1 L8,1 L8,3 L16,3 L16,1 L18,1 L18,3 L18.75,3 C19.9926407,3 21,4.00735931 21,5.25 L21,18.75 C21,19.9926407 19.9926407,21 18.75,21 L5.25,21 C4.00735931,21 3,19.9926407 3,18.75 L3,5.25 C3,4.00735931 4.00735931,3 5.25,3 Z M5.25,5 C5.11192881,5 5,5.11192881 5,5.25 L5,18.75 C5,18.8880712 5.11192881,19 5.25,19 L18.75,19 C18.8880712,19 19,18.8880712 19,18.75 L19,5.25 C19,5.11192881 18.8880712,5 18.75,5 L5.25,5 Z M5,7 L19,7 L19,9 L5,9 L5,7 Z M12,11 L17,11 L17,16 L12,16 L12,11 Z" id="Shape" fill="#BFBFBF" fill-rule="nonzero"></path>
        <polygon id="Shape" points="0 0 24 0 24 24 0 24"></polygon>
    </g>
</svg>