<?xml version="1.0" encoding="UTF-8"?>
<svg width="24px" height="24px" viewBox="0 0 24 24" version="1.1" xmlns="http://www.w3.org/2000/svg" xmlns:xlink="http://www.w3.org/1999/xlink">
    <!-- Generator: Sketch 49.3 (51167) - http://www.bohemiancoding.com/sketch -->
    <title>a-card-challenge</title>
    <desc>Created with Sketch.</desc>
    <defs></defs>
    <g id="a-card-challenge" stroke="none" stroke-width="1" fill="none" fill-rule="evenodd">
        <path d="M20,9 L17,4 L22,4 L22,18 C22,19.1045695 21.1045695,20 20,20 L4,20 C2.8954305,20 2,19.1045695 2,18 L2,6 C2,4.8954305 2.8954305,4 4,4 L7,9 L10,9 L7,4 L9,4 L12,9 L15,9 L12,4 L14,4 L17,9 L20,9 Z M20,11 L5.84997559,11 L4,8 L4,18 L20,18 L20,11 Z" id="Shape" fill="#BFBFBF" fill-rule="nonzero"></path>
        <polygon id="Shape" points="0 0 24 0 24 24 0 24"></polygon>
    </g>
</svg>