<?xml version="1.0" encoding="UTF-8"?>
<svg width="24px" height="24px" viewBox="0 0 24 24" version="1.1" xmlns="http://www.w3.org/2000/svg" xmlns:xlink="http://www.w3.org/1999/xlink">
    <!-- Generator: Sketch 49.3 (51167) - http://www.bohemiancoding.com/sketch -->
    <title>a-card-project</title>
    <desc>Created with Sketch.</desc>
    <defs></defs>
    <g id="a-card-project" stroke="none" stroke-width="1" fill="none" fill-rule="evenodd">
        <path d="M3,3 L21,3 L21,5 L19,5 L19,16 L13,16 L13,19.5 L15,19.5 L15,21 L9,21 L9,19.5 L11,19.5 L11,16 L5,16 L5,5 L3,5 L3,3 Z M17,14 L17,5 L7,5 L7,14 L17,14 Z M8,10 L10,10 L10,13 L8,13 L8,10 Z M11,8 L13,8 L13,13 L11,13 L11,8 Z M14,7 L16,7 L16,13 L14,13 L14,7 Z" id="Shape" fill="#BFBFBF" fill-rule="nonzero"></path>
        <rect id="Rectangle-path" fill="#FFFFFF" fill-rule="nonzero" opacity="0" x="0" y="0" width="24" height="24"></rect>
    </g>
</svg>