<?xml version="1.0" encoding="UTF-8"?>
<svg width="24px" height="24px" viewBox="0 0 24 24" version="1.1" xmlns="http://www.w3.org/2000/svg" xmlns:xlink="http://www.w3.org/1999/xlink">
    <title>42DA5B72-DC61-409D-838A-FB8A7C98082B</title>
    <g id="Система" stroke="none" stroke-width="1" fill="none" fill-rule="evenodd">
        <g id="Сообщения-—-заглушка" transform="translate(-1157.000000, -155.000000)">
            <g id="more" transform="translate(1141.000000, 130.000000)">
                <g id="a-create_chat" transform="translate(16.000000, 25.000000)">
                    <path d="M14.258,2.99935931 L12.257,4.99935931 L5,5 L5,19 L19,19 L19,11.7423593 L21,9.74135931 L21,19 C21,20.0543618 20.1841222,20.9181651 19.1492623,20.9945143 L19,21 L5,21 C3.9456382,21 3.08183488,20.1841222 3.00548574,19.1492623 L3,19 L3,5 C3,3.9456382 3.81587779,3.08183488 4.85073766,3.00548574 L5,3 L14.258,2.99935931 Z M17.3723094,4.12803777 L19.8719622,6.6276906 L12.4996528,14 L10,14 L10,11.5003472 L17.3723094,4.12803777 Z M19.3053743,2.19497292 C19.5393418,1.96100542 19.9028913,1.93760867 20.1627752,2.12478267 L20.2452437,2.19497292 L21.8050271,3.75475628 C22.0389946,3.98872379 22.0623913,4.3522733 21.8752173,4.6121572 L21.8050271,4.69462575 L20.5851965,5.91445633 L18.0855437,3.4148035 L19.3053743,2.19497292 Z" id="Shape" fill="#BFBFBF" fill-rule="nonzero"></path>
                    <polygon id="Shape" points="0 0 24 0 24 24 0 24"></polygon>
                </g>
            </g>
        </g>
    </g>
</svg>