<?xml version="1.0" encoding="UTF-8"?>
<svg width="24px" height="24px" viewBox="0 0 24 24" version="1.1" xmlns="http://www.w3.org/2000/svg" xmlns:xlink="http://www.w3.org/1999/xlink">
    <!-- Generator: Sketch 49.3 (51167) - http://www.bohemiancoding.com/sketch -->
    <title>a-doc</title>
    <desc>Created with Sketch.</desc>
    <defs></defs>
    <g id="a-doc" stroke="none" stroke-width="1" fill="none" fill-rule="evenodd">
        <path d="M20,2 L8,2 C6.9,2 6,2.9 6,4 L6,16 C6,17.1 6.9,18 8,18 L20,18 C21.1,18 22,17.1 22,16 L22,4 C22,2.9 21.1,2 20,2 Z M11.5,11.5 C11.5,12.33 10.83,13 10,13 L7.5,13 L7.5,7 L10,7 C10.83,7 11.5,7.67 11.5,8.5 L11.5,11.5 Z M16.5,11.5 C16.5,12.33 15.83,13 15,13 L14,13 L14,13 C13.1715729,13 12.5,12.3284271 12.5,11.5 L12.5,8.5 L12.5,8.5 C12.5,7.67157288 13.1715729,7 14,7 L15,7 C15.83,7 16.5,7.67 16.5,8.5 L16.5,11.5 Z M20.5,13 L19,13 L19,13 C18.1715729,13 17.5,12.3284271 17.5,11.5 L17.5,8.5 L17.5,8.5 C17.5,7.67157288 18.1715729,7 19,7 L20.5,7 L20.5,8.5 L19,8.5 L19,11.5 L20.5,11.5 L20.5,13 Z M4,6 L2,6 L2,20 C2,21.1 2.9,22 4,22 L18,22 L18,20 L4,20 L4,6 Z M9,11.5 L10,11.5 L10,8.5 L9,8.5 L9,11.5 Z M14,11.5 L15,11.5 L15,8.5 L14,8.5 L14,11.5 Z" id="Shape" fill="#1588EE" fill-rule="nonzero"></path>
        <polygon id="Shape" points="0 0 24 0 24 24 0 24"></polygon>
    </g>
</svg>