<?xml version="1.0" encoding="UTF-8"?>
<svg width="20px" height="20px" viewBox="0 0 20 20" version="1.1" xmlns="http://www.w3.org/2000/svg" xmlns:xlink="http://www.w3.org/1999/xlink">
    <!-- Generator: sketchtool 55.1 (78136) - https://sketchapp.com -->
    <title>9020CD68-CED3-40F8-BF92-AD3318C48B2C</title>
    <desc>Created with sketchtool.</desc>
    <g id="Symbols" stroke="none" stroke-width="1" fill="none" fill-rule="evenodd">
        <g id="a-logout">
            <polygon id="Path" fill="#BFBFBF" fill-rule="nonzero" points="13.4083333 12.9916667 14.5833333 14.1666667 18.75 10 14.5833333 5.83333333 13.4083333 7.00833333 15.5583333 9.16666667 7.5 9.16666667 7.5 10.8333333 15.5583333 10.8333333"></polygon>
            <path d="M11.83,14.5 L11.83,15.84 L4.17,15.84 L4.17,4.16 L11.83,4.16 L11.83,5.5 L13.5,5.5 L13.5,4.16 C13.5,3.24320732 12.7567927,2.5 11.84,2.5 L4.16,2.5 C3.24320732,2.5 2.5,3.24320732 2.5,4.16 L2.5,15.84 C2.5,16.7567927 3.24320732,17.5 4.16,17.5 L11.84,17.5 C12.7567927,17.5 13.5,16.7567927 13.5,15.84 L13.5,14.5 L11.83,14.5 Z" id="Path" fill="#BFBFBF" fill-rule="nonzero"></path>
            <polygon id="Shape" points="0 0 20 0 20 20 0 20"></polygon>
        </g>
    </g>
</svg>