<?xml version="1.0" encoding="UTF-8"?>
<svg width="40px" height="40px" viewBox="0 0 40 40" version="1.1" xmlns="http://www.w3.org/2000/svg" xmlns:xlink="http://www.w3.org/1999/xlink">
    <!-- Generator: sketchtool 55.1 (78136) - https://sketchapp.com -->
    <title>F45B27BC-D388-4355-9708-EABBE767B170</title>
    <desc>Created with sketchtool.</desc>
    <g id="Symbols" stroke="none" stroke-width="1" fill="none" fill-rule="evenodd">
        <g id="a-lock">
            <path d="M12,15 L12,11 C12,6.581722 15.581722,3 20,3 C24.418278,3 28,6.581722 28,11 L28,15 L29,15 C31.209139,15 33,16.790861 33,19 L33,33 C33,35.209139 31.209139,37 29,37 L11,37 C8.790861,37 7,35.209139 7,33 L7,19 C7,16.790861 8.790861,15 11,15 L12,15 Z M14,15 L26,15 L26,11 C26,7.6862915 23.3137085,5 20,5 C16.6862915,5 14,7.6862915 14,11 L14,15 Z M11,17 C9.8954305,17 9,17.8954305 9,19 L9,33 C9,34.1045695 9.8954305,35 11,35 L29,35 C30.1045695,35 31,34.1045695 31,33 L31,19 C31,17.8954305 30.1045695,17 29,17 L11,17 Z" id="Shape" fill="#BFBFBF" fill-rule="nonzero"></path>
            <polygon id="Shape" fill="#FFFFFF" opacity="0" points="0 0 40 0 40 40 0 40"></polygon>
        </g>
    </g>
</svg>