<?xml version="1.0" encoding="UTF-8"?>
<svg width="24px" height="24px" viewBox="0 0 24 24" version="1.1" xmlns="http://www.w3.org/2000/svg" xmlns:xlink="http://www.w3.org/1999/xlink">
    <title>AEB6B0D5-AECB-461B-BDA8-1B69F406F1BA</title>
    <g id="Система" stroke="none" stroke-width="1" fill="none" fill-rule="evenodd">
        <g id="Сообщения-—-чат" transform="translate(-1157.000000, -195.000000)">
            <g id="more" transform="translate(1141.000000, 130.000000)">
                <g id="a-person_block" transform="translate(16.000000, 65.000000)">
                    <path d="M17.5,13 C19.9852814,13 22,15.0147186 22,17.5 C22,19.9852814 19.9852814,22 17.5,22 C15.0147186,22 13,19.9852814 13,17.5 C13,15.0147186 15.0147186,13 17.5,13 Z M12,13 C12.2399006,13 12.5012757,13.010818 12.7783295,13.0324394 C12.2623132,13.5779168 11.8394646,14.2128672 11.5358056,14.9115918 C8.79907571,15.0451577 6.07052635,16.3128744 5.90767279,16.9428612 L5.9,17 L5.9,18.1 L11.0273603,18.1003989 C11.0885159,18.7681434 11.2506664,19.4066718 11.4984036,20.000576 L4,20 L4,17 C4,14.34 9.33,13 12,13 Z M19.8282751,16.5875937 L16.5875937,19.8282751 C16.87026,19.939132 17.1780217,20 17.5,20 C18.8807119,20 20,18.8807119 20,17.5 C20,17.1780217 19.939132,16.87026 19.8282751,16.5875937 Z M17.5,15 C16.1192881,15 15,16.1192881 15,17.5 C15,17.8219783 15.060868,18.12974 15.1717249,18.4124063 L18.4124063,15.1717249 C18.12974,15.060868 17.8219783,15 17.5,15 Z M12,4 C14.21,4 16,5.79 16,8 C16,10.21 14.21,12 12,12 C9.79,12 8,10.21 8,8 C8,5.79 9.79,4 12,4 Z M12,5.9 C10.84,5.9 9.9,6.84 9.9,8 C9.9,9.16 10.84,10.1 12,10.1 C13.16,10.1 14.1,9.16 14.1,8 C14.1,6.84 13.16,5.9 12,5.9 Z" id="Shape" fill="#BFBFBF" fill-rule="nonzero"></path>
                    <polygon id="Shape" points="0 0 24 0 24 24 0 24"></polygon>
                </g>
            </g>
        </g>
    </g>
</svg>