<?xml version="1.0" encoding="UTF-8"?>
<svg width="32px" height="32px" viewBox="0 0 32 32" version="1.1" xmlns="http://www.w3.org/2000/svg" xmlns:xlink="http://www.w3.org/1999/xlink">
    <!-- Generator: Sketch 49.3 (51167) - http://www.bohemiancoding.com/sketch -->
    <title>a-photo_change</title>
    <desc>Created with Sketch.</desc>
    <defs></defs>
    <g id="a-photo_change" stroke="none" stroke-width="1" fill="none" fill-rule="evenodd">
        <circle id="Oval" fill="#1588EE" cx="16" cy="16" r="16"></circle>
        <path d="M13.5,7.66666667 L11.975,9.33333333 L9.33333333,9.33333333 C8.41666667,9.33333333 7.66666667,10.0833333 7.66666667,11 L7.66666667,21 C7.66666667,21.9166667 8.41666667,22.6666667 9.33333333,22.6666667 L22.6666667,22.6666667 C23.5833333,22.6666667 24.3333333,21.9166667 24.3333333,21 L24.3333333,11 C24.3333333,10.0833333 23.5833333,9.33333333 22.6666667,9.33333333 L20.025,9.33333333 L18.5,7.66666667 L13.5,7.66666667 Z M16,20.1666667 C13.7,20.1666667 11.8333333,18.3 11.8333333,16 C11.8333333,13.7 13.7,11.8333333 16,11.8333333 C18.3,11.8333333 20.1666667,13.7 20.1666667,16 C20.1666667,18.3 18.3,20.1666667 16,20.1666667 Z M16,18.6666667 C17.4727593,18.6666667 18.6666667,17.4727593 18.6666667,16 C18.6666667,14.5272407 17.4727593,13.3333333 16,13.3333333 C14.5272407,13.3333333 13.3333333,14.5272407 13.3333333,16 C13.3333333,17.4727593 14.5272407,18.6666667 16,18.6666667 Z" id="Shape" fill="#FFFFFF" fill-rule="nonzero"></path>
        <polygon id="Shape" points="6 6 26 6 26 26 6 26"></polygon>
    </g>
</svg>