<?xml version="1.0" encoding="UTF-8"?>
<svg width="20px" height="20px" viewBox="0 0 20 20" version="1.1" xmlns="http://www.w3.org/2000/svg" xmlns:xlink="http://www.w3.org/1999/xlink">
    <!-- Generator: Sketch 49.3 (51167) - http://www.bohemiancoding.com/sketch -->
    <title>a-phone</title>
    <desc>Created with Sketch.</desc>
    <defs></defs>
    <g id="a-phone" stroke="none" stroke-width="1" fill="none" fill-rule="evenodd">
        <path d="M16.6666667,12.9166667 C15.625,12.9166667 14.625,12.75 13.6916667,12.4416667 C13.4,12.35 13.075,12.4166667 12.8416667,12.6416667 L11.0083333,14.475 C8.65,13.275 6.71666667,11.35 5.51666667,8.98333333 L7.35,7.14166667 C7.58333333,6.925 7.65,6.6 7.55833333,6.30833333 C7.25,5.375 7.08333333,4.375 7.08333333,3.33333333 C7.08333333,2.875 6.70833333,2.5 6.25,2.5 L3.33333333,2.5 C2.875,2.5 2.5,2.875 2.5,3.33333333 C2.5,11.1583333 8.84166667,17.5 16.6666667,17.5 C17.125,17.5 17.5,17.125 17.5,16.6666667 L17.5,13.75 C17.5,13.2916667 17.125,12.9166667 16.6666667,12.9166667 Z M15.8333333,10 L17.5,10 C17.5,5.85833333 14.1416667,2.5 10,2.5 L10,4.16666667 C13.225,4.16666667 15.8333333,6.775 15.8333333,10 Z M12.5,10 L14.1666667,10 C14.1666667,7.7 12.3,5.83333333 10,5.83333333 L10,7.5 C11.3833333,7.5 12.5,8.61666667 12.5,10 Z" id="Shape" fill="#BFBFBF" fill-rule="nonzero"></path>
        <polygon id="Shape" points="0 0 20 0 20 20 0 20"></polygon>
    </g>
</svg>