<?xml version="1.0" encoding="UTF-8"?>
<svg width="20px" height="20px" viewBox="0 0 20 20" version="1.1" xmlns="http://www.w3.org/2000/svg" xmlns:xlink="http://www.w3.org/1999/xlink">
    <!-- Generator: Sketch 49.3 (51167) - http://www.bohemiancoding.com/sketch -->
    <title>a-photo</title>
    <desc>Created with Sketch.</desc>
    <defs></defs>
    <g id="a-photo" stroke="none" stroke-width="1" fill="none" fill-rule="evenodd">
        <path d="M15.8333333,4.16666667 L15.8333333,15.8333333 L4.16666667,15.8333333 L4.16666667,4.16666667 L15.8333333,4.16666667 Z M15.8333333,2.5 L4.16666667,2.5 C3.25,2.5 2.5,3.25 2.5,4.16666667 L2.5,15.8333333 C2.5,16.75 3.25,17.5 4.16666667,17.5 L15.8333333,17.5 C16.75,17.5 17.5,16.75 17.5,15.8333333 L17.5,4.16666667 C17.5,3.25 16.75,2.5 15.8333333,2.5 Z M11.7833333,9.88333333 L9.28333333,13.1083333 L7.5,10.95 L5,14.1666667 L15,14.1666667 L11.7833333,9.88333333 Z" id="Shape" fill="#BFBFBF" fill-rule="nonzero"></path>
        <polygon id="Shape" points="0 0 20 0 20 20 0 20"></polygon>
    </g>
</svg>