<?xml version="1.0" encoding="UTF-8"?>
<svg width="30px" height="40px" viewBox="0 0 30 40" version="1.1" xmlns="http://www.w3.org/2000/svg" xmlns:xlink="http://www.w3.org/1999/xlink">
    <!-- Generator: sketchtool 49.3 (51167) - http://www.bohemiancoding.com/sketch -->
    <title>417EA82E-3BCA-4A4E-801A-495558CE603F</title>
    <desc>Created with sketchtool.</desc>
    <defs></defs>
    <g id="Профайл" stroke="none" stroke-width="1" fill="none" fill-rule="evenodd">
        <g transform="translate(-338.000000, -942.000000)" id="достижения">
            <g transform="translate(304.000000, 867.000000)">
                <g transform="translate(0.000000, 43.000000)" id="achivements">
                    <g transform="translate(29.000000, 32.000000)">
                        <path d="M25.0273846,4.9840625 C20.6952308,2.76078125 15.4766923,3.61085937 12.042,7.09929687 C8.05007692,11.1535156 7.65053846,17.6180469 11.1126923,22.1363281 C11.2350769,22.2960156 11.418,22.3796094 11.6029231,22.3796094 C11.7361538,22.3796094 11.8703846,22.33625 11.9836923,22.2466406 C12.2542308,22.0328125 12.3028462,21.6367969 12.0923846,21.3620312 C9.014,17.3446875 9.36976923,11.59625 12.9198462,7.99070312 C15.9744615,4.88820312 20.6150769,4.13210937 24.4676923,6.10921875 C24.7735385,6.26640625 25.1469231,6.1415625 25.3015385,5.83085937 C25.4560769,5.52015625 25.3334615,5.14101562 25.0273846,4.9840625 Z" id="Shape" fill="#4167BB" fill-rule="nonzero"></path>
                        <path d="M29.9836154,10.0186719 C29.829,9.70796875 29.4558462,9.58328125 29.1496923,9.74015625 C28.8437692,9.89710938 28.7209231,10.2761719 28.8754615,10.5870313 C30.8207692,14.4992188 30.0759231,19.2117188 27.022,22.3132813 C23.4718462,25.91875 17.8119231,26.28 13.8563846,23.1536719 C13.5857692,22.9399219 13.1959231,22.9892969 12.9853846,23.2639844 C12.7748462,23.53875 12.8235385,23.9347656 13.0940769,24.1485938 C15.1205385,25.7503125 17.5444615,26.538125 19.9606923,26.538125 C22.8489231,26.538125 25.7262308,25.4122656 27.8998462,23.2046875 C31.3337692,19.7171875 32.1711538,14.418125 29.9836154,10.0186719 Z" id="Shape" fill="#4167BB" fill-rule="nonzero"></path>
                        <path d="M28.38,7.6178125 C28.2262308,7.44109375 28.0646923,7.2665625 27.8998462,7.09921875 C27.735,6.93179688 27.5632308,6.76773438 27.3892308,6.6115625 C27.1323846,6.3809375 26.7400769,6.405625 26.5132308,6.66648438 C26.2860769,6.92726563 26.3102308,7.325625 26.5670769,7.55617188 C26.7220769,7.69523438 26.8751538,7.84148438 27.0220769,7.990625 C27.1688462,8.13984375 27.3128462,8.29523438 27.4498462,8.45265625 C27.5724615,8.59359375 27.7433846,8.66554688 27.9151538,8.66554688 C28.0612308,8.66554688 28.2078462,8.6134375 28.3259231,8.5075 C28.5828462,8.27703125 28.607,7.87867188 28.38,7.6178125 Z" id="Shape" fill="#4167BB" fill-rule="nonzero"></path>
                        <path d="M34.6204615,16.2820312 C35.0343077,15.5924219 35.0343077,14.7358594 34.6203077,14.0464062 L33.8037692,12.6864844 C33.6962308,12.5072656 33.6546154,12.2944531 33.6867692,12.0872656 L33.9301538,10.5167187 C34.0542308,9.71632812 33.7304615,8.923125 33.0853846,8.44648437 L31.8199231,7.51164062 C31.6526154,7.38796875 31.5336923,7.20757812 31.485,7.00335937 L31.1164615,5.4565625 C30.9293846,4.67085937 30.3325385,4.06476562 29.559,3.87460937 L28.0359231,3.50023437 C27.8348462,3.45078125 27.6570769,3.33 27.5354615,3.16007812 L26.6148462,1.87453125 C26.1456154,1.219375 25.3645385,0.890390625 24.5766923,1.01648437 L23.0297692,1.26367187 C22.8257692,1.29625 22.6161538,1.2540625 22.4398462,1.14484375 L21.1006154,0.3153125 C20.4216923,-0.10515625 19.5783077,-0.105078125 18.8993846,0.3153125 L17.5603077,1.14460937 C17.384,1.25390625 17.1745385,1.2959375 16.9703077,1.2634375 L15.4238462,1.01625 C14.636,0.8903125 13.8548462,1.21914062 13.3856154,1.87429687 L12.4651538,3.15953125 C12.3433846,3.32945312 12.1656923,3.45023437 11.9645385,3.4996875 L10.4415385,3.87398437 C9.66807692,4.06398437 9.07115385,4.67015625 8.88392308,5.45578125 L8.51530769,7.00265625 C8.46661538,7.206875 8.34776923,7.38742187 8.18038462,7.5109375 L6.91461538,8.4459375 C6.26953846,8.92242187 5.94584615,9.71554687 6.06976923,10.5159375 L6.31315385,12.0871094 C6.34523077,12.294375 6.30369231,12.5071875 6.19615385,12.68625 L5.37946154,14.0464844 C4.96561538,14.7360156 4.96561538,15.5925781 5.37953846,16.2820312 L6.19607692,17.6420312 C6.30361538,17.82125 6.34523077,18.0340625 6.31307692,18.24125 L6.06969231,19.811875 C5.94561538,20.6121875 6.26938462,21.4054687 6.91446154,21.8820312 L8.17992308,22.816875 C8.34723077,22.9403906 8.46615385,23.1209375 8.51484615,23.3251562 L8.88338462,24.8719531 C9.07046154,25.6576562 9.66730769,26.26375 10.4408462,26.4539062 L11.0768462,26.6102344 L6.77269231,36.3613281 C6.68123077,36.5685937 6.70653846,36.8096875 6.83907692,36.9926562 C6.97153846,37.175625 7.19053846,37.2721094 7.41269231,37.2450781 L10.8759231,36.8245312 L12.871,39.7300781 C12.9877692,39.9 13.1783077,39.9998437 13.3799231,39.9998437 C13.3992308,39.9998437 13.4187692,39.9989062 13.4381538,39.9971094 C13.6607692,39.9758594 13.855,39.8345312 13.9464615,39.6274219 L18.3422308,29.668125 L18.8992308,30.0130469 C19.2386923,30.2232812 19.6192308,30.3283594 19.9998462,30.3283594 C20.3804615,30.3283594 20.761,30.2232031 21.1004615,30.0130469 L21.6775385,29.6557031 L26.0788462,39.6274219 C26.1703077,39.8346875 26.3644615,39.9758594 26.5871538,39.9971094 C26.6066154,39.9989844 26.6260769,39.9999219 26.6453846,39.9999219 C26.847,39.9999219 27.0376154,39.9000781 27.1543077,39.7301562 L29.1493846,36.8246094 L32.6126154,37.2451562 C32.8346154,37.2719531 33.0537692,37.1757031 33.1862308,36.9927344 C33.3186923,36.8097656 33.3441538,36.5686719 33.2526154,36.3614062 L28.9462308,26.6049219 L29.5583077,26.4545312 C30.3317692,26.2645312 30.9286923,25.6583594 31.1159231,24.8727344 L31.4845385,23.3258594 C31.5332308,23.1216406 31.6521538,22.9410937 31.8194615,22.8175781 L33.0852308,21.8825781 C33.7303077,21.4060937 34.054,20.6129687 33.9300769,19.8125781 L33.6866923,18.2414062 C33.6546154,18.0341406 33.6961538,17.8213281 33.8036923,17.6422656 L34.6204615,16.2820312 Z M13.2621538,38.0958594 L11.6810769,35.7932031 C11.55,35.6022656 11.3258462,35.5000781 11.0983077,35.5278906 L8.35376923,35.8611719 L12.2752308,26.9765625 C12.3469231,27.0300781 12.4112308,27.0942187 12.4642308,27.1683594 L13.3848462,28.4539062 C13.4723077,28.5760156 13.5706154,28.6867187 13.6777692,28.7853125 L11.6136923,33.4616406 C11.4735385,33.779375 11.6133846,34.1522656 11.9261538,34.2946875 C12.0086154,34.3322656 12.0948462,34.35 12.1796154,34.35 C12.4166923,34.35 12.6431538,34.21125 12.7463077,33.9773437 L14.8030769,29.3176562 C15.0054615,29.3458594 15.2138462,29.3453906 15.423,29.3119531 L16.9699231,29.0647656 C17.0625385,29.05 17.1561538,29.0513281 17.2473077,29.0666406 L13.2621538,38.0958594 Z M31.6716923,35.8610156 L28.9270769,35.5278906 C28.6993077,35.5001562 28.4753846,35.6022656 28.3443077,35.7932031 L26.7632308,38.0958594 L22.7763846,29.063125 C22.86,29.0515625 22.9453077,29.0515625 23.0296923,29.065 L24.5760769,29.3121875 C24.7936923,29.3469531 25.0105385,29.3458594 25.2206154,29.3140625 L27.2789231,33.9775 C27.3822308,34.2114844 27.6085385,34.3501562 27.8456154,34.3501562 C27.9304615,34.3501562 28.0166923,34.3324219 28.0990769,34.2948437 C28.4118462,34.1525 28.5517692,33.7794531 28.4115385,33.4617969 L26.3396154,28.7676562 C26.4395385,28.6734375 26.5319231,28.5691406 26.6143077,28.4541406 L27.5347692,27.1689062 C27.5927692,27.0878906 27.6638462,27.0184375 27.7436923,26.9622656 L31.6716923,35.8610156 Z M33.5605385,15.625625 L32.7438462,16.9858594 C32.4834615,17.4197656 32.3826923,17.9352344 32.4604615,18.4372656 L32.7038462,20.0083594 C32.755,20.33875 32.6213077,20.6661719 32.3550769,20.8628906 L31.0892308,21.7979687 C30.6840769,22.0973437 30.3959231,22.5346094 30.2780769,23.0292187 L29.9094615,24.5760937 C29.8321538,24.9003906 29.5858462,25.150625 29.2664615,25.2291406 L27.7433846,25.6034375 C27.2563077,25.723125 26.8256923,26.0157812 26.5309231,26.4273437 L25.6104615,27.7125781 C25.4167692,27.983125 25.0944615,28.11875 24.769,28.0667187 L23.2225385,27.8195312 C22.7281538,27.7405469 22.2205385,27.8427344 21.7932308,28.1073437 L20.4542308,28.9366406 C20.174,29.1100781 19.8256923,29.1100781 19.5456154,28.9366406 L18.2063077,28.1072656 C17.8732308,27.9009375 17.4913846,27.7934375 17.105,27.7934375 C16.9957692,27.7934375 16.886,27.8020312 16.7771538,27.8194531 L15.2301538,28.0666406 C14.9047692,28.1186719 14.5824615,27.9828125 14.3887692,27.7124219 L13.4680769,26.426875 C13.1733077,26.0153906 12.7427692,25.7227344 12.2557692,25.6030469 L10.7326923,25.2286719 C10.4133846,25.1501562 10.167,24.9 10.0896923,24.575625 L9.72115385,23.0288281 C9.60330769,22.5341406 9.31523077,22.0967187 8.90992308,21.7973437 L7.64453846,20.8624219 C7.37823077,20.6657031 7.24461538,20.3382031 7.29584615,20.0078125 L7.53923077,18.4371875 C7.617,17.9350781 7.51638462,17.4196094 7.25584615,16.985625 L6.43930769,15.6255469 C6.26846154,15.3409375 6.26846154,14.9872656 6.43930769,14.7027344 L7.256,13.3425 C7.51646154,12.9085937 7.61715385,12.393125 7.53938462,11.8910937 L7.296,10.32 C7.24484615,9.98960937 7.37853846,9.6621875 7.64476923,9.46546875 L8.91061538,8.53039062 C9.31576923,8.23101562 9.60392308,7.79375 9.72176923,7.29914062 L10.0903846,5.75226562 C10.1676923,5.42796875 10.414,5.17773437 10.7333846,5.09921875 L12.2564615,4.72492187 C12.7435385,4.60523437 13.1741538,4.31257812 13.4688462,3.90101562 L14.3893077,2.61578125 C14.583,2.3453125 14.9053077,2.20945312 15.2307692,2.2615625 L16.7772308,2.50875 C17.2716923,2.58789062 17.7793077,2.48554687 18.2065385,2.2209375 L19.5455385,1.39164062 C19.8257692,1.21820312 20.1740769,1.21820312 20.4541538,1.39164062 L21.7934615,2.22101562 C22.2206923,2.48570312 22.7283846,2.58796875 23.2226154,2.50890625 L24.7696154,2.26171875 C25.0948462,2.20992187 25.4173077,2.34554687 25.611,2.6159375 L26.5316923,3.90148437 C26.8264615,4.31296875 27.257,4.605625 27.744,4.7253125 L29.2670769,5.0996875 C29.5863846,5.17820312 29.8327692,5.42835937 29.9100769,5.75273437 L30.2786154,7.29953125 C30.3964615,7.79421875 30.6845385,8.23164062 31.0898462,8.53101562 L32.3553077,9.46585937 C32.6216154,9.66257812 32.7552308,9.99007812 32.704,10.3204687 L32.4606154,11.8910937 C32.3828462,12.3932031 32.4834615,12.9086719 32.744,13.3426562 L33.5605385,14.7027344 C33.7314615,14.9873437 33.7314615,15.3410156 33.5605385,15.625625 Z" id="Shape" fill="#4167BB" fill-rule="nonzero"></path>
                        <path d="M27.2627692,13.2028906 C27.126,12.7752344 26.7679231,12.4766406 26.3282308,12.4236719 L22.5935385,11.9739062 L21.0183077,8.50554687 C20.8328462,8.09726562 20.4426154,7.84359375 19.9998462,7.84359375 C19.5571538,7.84359375 19.1668462,8.09726562 18.9813846,8.50554687 L17.4061538,11.9739844 L13.6714615,12.42375 C13.2317692,12.4767187 12.8736154,12.7753125 12.7369231,13.2029687 C12.6001538,13.6303906 12.7170769,14.0857812 13.042,14.3910156 L15.8031538,16.984375 L15.0702308,20.7307812 C14.984,21.171875 15.1529231,21.61 15.5111538,21.8742187 C15.7087692,22.02 15.9380769,22.0938281 16.1688462,22.0938281 C16.3564615,22.0938281 16.5449231,22.0450781 16.7180769,21.9466406 L19.9997692,20.0810937 L23.2814615,21.9466406 C23.6678462,22.1663281 24.1302308,22.1385937 24.4884615,21.8742969 C24.8466923,21.61 25.0156154,21.1717969 24.9293077,20.7307812 L24.1963846,16.9844531 L26.9575385,14.3910937 C27.2826154,14.0858594 27.3995385,13.6305469 27.2627692,13.2028906 Z M23.0986154,16.2984375 C22.9401538,16.4472656 22.8692308,16.6690625 22.9112308,16.8840625 L23.6612308,20.7177344 L20.3029231,18.8085937 C20.2087692,18.7550781 20.1043077,18.7282812 19.9997692,18.7282812 C19.8952308,18.7282812 19.7908462,18.755 19.6966154,18.8085937 L16.3383077,20.7177344 L17.0883077,16.8840625 C17.1304615,16.6689844 17.0594615,16.4472656 16.9009231,16.2984375 L14.0753846,13.6445312 L17.8973846,13.1842969 C18.1116923,13.1585156 18.2974615,13.0214062 18.3879231,12.8224219 L19.9998462,9.273125 L21.6117692,12.8224219 C21.7022308,13.0214062 21.8879231,13.1585156 22.1023077,13.1842969 L25.9241538,13.6445312 L23.0986154,16.2984375 Z" id="Shape" fill="#4167BB" fill-rule="nonzero"></path>
                        <rect id="Rectangle" fill="#D8D8D8" opacity="0" x="0" y="0" width="40" height="40"></rect>
                    </g>
                </g>
            </g>
        </g>
    </g>
</svg>