<?xml version="1.0" encoding="UTF-8"?>
<svg width="22px" height="21px" viewBox="0 0 22 21" version="1.1" xmlns="http://www.w3.org/2000/svg" xmlns:xlink="http://www.w3.org/1999/xlink">
    <!-- Generator: Sketch 49.3 (51167) - http://www.bohemiancoding.com/sketch -->
    <title>cad</title>
    <desc>Created with Sketch.</desc>
    <defs></defs>
    <g id="Треки" stroke="none" stroke-width="1" fill="none" fill-rule="evenodd">
        <g id="Трек" transform="translate(-305.000000, -693.000000)">
            <g id="компетенции" transform="translate(304.000000, 652.000000)">
                <g id="cad" transform="translate(0.000000, 40.000000)">
                    <path d="M17.75,19.6753572 L21.25,17.5753572 L21.25,14.3246428 L17.75,16.4246428 L17.75,19.6753572 Z M16.25,19.6753572 L16.25,16.4246428 L12.750756,14.3250964 L12.750756,17.5758108 L16.25,19.6753572 Z M6.25,19.6753572 L6.25,16.4246428 L2.75,14.3246428 L2.75,17.5753572 L6.25,19.6753572 Z M7.75,19.6753572 L11.250756,17.5749036 L11.250756,14.3249778 L7.75,16.4247171 L7.75,19.6753572 Z M17.0016352,10.8756239 L13.4587707,13.0006196 L17,15.1253572 L20.542262,13 L17.0016352,10.8756239 Z M16.25,9.57732354 L16.25,6.32253749 L12.750756,8.42399042 L12.750756,11.6761558 L16.25,9.57732354 Z M3.45773797,13 L7.00006562,15.1253966 L10.5429301,13.0004009 L7,10.8746428 L3.45773797,13 Z M7.75,9.57535722 L11.250756,11.6758108 L11.250756,8.42526117 L7.75,6.32639439 L7.75,9.57535722 Z M8.45625365,5.0008906 L11.999679,7.12533965 L15.5404792,4.99893033 L12,2.87464278 L8.45625365,5.0008906 Z M6.25,9.57535722 L6.25,4.57535722 L12,1.12535722 L17.75,4.57535722 L17.75,9.57535722 L22.75,12.5753572 L22.75,18.4246428 L17,21.8746428 L12,18.8746428 L7,21.8746428 L1.25,18.4246428 L1.25,12.5753572 L6.25,9.57535722 Z" id="Shape" fill="#4167BB" fill-rule="nonzero"></path>
                    <rect id="Rectangle" fill="#D8D8D8" opacity="0" x="0" y="0" width="24" height="24"></rect>
                </g>
            </g>
        </g>
    </g>
</svg>