<?xml version="1.0" encoding="UTF-8"?>
<svg width="40px" height="30px" viewBox="0 0 40 30" version="1.1" xmlns="http://www.w3.org/2000/svg" xmlns:xlink="http://www.w3.org/1999/xlink">
    <!-- Generator: sketchtool 49.3 (51167) - http://www.bohemiancoding.com/sketch -->
    <title>B5D86884-ABAA-485F-9EAC-2429EC5C82C9</title>
    <desc>Created with sketchtool.</desc>
    <defs></defs>
    <g id="Профайл" stroke="none" stroke-width="1" fill="none" fill-rule="evenodd">
        <g transform="translate(-435.000000, -947.000000)" id="достижения">
            <g transform="translate(304.000000, 867.000000)">
                <g id="челленджи" transform="translate(102.000000, 43.000000)">
                    <g id="challenges" transform="translate(29.000000, 32.000000)">
                        <path d="M1.5,32 C1.5,32.8284271 2.17157288,33.5 3,33.5 L28.25,33.5 C28.6642136,33.5 29,33.8357864 29,34.25 C29,34.6642136 28.6642136,35 28.25,35 L3,35 C1.34314575,35 2.02906125e-16,33.6568542 0,32 L0,8 C-2.02906125e-16,6.34314575 1.34314575,5 3,5 L4,5 L8,13 L16,13 L12,5 L14,5 L18,13 L26,13 L22,5 L24,5 L28,13 L36,13 L32,5 L37,5 C38.6568542,5 40,6.34314575 40,8 L40,32 C40,33.6568542 38.6568542,35 37,35 L31.75,35 C31.3357864,35 31,34.6642136 31,34.25 C31,33.8357864 31.3357864,33.5 31.75,33.5 L37,33.5 C37.8284271,33.5 38.5,32.8284271 38.5,32 L38.5,8 C38.5,7.17157288 37.8284271,6.5 37,6.5 L34.427051,6.5 L37.3416408,12.3291796 C37.8403166,13.3265312 37.115073,14.5 36,14.5 L8,14.5 C7.43184191,14.5 6.91244723,14.1789964 6.65835921,13.6708204 L3.07294902,6.5 C2.17157288,6.5 1.5,7.17157288 1.5,8 L1.5,32 Z M9.75,22 L11.25,22 C11.6642136,22 12,22.3357864 12,22.75 C12,23.1642136 11.6642136,23.5 11.25,23.5 L9.75,23.5 C9.33578644,23.5 9,23.1642136 9,22.75 C9,22.3357864 9.33578644,22 9.75,22 Z M14.75,22 L30.25,22 C30.6642136,22 31,22.3357864 31,22.75 C31,23.1642136 30.6642136,23.5 30.25,23.5 L14.75,23.5 C14.3357864,23.5 14,23.1642136 14,22.75 C14,22.3357864 14.3357864,22 14.75,22 Z" id="Combined-Shape" fill="#4167BB" fill-rule="nonzero"></path>
                        <rect id="Rectangle-6" x="0" y="0" width="40" height="40"></rect>
                    </g>
                </g>
            </g>
        </g>
    </g>
</svg>