<?xml version="1.0" encoding="UTF-8"?>
<svg width="120px" height="120px" viewBox="0 0 120 120" version="1.1" xmlns="http://www.w3.org/2000/svg" xmlns:xlink="http://www.w3.org/1999/xlink">
    <title>chrome</title>
    <g id="chrome" stroke="none" stroke-width="1" fill="none" fill-rule="evenodd">
        <path d="M115.379649,37.4318129 L59.8879532,37.4318129 C47.485848,37.4196491 37.4219883,47.4636257 37.4095906,59.865731 C37.405848,63.7178947 38.3929825,67.5061988 40.2762573,70.8664327 L12.5305263,23.2594152 C32.7394152,-2.89614035 70.3253801,-7.71672515 96.4809357,12.4921637 C104.880702,18.9822222 111.403275,27.5897076 115.379649,37.4318129 Z" id="Path" fill="#F44336" fill-rule="nonzero"></path>
        <path d="M119.771099,59.8879532 C119.743392,92.9490058 92.9490058,119.743392 59.8879532,119.771367 C57.3840936,119.780351 54.882807,119.613567 52.4025731,119.272047 L79.3499415,71.1160234 C85.5260819,60.3642105 81.8444444,46.6423392 71.1160234,40.4259649 C67.7192982,38.4594152 63.8626901,37.4261988 59.9377778,37.4317901 L115.379415,37.4317901 C118.293567,44.5592982 119.785497,52.1878363 119.771099,59.8879532 Z" id="Path" fill="#FFC107" fill-rule="nonzero"></path>
        <path d="M79.3499415,71.1160234 L52.4025731,119.272047 L52.3527485,119.272047 C19.5602339,115.128889 -3.6645614,85.1864327 0.478596491,52.3939181 C1.81964912,41.779883 5.98128655,31.7192982 12.5305263,23.2594152 L40.2762573,70.8664327 L40.4259649,71.1160234 C46.6133333,81.8645614 60.3424561,85.5621053 71.0909942,79.3749708 C74.5244444,77.3985965 77.3738012,74.5492398 79.3499415,71.1160234 Z" id="Path" fill="#4CAF50" fill-rule="nonzero"></path>
        <path d="M79.3499415,71.1160234 C73.1625731,81.8645614 59.4334503,85.5621053 48.6849123,79.3749708 C45.2516959,77.3985965 42.4023392,74.5492398 40.4259649,71.1160234 L40.2762573,70.8664327 C34.2128655,60.0474854 38.0683041,46.3616374 48.8872515,40.2982456 C52.2477193,38.4149708 56.0360234,37.4278363 59.8879532,37.4315562 L59.9377778,37.4315562 C63.8626901,37.4259649 67.7192982,38.4591813 71.1160234,40.425731 C81.8446784,46.6423392 85.5260819,60.3642105 79.3499415,71.1160234 Z" id="Path" fill="#F44336" fill-rule="nonzero"></path>
        <path d="M79.3499415,71.1160234 C73.1625731,81.8645614 59.4334503,85.5621053 48.6849123,79.3749708 C45.2516959,77.3985965 42.4023392,74.5492398 40.4259649,71.1160234 L40.2762573,70.8664327 C34.2128655,60.0474854 38.0683041,46.3616374 48.8872515,40.2982456 C52.2477193,38.4149708 56.0360234,37.4278363 59.8879532,37.4315562 L59.9377778,37.4315562 C63.8626901,37.4259649 67.7192982,38.4591813 71.1160234,40.425731 C81.8446784,46.6423392 85.5260819,60.3642105 79.3499415,71.1160234 Z" id="Path" fill="#2196F3" fill-rule="nonzero"></path>
        <path d="M59.8032749,84.8393094 C55.4528655,84.8393094 51.1791813,83.6923977 47.4123977,81.5157895 C43.614269,79.3190643 40.459883,76.1630409 38.2652632,72.3637427 C31.3752047,60.4297076 35.4640936,45.1698246 47.3981287,38.2797661 C51.1953216,36.0874854 55.5033918,34.9345029 59.8881871,34.9368343 C73.6683041,34.9260819 84.8481871,46.088655 84.8587214,59.8687719 C84.8622222,64.2552047 83.7090058,68.5649123 81.5157895,72.3637427 L81.5157895,72.3637427 C77.0189474,80.0947368 68.7469006,84.8477193 59.8032749,84.8393094 Z M59.9328655,39.9267341 C52.7719298,39.8888889 46.1422222,43.700117 42.5716959,49.9076023 C37.0596491,59.4654971 40.3394152,71.6823392 49.8973099,77.194386 C59.4552047,82.7064327 71.6720468,79.4266667 77.1840936,69.8687719 L77.1840936,69.8687719 C82.6961404,60.3216374 79.4250292,48.1136842 69.8778947,42.6014035 C66.8552047,40.8563743 63.4278363,39.934269 59.9377778,39.9272515 L59.9328655,39.9272515 L59.9328655,39.9267341 Z" id="Shape" fill="#FAFAFA" fill-rule="nonzero"></path>
    </g>
</svg>