<?xml version="1.0" encoding="UTF-8"?>
<svg width="80px" height="64px" viewBox="0 0 80 64" version="1.1" xmlns="http://www.w3.org/2000/svg" xmlns:xlink="http://www.w3.org/1999/xlink">
    <!-- Generator: sketchtool 55.1 (78136) - https://sketchapp.com -->
    <title>DBA051BC-81CE-4F25-8513-B1EEDBA63430</title>
    <desc>Created with sketchtool.</desc>
    <g id="Профайл" stroke="none" stroke-width="1" fill="none" fill-rule="evenodd">
        <g transform="translate(-514.000000, -555.000000)" id="навыки-заглушка">
            <g transform="translate(304.000000, 355.000000)">
                <g id="Group-3" transform="translate(106.000000, 200.000000)">
                    <g id="construction-and-tools" transform="translate(104.000000, 0.000000)">
                        <path d="M46.7345029,35.217844 L41.2095127,35.217844 C40.8152827,33.774532 40.2432749,32.393152 39.5015984,31.09336 L43.408499,27.185248 C43.6221442,26.971372 43.7422222,26.681524 43.7422222,26.379196 C43.7422222,26.076868 43.6221442,25.78702 43.408499,25.573144 L38.3173489,20.480368 C37.8724366,20.035456 37.1510331,20.035456 36.7061209,20.480368 L32.7992203,24.388636 C31.500039,23.6467 30.1191423,23.074492 28.6761793,22.679968 L28.6761793,17.153044 C28.6761793,16.523428 28.1660819,16.013308 27.5368421,16.013308 L20.3369981,16.013308 C19.7077583,16.013308 19.1976608,16.523584 19.1976608,17.153044 L19.1976608,22.679968 C17.7545419,23.074492 16.3739571,23.6467 15.0747758,24.388636 L11.1678752,20.480368 C10.722807,20.035612 10.0015595,20.0353 9.55664717,20.480368 L4.46549708,25.573144 C4.25185185,25.78702 4.13177388,26.076868 4.13177388,26.379196 C4.13177388,26.681524 4.25185185,26.971372 4.46549708,27.185248 L8.37239766,31.09336 C7.63072125,32.393308 7.05871345,33.774688 6.66432749,35.217844 L1.13933723,35.217844 C0.510097466,35.217844 0,35.72812 0,36.35758 L0,43.559944 C0,44.189404 0.510097466,44.69968 1.13933723,44.69968 L6.66432749,44.69968 C7.0585575,46.142992 7.6305653,47.524372 8.37239766,48.824008 L4.46534113,52.73212 C4.02042885,53.177344 4.02042885,53.898844 4.46534113,54.344068 L9.55649123,59.437 C10.0014035,59.881912 10.722807,59.881912 11.1677193,59.437 L15.0746199,55.528732 C16.3741131,56.270668 17.7548538,56.842876 19.1975049,57.237244 L19.1975049,62.764168 C19.1975049,63.393784 19.7076023,63.903904 20.3368421,63.903904 L27.5366862,63.903904 C28.1659259,63.903904 28.6760234,63.393628 28.6760234,62.764168 L28.6760234,57.2374 C30.1186745,56.843032 31.4995712,56.270824 32.7990643,55.528888 L36.7059649,59.437156 C37.1508772,59.882068 37.8722807,59.882068 38.317193,59.437156 L43.4083431,54.344224 C43.8534113,53.899 43.8534113,53.1775 43.4083431,52.732276 L39.5014425,48.824008 C40.2431189,47.52406 40.8151267,46.142836 41.2093567,44.69968 L46.734347,44.69968 C47.3635867,44.69968 47.8736842,44.189404 47.8736842,43.559944 L47.8736842,36.35758 C47.8736842,35.727964 47.3637427,35.217844 46.7345029,35.217844 Z M45.5953216,42.419896 L45.5953216,42.419896 L40.3167251,42.419896 C39.7813645,42.419896 39.3180507,42.792892 39.2037427,43.316116 C38.8088889,45.121504 38.102924,46.826428 37.1053411,48.383152 C36.8163743,48.833992 36.8803119,49.425388 37.2589474,49.804156 L40.991501,53.538016 L37.5117349,57.019 L33.7791813,53.28514 C33.4005458,52.906372 32.8093567,52.842412 32.3588304,53.13148 C30.8023392,54.129412 29.0981676,54.835624 27.2934113,55.23046 C26.7703704,55.344964 26.3975049,55.808284 26.3975049,56.343988 L26.3975049,61.624276 L21.4763353,61.624276 L21.4763353,56.343988 C21.4763353,55.80844 21.1034698,55.34512 20.5804288,55.23046 C18.7756725,54.835624 17.071501,54.129412 15.5151657,53.13148 C15.0646394,52.842568 14.4734503,52.906684 14.0948148,53.28514 L10.3622612,57.019 L6.88249513,53.538016 L10.6150487,49.804156 C10.9936842,49.425388 11.0576218,48.833992 10.768655,48.382996 C9.77122807,46.826428 9.06510721,45.12166 8.67025341,43.316116 C8.55594542,42.792892 8.09263158,42.419896 7.55727096,42.419896 L2.27867446,42.419896 L2.27867446,37.49716 L7.55711501,37.49716 C8.09247563,37.49716 8.55578947,37.124164 8.67009747,36.60094 C9.06495127,34.795552 9.77091618,33.090628 10.768499,31.533748 C11.0574659,31.082908 10.9935283,30.491512 10.6148928,30.112744 L6.88233918,26.37904 L10.3621053,22.898212 L14.0946589,26.632072 C14.4731384,27.01084 15.0643275,27.074332 15.5151657,26.785732 C17.0710331,25.787956 18.7752047,25.081744 20.5804288,24.686596 C21.1034698,24.572248 21.4763353,24.108772 21.4763353,23.573224 L21.4763353,18.292936 L26.3975049,18.292936 L26.3975049,23.573224 C26.3975049,24.108772 26.7703704,24.572092 27.2934113,24.686752 C29.0984795,25.081744 30.802807,25.788112 32.3588304,26.785888 C32.8098246,27.074956 33.4007018,27.01084 33.7793372,26.632228 L37.5118908,22.898368 L40.9916569,26.379196 L37.2591033,30.1129 C36.8804678,30.491668 36.8165302,31.083064 37.1054971,31.533904 C38.1030799,33.090784 38.8090448,34.795708 39.2038986,36.601096 C39.3182066,37.12432 39.7815205,37.497316 40.3168811,37.497316 L45.5953216,37.497316 L45.5953216,42.419896 Z" id="Shape" fill="#4167BB" fill-rule="nonzero"></path>
                        <circle id="Oval" stroke="#4167BB" stroke-width="2.4" cx="23.9299927" cy="39.9500122" r="8.8"></circle>
                        <path d="M78.7047173,14.879344 L74.6861598,14.879344 C74.4006238,13.891708 74.0076413,12.942604 73.5115789,12.042328 L76.3530604,9.200008 C76.5667057,8.986132 76.6867836,8.696284 76.6867836,8.393956 C76.6867836,8.091628 76.5667057,7.80178 76.3530604,7.587904 L72.4626901,3.696172 C72.0176218,3.25126 71.2963743,3.25126 70.851462,3.696172 L68.0099805,6.538648 C67.1101754,6.042412 66.1614035,5.649448 65.1741131,5.363656 L65.1741131,1.343692 C65.1741131,0.714076 64.6640156,0.203956 64.0347758,0.203956 L58.5328655,0.203956 C57.9036257,0.203956 57.3935283,0.714232 57.3935283,1.343692 L57.3935283,5.363656 C56.4062378,5.649292 55.4574659,6.042256 54.5576608,6.538648 L51.7161793,3.696172 C51.2712671,3.25126 50.5498635,3.25126 50.1049513,3.696172 L46.2145809,7.587904 C46.0009357,7.80178 45.8808577,8.091628 45.8808577,8.393956 C45.8808577,8.696284 46.0009357,8.986132 46.2145809,9.200008 L49.0560624,12.042328 C48.56,12.942604 48.1670175,13.891552 47.8814815,14.879344 L43.862924,14.879344 C43.2336842,14.879344 42.7235867,15.38962 42.7235867,16.01908 L42.7235867,21.522916 C42.7235867,22.152532 43.2336842,22.662652 43.862924,22.662652 L47.8814815,22.662652 C48.1670175,23.650288 48.56,24.599548 49.0560624,25.499668 L46.2145809,28.341988 C45.7695127,28.787212 45.7695127,29.508712 46.2145809,29.953936 L50.1049513,33.845824 C50.3185965,34.059544 50.6083431,34.179664 50.9105653,34.179664 C51.2127875,34.179664 51.5025341,34.059544 51.7161793,33.845824 L54.5576608,31.003348 C55.4574659,31.499428 56.4062378,31.892548 57.3935283,32.178184 L57.3935283,36.198148 C57.3935283,36.827764 57.9036257,37.337884 58.5328655,37.337884 L64.0347758,37.337884 C64.6640156,37.337884 65.1741131,36.827608 65.1741131,36.198148 L65.1741131,32.178184 C66.1612476,31.892704 67.1100195,31.49974 68.0099805,31.003192 L70.851462,33.845824 C71.0651072,34.059544 71.3548538,34.179664 71.657076,34.179664 C71.9592982,34.179664 72.2490448,34.059544 72.4626901,33.845824 L76.3530604,29.953936 C76.7979727,29.508712 76.7979727,28.787212 76.3530604,28.341988 L73.5117349,25.499512 C74.0079532,24.599236 74.4007797,23.650288 74.6863158,22.662652 L78.7048733,22.662652 C79.3341131,22.662652 79.8442105,22.152376 79.8442105,21.522916 L79.8442105,16.019236 C79.8442105,15.38962 79.3339571,14.879344 78.7047173,14.879344 Z M73.8003899,20.38318 C73.2650292,20.38318 72.8017154,20.756176 72.6874074,21.2794 C72.3923587,22.628332 71.8652632,23.901604 71.1204678,25.06396 C70.831501,25.5148 70.8954386,26.106196 71.2740741,26.484808 L73.9362183,29.14804 L71.657076,31.42798 L68.9949318,28.764748 C68.6164522,28.386136 68.0254191,28.322176 67.5745809,28.611088 C66.4124756,29.356144 65.1396491,29.88358 63.791345,30.17842 C63.2683041,30.292924 62.8954386,30.756244 62.8954386,31.291948 L62.8954386,35.058412 L59.6723587,35.058412 L59.6723587,31.291948 C59.6723587,30.7564 59.2994932,30.29308 58.7764522,30.17842 C57.4278363,29.883424 56.1550097,29.356144 54.9933723,28.611088 C54.5425341,28.322176 53.951501,28.386292 53.5728655,28.764748 L50.9107212,31.42798 L48.6315789,29.14804 L51.2937232,26.484964 C51.6723587,26.106196 51.7362963,25.5148 51.4473294,25.063804 C50.7026901,23.90176 50.1755945,22.628488 49.8803899,21.279244 C49.7659259,20.756176 49.302768,20.38318 48.7674074,20.38318 L45.0024172,20.38318 L45.0024172,17.158972 L48.7674074,17.158972 C49.302768,17.158972 49.7659259,16.785976 49.8803899,16.262908 C50.1755945,14.913664 50.7026901,13.640392 51.4473294,12.478348 C51.7362963,12.027352 51.6723587,11.435956 51.2937232,11.057188 L48.6315789,8.394112 L50.9107212,6.114328 L53.5728655,8.777404 C53.951501,9.156172 54.5426901,9.219976 54.9932164,8.931064 C56.1550097,8.186164 57.4278363,7.658884 58.7766082,7.363576 C59.2996491,7.249228 59.6723587,6.785752 59.6723587,6.250204 L59.6723587,2.483896 L62.8954386,2.483896 L62.8954386,6.250204 C62.8954386,6.785752 63.2681481,7.249072 63.7911891,7.363576 C65.1398051,7.658884 66.4127875,8.186164 67.5745809,8.931064 C68.025575,9.220132 68.6164522,9.156016 68.9949318,8.777404 L71.657076,6.114328 L73.9362183,8.394112 L71.2740741,11.057188 C70.8954386,11.435956 70.831501,12.027352 71.1204678,12.478348 C71.8651072,13.640548 72.3923587,14.913664 72.6874074,16.262752 C72.8018713,16.785976 73.2650292,17.158972 73.8003899,17.158972 L77.5653801,17.158972 L77.5653801,20.38318 L73.8003899,20.38318 L73.8003899,20.38318 Z" id="Shape" fill="#4167BB" fill-rule="nonzero"></path>
                        <path d="M61.2800293,24.3700197 C64.372824,24.3700197 66.8800294,21.8628142 66.8800294,18.7700195 C66.8800294,15.6772249 64.372824,13.1700194 61.2800293,13.1700194 C58.1872346,13.1700194 55.6800292,15.6772249 55.6800292,18.7700195 C55.6800292,21.8628142 58.1872346,24.3700197 61.2800293,24.3700197 Z M61.2800293,26.7700195 C56.8617513,26.7700195 53.2800293,23.1882975 53.2800293,18.7700195 C53.2800293,14.3517415 56.8617513,10.7700195 61.2800293,10.7700195 C65.6983073,10.7700195 69.2800293,14.3517415 69.2800293,18.7700195 C69.2800293,23.1882975 65.6983073,26.7700195 61.2800293,26.7700195 Z" id="Oval" fill="#4167BB" fill-rule="nonzero"></path>
                        <path d="M37.6489669,7.170292 C37.6477193,7.170292 37.6466277,7.170292 37.6455361,7.170292 C37.0178558,7.170292 36.5080702,7.678384 36.5061988,8.306596 L36.5041655,9.0061 C36.5021442,9.63556 37.0108382,10.147396 37.640078,10.149268 C37.6413255,10.149268 37.6424172,10.149268 37.6435088,10.149268 C38.2711891,10.149268 38.7809747,9.641176 38.782846,9.012964 L38.7848784,8.31346 C38.7867446,7.683844 38.2782066,7.172164 37.6489669,7.170292 Z" id="Shape" fill="#4167BB" fill-rule="nonzero"></path>
                        <path d="M37.6353996,11.78758 C37.634308,11.78758 37.6332164,11.78758 37.6321248,11.78758 C37.0044444,11.78758 36.4946589,12.295672 36.4927875,12.92404 L36.4907559,13.623544 C36.4890448,14.25316 36.9975828,14.76484 37.6268226,14.766556 C37.6279142,14.766556 37.6290058,14.766556 37.6300975,14.766556 C38.2577778,14.766556 38.7675634,14.258464 38.7694347,13.630096 L38.7714663,12.930592 C38.7731774,12.30082 38.2646394,11.789296 37.6353996,11.78758 Z" id="Shape" fill="#4167BB" fill-rule="nonzero"></path>
                        <path d="M40.2986355,9.836488 L39.5995322,9.83446 C39.5982846,9.83446 39.597193,9.83446 39.5961014,9.83446 C38.9684211,9.83446 38.4586355,10.342552 38.4567581,10.970764 C38.4547368,11.600224 38.9632749,12.111904 39.5926706,12.113932 L40.2917739,12.11596 C40.2930214,12.11596 40.2941131,12.11596 40.2952047,12.11596 C40.922885,12.11596 41.4326706,11.607868 41.4345471,10.979656 C41.4364133,10.35004 40.9278752,9.83836 40.2986355,9.836488 Z" id="Shape" fill="#4167BB" fill-rule="nonzero"></path>
                        <path d="M35.6819033,9.82203532 L34.9828,9.82000732 C34.9815525,9.82000732 34.9804609,9.82000732 34.9793692,9.82000732 C34.3516889,9.82000732 33.8419033,10.3280993 33.8400269,10.9563113 C33.8381607,11.5857713 34.3466987,12.0976073 34.9759384,12.0994793 L35.6750418,12.1015073 C35.6762893,12.1015073 35.6773809,12.1015073 35.6784725,12.1015073 C36.3061529,12.1015073 36.8159384,11.5934153 36.8178149,10.9652033 C36.8196811,10.3355873 36.3111431,9.82390732 35.6819033,9.82203532 Z" id="Shape" fill="#4167BB" fill-rule="nonzero"></path>
                        <path d="M53.9505653,39.147328 C53.9494737,39.147328 53.9483821,39.147328 53.9472904,39.147328 C53.3196101,39.147328 52.8098246,39.65542 52.8079532,40.283788 L52.8059208,40.983136 C52.8040546,41.612596 53.3127485,42.124276 53.9419883,42.126148 C53.9430799,42.126148 53.9441715,42.126148 53.9452632,42.126148 C54.5729435,42.126148 55.082729,41.618056 55.0846004,40.989688 L55.086632,40.29034 C55.0883431,39.660568 54.5798051,39.149044 53.9505653,39.147328 Z" id="Shape" fill="#4167BB" fill-rule="nonzero"></path>
                        <path d="M53.9373099,43.76446 C53.9360624,43.76446 53.9349708,43.76446 53.9338791,43.76446 C53.3061988,43.76446 52.7964133,44.272552 52.7945419,44.900764 L52.7925095,45.600112 C52.7906433,46.229728 53.2991813,46.741408 53.9284211,46.74328 C53.9296686,46.74328 53.9307602,46.74328 53.9318519,46.74328 C54.5595322,46.74328 55.0693177,46.235188 55.0711891,45.606976 L55.0732215,44.907628 C55.0750877,44.278012 54.5665497,43.766488 53.9373099,43.76446 Z" id="Shape" fill="#4167BB" fill-rule="nonzero"></path>
                        <path d="M56.6002339,41.813212 L55.9011306,41.811184 C55.899883,41.811184 55.8987914,41.811184 55.8976998,41.811184 C55.2700195,41.811184 54.7602339,42.319276 54.7583574,42.947488 C54.7564912,43.577104 55.2650292,44.088784 55.894269,44.090656 L56.5933723,44.092684 C56.5946199,44.092684 56.5957115,44.092684 56.5968031,44.092684 C57.2244834,44.092684 57.734269,43.584592 57.7361464,42.95638 C57.7381676,42.326764 57.2294737,41.81524 56.6002339,41.813212 Z" id="Shape" fill="#4167BB" fill-rule="nonzero"></path>
                        <path d="M51.9847173,41.799796 L51.285614,41.797768 C51.2843665,41.797768 51.2832749,41.797768 51.2821832,41.797768 C50.6545029,41.797768 50.1447173,42.30586 50.1428409,42.934072 C50.1409747,43.563688 50.6495127,44.075368 51.2787524,44.07724 L51.9778558,44.079268 C51.9791033,44.079268 51.9801949,44.079268 51.9812865,44.079268 C52.6089669,44.079268 53.1187524,43.571176 53.1206289,42.942964 C53.1224951,42.313348 52.6139571,41.801824 51.9847173,41.799796 Z" id="Shape" fill="#4167BB" fill-rule="nonzero"></path>
                    </g>
                </g>
            </g>
        </g>
    </g>
</svg>