<?xml version="1.0" encoding="UTF-8"?>
<svg width="30px" height="40px" viewBox="0 0 30 40" version="1.1" xmlns="http://www.w3.org/2000/svg" xmlns:xlink="http://www.w3.org/1999/xlink">
    <!-- Generator: sketchtool 49.3 (51167) - http://www.bohemiancoding.com/sketch -->
    <title>11930330-85B7-432F-BC1F-35E4E04F9D13</title>
    <desc>Created with sketchtool.</desc>
    <defs></defs>
    <g id="Профайл" stroke="none" stroke-width="1" fill="none" fill-rule="evenodd">
        <g transform="translate(-746.000000, -942.000000)" id="достижения">
            <g transform="translate(304.000000, 867.000000)">
                <g id="курсы" transform="translate(408.000000, 43.000000)">
                    <g id="courses" transform="translate(34.000000, 32.000000)">
                        <path d="M4,0.75 C2.20507456,0.75 0.75,2.20507456 0.75,4 L0.75,36 C0.75,37.7949254 2.20507456,39.25 4,39.25 L29,39.25 C29.1380712,39.25 29.25,39.1380712 29.25,39 L29.25,1 C29.25,0.861928813 29.1380712,0.75 29,0.75 L4,0.75 Z" id="Rectangle" stroke="#4167BB" stroke-width="1.5"></path>
                        <path d="M4,0.75 C2.20507456,0.75 0.75,2.20507456 0.75,4 C0.75,5.79492544 2.20507456,7.25 4,7.25 L29,7.25 C29.1380712,7.25 29.25,7.13807119 29.25,7 L29.25,1 C29.25,0.861928813 29.1380712,0.75 29,0.75 L4,0.75 Z" id="Rectangle" stroke="#4167BB" stroke-width="1.5"></path>
                        <rect id="Rectangle" fill="#4167BB" x="4" y="7" width="1.5" height="32"></rect>
                        <path d="M8.5,22.27374 L11.5,16.9404067 L14.5,22.27374 L14.5,7 L16,7 L16,24.1824934 C16,24.7347781 15.5522847,25.1824934 15,25.1824934 C14.6387267,25.1824934 14.3055428,24.9876316 14.1284245,24.6727546 L11.5,20 L8.87157554,24.6727546 C8.60081173,25.1541125 7.99109664,25.3248327 7.50973876,25.0540689 C7.19486178,24.8769506 7,24.5437667 7,24.1824934 L7,16.75 C7,16.3357864 7.33578644,16 7.75,16 L7.75,16 C8.16421356,16 8.5,16.3357864 8.5,16.75 L8.5,22.27374 Z" id="Rectangle" fill="#4167BB" fill-rule="nonzero"></path>
                        <path d="M9.65002441,4.5 L15.75,4.5 L14.5,6.5 L16,6.5 L18,3 L9,3 L7,6.5 L7,13.25 C7,13.6642136 7.33578644,14 7.75,14 L7.75,14 C8.16421356,14 8.5,13.6642136 8.5,13.25 L8.5,6.5 L9.65002441,4.5 Z" id="Rectangle" fill="#4167BB" fill-rule="nonzero"></path>
                        <path d="M25.75,3.25 L29,3.25 L29,4.75 L25.75,4.75 C25.3357864,4.75 25,4.41421356 25,4 L25,4 C25,3.58578644 25.3357864,3.25 25.75,3.25 Z" id="Rectangle" fill="#4167BB"></path>
                    </g>
                </g>
            </g>
        </g>
    </g>
</svg>