<?xml version="1.0" encoding="UTF-8"?>
<svg width="38px" height="39px" viewBox="0 0 38 39" version="1.1" xmlns="http://www.w3.org/2000/svg" xmlns:xlink="http://www.w3.org/1999/xlink">
    <!-- Generator: sketchtool 49.3 (51167) - http://www.bohemiancoding.com/sketch -->
    <title>8E037885-56A4-4E4A-8C31-D2BDA9A27EC4</title>
    <desc>Created with sketchtool.</desc>
    <defs></defs>
    <g id="Профайл" stroke="none" stroke-width="1" fill="none" fill-rule="evenodd">
        <g transform="translate(-538.000000, -943.000000)" id="достижения">
            <g transform="translate(304.000000, 867.000000)">
                <g id="мероприятия" transform="translate(204.000000, 43.000000)">
                    <g id="event" transform="translate(29.000000, 32.000000)">
                        <path d="M37.5,14 L37.5,8 C37.5,7.17157288 36.8284271,6.5 36,6.5 L32.9585208,6.5 C32.7204817,7.91885667 31.4864981,9 30,9 C28.5135019,9 27.2795183,7.91885667 27.0414792,6.5 L12.9585208,6.5 C12.7204817,7.91885667 11.4864981,9 10,9 C8.51350186,9 7.27951827,7.91885667 7.04147922,6.5 L4,6.5 C3.17157288,6.5 2.5,7.17157288 2.5,8 L2.5,14 L5.25,14 C5.66421356,14 6,14.3357864 6,14.75 C6,15.1642136 5.66421356,15.5 5.25,15.5 L2.5,15.5 L2.5,16 L2.5,37 C2.5,37.8284271 3.17157288,38.5 4,38.5 L29.25,38.5 C29.6642136,38.5 30,38.8357864 30,39.25 C30,39.6642136 29.6642136,40 29.25,40 L4,40 C2.34314575,40 1,38.6568542 1,37 L1,16 L1,8 C1,6.34314575 2.34314575,5 4,5 L7,5 L7,4 C7,2.34314575 8.34314575,1 10,1 C11.6568542,1 13,2.34314575 13,4 L13,5 L27,5 L27,4 C27,2.34314575 28.3431458,1 30,1 C31.6568542,1 33,2.34314575 33,4 L33,5 L36,5 C37.6568542,5 39,6.34314575 39,8 L39,16 L39,37 C39,38.6568542 37.6568542,40 36,40 L32.75,40 C32.3357864,40 32,39.6642136 32,39.25 C32,38.8357864 32.3357864,38.5 32.75,38.5 L36,38.5 C36.8284271,38.5 37.5,37.8284271 37.5,37 L37.5,16 L37.5,15.5 L8.75,15.5 C8.33578644,15.5 8,15.1642136 8,14.75 C8,14.3357864 8.33578644,14 8.75,14 L37.5,14 Z M10,2.5 C9.17157288,2.5 8.5,3.17157288 8.5,4 L8.5,6 C8.5,6.82842712 9.17157288,7.5 10,7.5 C10.8284271,7.5 11.5,6.82842712 11.5,6 L11.5,4 C11.5,3.17157288 10.8284271,2.5 10,2.5 Z M30,2.5 C29.1715729,2.5 28.5,3.17157288 28.5,4 L28.5,6 C28.5,6.82842712 29.1715729,7.5 30,7.5 C30.8284271,7.5 31.5,6.82842712 31.5,6 L31.5,4 C31.5,3.17157288 30.8284271,2.5 30,2.5 Z M20.4653411,30.5499807 L22.7100855,31.7301127 L22.2813775,29.2305531 C22.2257395,28.906159 22.333288,28.5751588 22.5689741,28.3454217 L24.3850104,26.5752237 L21.8753099,26.2105429 C21.5495998,26.1632145 21.2680342,25.9586451 21.1223722,25.6635016 L20,23.3893272 L18.8776278,25.6635016 C18.7319658,25.9586451 18.4504002,26.1632145 18.1246901,26.2105429 L15.6149896,26.5752237 L17.4310259,28.3454217 C17.666712,28.5751588 17.7742605,28.906159 17.7186225,29.2305531 L17.2899145,31.7301127 L19.5346589,30.5499807 C19.8259829,30.3968226 20.1740171,30.3968226 20.4653411,30.5499807 Z M16.1944541,34.0006939 C15.9500318,34.1291943 15.6477182,34.035221 15.5192178,33.7907988 C15.4680482,33.6934685 15.4503909,33.5819845 15.4689793,33.4736057 L16.1957739,29.236068 L13.1170226,26.2350271 C12.9192808,26.0422765 12.9152347,25.7257199 13.1079853,25.5279781 C13.1847396,25.4492363 13.2853108,25.3979927 13.3941293,25.3821804 L17.648859,24.763932 L19.551632,20.9084929 C19.6738431,20.660866 19.973656,20.5591965 20.2212829,20.6814077 C20.3198892,20.7300728 20.3997029,20.8098866 20.448368,20.9084929 L22.351141,24.763932 L26.6058707,25.3821804 C26.8791431,25.4218892 27.0684839,25.6756107 27.0287751,25.9488831 C27.0129628,26.0577016 26.9617192,26.1582728 26.8829774,26.2350271 L23.8042261,29.236068 L24.5310207,33.4736057 C24.5777012,33.7457739 24.3949073,34.0042518 24.122739,34.0509324 C24.0143602,34.0695208 23.9028762,34.0518634 23.8055459,34.0006939 L20,32 L16.1944541,34.0006939 Z" id="Combined-Shape" fill="#4167BB" fill-rule="nonzero"></path>
                        <rect id="Rectangle-7" x="0" y="0" width="40" height="40"></rect>
                    </g>
                </g>
            </g>
        </g>
    </g>
</svg>