<?xml version="1.0" encoding="UTF-8"?>
<svg width="117px" height="120px" viewBox="0 0 117 120" version="1.1" xmlns="http://www.w3.org/2000/svg" xmlns:xlink="http://www.w3.org/1999/xlink">
    <title>firefox</title>
    <defs>
        <linearGradient x1="87.258639%" y1="15.4921976%" x2="9.36911748%" y2="93.116286%" id="linearGradient-1">
            <stop stop-color="#FFF44F" offset="4.8%"></stop>
            <stop stop-color="#FFE847" offset="11.1%"></stop>
            <stop stop-color="#FFC830" offset="22.5%"></stop>
            <stop stop-color="#FF980E" offset="36.8%"></stop>
            <stop stop-color="#FF8B16" offset="40.1%"></stop>
            <stop stop-color="#FF672A" offset="46.2%"></stop>
            <stop stop-color="#FF3647" offset="53.4%"></stop>
            <stop stop-color="#E31587" offset="70.5%"></stop>
        </linearGradient>
        <radialGradient cx="85.9134916%" cy="-12.9338833%" fx="85.9134916%" fy="-12.9338833%" r="128.347356%" gradientTransform="translate(0.859135,-0.129339),scale(0.813136,1.000000),translate(-0.859135,0.129339)" id="radialGradient-2">
            <stop stop-color="#FFBD4F" offset="12.9%"></stop>
            <stop stop-color="#FFAC31" offset="18.6%"></stop>
            <stop stop-color="#FF9D17" offset="24.7%"></stop>
            <stop stop-color="#FF980E" offset="28.3%"></stop>
            <stop stop-color="#FF563B" offset="40.3%"></stop>
            <stop stop-color="#FF3750" offset="46.7%"></stop>
            <stop stop-color="#F5156C" offset="71%"></stop>
            <stop stop-color="#EB0878" offset="78.2%"></stop>
            <stop stop-color="#E50080" offset="86%"></stop>
        </radialGradient>
        <radialGradient cx="47.7780694%" cy="39.5383085%" fx="47.7780694%" fy="39.5383085%" r="128.347356%" gradientTransform="translate(0.477781,0.395383),scale(0.813136,1.000000),translate(-0.477781,-0.395383)" id="radialGradient-3">
            <stop stop-color="#960E18" offset="30%"></stop>
            <stop stop-color="#B11927" stop-opacity="0.74" offset="35.1%"></stop>
            <stop stop-color="#DB293D" stop-opacity="0.343" offset="43.5%"></stop>
            <stop stop-color="#F5334B" stop-opacity="0.094" offset="49.7%"></stop>
            <stop stop-color="#FF3750" stop-opacity="0" offset="53%"></stop>
        </radialGradient>
        <radialGradient cx="49.9962335%" cy="-29.9984609%" fx="49.9962335%" fy="-29.9984609%" r="314.952919%" gradientTransform="translate(0.499962,-0.299985),scale(1.000000,0.588972),translate(-0.499962,0.299985)" id="radialGradient-4">
            <stop stop-color="#FFF44F" offset="13.2%"></stop>
            <stop stop-color="#FFDC3E" offset="25.2%"></stop>
            <stop stop-color="#FF9D12" offset="50.6%"></stop>
            <stop stop-color="#FF980E" offset="52.6%"></stop>
        </radialGradient>
        <radialGradient cx="19.4553852%" cy="110.086695%" fx="19.4553852%" fy="110.086695%" r="111.743351%" gradientTransform="translate(0.194554,1.100867),scale(1.000000,0.912267),translate(-0.194554,-1.100867)" id="radialGradient-5">
            <stop stop-color="#3A8EE6" offset="35.3%"></stop>
            <stop stop-color="#5C79F0" offset="47.2%"></stop>
            <stop stop-color="#9059FF" offset="66.9%"></stop>
            <stop stop-color="#C139E6" offset="100%"></stop>
        </radialGradient>
        <radialGradient cx="58.2378886%" cy="36.6185781%" fx="58.2378886%" fy="36.6185781%" r="59.2456454%" gradientTransform="translate(0.582379,0.366186),scale(1.000000,0.912267),rotate(-13.591560),translate(-0.582379,-0.366186)" id="radialGradient-6">
            <stop stop-color="#9059FF" stop-opacity="0" offset="20.6%"></stop>
            <stop stop-color="#8C4FF3" stop-opacity="0.064" offset="27.8%"></stop>
            <stop stop-color="#7716A8" stop-opacity="0.45" offset="74.7%"></stop>
            <stop stop-color="#6E008B" stop-opacity="0.6" offset="97.5%"></stop>
        </radialGradient>
        <radialGradient cx="208.116126%" cy="-103.935554%" fx="208.116126%" fy="-103.935554%" r="293.240104%" gradientTransform="translate(2.081161,-1.039356),scale(1.000000,0.996305),translate(-2.081161,1.039356)" id="radialGradient-7">
            <stop stop-color="#FFE226" offset="0%"></stop>
            <stop stop-color="#FFDB27" offset="12.1%"></stop>
            <stop stop-color="#FFC82A" offset="29.5%"></stop>
            <stop stop-color="#FFA930" offset="50.2%"></stop>
            <stop stop-color="#FF7E37" offset="73.2%"></stop>
            <stop stop-color="#FF7139" offset="79.2%"></stop>
        </radialGradient>
        <radialGradient cx="79.3046847%" cy="-40.8857905%" fx="79.3046847%" fy="-40.8857905%" r="193.792333%" gradientTransform="translate(0.793047,-0.408858),scale(0.839546,1.000000),translate(-0.793047,0.408858)" id="radialGradient-8">
            <stop stop-color="#FFF44F" offset="11.3%"></stop>
            <stop stop-color="#FF980E" offset="45.6%"></stop>
            <stop stop-color="#FF5634" offset="62.2%"></stop>
            <stop stop-color="#FF3647" offset="71.6%"></stop>
            <stop stop-color="#E31587" offset="90.4%"></stop>
        </radialGradient>
        <radialGradient cx="6.32191597%" cy="-10.3415303%" fx="6.32191597%" fy="-10.3415303%" r="348.743739%" gradientTransform="translate(0.063219,-0.103415),scale(1.000000,0.473535),rotate(83.976007),translate(-0.063219,0.103415)" id="radialGradient-9">
            <stop stop-color="#FFF44F" offset="0%"></stop>
            <stop stop-color="#FFE847" offset="6%"></stop>
            <stop stop-color="#FFC830" offset="16.8%"></stop>
            <stop stop-color="#FF980E" offset="30.4%"></stop>
            <stop stop-color="#FF8B16" offset="35.6%"></stop>
            <stop stop-color="#FF672A" offset="45.5%"></stop>
            <stop stop-color="#FF3647" offset="57%"></stop>
            <stop stop-color="#E31587" offset="73.7%"></stop>
        </radialGradient>
        <radialGradient cx="15.3722552%" cy="-42.6809%" fx="15.3722552%" fy="-42.6809%" r="238.69306%" gradientTransform="translate(0.153723,-0.426809),scale(0.981294,1.000000),translate(-0.153723,0.426809)" id="radialGradient-10">
            <stop stop-color="#FFF44F" offset="13.7%"></stop>
            <stop stop-color="#FF980E" offset="48%"></stop>
            <stop stop-color="#FF5634" offset="59.2%"></stop>
            <stop stop-color="#FF3647" offset="65.5%"></stop>
            <stop stop-color="#E31587" offset="90.4%"></stop>
        </radialGradient>
        <radialGradient cx="155.387313%" cy="-44.5915361%" fx="155.387313%" fy="-44.5915361%" r="312.831194%" gradientTransform="translate(1.553873,-0.445915),scale(0.895531,1.000000),translate(-1.553873,0.445915)" id="radialGradient-11">
            <stop stop-color="#FFF44F" offset="9.4%"></stop>
            <stop stop-color="#FFE141" offset="23.1%"></stop>
            <stop stop-color="#FFAF1E" offset="50.9%"></stop>
            <stop stop-color="#FF980E" offset="62.6%"></stop>
        </radialGradient>
        <linearGradient x1="86.3228329%" y1="15.0770353%" x2="20.0467088%" y2="83.5350391%" id="linearGradient-12">
            <stop stop-color="#FFF44F" stop-opacity="0.8" offset="16.7%"></stop>
            <stop stop-color="#FFF44F" stop-opacity="0.634" offset="26.6%"></stop>
            <stop stop-color="#FFF44F" stop-opacity="0.217" offset="48.9%"></stop>
            <stop stop-color="#FFF44F" stop-opacity="0" offset="60%"></stop>
        </linearGradient>
    </defs>
    <g id="firefox" stroke="none" stroke-width="1" fill="none" fill-rule="evenodd">
        <path d="M111.924,40.2403725 C109.398,34.1623725 104.274,27.5998725 100.2615,25.5253725 C103.123457,31.0680528 105.109507,37.0206363 106.149,43.1713725 L106.1595,43.2688725 C99.5865,26.8813725 88.44,20.2738725 79.3365,5.88587175 C78.876,5.15837175 78.4155,4.42937175 77.967,3.65987175 C77.7105,3.22037175 77.505,2.82437175 77.3265,2.45987175 C76.9489365,1.72870237 76.6579695,0.955978484 76.4595,0.157371751 C76.4600511,0.0810778997 76.4032448,0.0165252613 76.3275,0.00737175058 C76.2916617,-0.00245725175 76.2538383,-0.00245725175 76.218,0.00737175058 C76.2105,0.00737175058 76.1985,0.0208717506 76.1895,0.0238717506 C76.1805,0.0268717506 76.161,0.0403717506 76.1475,0.0463717506 L76.17,0.00737175058 C61.5675,8.55737175 56.613,24.3853725 56.157,32.3023725 C50.325454,32.7032239 44.7500527,34.8521527 40.158,38.4688725 C39.678904,38.063057 39.17817,37.6835006 38.658,37.3318725 C37.3333384,32.6952835 37.2768758,27.788214 38.4945,23.1223725 C33.1319064,25.7202563 28.3669062,29.4029288 24.501,33.9373725 L24.474,33.9373725 C22.17,31.0168725 22.332,21.3868725 22.464,19.3753725 C21.7823965,19.6493043 21.1317595,19.9947353 20.523,20.4058725 C18.4890674,21.8575128 16.5876448,23.4863714 14.841,25.2733725 C12.8506542,27.2913557 11.0328018,29.4724775 9.4065,31.7938725 L9.4065,31.8028725 L9.4065,31.7923725 C5.66886367,37.0912075 3.01784693,43.077917 1.6065,49.4068725 L1.5285,49.7908725 C1.419,50.3023725 1.0245,52.8643725 0.957,53.4208725 C0.957,53.4643725 0.948,53.5048725 0.9435,53.5483725 C0.434606647,56.193387 0.119270449,58.87199 0,61.5628725 L0,61.8628725 C0.0264230756,92.0398287 23.1366982,117.179917 53.2048127,119.740751 C83.2729272,122.301585 110.301766,101.431733 115.431,71.6938725 C115.5285,70.9438725 115.608,70.2013725 115.695,69.4438725 C116.892402,59.5472195 115.596084,49.5082368 111.924,40.2403725 Z M44.919,85.7473725 C45.1905,85.8778725 45.4455,86.0188725 45.7245,86.1433725 L45.765,86.1688725 C45.483,86.0338725 45.201,85.8933725 44.919,85.7473725 L44.919,85.7473725 Z" id="path980" fill="url(#linearGradient-1)" fill-rule="nonzero"></path>
        <path d="M111.924,40.2403725 C109.398,34.1623725 104.274,27.5998725 100.2615,25.5253725 C103.123457,31.0680528 105.109507,37.0206363 106.149,43.1713725 L106.149,43.2268725 L106.1595,43.2883725 C110.640416,56.1110606 109.992265,70.1693849 104.3505,82.5253725 C97.6875,96.8218725 81.5595,111.475373 56.3145,110.762873 C29.037,109.990373 5.0145,89.7493725 0.5235,63.2383725 C-0.294,59.0578725 0.5235,56.9383725 0.9345,53.5408725 C0.373841235,56.1799325 0.0609815941,58.865604 0,61.5628725 L0,61.8628725 C0.0264230756,92.0398287 23.1366982,117.179917 53.2048127,119.740751 C83.2729272,122.301585 110.301766,101.431733 115.431,71.6938725 C115.5285,70.9438725 115.608,70.2013725 115.695,69.4438725 C116.892402,59.5472195 115.596084,49.5082368 111.924,40.2403725 Z" id="path982" fill="url(#radialGradient-2)" fill-rule="nonzero"></path>
        <path d="M111.924,40.2403725 C109.398,34.1623725 104.274,27.5998725 100.2615,25.5253725 C103.123457,31.0680528 105.109507,37.0206363 106.149,43.1713725 L106.149,43.2268725 L106.1595,43.2883725 C110.640416,56.1110606 109.992265,70.1693849 104.3505,82.5253725 C97.6875,96.8218725 81.5595,111.475373 56.3145,110.762873 C29.037,109.990373 5.0145,89.7493725 0.5235,63.2383725 C-0.294,59.0578725 0.5235,56.9383725 0.9345,53.5408725 C0.373841235,56.1799325 0.0609815941,58.865604 0,61.5628725 L0,61.8628725 C0.0264230756,92.0398287 23.1366982,117.179917 53.2048127,119.740751 C83.2729272,122.301585 110.301766,101.431733 115.431,71.6938725 C115.5285,70.9438725 115.608,70.2013725 115.695,69.4438725 C116.892402,59.5472195 115.596084,49.5082368 111.924,40.2403725 Z" id="path984" fill="url(#radialGradient-3)" fill-rule="nonzero"></path>
        <path d="M83.673,47.0743725 C83.799,47.1628725 83.916,47.2513725 84.0345,47.3398725 C82.5741799,44.7504146 80.7563141,42.3796146 78.6345,40.2973725 C60.5655,22.2253725 73.899,1.11287175 76.1475,0.04037175 L76.17,0.00737175 C61.5675,8.55737175 56.613,24.3853725 56.157,32.3023725 C56.835,32.2558725 57.507,32.1988725 58.2,32.1988725 C68.747577,32.2181975 78.4730967,37.8976215 83.673,47.0743725 L83.673,47.0743725 Z" id="path986" fill="url(#radialGradient-4)" fill-rule="nonzero"></path>
        <path d="M58.2375,50.6833725 C58.1415,52.1293725 53.0325,57.1168725 51.246,57.1168725 C34.7145,57.1168725 32.031,67.1173725 32.031,67.1173725 C32.763,75.5383725 38.631,82.4743725 45.7245,86.1433725 C46.0485,86.3113725 46.377,86.4628725 46.7055,86.6113725 C47.2745,86.8633725 47.8435,87.0963725 48.4125,87.3103725 C50.8469526,88.1719525 53.3967573,88.6639137 55.977,88.7698725 C84.9525,90.1288725 90.5655,54.1198725 69.6555,43.6708725 C74.5883256,43.029031 79.5837417,44.2419362 83.673,47.0743725 C78.4730967,37.8976215 68.747577,32.2181975 58.2,32.1988725 C57.51,32.1988725 56.835,32.2558725 56.157,32.3023725 C50.325454,32.7032239 44.7500527,34.8521527 40.158,38.4688725 C41.0445,39.2188725 42.045,40.2208725 44.1525,42.2983725 C48.0975,46.1848725 58.215,50.2108725 58.2375,50.6833725 L58.2375,50.6833725 Z" id="path988" fill="url(#radialGradient-5)" fill-rule="nonzero"></path>
        <path d="M58.2375,50.6833725 C58.1415,52.1293725 53.0325,57.1168725 51.246,57.1168725 C34.7145,57.1168725 32.031,67.1173725 32.031,67.1173725 C32.763,75.5383725 38.631,82.4743725 45.7245,86.1433725 C46.0485,86.3113725 46.377,86.4628725 46.7055,86.6113725 C47.2745,86.8633725 47.8435,87.0963725 48.4125,87.3103725 C50.8469526,88.1719525 53.3967573,88.6639137 55.977,88.7698725 C84.9525,90.1288725 90.5655,54.1198725 69.6555,43.6708725 C74.5883256,43.029031 79.5837417,44.2419362 83.673,47.0743725 C78.4730967,37.8976215 68.747577,32.2181975 58.2,32.1988725 C57.51,32.1988725 56.835,32.2558725 56.157,32.3023725 C50.325454,32.7032239 44.7500527,34.8521527 40.158,38.4688725 C41.0445,39.2188725 42.045,40.2208725 44.1525,42.2983725 C48.0975,46.1848725 58.215,50.2108725 58.2375,50.6833725 L58.2375,50.6833725 Z" id="path990" fill="url(#radialGradient-6)" fill-rule="nonzero"></path>
        <path d="M37.4475,36.5353725 C37.9185,36.8353725 38.307,37.0963725 38.6475,37.3318725 C37.3228384,32.6952835 37.2663758,27.788214 38.484,23.1223725 C33.1214064,25.7202563 28.3564062,29.4029288 24.4905,33.9373725 C24.774,33.9298725 33.207,33.7783725 37.4475,36.5353725 L37.4475,36.5353725 Z" id="path992" fill="url(#radialGradient-7)" fill-rule="nonzero"></path>
        <path d="M0.531,63.2383725 C5.0175,89.7493725 29.0445,109.990373 56.322,110.762873 C81.567,111.476873 97.695,96.8218725 104.358,82.5253725 C109.999765,70.1693849 110.647916,56.1110606 106.167,43.2883725 L106.167,43.2328725 C106.167,43.1893725 106.158,43.1638725 106.167,43.1773725 L106.1775,43.2748725 C108.24,56.7403725 101.391,69.7858725 90.684,78.6073725 L90.651,78.6823725 C69.789,95.6728725 49.824,88.9333725 45.783,86.1823725 C45.501,86.0473725 45.219,85.9068725 44.937,85.7608725 C32.7735,79.9468725 27.7485,68.8648725 28.8255,59.3608725 C22.9266832,59.4479246 17.5297909,56.0531906 15.054,50.6983725 C21.5463392,46.7209547 29.6372331,46.3961606 36.4275,49.8403725 C43.3122802,52.9658605 51.1466318,53.2738078 58.2555,50.6983725 C58.233,50.2258725 48.1155,46.1983725 44.1705,42.3133725 C42.063,40.2358725 41.0625,39.2353725 40.176,38.4838725 C39.696904,38.078057 39.19617,37.6985006 38.676,37.3468725 C38.331,37.1113725 37.9425,36.8563725 37.476,36.5503725 C33.2355,33.7933725 24.8025,33.9448725 24.5235,33.9523725 L24.4965,33.9523725 C22.1925,31.0318725 22.3545,21.4018725 22.4865,19.3903725 C21.8048965,19.6643043 21.1542595,20.0097353 20.5455,20.4208725 C18.5115674,21.8725128 16.6101448,23.5013714 14.8635,25.2883725 C12.8660255,27.300681 11.0406424,29.4767906 9.4065,31.7938725 L9.4065,31.8028725 L9.4065,31.7923725 C5.66886367,37.0912075 3.01784693,43.077917 1.6065,49.4068725 C1.578,49.5253725 -0.4875,58.5553725 0.531,63.2383725 Z" id="path994" fill="url(#radialGradient-8)" fill-rule="nonzero"></path>
        <path d="M78.6375,40.2973725 C80.7598785,42.3819146 82.5777686,44.755271 84.0375,47.3473725 C84.357,47.5888725 84.6555,47.8288725 84.909,48.0613725 C98.0895,60.2113725 91.1835,77.3863725 90.669,78.6088725 C101.376,69.7873725 108.219,56.7418725 106.1625,43.2763725 C99.5865,26.8813725 88.44,20.2738725 79.3365,5.88587175 C78.876,5.15837175 78.4155,4.42937175 77.967,3.65987175 C77.7105,3.22037175 77.505,2.82437175 77.3265,2.45987175 C76.9489365,1.72870237 76.6579695,0.955978484 76.4595,0.157371751 C76.4600511,0.0810778997 76.4032448,0.0165252613 76.3275,0.00737175058 C76.2916617,-0.00245725175 76.2538383,-0.00245725175 76.218,0.00737175058 C76.2105,0.00737175058 76.1985,0.0208717506 76.1895,0.0238717506 C76.1805,0.0268717506 76.161,0.0403717506 76.1475,0.0463717506 C73.899,1.11287175 60.5655,22.2253725 78.6375,40.2973725 L78.6375,40.2973725 Z" id="path996" fill="url(#radialGradient-9)" fill-rule="nonzero"></path>
        <path d="M84.9,48.0538725 C84.6465,47.8213725 84.348,47.5813725 84.0285,47.3398725 C83.91,47.2513725 83.793,47.1628725 83.667,47.0743725 C79.5777417,44.2419362 74.5823256,43.029031 69.6495,43.6708725 C90.5595,54.1258725 84.9495,90.1288725 55.971,88.7698725 C53.3907573,88.6639137 50.8409526,88.1719525 48.4065,87.3103725 C47.8375,87.0973725 47.2685,86.8643725 46.6995,86.6113725 C46.371,86.4613725 46.0425,86.3113725 45.7185,86.1433725 L45.759,86.1688725 C49.8,88.9273725 69.759,95.6668725 90.627,78.6688725 L90.66,78.5938725 C91.1805,77.3788725 98.0865,60.1993725 84.9,48.0538725 L84.9,48.0538725 Z" id="path998" fill="url(#radialGradient-10)" fill-rule="nonzero"></path>
        <path d="M32.031,67.1173725 C32.031,67.1173725 34.7145,57.1168725 51.246,57.1168725 C53.0325,57.1168725 58.146,52.1293725 58.2375,50.6833725 C51.1286318,53.2588078 43.2942802,52.9508605 36.4095,49.8253725 C29.6192331,46.3811606 21.5283392,46.7059547 15.036,50.6833725 C17.5117909,56.0381906 22.9086832,59.4329246 28.8075,59.3458725 C27.7305,68.8513725 32.7555,79.9333725 44.919,85.7458725 C45.1905,85.8763725 45.4455,86.0173725 45.7245,86.1418725 C38.625,82.4743725 32.763,75.5383725 32.031,67.1173725 L32.031,67.1173725 Z" id="path1000" fill="url(#radialGradient-11)" fill-rule="nonzero"></path>
        <path d="M111.924,40.2403725 C109.398,34.1623725 104.274,27.5998725 100.2615,25.5253725 C103.123457,31.0680528 105.109507,37.0206363 106.149,43.1713725 L106.1595,43.2688725 C99.5865,26.8813725 88.44,20.2738725 79.3365,5.88587175 C78.876,5.15837175 78.4155,4.42937175 77.967,3.65987175 C77.7105,3.22037175 77.505,2.82437175 77.3265,2.45987175 C76.9489365,1.72870237 76.6579695,0.955978484 76.4595,0.157371751 C76.4600511,0.0810778997 76.4032448,0.0165252613 76.3275,0.00737175058 C76.2916617,-0.00245725175 76.2538383,-0.00245725175 76.218,0.00737175058 C76.2105,0.00737175058 76.1985,0.0208717506 76.1895,0.0238717506 C76.1805,0.0268717506 76.161,0.0403717506 76.1475,0.0463717506 L76.17,0.00737175058 C61.5675,8.55737175 56.613,24.3853725 56.157,32.3023725 C56.835,32.2558725 57.507,32.1988725 58.2,32.1988725 C68.747577,32.2181975 78.4730967,37.8976215 83.673,47.0743725 C79.5837417,44.2419362 74.5883256,43.029031 69.6555,43.6708725 C90.5655,54.1258725 84.9555,90.1288725 55.977,88.7698725 C53.3967573,88.6639137 50.8469526,88.1719525 48.4125,87.3103725 C47.8435,87.0973725 47.2745,86.8643725 46.7055,86.6113725 C46.377,86.4613725 46.0485,86.3113725 45.7245,86.1433725 L45.765,86.1688725 C45.483,86.0338725 45.201,85.8933725 44.919,85.7473725 C45.1905,85.8778725 45.4455,86.0188725 45.7245,86.1433725 C38.625,82.4743725 32.763,75.5383725 32.031,67.1173725 C32.031,67.1173725 34.7145,57.1168725 51.246,57.1168725 C53.0325,57.1168725 58.146,52.1293725 58.2375,50.6833725 C58.215,50.2108725 48.0975,46.1833725 44.1525,42.2983725 C42.045,40.2208725 41.0445,39.2203725 40.158,38.4688725 C39.678904,38.063057 39.17817,37.6835006 38.658,37.3318725 C37.3333384,32.6952835 37.2768758,27.788214 38.4945,23.1223725 C33.1319064,25.7202563 28.3669062,29.4029288 24.501,33.9373725 L24.474,33.9373725 C22.17,31.0168725 22.332,21.3868725 22.464,19.3753725 C21.7823965,19.6493043 21.1317595,19.9947353 20.523,20.4058725 C18.4890674,21.8575128 16.5876448,23.4863714 14.841,25.2733725 C12.8506542,27.2913557 11.0328018,29.4724775 9.4065,31.7938725 L9.4065,31.8028725 L9.4065,31.7923725 C5.66886367,37.0912075 3.01784693,43.077917 1.6065,49.4068725 L1.5285,49.7908725 C1.419,50.3023725 0.9285,52.9003725 0.858,53.4583725 C0.858,53.5003725 0.858,53.4148725 0.858,53.4583725 C0.409365629,56.1401718 0.122845707,58.8465829 -7.10542736e-15,61.5628725 L-7.10542736e-15,61.8628725 C0.0264230756,92.0398287 23.1366982,117.179917 53.2048127,119.740751 C83.2729272,122.301585 110.301766,101.431733 115.431,71.6938725 C115.5285,70.9438725 115.608,70.2013725 115.695,69.4438725 C116.892402,59.5472195 115.596084,49.5082368 111.924,40.2403725 Z" id="path1002" fill="url(#linearGradient-12)" fill-rule="nonzero"></path>
    </g>
</svg>