<?xml version="1.0" encoding="UTF-8"?>
<svg width="22px" height="22px" viewBox="0 0 22 22" version="1.1" xmlns="http://www.w3.org/2000/svg" xmlns:xlink="http://www.w3.org/1999/xlink">
    <!-- Generator: Sketch 49.3 (51167) - http://www.bohemiancoding.com/sketch -->
    <title>graph</title>
    <desc>Created with Sketch.</desc>
    <defs></defs>
    <g id="Треки" stroke="none" stroke-width="1" fill="none" fill-rule="evenodd">
        <g id="Трек" transform="translate(-305.000000, -733.000000)">
            <g id="компетенции" transform="translate(304.000000, 652.000000)">
                <g id="graph" transform="translate(0.000000, 80.000000)">
                    <path d="M15,5.12406553 L15,7 L9,7 L9,5.12406553 C6.64316837,6.15380907 4.91785721,8.35979361 4.56608567,11 L7,11 L7,17 L1,17 L1,11 L3.05492878,11 C3.43941922,7.52184582 5.80593869,4.6410558 9,3.51211712 L9,1 L15,1 L15,3.51211712 C18.1940613,4.6410558 20.5605808,7.52184582 20.9450712,11 L23,11 L23,17 L17,17 L17,11 L19.4339143,11 C19.0821428,8.35979361 17.3568316,6.15380907 15,5.12406553 Z M11.25,13.2006733 L11.25,11.8291635 L9.61614944,14.2799393 L10.5,17.8153416 L10.5,18 L13.5,18 L13.5,17.8153416 L14.3838506,14.2799393 L12.75,11.8291635 L12.75,13.2006733 C13.198351,13.4600304 13.5,13.9447882 13.5,14.5 C13.5,15.3284271 12.8284271,16 12,16 C11.1715729,16 10.5,15.3284271 10.5,14.5 C10.5,13.9447882 10.801649,13.4600304 11.25,13.2006733 Z M13.5,19.5 L10.5,19.5 L10.5,21.5 L13.5,21.5 L13.5,19.5 Z M2.5,12.5 L2.5,15.5 L5.5,15.5 L5.5,12.5 L2.5,12.5 Z M10.5,2.5 L10.5,5.5 L13.5,5.5 L13.5,2.5 L10.5,2.5 Z M18.5,12.5 L18.5,15.5 L21.5,15.5 L21.5,12.5 L18.5,12.5 Z M9,18 L8,14 L12,8 L16,14 L15,18 L15,23 L9,23 L9,18 Z" id="Shape" fill="#4167BB" fill-rule="nonzero"></path>
                    <rect id="Rectangle" fill="#D8D8D8" opacity="0" x="0" y="0" width="24" height="24"></rect>
                </g>
            </g>
        </g>
    </g>
</svg>