<svg xmlns="http://www.w3.org/2000/svg" xmlns:xlink="http://www.w3.org/1999/xlink" width="34" height="28" viewBox="0 0 34 28">
    <defs>
        <circle id="a" cx="25" cy="25" r="25"/>
    </defs>
    <g fill="none" fill-rule="evenodd" transform="translate(-8 -11)">
        <mask id="b" fill="#fff">
            <use xlink:href="#a"/>
        </mask>
        <path fill="#4167BB" fill-rule="nonzero" stroke="#4167BB" stroke-width=".3" d="M40.694 17.894l-10.119-3.822a.477.477 0 0 0-.614.272.47.47 0 0 0 .275.608l8.955 3.381-6.2 2.341-7.795-3.496a.477.477 0 0 0-.629.235.469.469 0 0 0 .237.623l6.937 3.11L25 23.693l-14.19-5.359L25 12.975l3.497 1.32c.245.093.52-.029.614-.272a.47.47 0 0 0-.275-.607l-3.667-1.385a.48.48 0 0 0-.338 0L9.306 17.894a.471.471 0 0 0-.306.44v2.15c0 .194.122.37.306.439l4.848 1.83v1.632c0 .26.212.47.475.47s.475-.21.475-.47v-1.272l9.727 3.673a.482.482 0 0 0 .338 0l7.332-2.769v7.45A16.295 16.295 0 0 1 25 33.305a16.271 16.271 0 0 1-9.896-3.364v-3.673c0-.26-.212-.471-.475-.471a.473.473 0 0 0-.475.47v3.902c0 .142.065.278.178.367A17.227 17.227 0 0 0 25 34.246c2.606 0 5.177-.6 7.501-1.724v1.905a1.794 1.794 0 0 0-1.33 1.726 1.8 1.8 0 0 0 1.805 1.788 1.8 1.8 0 0 0 1.806-1.788c0-.824-.565-1.519-1.33-1.726v-2.402a16.949 16.949 0 0 0 2.216-1.49.469.469 0 0 0 .179-.366v-7.416l4.847-1.83a.47.47 0 0 0 .306-.44v-2.15a.471.471 0 0 0-.306-.44zm-6.862 18.259a.852.852 0 0 1-.856.847.852.852 0 0 1-.855-.847c0-.468.384-.848.855-.848.472 0 .856.38.856.848zM9.95 19.017l14.575 5.503v1.142L9.95 20.16v-1.142zm15.525 6.645V24.52l7.026-2.653v1.142l-7.026 2.653zm9.421 4.278c-.464.358-.946.688-1.445.991v-7.273l1.445-.546v6.828zm-1.445-7.29v-1.142l6.599-2.491v1.142L33.45 22.65z" mask="url(#b)"/>
    </g>
</svg>
