<?xml version="1.0" encoding="UTF-8"?>
<svg width="119px" height="120px" viewBox="0 0 119 120" version="1.1" xmlns="http://www.w3.org/2000/svg" xmlns:xlink="http://www.w3.org/1999/xlink">
    <title>opera</title>
    <defs>
        <linearGradient x1="50%" y1="98.3696%" x2="50%" y2="1.4552%" id="linearGradient-1">
            <stop stop-color="#ED1F33" offset="0%"></stop>
            <stop stop-color="#ED1F33" offset="30%"></stop>
            <stop stop-color="#A51C21" offset="100%"></stop>
        </linearGradient>
        <linearGradient x1="50%" y1="99.1475388%" x2="50%" y2="0.39142474%" id="linearGradient-2">
            <stop stop-color="#9A1A1F" offset="0%"></stop>
            <stop stop-color="#EF3547" offset="70%"></stop>
            <stop stop-color="#EF3547" offset="100%"></stop>
        </linearGradient>
    </defs>
    <g id="opera" stroke="none" stroke-width="1" fill="none" fill-rule="evenodd">
        <path d="M39.7198658,26.8328697 C33.1737009,34.5599992 28.9333359,45.9838449 28.6451109,58.8052385 C28.644282,58.8375661 28.644282,61.5606646 28.6451109,61.5935843 C28.9333359,74.4134384 33.1732272,85.8378763 39.7189185,93.5650057 C48.2133848,104.595236 60.83951,111.589251 74.9399167,111.589251 C83.6134283,111.589251 91.7295549,108.940518 98.6698088,104.335786 C88.2472903,113.66106 74.5046188,119.349182 59.4320153,119.404719 C59.3570578,119.405548 59.2830477,119.407916 59.2080903,119.407916 C26.5080541,119.407916 0,92.8993884 0,60.1998258 C0,28.4458165 24.9978926,2.53206953 56.3883642,1.05973236 C57.3231415,1.01578882 58.2626555,0.991735537 59.2080903,0.991735537 C74.3667824,0.991735537 88.1918715,6.69051423 98.6656642,16.0597209 C91.7262392,11.4572273 83.6124809,8.80905075 74.9399167,8.80905075 C60.83951,8.80905075 48.2133848,15.8029946 39.7198658,26.8328697" id="path30" fill="url(#linearGradient-1)" fill-rule="nonzero" transform="translate(49.334904, 60.199826) scale(-1, 1) rotate(-180.000000) translate(-49.334904, -60.199826) "></path>
        <path d="M39.7189185,93.5663556 C45.1517344,99.979776 52.170143,103.847248 59.8367618,103.847248 C77.0722369,103.847248 91.0445173,84.3058551 91.0445173,60.2002284 C91.0445173,36.0947202 77.0722369,16.5536821 59.8367618,16.5536821 C52.1706167,16.5536821 45.1517344,20.4216282 39.7198658,26.8342197 C48.2133848,15.8043445 60.83951,8.81040069 74.9399167,8.81040069 C83.6124809,8.81040069 91.7262392,11.4585773 98.6656642,16.0610708 C110.785797,26.9021905 118.416181,42.659358 118.416181,60.2011758 C118.416181,77.7401515 110.787573,93.4960164 98.6698088,104.337136 C91.7295549,108.941868 83.6134283,111.590601 74.9399167,111.590601 C60.83951,111.590601 48.2133848,104.596586 39.7189185,93.5663556" id="path48" fill="url(#linearGradient-2)" fill-rule="nonzero" transform="translate(79.067550, 60.200501) scale(-1, 1) rotate(-180.000000) translate(-79.067550, -60.200501) "></path>
    </g>
</svg>