<svg xmlns="http://www.w3.org/2000/svg" xmlns:xlink="http://www.w3.org/1999/xlink" width="28" height="34" viewBox="0 0 28 34">
    <defs>
        <circle id="a" cx="25" cy="25" r="25"/>
        <path id="c" d="M11 8a2 2 0 0 1 2 2v7a1 1 0 0 0 1 1h4.764a2 2 0 0 1 1.789 1.106l4.553 9.105a2 2 0 0 1-.895 2.683l-.422.212a2 2 0 0 1-2.683-.895l-3.83-7.658a1 1 0 0 0-.894-.553H11a2 2 0 0 1-2-2V10a2 2 0 0 1 2-2z"/>
    </defs>
    <g fill="none" fill-rule="evenodd" transform="translate(-12 -9)">
        <mask id="b" fill="#fff">
            <use xlink:href="#a"/>
        </mask>
        <g mask="url(#b)">
            <g transform="translate(12 9)">
                <path stroke="#4167BB" stroke-width="1.5" d="M9.57 12.76a9.25 9.25 0 1 0 8.17 14.306L9.57 12.76z"/>
                <use fill="#F2F6FA" xlink:href="#c"/>
                <path stroke="#F2F6FA" stroke-width="2" d="M11 7a3 3 0 0 1 3 3v7h4.764a3 3 0 0 1 2.683 1.658L26 27.764a3 3 0 0 1-1.342 4.025l-.422.211a3 3 0 0 1-4.025-1.342L16.382 23H11a3 3 0 0 1-3-3V10a3 3 0 0 1 3-3z"/>
                <use stroke="#4167BB" stroke-width="1.5" xlink:href="#c"/>
                <circle cx="11" cy="3" r="2.25" stroke="#4167BB" stroke-width="1.5"/>
            </g>
        </g>
    </g>
</svg>
