<svg xmlns="http://www.w3.org/2000/svg" width="27" height="18" viewBox="0 0 27 18">
    <g fill="none" fill-rule="evenodd">
        <path fill="#FFF" fill-rule="nonzero" d="M9.5 7a2.5 2.5 0 1 0 0-5 2.5 2.5 0 0 0 0 5zm0 2a4.5 4.5 0 1 1 0-9 4.5 4.5 0 0 1 0 9zm8 0c-.68 0-1.323-.15-1.9-.42.935-1.147 1.402-2.507 1.4-4.08-.002-1.573-.475-2.93-1.419-4.071A4.5 4.5 0 1 1 17.5 9zM0 16c0-1.5 2.5-5 9-5s9 3.5 9 5v2H0v-2zm2 0h14c0-.162-.425-.843-1.251-1.454C13.453 13.588 11.532 13 9 13c-2.532 0-4.453.588-5.749 1.546C2.425 15.156 2 15.838 2 16zm18.347-1.76c-.577-1.259-1.436-2.338-2.576-3.239L18 11c6.5 0 9 3.5 9 5v2h-6.018c.155-1.248-.057-2.501-.635-3.76z"/>
        <path d="M-3-7h32v32H-3z"/>
    </g>
</svg>
