<?xml version="1.0" encoding="UTF-8"?>
<svg width="22px" height="22px" viewBox="0 0 22 22" version="1.1" xmlns="http://www.w3.org/2000/svg" xmlns:xlink="http://www.w3.org/1999/xlink">
    <!-- Generator: sketchtool 49.3 (51167) - http://www.bohemiancoding.com/sketch -->
    <title>8EAEEA34-F680-45E0-B4B5-6BB71540D2D7</title>
    <desc>Created with sketchtool.</desc>
    <defs></defs>
    <g id="Профайл" stroke="none" stroke-width="1" fill="none" fill-rule="evenodd">
        <g id="Desktop-1366" transform="translate(-1314.000000, -569.000000)">
            <g id="right" transform="translate(1268.000000, 104.000000)">
                <g id="info" transform="translate(32.000000, 451.000000)">
                    <g id="profile" transform="translate(9.000000, 9.000000)">
                        <path d="M16,14 C18.209139,14 20,12.209139 20,10 C20,7.790861 18.209139,6 16,6 C13.790861,6 12,7.790861 12,10 C12,12.209139 13.790861,14 16,14 Z M5.99998786,26 L26,26 L26,23.1422678 C26,22.0874126 25.4459945,21.1100699 24.5409206,20.568256 C21.6722052,18.8509029 18.8294607,18 16,18 C13.1705333,18 10.3277827,18.8509065 7.45906117,20.5682669 C6.55399605,21.1100842 5.99999262,22.087425 5.99999033,23.1422738 L5.99998786,26 Z" id="Combined-Shape" stroke="#FFFFFF" stroke-width="2"></path>
                        <polygon id="Shape" points="0 0 32 0 32 32 0 32"></polygon>
                    </g>
                </g>
            </g>
        </g>
    </g>
</svg>