<?xml version="1.0" encoding="UTF-8"?>
<svg width="40px" height="36px" viewBox="0 0 40 36" version="1.1" xmlns="http://www.w3.org/2000/svg" xmlns:xlink="http://www.w3.org/1999/xlink">
    <!-- Generator: sketchtool 49.3 (51167) - http://www.bohemiancoding.com/sketch -->
    <title>CF65ADA0-AACC-4522-8582-0BC1FB079FA7</title>
    <desc>Created with sketchtool.</desc>
    <defs></defs>
    <g id="Профайл" stroke="none" stroke-width="1" fill="none" fill-rule="evenodd">
        <g transform="translate(-639.000000, -944.000000)" id="достижения">
            <g transform="translate(304.000000, 867.000000)">
                <g id="проекты" transform="translate(306.000000, 43.000000)">
                    <g id="projects" transform="translate(29.000000, 32.000000)">
                        <path d="M1.5,14.668134 L1.5,35 C1.5,35.8284271 2.17157288,36.5 3,36.5 L30.25,36.5 C30.6642136,36.5 31,36.8357864 31,37.25 C31,37.6642136 30.6642136,38 30.25,38 L3,38 C1.34314575,38 2.02906125e-16,36.6568542 0,35 L0,11 C-2.02906125e-16,9.34314575 1.34314575,8 3,8 L12,8 L12,5 C12,3.34314575 13.3431458,2 15,2 L25,2 C26.6568542,2 28,3.34314575 28,5 L28,8 L37,8 C38.6568542,8 40,9.34314575 40,11 L40,35 C40,36.6568542 38.6568542,38 37,38 L33.75,38 C33.3357864,38 33,37.6642136 33,37.25 C33,36.8357864 33.3357864,36.5 33.75,36.5 L37,36.5 C37.8284271,36.5 38.5,35.8284271 38.5,35 L38.5,14.668134 C35.0640552,19.3110301 29.9219279,22.614914 24.0000058,23.6533979 L24,26 C24,27.1045695 23.1045695,28 22,28 L18,28 C16.8954305,28 16,27.1045695 16,26 L16,23.6533989 C12.9143286,23.1122882 10.0403733,21.9561156 7.5091893,20.3159361 C6.84753022,19.8871883 7.68689647,18.6539025 8.46989027,19.1518258 C10.7488577,20.6010725 13.2990495,21.6187176 16,22.1275354 L16,20 C16,18.8954305 16.8954305,18 18,18 L22,18 C23.1045695,18 24,18.8954305 24,20 L24,22.1275343 C29.5886572,21.0747142 34.5318253,17.8434282 37.7623421,13.117931 C38.0209268,12.7396816 38.2668973,12.3540934 38.5,11.9617061 L38.5,11 C38.5,10.1715729 37.8284271,9.5 37,9.5 L3,9.5 C2.17157288,9.5 1.5,10.1715729 1.5,11 L1.5,11.9617078 C1.73404155,12.3556751 1.98105458,12.7427879 2.24078224,13.1224999 C3.31186363,14.6883803 4.57102895,16.0900896 5.97942703,17.3027218 C6.75474156,17.9702684 5.69528047,19.0345237 5.00401783,18.4395765 C3.70069338,17.3178477 2.52450146,16.0525142 1.5,14.668134 Z M13.5,8 L26.5,8 L26.5,5 C26.5,4.17157288 25.8284271,3.5 25,3.5 L15,3.5 C14.1715729,3.5 13.5,4.17157288 13.5,5 L13.5,8 Z M18,19.5 C17.7238576,19.5 17.5,19.7238576 17.5,20 L17.5,26 C17.5,26.2761424 17.7238576,26.5 18,26.5 L22,26.5 C22.2761424,26.5 22.5,26.2761424 22.5,26 L22.5,20 C22.5,19.7238576 22.2761424,19.5 22,19.5 L18,19.5 Z" id="Combined-Shape" fill="#4167BB" fill-rule="nonzero"></path>
                        <rect id="Rectangle-7" x="0" y="0" width="40" height="40"></rect>
                    </g>
                </g>
            </g>
        </g>
    </g>
</svg>