<?xml version="1.0" encoding="UTF-8"?>
<svg width="120px" height="120px" viewBox="0 0 120 120" version="1.1" xmlns="http://www.w3.org/2000/svg" xmlns:xlink="http://www.w3.org/1999/xlink">
    <title>safari</title>
    <defs>
        <linearGradient x1="50.0000025%" y1="99.9999944%" x2="50.0000025%" y2="-1.55366353e-06%" id="linearGradient-1">
            <stop stop-color="#BDBDBD" offset="0%"></stop>
            <stop stop-color="#FFFFFF" offset="100%"></stop>
        </linearGradient>
        <radialGradient cx="50.2275914%" cy="42.7100503%" fx="50.2275914%" fy="42.7100503%" r="54.251307%" id="radialGradient-2">
            <stop stop-color="#06C2E7" offset="0%"></stop>
            <stop stop-color="#0DB8EC" offset="25.000015%"></stop>
            <stop stop-color="#12AEF1" offset="50.00003%"></stop>
            <stop stop-color="#1F86F9" offset="75.000012%"></stop>
            <stop stop-color="#107DDD" offset="100%"></stop>
        </radialGradient>
    </defs>
    <g id="safari" stroke="none" stroke-width="1" fill="none" fill-rule="evenodd">
        <path d="M119.879879,59.8337617 C119.879879,75.6740867 113.587336,90.8656335 102.386535,102.066435 C91.1857337,113.267236 75.994187,119.559779 60.153862,119.559779 C27.1681001,119.559779 0.427863851,92.8195237 0.427863851,59.8337617 C0.427863851,26.8479998 27.1681001,0.10774451 60.153862,0.10774451 C75.994187,0.10774451 91.1857337,6.40028764 102.386535,17.6010888 C113.587336,28.80189 119.879879,43.9934368 119.879879,59.8337617 L119.879879,59.8337617 Z" id="path826" stroke="#CDCDCD" stroke-width="0.50843867" fill="url(#linearGradient-1)" fill-rule="nonzero" stroke-linecap="round" stroke-linejoin="round"></path>
        <path d="M115.19979,59.8337617 C115.19979,90.234788 90.5548883,114.87969 60.153862,114.87969 C29.7528357,114.87969 5.10793376,90.234788 5.10793376,59.8337617 C5.10793376,29.4327355 29.7528357,4.78783349 60.153862,4.78783349 C90.5548883,4.78783349 115.19979,29.4327355 115.19979,59.8337617 L115.19979,59.8337617 Z" id="circle828" fill="url(#radialGradient-2)" fill-rule="nonzero"></path>
        <path d="M60.153862,7.65844008 C59.7092515,7.65844008 59.351317,8.01635548 59.351317,8.4609851 L59.351317,17.7180708 C59.351317,18.1627004 59.7092515,18.5206158 60.153862,18.5206158 C60.5984916,18.5206158 60.956407,18.1627004 60.956407,17.7180708 L60.956407,8.4609851 C60.956407,8.01635548 60.5984916,7.65844008 60.153862,7.65844008 Z M54.9035908,7.99027258 C54.8503955,7.98455264 54.7956747,7.98455264 54.740382,7.99093991 C54.2981548,8.03708071 53.9793065,8.43023092 54.0254855,8.87245816 L54.4300374,12.7452164 C54.4761782,13.1874437 54.8693475,13.506311 55.3115366,13.4601321 C55.7537829,13.4139912 56.0726502,13.020841 56.0264522,12.5786138 L55.6222435,8.70587459 C55.5818226,8.31892098 55.2756726,8.0264035 54.9035336,7.99027258 L54.9035908,7.99027258 Z M65.4408552,7.99408587 C65.0686971,8.0299308 64.762509,8.32242921 64.7217831,8.70932561 L64.3144665,12.5817598 C64.2679444,13.0239489 64.5868307,13.4174613 65.0290389,13.4639644 C65.471209,13.5104865 65.8643592,13.1919243 65.9108813,12.7497352 L66.3182169,8.87697691 C66.3647391,8.4347878 66.0458336,8.04159946 65.6036445,7.99511546 C65.5483518,7.98939552 65.4940124,7.98939552 65.440817,7.994124 L65.4408552,7.99408587 Z M49.5102641,8.77237836 C49.456878,8.77279783 49.4025387,8.7780983 49.3481993,8.78953817 C48.9132173,8.88162912 48.6371351,9.30602924 48.729226,9.74101123 L50.6463957,18.7972128 C50.7384867,19.2321948 51.1628677,19.5082579 51.5978497,19.416186 C52.0328317,19.324095 52.3089139,18.9000191 52.216842,18.4650371 L50.2996723,9.4085114 C50.2190213,9.02788786 49.8841763,8.76896547 49.5103022,8.77185824 L49.5102641,8.77237836 Z M70.8338387,8.77996342 C70.4599647,8.77619165 70.1249481,9.03538098 70.0441254,9.41592825 L68.1203778,18.4710621 C68.0279055,18.9059869 68.303797,19.3305014 68.7386456,19.4228974 C69.1735704,19.5153697 69.5980849,19.2394781 69.6904618,18.8046106 L71.6142094,9.74945767 C71.7066817,9.31455194 71.4307902,8.89001836 70.9959417,8.79764141 C70.9416023,8.78620154 70.8872629,8.7804816 70.8338768,8.7804816 L70.8338387,8.77996342 Z M44.3631806,10.2236593 C44.2592684,10.2141261 44.1519815,10.225566 44.046258,10.2606483 C43.6234023,10.3981174 43.3934609,10.8488482 43.5308728,11.271704 L44.7341565,14.975095 C44.8716256,15.3979698 45.3226997,15.6278921 45.7455554,15.4904993 C46.1684302,15.3530302 46.3980093,14.9019561 46.2605974,14.4791003 L45.0573328,10.7757093 C44.954374,10.458558 44.6748789,10.2500854 44.3631806,10.2235831 L44.3631806,10.2236593 Z M75.9518078,10.225566 C75.6401095,10.2520684 75.3607669,10.4605409 75.2576746,10.7776732 L74.0536855,14.480721 C73.9162164,14.9035577 74.1459671,15.3546699 74.5687466,15.4921199 C74.9916023,15.629589 75.4426954,15.3998383 75.5801645,14.9770779 L76.7841346,11.2736869 C76.9216037,10.8508312 76.691853,10.399738 76.2690735,10.262288 C76.1634454,10.2279684 76.0557009,10.2167192 75.9518078,10.2254897 L75.9518078,10.225566 Z M39.2732773,12.0862609 C39.1689838,12.0881675 39.0634701,12.1110472 38.9619031,12.1562347 C38.5558259,12.336794 38.3739701,12.8091462 38.5545675,13.2154332 L42.3144142,21.6744926 C42.4949735,22.0807605 42.9673258,22.2624257 43.3736127,22.0818283 C43.77969,21.901269 43.961889,21.4289167 43.7812916,21.0226298 L40.0210826,12.5635704 C39.8857108,12.2588313 39.5860434,12.0802168 39.2732773,12.0862799 L39.2732773,12.0862609 Z M81.0992155,12.1146699 C80.7864685,12.1089499 80.4865723,12.2864586 80.3507238,12.5909307 L76.5794181,21.044804 C76.3982868,21.4508432 76.5793419,21.9235386 76.985381,22.1046889 C77.3914392,22.2858202 77.8641155,22.1047843 78.0452849,21.6987451 L81.8165525,13.2448909 C81.9976838,12.8388327 81.8166478,12.3661373 81.4106087,12.1849869 C81.3091752,12.1397994 81.2034708,12.1169197 81.0992155,12.1145357 L81.0992155,12.1146699 Z M34.5487826,14.586025 C34.3947257,14.5745851 34.2359784,14.6089047 34.0915882,14.6924158 C33.7065221,14.9147306 33.5755547,15.4036325 33.7978504,15.7886795 L35.744821,19.1609434 C35.9671358,19.5460095 36.4559996,19.6769769 36.8410656,19.4546621 C37.2261126,19.2323473 37.3570991,18.7434644 37.1348033,18.3583984 L35.1878328,14.9861535 C35.0488384,14.7454777 34.8056077,14.6040428 34.5487826,14.5860822 L34.5487826,14.586025 Z M85.7589224,14.586025 C85.5021354,14.6031848 85.2591717,14.7454205 85.1202344,14.9860963 L83.1729207,18.3583412 C82.9506059,18.7434072 83.0819737,19.2322901 83.4670016,19.4546049 C83.8520677,19.6769197 84.3409505,19.5459332 84.5632653,19.1608862 L86.5102168,15.7886223 C86.7325316,15.4035753 86.6015451,14.9146734 86.2164791,14.6923586 C86.072146,14.6090382 85.9130174,14.5752906 85.7589224,14.5859678 L85.7589224,14.586025 Z M29.9611277,17.4473844 C29.8066895,17.4531043 29.6520415,17.5026771 29.5170701,17.600488 C29.1571909,17.8615649 29.0776266,18.3614491 29.3387988,18.7213474 L34.7743768,26.2143669 C35.0354537,26.5742652 35.5356811,26.6538295 35.8955794,26.3928289 C36.2554777,26.131752 36.335042,25.6318678 36.0738507,25.2719695 L30.6379295,17.7789499 C30.4747207,17.554004 30.2183914,17.438671 29.9611277,17.4474606 L29.9611277,17.4473844 Z M90.4041007,17.4881866 C90.1468371,17.4786533 89.8904315,17.5940054 89.7269367,17.8186272 L84.2809865,25.3043825 C84.0193948,25.6639185 84.0983299,26.1640124 84.4579232,26.4255851 C84.8174783,26.6871386 85.3175722,26.6084323 85.5791448,26.2490297 L91.0247708,18.7632745 C91.2863244,18.4037194 91.2072368,17.9036445 90.8478342,17.6420719 C90.7130344,17.5440703 90.5584817,17.4937349 90.4041198,17.4882056 L90.4041007,17.4881866 Z M25.8604301,20.886419 C25.6555801,20.8749792 25.4465356,20.9434277 25.2813057,21.0921651 C24.950846,21.3896399 24.9242864,21.8950342 25.2218184,22.225494 L27.8272106,25.119762 C28.1246663,25.4502217 28.6300798,25.4768004 28.9605395,25.1792493 C29.2909992,24.8817746 29.3175779,24.376037 29.0200268,24.0455773 L26.4149778,21.1516524 C26.2662594,20.9863463 26.0653181,20.8970963 25.8604301,20.8863237 L25.8604301,20.886419 Z M94.4531664,20.892139 C94.2482974,20.9035788 94.0473943,20.9922378 93.8986378,21.1574486 L91.2932455,24.0510303 C90.9956945,24.3814519 91.0220443,24.8871895 91.3525422,25.1847024 C91.6829447,25.4822152 92.1883582,25.4555413 92.4858711,25.125215 L95.0916065,22.2316524 C95.3891385,21.9012118 95.3624454,21.3954742 95.0321192,21.0979804 C94.8668131,20.9492621 94.658207,20.8814999 94.453319,20.8922343 L94.4531664,20.892139 Z M21.9301864,24.6616715 C21.7253174,24.6731114 21.5247193,24.7617704 21.3759819,24.9270002 C21.0785072,25.2574599 21.1051049,25.7628543 21.4354692,26.0603291 L28.3154262,32.2537603 C28.6458859,32.5512541 29.1512803,32.5246374 29.448736,32.194273 C29.7462298,31.8638324 29.7199753,31.3584189 29.3894393,31.0609441 L22.5091583,24.8675129 C22.3438521,24.7187946 22.1348838,24.6509943 21.9299958,24.6617668 L21.9301864,24.6616715 Z M98.4024956,24.6887459 C98.1976266,24.677306 97.9883342,24.7455639 97.823009,24.8941487 L90.9388956,31.0827562 C90.6082452,31.3799831 90.5810564,31.8853965 90.8782642,32.216066 C91.1755102,32.5467163 91.6812859,32.573581 92.0119363,32.2763159 L98.8963929,26.0877276 C99.2270433,25.7904816 99.2538888,25.2850681 98.9566429,24.9543987 C98.8079246,24.7890926 98.6073074,24.6996519 98.4024575,24.6887459 L98.4024956,24.6887459 Z M18.6618346,28.8642603 C18.4045519,28.8547271 18.1480129,28.9706511 17.9846896,29.1953873 C17.7233458,29.555095 17.802605,30.0549029 18.162389,30.3162467 L21.3126241,32.6050597 C21.6723318,32.8664226 22.1721206,32.7875256 22.4334644,32.4277417 C22.6948273,32.068034 22.6157397,31.5678829 22.2561465,31.3065391 L19.1059113,29.0177261 C18.9711115,28.9197246 18.8162347,28.8697705 18.6618727,28.8642412 L18.6618346,28.8642603 Z M101.66772,28.893432 C101.513282,28.8991519 101.358634,28.948534 101.223682,29.0465356 L98.0720549,31.3332893 C97.7121757,31.5943853 97.6325733,32.0945936 97.893593,32.4544919 C98.154708,32.8143712 98.6545731,32.8936113 99.0144524,32.6325726 L102.166442,30.3458379 C102.526321,30.0847419 102.605561,29.5848577 102.344522,29.2249785 C102.181313,29.0000516 101.924984,28.8846995 101.66772,28.8935082 L101.66772,28.893432 Z M15.6075418,33.3470687 C15.3507358,33.3642285 15.1077911,33.5064642 14.9688348,33.747121 C14.74652,34.1321679 14.8775065,34.6210698 15.2625535,34.8433846 L23.2792903,39.4719179 C23.6643373,39.6942328 24.1532392,39.5632462 24.375554,39.1781993 C24.5978688,38.7931523 24.4668823,38.3042504 24.0818353,38.0819356 L16.0650985,33.4533832 C15.9207655,33.3700628 15.7616178,33.3363152 15.6075418,33.3469924 L15.6075418,33.3470687 Z M104.700182,33.3470687 C104.546125,33.3356288 104.387016,33.3699484 104.242626,33.4534595 L96.2258887,38.0820119 C95.8408417,38.3043267 95.7098552,38.7932286 95.93217,39.1782755 C96.1544849,39.5633225 96.6433868,39.694309 97.0284337,39.4719942 L105.045533,34.8434609 C105.43058,34.6211461 105.561547,34.1322442 105.339232,33.7471972 C105.200238,33.5065405 104.956988,33.3650865 104.700182,33.347145 L104.700182,33.3470687 Z M13.2982897,38.1252355 C12.9855427,38.1176089 12.6856274,38.2966429 12.549779,38.6011341 C12.3686477,39.0072114 12.5496646,39.4799259 12.9557418,39.6610381 L16.5122449,41.2474048 C16.9183222,41.4285361 17.3910366,41.2475383 17.5721489,40.8414801 C17.7532801,40.4354029 17.5719201,39.9626884 17.1658619,39.7815762 L13.6096829,38.1952094 C13.5082494,38.1498312 13.402526,38.1273328 13.2982897,38.1252355 L13.2982897,38.1252355 Z M107.025031,38.1582205 C106.920737,38.1601271 106.814842,38.1830068 106.713275,38.2281943 L103.156067,39.8117965 C102.749875,39.9927371 102.568248,40.4651465 102.749074,40.8713382 C102.930015,41.2775298 103.402787,41.4591568 103.808978,41.2783306 L107.366206,39.6943662 C107.772378,39.5136163 107.953662,39.0410162 107.772836,38.6348245 C107.637273,38.3301808 107.337778,38.1520048 107.025031,38.1582205 L107.025031,38.1582205 Z M11.2401617,43.1192917 C10.9284443,43.1454128 10.6489874,43.3536375 10.5456853,43.6707125 C10.4080256,44.0934539 10.6372043,44.5446995 11.060041,44.6824546 L19.8616673,47.5503919 C20.2843895,47.6880517 20.7356543,47.4586823 20.8734094,47.0360363 C21.0110691,46.613295 20.7818904,46.1620302 20.3590537,46.0242942 L11.5574465,43.1563378 C11.4518184,43.1218276 11.3440548,43.1105783 11.2401617,43.1193489 L11.2401617,43.1192917 Z M109.079345,43.1536113 C108.975433,43.1440781 108.868127,43.155518 108.762404,43.1906002 L99.9587374,46.0523219 C99.5358816,46.189791 99.3062263,46.6408841 99.4436763,47.0637208 C99.5811454,47.4865574 100.032219,47.7162319 100.455075,47.5787819 L109.258417,44.7170602 C109.681273,44.5795911 109.911253,44.128498 109.773822,43.7056613 C109.670672,43.3885291 109.391025,43.1799993 109.079345,43.1535541 L109.079345,43.1536113 Z M9.95790481,48.3616503 C9.58401172,48.357837 9.24870913,48.6173695 9.16782925,48.9979168 C9.07535697,49.4328225 9.3512485,49.8572989 9.78609703,49.9497521 L13.5951352,50.7592183 C14.030041,50.8516906 14.4544983,50.575799 14.5469515,50.1409505 C14.6394238,49.7060257 14.3635322,49.2815493 13.9286837,49.1891152 L10.1199887,48.379649 C10.0656493,48.3682092 10.0113099,48.3624892 9.95792388,48.3624892 L9.95790481,48.3616503 Z M110.351573,48.3692769 C110.298187,48.3697154 110.244229,48.3769035 110.18989,48.3864367 L106.380833,49.1955596 C105.945927,49.2880319 105.670207,49.712127 105.762584,50.1470518 C105.855056,50.5819575 106.279475,50.8580397 106.7144,50.7656627 L110.523095,49.9565398 C110.958001,49.8640675 111.234083,49.4396293 111.141706,49.0047045 C111.060864,48.6241572 110.725505,48.3652729 110.35165,48.368438 L110.351573,48.3692769 Z M8.9873653,53.6348012 C8.61518819,53.6704555 8.30884754,53.9624582 8.26796907,54.3493546 C8.22125627,54.7915055 8.53932279,55.1851896 8.98147377,55.2319024 L18.1873088,56.2052066 C18.6294598,56.2519194 19.0231438,55.9335096 19.0698566,55.4913396 C19.1165695,55.0491886 18.7981597,54.6555046 18.3559897,54.6087918 L9.15017372,53.6354876 C9.09488101,53.6297677 9.04054163,53.6297677 8.98734623,53.6348203 L8.9873653,53.6348012 Z M111.329015,53.7040124 C111.27582,53.6982925 111.221099,53.6982925 111.165806,53.7046798 L101.958941,54.6655144 C101.516714,54.7116553 101.197923,55.1048055 101.244026,55.5470136 C101.290167,55.9892409 101.683317,56.3081082 102.125544,56.2619292 L111.332409,55.3010946 C111.774617,55.2549537 112.093427,54.8618035 112.047324,54.4195763 C112.006903,54.0326418 111.701078,53.7401624 111.328939,53.7039743 L111.329015,53.7040124 Z M8.83149707,59.0325704 C8.38686745,59.0325704 8.02897112,59.3904858 8.02897112,59.8351155 C8.02897112,60.279726 8.38686745,60.6376414 8.83149707,60.6376414 L12.7254,60.6376414 C13.1700106,60.6376414 13.5282883,60.279726 13.5282883,59.8351155 C13.5282883,59.3904858 13.1700106,59.0325704 12.7254,59.0325704 L8.83149707,59.0325704 Z M107.582324,59.0325704 C107.137713,59.0325704 106.779779,59.3904858 106.779779,59.8351155 C106.779779,60.279726 107.137713,60.6376414 107.582324,60.6376414 L111.476227,60.6376414 C111.920838,60.6376414 112.278772,60.279726 112.278772,59.8351155 C112.278772,59.3904858 111.920838,59.0325704 111.476227,59.0325704 L107.582324,59.0325704 Z M18.3452553,63.4075771 C18.2920599,63.4018572 18.2377205,63.4018572 18.1824278,63.4082445 L8.9752009,64.3690792 C8.53297366,64.41522 8.21420168,64.8083702 8.26030436,65.2505783 C8.30644517,65.6928056 8.69959537,66.0116729 9.14180354,65.965494 L18.3490304,65.0046593 C18.7912577,64.9585185 19.1100297,64.5653683 19.063927,64.123141 C19.0235061,63.7362065 18.7173561,63.4437271 18.3452171,63.4075581 L18.3452553,63.4075771 Z M101.957626,63.4643952 C101.58543,63.5000494 101.279089,63.7920712 101.238211,64.1789676 C101.191498,64.6211186 101.509583,65.0148026 101.951734,65.0615154 L111.157569,66.0348196 C111.599739,66.0815324 111.993385,65.7631036 112.040117,65.3209526 C112.08683,64.8788016 111.768401,64.4851176 111.32625,64.4384048 L102.120777,63.4651006 C102.065485,63.4593807 102.010764,63.4593807 101.957569,63.4644333 L101.957626,63.4643952 Z M13.7558463,68.8861309 C13.7024603,68.8865885 13.6481209,68.8918509 13.5937815,68.9032907 L9.78474331,69.7123946 C9.34981852,69.8048669 9.07411765,70.2293051 9.16647553,70.6642299 C9.25894781,71.0991547 9.68338606,71.3748747 10.1183109,71.2824977 L13.9273491,70.473718 C14.3622548,70.3812457 14.6379747,69.9568074 14.5455978,69.5219017 C14.464756,69.1413354 14.1297585,68.8824702 13.7558845,68.8856161 L13.7558463,68.8861309 Z M106.550829,68.8937575 C106.176955,68.8899442 105.841996,69.1491335 105.761116,69.5296808 C105.668643,69.9645865 105.944154,70.389082 106.37904,70.4815161 L110.188079,71.2909823 C110.622965,71.3834546 111.047461,71.1079444 111.139895,70.6730577 C111.232367,70.238152 110.956476,69.8133133 110.521646,69.7208792 L106.712932,68.911413 C106.658593,68.8999732 106.604253,68.8942532 106.550867,68.8942532 L106.550829,68.8937575 Z M20.1699146,72.0547271 C20.0660024,72.0451938 19.9587155,72.0566337 19.852992,72.091716 L11.0493256,74.9534185 C10.6264699,75.0908876 10.3968145,75.5419808 10.5342645,75.9648175 C10.6717336,76.3876732 11.1228077,76.6173095 11.5456634,76.4798785 L20.3490057,73.6181569 C20.7718615,73.4806878 21.00186,73.0295947 20.86441,72.606758 C20.7612605,72.2896257 20.4816129,72.081096 20.1699146,72.0546508 L20.1699146,72.0547271 Z M100.129134,72.0831361 C99.8174168,72.1092571 99.537979,72.3175009 99.4346769,72.6345569 C99.2970172,73.0573173 99.5261959,73.508563 99.9490326,73.6463181 L108.75064,76.5142553 C109.173381,76.6519151 109.624646,76.4225457 109.762382,75.9998997 C109.900232,75.5771584 109.670863,75.1258937 109.248026,74.9881385 L100.446419,72.1202013 C100.340791,72.085691 100.233046,72.0744418 100.129134,72.0832123 L100.129134,72.0831361 Z M16.8104823,78.3226509 C16.7061888,78.3245576 16.600637,78.347056 16.499089,78.3922435 L12.9415373,79.9761888 C12.5353457,80.1569388 12.3540619,80.6295389 12.5348881,81.0357305 C12.7158287,81.4419222 13.1882572,81.623206 13.5944298,81.4423798 L17.1520196,79.8587586 C17.5581922,79.6780086 17.739476,79.2054085 17.5586498,78.7992169 C17.4230874,78.4945731 17.1232293,78.3163971 16.8104823,78.3226128 L16.8104823,78.3226509 Z M103.484429,78.3531573 C103.171682,78.3455307 102.871767,78.5245646 102.735918,78.8290749 C102.554787,79.2351331 102.735804,79.7078476 103.141862,79.8889598 L106.698041,81.4753266 C107.104099,81.6564579 107.576833,81.475441 107.757945,81.0693828 C107.939076,80.6633246 107.758059,80.1906101 107.352001,80.0094979 L103.795822,78.4231121 C103.694389,78.3777339 103.588684,78.3552355 103.484429,78.3531382 L103.484429,78.3531573 Z M23.736847,80.0922844 C23.5827901,80.0808446 23.4236996,80.1151642 23.2792903,80.1986752 L15.2625535,84.8272085 C14.8775065,85.0495233 14.74652,85.5384253 14.9688348,85.9234722 C15.1911496,86.3085192 15.6800516,86.4395057 16.0650985,86.2171909 L24.0818353,81.5890008 C24.4668823,81.366686 24.5978497,80.8774409 24.375554,80.4923939 C24.2365596,80.2517372 23.993653,80.1102832 23.736847,80.0923416 L23.736847,80.0922844 Z M96.5712203,80.0922844 C96.3144142,80.1094442 96.0711263,80.25168 95.93217,80.4923367 C95.7098552,80.8773837 95.8408417,81.3666288 96.2258887,81.5889436 L104.242626,86.2171337 C104.627692,86.4394485 105.116918,86.308462 105.339232,85.923415 C105.561547,85.5383681 105.430561,85.0494661 105.045533,84.8271513 L97.0284337,80.198618 C96.8841007,80.1152976 96.7252962,80.08155 96.5712203,80.0922272 L96.5712203,80.0922844 Z M21.737253,86.8845929 C21.5828148,86.8903128 21.4281668,86.9400763 21.2931954,87.0380778 L18.1415875,89.3248125 C17.7817082,89.5859085 17.7021058,90.0857927 17.9631255,90.4456719 C18.2242405,90.8055512 18.7241056,90.8851536 19.0839849,90.6239432 L22.235936,88.3372085 C22.5958534,88.0761316 22.6754368,87.5762474 22.414398,87.2163682 C22.2511892,86.9914413 21.9945166,86.875727 21.737234,86.8845357 L21.737253,86.8845929 Z M98.5514236,86.9116673 C98.294141,86.902134 98.0376209,87.018058 97.8742787,87.2427943 C97.6129158,87.6024829 97.6921941,88.1026531 98.051978,88.3639969 L101.202213,90.6528098 C101.561921,90.9141537 102.061729,90.8348944 102.323073,90.4751105 C102.584416,90.1154029 102.505348,89.6155949 102.145755,89.3542511 L98.9955194,87.0654382 C98.8607196,86.9674366 98.7058428,86.9171012 98.5514808,86.9115719 L98.5514236,86.9116673 Z M28.8752362,87.18876 C28.6704053,87.1773201 28.4614561,87.245578 28.2961119,87.3941628 L21.4116743,93.5827512 C21.0810239,93.8799781 21.0541593,94.3854106 21.3514243,94.7160801 C21.6486512,95.0467305 22.1540647,95.073576 22.4847341,94.7763301 L29.3691907,88.5877417 C29.6998411,88.2905148 29.7267057,87.7850823 29.4294407,87.4544128 C29.2809131,87.2891067 29.0801052,87.199666 28.8752362,87.18876 Z M91.4134214,87.2108771 C91.2085524,87.2223169 91.0076301,87.3109759 90.8588927,87.4761867 C90.5613989,87.8066464 90.5880157,88.3120408 90.9183801,88.6095156 L97.798337,94.8029468 C98.1287967,95.1004597 98.6345343,95.0738429 98.932009,94.7434595 C99.2295029,94.4130189 99.2028861,93.9076054 98.8725217,93.6101497 L91.9922025,87.4166994 C91.8268964,87.2679811 91.6182904,87.2001998 91.4134214,87.2109533 L91.4134214,87.2108771 Z M35.4064106,93.0901695 C35.149147,93.0806363 34.8923791,93.1957976 34.7289033,93.4205911 L29.2832773,100.906346 C29.0217047,101.265901 29.1004301,101.765995 29.4598326,102.027549 C29.8193687,102.289122 30.3194817,102.210396 30.5810352,101.850803 L36.0266613,94.3650477 C36.2882148,94.0055116 36.2095085,93.5054177 35.8501059,93.2438451 C35.7153061,93.1458435 35.5607725,93.0955081 35.4064106,93.0901695 Z M84.8566408,93.1237264 C84.7022025,93.1294464 84.5475546,93.1788285 84.4125832,93.27683 C84.0527039,93.537926 83.9731396,94.0377911 84.2341212,94.3976894 L89.6696992,101.890709 C89.9307761,102.250607 90.4306603,102.330191 90.7905586,102.069171 C91.1504569,101.808094 91.2300212,101.308229 90.9690205,100.948331 L85.5334426,93.455292 C85.3702337,93.2303651 85.1139044,93.1150321 84.8566217,93.1238218 L84.8566408,93.1237264 Z M28.3764769,94.279916 C28.1716079,94.2913558 27.9707048,94.3800148 27.8219483,94.5452256 L25.216537,97.4388073 C24.919005,97.7692289 24.9453548,98.2749665 25.2758336,98.5724793 C25.6062552,98.8699922 26.1116496,98.8433183 26.4091434,98.5128014 L29.0148789,95.6192388 C29.3124299,95.2888172 29.2857369,94.7830605 28.9553916,94.4855667 C28.7900854,94.3368484 28.5814794,94.2690862 28.3765913,94.2798206 L28.3764769,94.279916 Z M91.9264042,94.2837293 C91.7215352,94.2722894 91.5128338,94.3407379 91.347623,94.4894753 C91.0171443,94.7869119 90.9905847,95.2923254 91.2879451,95.6227851 L93.8929941,98.5170532 C94.1904689,98.847532 94.6958633,98.8740915 95.0263421,98.5765405 C95.3568018,98.2790848 95.3833804,97.7733472 95.0858294,97.4428684 L92.4807612,94.5489626 C92.3320429,94.3836565 92.1311016,94.2944065 91.9262326,94.2836339 L91.9264042,94.2837293 Z M43.0109689,97.4938712 C42.6982219,97.4862446 42.3986689,97.6652786 42.2628204,97.9697889 L38.4911715,106.423643 C38.3100403,106.829701 38.4910762,107.302397 38.8971344,107.483547 C39.3031735,107.664678 39.775888,107.483642 39.9570193,107.077603 L43.7286491,98.62373 C43.9097804,98.2176908 43.7287444,97.7449763 43.3226863,97.5638451 C43.2212527,97.5184669 43.1152242,97.4959685 43.0109689,97.4938712 Z M77.2458478,97.5171323 C77.1415543,97.5190389 77.0356783,97.5415373 76.9341113,97.5867248 C76.5280531,97.7672841 76.3461782,98.2396363 76.5267947,98.6459233 L80.2866224,107.104983 C80.4671817,107.511041 80.9398771,107.692916 81.3461641,107.512318 C81.7522414,107.331759 81.9340972,106.859407 81.7534998,106.45312 L77.993653,97.9940604 C77.8582812,97.689512 77.5585947,97.5111263 77.2458478,97.5171132 L77.2458478,97.5171323 Z M36.3835089,100.107634 C36.126722,100.124793 35.8837391,100.267029 35.744821,100.507686 L33.7978504,103.87995 C33.5755547,104.264997 33.7065221,104.753899 34.0915882,104.976214 C34.4766351,105.198528 34.965537,105.067542 35.1878328,104.682495 L37.1348033,101.310231 C37.3570991,100.925184 37.2261316,100.436282 36.8410656,100.213967 C36.6967326,100.130647 36.537604,100.096899 36.3835089,100.107576 L36.3835089,100.107634 Z M83.924196,100.107634 C83.7701391,100.096194 83.6113919,100.130704 83.4670016,100.214024 C83.0819547,100.436339 82.9509682,100.925241 83.173283,101.310288 L85.1202344,104.682552 C85.3425493,105.067599 85.8314512,105.198566 86.2164791,104.976271 C86.6015451,104.753956 86.7325316,104.265054 86.5102168,103.880007 L84.5632653,100.507743 C84.4242709,100.267086 84.181002,100.125632 83.924196,100.107691 L83.924196,100.107634 Z M51.4073187,100.228473 C51.0334447,100.224702 50.6984281,100.483891 50.6176054,100.864457 L48.6938578,109.91961 C48.6013855,110.354516 48.877277,110.77905 49.3121256,110.871426 C49.7470503,110.963899 50.1715649,110.688007 50.2639609,110.253159 L52.1876894,101.198006 C52.2801617,100.7631 52.0042702,100.338566 51.5694217,100.24619 C51.5150823,100.23475 51.4607429,100.22903 51.4073568,100.22903 L51.4073187,100.228473 Z M68.8719963,100.234235 C68.8186103,100.234654 68.7646522,100.239955 68.7103128,100.251395 C68.2753308,100.343486 67.9992486,100.767543 68.0913205,101.202525 L70.0085093,110.259069 C70.1006002,110.694051 70.5249813,110.970114 70.9599823,110.878043 C71.3949643,110.785952 71.6710275,110.361551 71.5789556,109.926569 L69.6614427,100.870673 C69.5807916,100.490049 69.2459275,100.231127 68.8720535,100.234001 L68.8719963,100.234235 Z M60.153862,101.147613 C59.7092515,101.147613 59.351317,101.505529 59.351317,101.950158 L59.351317,111.207244 C59.351317,111.651873 59.7092515,112.009789 60.153862,112.009789 C60.5984916,112.009789 60.956407,111.651873 60.956407,111.207244 L60.956407,101.950158 C60.956407,101.505529 60.5984916,101.147613 60.153862,101.147613 Z M45.4220359,104.138872 C45.1103566,104.165375 44.8306518,104.373847 44.7275786,104.690979 L43.5239326,108.39437 C43.3864635,108.817226 43.6162143,109.268319 44.0389937,109.405788 C44.4618304,109.543258 44.9129235,109.313125 45.0503926,108.890384 L46.2540195,105.187336 C46.3914886,104.7645 46.1617379,104.313407 45.7389775,104.175937 C45.6333493,104.141618 45.525948,104.130178 45.4220359,104.138949 L45.4220359,104.138872 Z M74.8794534,104.140779 C74.7755413,104.131246 74.6682353,104.142686 74.5625309,104.177577 C74.1396752,104.315046 73.9097338,104.76612 74.0471075,105.188995 L75.2504103,108.892367 C75.3878794,109.315242 75.8389535,109.544821 76.2618092,109.407428 C76.6846649,109.269959 76.9146063,108.819228 76.7772135,108.396372 L75.5735866,104.692981 C75.4704371,104.37583 75.1911518,104.167358 74.8794534,104.140874 L74.8794534,104.140779 Z M55.116258,106.203407 C54.7440809,106.239251 54.4374924,106.531407 54.3968427,106.918322 L53.9898503,110.79108 C53.9433282,111.23327 54.2618904,111.62642 54.7040795,111.672942 C55.1462686,111.719464 55.539762,111.400902 55.5862842,110.958713 L55.9932575,107.086298 C56.0397797,106.644108 55.7212174,106.250615 55.2790665,106.204093 C55.2237737,106.198373 55.1694344,106.198373 55.116239,106.203426 L55.116258,106.203407 Z M65.1592437,106.20722 C65.1060483,106.2015 65.0513276,106.2015 64.9960349,106.207887 C64.5538267,106.254028 64.2349594,106.647178 64.2811383,107.089386 L64.6856903,110.962507 C64.7318311,111.404715 65.1249813,111.723258 65.5672085,111.677079 C66.0094167,111.630938 66.3283031,111.237769 66.2821241,110.795561 L65.8779154,106.922803 C65.8374945,106.535849 65.5313255,106.243332 65.1591674,106.207182 L65.1592437,106.20722 Z" id="rect830" fill="#F4F2F3" fill-rule="nonzero"></path>
        <polygon id="Path" fill-opacity="0.05" fill="#000000" fill-rule="nonzero" points="98.3987713 26.1845915 53.894499 54.3393828 53.8468329 54.3393828 53.8468329 54.3870489 53.7991667 54.4347151 27.4239107 99.2567615 67.1456818 67.6858979 67.1933479 67.6382318 67.1933479 67.5905656"></polygon>
        <polygon id="Path" fill="#CD151E" fill-rule="nonzero" points="53.5608361 54.4347151 66.9073512 67.6858979 96.5239037 24.4844997"></polygon>
        <polygon id="Path" fill="#FA5153" fill-rule="nonzero" points="53.6085022 54.3393828 60.3294259 60.9649742 96.5239037 24.4844997"></polygon>
        <polygon id="Path" fill="#ACACAC" fill-rule="nonzero" points="53.6085022 54.3393828 66.9550173 67.5905656 25.0088271 96.5239037"></polygon>
        <polygon id="Path" fill="#EEEEEE" fill-rule="nonzero" points="25.0088271 96.5239037 60.3294259 60.9649742 53.6085022 54.3393828"></polygon>
    </g>
</svg>