<?xml version="1.0" encoding="UTF-8"?>
<svg width="16px" height="16px" viewBox="0 0 16 16" version="1.1" xmlns="http://www.w3.org/2000/svg" xmlns:xlink="http://www.w3.org/1999/xlink">
    <title>E99EE637-C870-4DA3-94C8-096AA14E3E70</title>
    <g id="Профайл" stroke="none" stroke-width="1" fill="none" fill-rule="evenodd">
        <g id="Профайл-3" transform="translate(-886.000000, -206.000000)">
            <g id="история-изменений" transform="translate(304.000000, 104.000000)">
                <g id="Group" transform="translate(0.000000, 48.000000)">
                    <g id="info" transform="translate(574.000000, 0.000000)">
                        <g id="track" transform="translate(0.000000, 50.000000)">
                            <g id="track/prog_engineering" transform="translate(8.000000, 4.000000)">
                                <path d="M4.66666667,12.6666667 L4.66666667,11.6666667 C4.66666667,11.4825718 4.81590508,11.3333333 5,11.3333333 L10.3333333,11.3333333 C10.5174282,11.3333333 10.6666667,11.4825718 10.6666667,11.6666667 L10.6666667,12.6666667 L14.6666667,12.6666667 L14.6666667,4.66666667 L14.3333333,4.66666667 C14.1492384,4.66666667 14,4.51742825 14,4.33333333 L14,0.666666667 L2,0.666666667 L2,2 L8.66666667,2 L8.66666667,2.66666667 L2,2.66666667 L2,3.33333333 L4,3.33333333 L4,4 L2,4 L2,4.33333333 C2,4.51742825 1.85076158,4.66666667 1.66666667,4.66666667 L1.33333333,4.66666667 L1.33333333,12.6666667 L4.66666667,12.6666667 Z M5.33333333,12.6666667 L10,12.6666667 L10,12 L5.33333333,12 L5.33333333,12.6666667 Z M1.33333333,4 L1.33333333,0.666666667 L0.666666667,0.666666667 L0.666666667,4 L1.33333333,4 Z M0.333333333,0 L15.6666667,0 C15.8507616,0 16,0.149238417 16,0.333333333 L16,4.33333333 C16,4.51742825 15.8507616,4.66666667 15.6666667,4.66666667 L15.3333333,4.66666667 L15.3333333,12.6666667 L15.6666667,12.6666667 C15.8507616,12.6666667 16,12.8159051 16,13 L16,15.6666667 C16,15.8507616 15.8507616,16 15.6666667,16 L0.333333333,16 C0.149238417,16 0,15.8507616 0,15.6666667 L0,13 C0,12.8159051 0.149238417,12.6666667 0.333333333,12.6666667 L0.666666667,12.6666667 L0.666666667,4.66666667 L0.333333333,4.66666667 C0.149238417,4.66666667 0,4.51742825 0,4.33333333 L0,0.333333333 C0,0.149238417 0.149238417,0 0.333333333,0 Z M0.666666667,13.3333333 L0.666666667,15.3333333 L15.3333333,15.3333333 L15.3333333,13.3333333 L0.666666667,13.3333333 Z M1.33333333,14 L2,14 L2,14.6666667 L1.33333333,14.6666667 L1.33333333,14 Z M2.66666667,14 L3.33333333,14 L3.33333333,14.6666667 L2.66666667,14.6666667 L2.66666667,14 Z M5.33333333,14 L6,14 L6,14.6666667 L5.33333333,14.6666667 L5.33333333,14 Z M6.66666667,14 L9.33333333,14 L9.33333333,14.6666667 L6.66666667,14.6666667 L6.66666667,14 Z M10,14 L10.6666667,14 L10.6666667,14.6666667 L10,14.6666667 L10,14 Z M12.6666667,14 L13.3333333,14 L13.3333333,14.6666667 L12.6666667,14.6666667 L12.6666667,14 Z M14,14 L14.6666667,14 L14.6666667,14.6666667 L14,14.6666667 L14,14 Z M14.6666667,0.666666667 L14.6666667,4 L15.3333333,4 L15.3333333,0.666666667 L14.6666667,0.666666667 Z M3.33333333,1.33333333 L4,1.33333333 L4,2 L3.33333333,2 L3.33333333,1.33333333 Z M5.33333333,1.33333333 L6,1.33333333 L6,2 L5.33333333,2 L5.33333333,1.33333333 Z M7.33333333,1.33333333 L8,1.33333333 L8,2 L7.33333333,2 L7.33333333,1.33333333 Z M4.66666667,4 L4.66666667,3.33333333 L6,3.33333333 L6,4 L4.66666667,4 Z M6.66666667,4 L6.66666667,3.33333333 L8.66666667,3.33333333 L8.66666667,4 L6.66666667,4 Z M13.3333333,2 L14,2 L14,2.66666667 L13.3333333,2.66666667 L13.3333333,2 Z M13.3333333,3.33333333 L14,3.33333333 L14,4 L13.3333333,4 L13.3333333,3.33333333 Z M10.6666667,5.33333333 L10.3333333,5.33333333 C10.1492384,5.33333333 10,5.18409492 10,5 L10,4 L9.66666667,4 C9.48257175,4 9.33333333,3.85076158 9.33333333,3.66666667 L9.33333333,1.66666667 C9.33333333,1.48257175 9.48257175,1.33333333 9.66666667,1.33333333 L12.3333333,1.33333333 C12.5174282,1.33333333 12.6666667,1.48257175 12.6666667,1.66666667 L12.6666667,3.66666667 C12.6666667,3.85076158 12.5174282,4 12.3333333,4 L12,4 L12,5 C12,5.18409492 11.8507616,5.33333333 11.6666667,5.33333333 L11.3333333,5.33333333 L11.3333333,6 L10.6666667,6 L10.6666667,5.33333333 Z M11.3333333,4 L10.6666667,4 L10.6666667,4.66666667 L11.3333333,4.66666667 L11.3333333,4 Z M10,2 L10,3.33333333 L12,3.33333333 L12,2 L10,2 Z M10.6666667,6.66666667 L11.3333333,6.66666667 L11.3333333,7.33333333 L10.6666667,7.33333333 L10.6666667,6.66666667 Z M7.46543087,10.9387268 L5.51759547,9.96480906 C5.34392453,9.87797359 5.28093604,9.66166749 5.38083569,9.49516808 L7.35494413,6.20498735 C7.45559243,5.93167088 7.8777409,5.93167088 7.9783892,6.20498735 L9.95249764,9.49516808 C10.0523973,9.66166749 9.9894088,9.87797359 9.81573787,9.96480906 L7.86790247,10.9387268 C7.75125887,11.0204244 7.58207446,11.0204244 7.46543087,10.9387268 L7.46543087,10.9387268 Z M8,10.127322 L9.19563826,9.52950287 L8,7.53677243 L8,10.127322 Z M7.33333333,10.127322 L7.33333333,7.53677243 L6.13769507,9.52950287 L7.33333333,10.127322 Z" id="Shape" fill="#4167BB" fill-rule="nonzero"></path>
                                <rect id="Rectangle" fill="#D8D8D8" opacity="0" x="0" y="0" width="16" height="16"></rect>
                            </g>
                        </g>
                    </g>
                </g>
            </g>
        </g>
    </g>
</svg>