<svg xmlns="http://www.w3.org/2000/svg" xmlns:xlink="http://www.w3.org/1999/xlink" width="32" height="32" viewBox="0 0 32 32">
    <defs>
        <circle id="a" cx="25" cy="25" r="25"/>
    </defs>
    <g fill="none" fill-rule="evenodd" transform="translate(-9 -9)">
        <mask id="b" fill="#fff">
            <use xlink:href="#a"/>
        </mask>
        <g fill="#4167BB" fill-rule="nonzero" mask="url(#b)">
            <path d="M25.063 17.192L19.188 13.8a.625.625 0 0 0-.625 0l-5.875 3.392a.625.625 0 0 0-.313.541v6.784c0 .223.12.43.313.541l5.874 3.392a.624.624 0 0 0 .625 0l5.875-3.392a.625.625 0 0 0 .313-.541v-6.784c0-.223-.12-.43-.313-.541zm-6.813 9.634l-4-2.31 1.267-.73a.625.625 0 1 0-.625-1.083l-1.267.731v-4.618l4 2.309-.764.441a.625.625 0 1 0 .625 1.083l.764-.441v4.618zm.625-8.274a.625.625 0 0 0-.625.625v.866l-4-2.31 4-2.31v1.263a.625.625 0 0 0 1.25 0v-1.262l4 2.31-4 2.309v-.866a.625.625 0 0 0-.625-.625zm5.25 4.882l-.935-.54a.625.625 0 0 0-.625 1.083l.935.54-4 2.31v-4.62l1.052.608a.622.622 0 0 0 .853-.229.625.625 0 0 0-.228-.854l-1.052-.607 4-2.31v4.62z"/>
            <path d="M40.688 26.519l-7.376-4.258v-.699c0-.12.099-.218.22-.218h1.312a1.47 1.47 0 0 0 1.468-1.469v-.68l1.24-.893a.625.625 0 0 0 .26-.507v-1.482h.876c.345 0 .624-.28.624-.625V12.75h1.063a.625.625 0 0 0 0-1.25h-1.063V9.625A.625.625 0 0 0 38.688 9h-6a.625.625 0 0 0-.626.625V11.5H28.75V9.625A.625.625 0 0 0 28.125 9h-18.5A.625.625 0 0 0 9 9.625v23c0 .345.28.625.625.625h14.75v2.687c0 .223.12.43.313.54l7.687 4.44a.624.624 0 0 0 .625 0l7.688-4.44a.625.625 0 0 0 .312-.54V27.06c0-.223-.12-.43-.313-.541zm-4.126-9.044l-.874.63-.876-.63v-1.163h1.75v1.163zm-3.25-7.225h4.75v4.813h-4.75V10.25zm-8.854 16.47a.621.621 0 0 0-.082.327l-.001.013V32H10.25V10.25H27.5v1.25h-6.375a.625.625 0 0 0 0 1.25H27.5v9.843a.625.625 0 0 0 1.25 0V12.75h3.313v2.938c0 .345.28.624.624.624h.876v1.483c0 .201.096.39.26.507l1.24.893v.68c0 .12-.099.219-.22.219h-1.312a1.47 1.47 0 0 0-1.468 1.469v.698l-7.217 4.166a.623.623 0 0 0-.388.294zm7.605 12.573l-6.438-3.717v-7.463l6.438 3.7v7.48zm7.687-3.717l-6.438 3.717v-7.48l1.271-.73A.625.625 0 1 0 33.96 30l-1.273.731-6.411-3.686 6.411-3.702 6.412 3.702-.935.538a.625.625 0 1 0 .623 1.083l.963-.553v7.463z"/>
            <path d="M36.742 28.933a.628.628 0 0 0-.884 0 .63.63 0 0 0-.183.442.63.63 0 0 0 .625.625.628.628 0 0 0 .625-.625.627.627 0 0 0-.183-.442zM19.31 11.683a.63.63 0 0 0-.441-.183.63.63 0 0 0-.625.625.63.63 0 0 0 .625.625.63.63 0 0 0 .625-.625.627.627 0 0 0-.183-.442z"/>
        </g>
    </g>
</svg>
