<svg xmlns="http://www.w3.org/2000/svg" width="107" height="107"><path d="M54.108 25C38.61 25 26 37.609 26 53.108c0 15.498 12.61 28.108 28.108 28.108 15.498 0 28.108-12.61 28.108-28.108 0-15.5-12.61-28.108-28.108-28.108zm-15.03 46.52c.543-5.457 5.127-9.763 10.706-9.763h8.648c5.579 0 10.162 4.306 10.705 9.763a23.658 23.658 0 01-15.029 5.372 23.659 23.659 0 01-15.03-5.372zm15.03-14.088c-4.77 0-8.649-3.88-8.649-8.648 0-4.77 3.88-8.649 8.65-8.649 4.769 0 8.648 3.879 8.648 8.649 0 4.769-3.879 8.648-8.649 8.648zM72.78 67.793a15.25 15.25 0 00-9.734-9.628c2.48-2.366 4.035-5.694 4.035-9.381 0-7.155-5.818-12.973-12.973-12.973-7.155 0-12.973 5.818-12.973 12.973 0 3.687 1.554 7.015 4.036 9.379a15.25 15.25 0 00-9.734 9.628c-3.191-4.047-5.113-9.141-5.113-14.683 0-13.114 10.67-23.784 23.784-23.784 13.113 0 23.784 10.67 23.784 23.784 0 5.542-1.923 10.636-5.112 14.685zM49.414 9.414a2 2 0 01-2.828-2.828l6-6c.85-.851 2.11-.72 2.837.003l5.987 5.997c.758.763.8 2.03 0 2.828-.8.8-2.036.766-2.83 0L56 6.828V18a2 2 0 11-4 0V6.828l-2.586 2.586zm0 87.392a2 2 0 10-2.828 2.828l6 6c.85.851 2.11.72 2.837-.003l5.987-5.997c.758-.763.8-2.03 0-2.828-.8-.8-2.036-.766-2.83 0L56 99.392V88.22a2 2 0 00-4 0v11.172l-2.586-2.586zm32.163-77.868a2 2 0 110-4h8.485c1.204 0 2.001.982 2.004 2.008l-.007 8.474c-.003 1.076-.87 2-2 2s-1.981-.898-2-2.001l.003-3.653-7.899 7.9a2 2 0 11-2.828-2.829l7.899-7.9h-3.657zM19.782 80.733a2 2 0 10-4 0v8.485c0 1.203.982 2 2.008 2.004l8.474-.007c1.076-.004 2-.87 2-2s-.898-1.981-2-2.001l-3.654.004 7.9-7.9a2 2 0 10-2.829-2.828l-7.899 7.9v-3.657zm.156-55.31a2 2 0 11-4 0v-8.485c0-1.204.982-2.001 2.008-2.004l8.474.007c1.076.003 2 .87 2 2s-.898 1.981-2.001 2l-3.653-.003 7.9 7.899a2 2 0 11-2.829 2.828l-7.9-7.899v3.657zm61.795 61.795a2 2 0 100 4h8.485c1.203 0 2-.982 2.004-2.008l-.007-8.474c-.004-1.076-.87-2-2-2s-1.981.898-2.001 2l.004 3.654-7.9-7.9a2 2 0 00-2.828 2.829l7.9 7.899h-3.657zm15.853-38.804a2 2 0 112.828-2.828l6 6c.851.85.72 2.11-.003 2.837l-5.997 5.987c-.763.758-2.03.8-2.828 0-.8-.8-.766-2.036 0-2.83l2.586-2.58H89a2 2 0 010-4h11.172l-2.586-2.586zm-87.392 0a2 2 0 10-2.828-2.828l-6 6c-.851.85-.72 2.11.003 2.837l5.997 5.987c.763.758 2.03.8 2.828 0 .8-.8.766-2.036 0-2.83L7.608 55H18.78a2 2 0 100-4H7.608l2.586-2.586z" opacity=".25"/></svg>