<svg xmlns="http://www.w3.org/2000/svg" width="114" height="100"><g fill="none" fill-rule="evenodd" transform="translate(-8 -15)"><rect width="52" height="24" x="10" y="17" stroke="#FFF" stroke-width="4" rx="2"/><path fill="#FFF" d="M16 23h12v12H16zm16 0h24v4H32zm0 8h16v4H32z"/><rect width="52" height="24" x="68" y="53" stroke="#FFF" stroke-width="4" rx="2"/><path fill="#FFF" d="M74 59h12v12H74zm16 0h24v4H90zm0 8h16v4H90z"/><rect width="52" height="24" x="10" y="89" stroke="#FFF" stroke-width="4" rx="2"/><path fill="#FFF" d="M16 95h12v12H16zm16 0h24v4H32zm0 8h16v4H32zm56-80h4v4h-4zm8 0h4v4h-4zm0 8h4v4h-4zM30 55h4v4h-4zm0 8h4v4h-4zm0 8h4v4h-4zm8-8h4v4h-4zm58 40h4v4h-4zm-8 0h4v4h-4zm8-8h4v4h-4z"/></g></svg>