<svg xmlns="http://www.w3.org/2000/svg" width="130" height="130"><g fill="#FFF"><path d="M23.833 121.333c.657 0 1.28-.3 1.69-.812.91-1.127 22.144-27.77 22.144-40.354 0-13.163-10.67-23.834-23.834-23.834C10.67 56.333 0 67.003 0 80.167c0 12.584 21.233 39.217 22.144 40.354.41.513 1.032.812 1.69.812zm0-60.666c10.765.011 19.489 8.735 19.5 19.5 0 8.406-12.807 26.788-19.5 35.487-6.692-8.696-19.5-27.077-19.5-35.487.012-10.765 8.736-19.489 19.5-19.5z"/><path d="M32.5 78a8.667 8.667 0 10-17.334 0A8.667 8.667 0 0032.5 78zm-13 0a4.334 4.334 0 118.667 0 4.334 4.334 0 01-8.667 0zm93.167-32.5c.631 0 1.23-.275 1.642-.754C115.917 42.88 130 26.256 130 17.333 130 7.76 122.24 0 112.667 0c-9.574 0-17.334 7.76-17.334 17.333 0 8.923 14.084 25.548 15.692 27.413.411.479 1.01.754 1.642.754zm0-41.167c7.177.008 12.992 5.823 13 13 0 5.491-8.272 16.805-13 22.618-4.73-5.813-13-17.116-13-22.618.007-7.177 5.823-12.992 13-13z"/><path d="M119.167 15.167a6.5 6.5 0 10-13.001 0 6.5 6.5 0 0013 0zm-8.667 0a2.167 2.167 0 114.334 0 2.167 2.167 0 01-4.334 0zm0 39h2.167a2.167 2.167 0 000-4.334H110.5a2.167 2.167 0 000 4.334zm-28.167 13h4.381a2.167 2.167 0 000-4.334h-4.416A2.154 2.154 0 0080.15 65a2.181 2.181 0 002.183 2.167zM106.624 65c0 1.197.97 2.167 2.166 2.167h4.414a2.167 2.167 0 000-4.334h-4.414c-1.196 0-2.166.97-2.166 2.167zm-9.368-10.833h4.414a2.167 2.167 0 000-4.334h-4.414a2.166 2.166 0 100 4.334zm-57.791 71.5H35.05a2.167 2.167 0 000 4.333h4.415a2.167 2.167 0 000-4.333zM75.97 62.01a2.167 2.167 0 002.123-2.611 4.333 4.333 0 01.379-2.871 2.166 2.166 0 10-3.863-1.965 8.667 8.667 0 00-.756 5.72 2.168 2.168 0 002.117 1.727zm19.58 5.157h4.416a2.167 2.167 0 000-4.334H95.55a2.167 2.167 0 000 4.334zm-11.54-13h4.416a2.167 2.167 0 000-4.334H84.01a2.167 2.167 0 000 4.334zM62.6 91.817a2.168 2.168 0 002.626-1.577 7.647 7.647 0 011.544-3.034 2.166 2.166 0 10-3.317-2.786 11.936 11.936 0 00-2.43 4.767 2.162 2.162 0 00.242 1.642c.296.494.776.85 1.335.988zm42.804 33.759c-.466.061-.934.092-1.404.09h-2.727a2.166 2.166 0 100 4.334H104c.652 0 1.303-.042 1.95-.126a2.167 2.167 0 00-.554-4.298h.008zm3.018-25.26a15.16 15.16 0 00-4.422-.65h-.568a2.167 2.167 0 000 4.334H104c1.07 0 2.136.158 3.161.468a2.168 2.168 0 002.776-1.752 2.166 2.166 0 00-1.515-2.392v-.008zM103.801 84.5a2.167 2.167 0 000-4.333h-4.414a2.167 2.167 0 000 4.333h4.414zm12.947 33.69a2.166 2.166 0 00-2.864 1.082 10.81 10.81 0 01-2.047 3.035 2.164 2.164 0 001.033 3.64 2.167 2.167 0 002.098-.646 15.099 15.099 0 002.869-4.25 2.167 2.167 0 00-1.089-2.862zm11.348-44.142a2.167 2.167 0 00-2.694 1.465 6.572 6.572 0 01-1.691 2.803 2.168 2.168 0 103.033 3.099 10.888 10.888 0 002.816-4.674 2.167 2.167 0 00-1.464-2.693zm-2.473-3.999a2.167 2.167 0 001.615-3.614 10.901 10.901 0 00-4.55-3.017 2.167 2.167 0 10-1.409 4.1c1.05.36 1.99.984 2.73 1.811.411.458.999.72 1.614.72zm-31.02 29.618H90.19a2.167 2.167 0 000 4.333h4.413a2.167 2.167 0 000-4.333zm22.442-19.5h-4.415a2.167 2.167 0 000 4.333h4.415a2.167 2.167 0 000-4.333zm-64.336 45.5h-4.414a2.167 2.167 0 000 4.333h4.414a2.167 2.167 0 000-4.333zm63.842-19.349a2.17 2.17 0 00-3.583 2.45 10.715 10.715 0 011.516 3.324 2.167 2.167 0 104.193-1.083 15.048 15.048 0 00-2.126-4.691zM69.23 98.89a7.706 7.706 0 01-2.638-2.157 2.166 2.166 0 10-3.423 2.659 12.024 12.024 0 004.143 3.382 2.167 2.167 0 001.918-3.885zm-3.277 26.777h-4.42a2.167 2.167 0 000 4.333h4.42a2.167 2.167 0 000-4.333zm26.49 0h-4.414a2.167 2.167 0 000 4.333h4.414a2.167 2.167 0 000-4.333zM77.313 84.5a2.167 2.167 0 000-4.333H72.9a2.167 2.167 0 000 4.333h4.413zm13.253 0a2.167 2.167 0 000-4.333h-4.424a2.167 2.167 0 000 4.333h4.424zM81.36 99.667h-4.415a2.167 2.167 0 000 4.333h4.415a2.166 2.166 0 100-4.333zm-2.16 26h-4.415a2.167 2.167 0 000 4.333H79.2a2.167 2.167 0 000-4.333zm-53.2 0h-2.167a2.167 2.167 0 000 4.333H26a2.167 2.167 0 000-4.333z"/></g></svg>