<svg xmlns="http://www.w3.org/2000/svg" width="130" height="130"><g opacity=".25"><path d="M119.83 112.527c2.113-2.31 3.414-5.373 3.414-8.741 0-6.416-4.685-11.743-10.81-12.779V73.516c0-.576-.227-1.125-.634-1.53l-8.706-8.705c.394-.747.811-1.483 1.157-2.248a2.157 2.157 0 00-.493-2.469l-4.027-3.775c.443-1.34.808-2.707 1.094-4.091l5.407-1.263a2.162 2.162 0 001.66-1.892 44.26 44.26 0 00.217-4.298c0-1.394-.074-2.839-.218-4.299a2.162 2.162 0 00-1.661-1.892l-5.408-1.262A36.563 36.563 0 0099.73 31.7l4.027-3.776a2.163 2.163 0 00.493-2.468 43.24 43.24 0 00-4.31-7.438 2.152 2.152 0 00-2.384-.806l-5.24 1.593a36.577 36.577 0 00-3.015-3.014l1.596-5.24a2.165 2.165 0 00-.806-2.386 43.237 43.237 0 00-7.44-4.31 2.17 2.17 0 00-2.47.494l-3.775 4.03a36.561 36.561 0 00-4.09-1.096l-1.263-5.408A2.16 2.16 0 0069.16.216a43.024 43.024 0 00-8.6 0c-.92.09-1.681.758-1.891 1.66l-1.263 5.408a37.024 37.024 0 00-4.091 1.093L49.541 4.35a2.176 2.176 0 00-2.47-.493 43.24 43.24 0 00-7.437 4.31 2.162 2.162 0 00-.807 2.384l1.593 5.24a37.052 37.052 0 00-3.014 3.013l-5.232-1.593a2.166 2.166 0 00-2.385.805 43.344 43.344 0 00-4.31 7.441 2.158 2.158 0 00.493 2.468l4.031 3.776a36.56 36.56 0 00-1.097 4.09L23.5 37.055a2.16 2.16 0 00-1.66 1.892 44.1 44.1 0 00-.216 4.3c0 1.393.073 2.838.218 4.297a2.16 2.16 0 001.66 1.892l5.408 1.263c.285 1.384.65 2.748 1.094 4.09l-4.029 3.776a2.165 2.165 0 00-.493 2.469c.347.765.764 1.503 1.158 2.248l-8.705 8.706a2.146 2.146 0 00-.636 1.529v17.491c-6.125 1.036-10.81 6.363-10.81 12.779 0 3.368 1.301 6.431 3.414 8.741-5.53.473-9.9 5.074-9.9 10.727v4.316a2.16 2.16 0 002.161 2.162h34.595a2.16 2.16 0 002.162-2.162v-4.316c0-5.65-4.372-10.251-9.9-10.727 2.112-2.31 3.413-5.373 3.413-8.741 0-6.416-4.685-11.743-10.81-12.779V74.41l7.29-7.29c.298.447.562.916.876 1.351a2.16 2.16 0 002.385.806l5.24-1.593a36.742 36.742 0 003.015 3.014l-1.596 5.24a2.163 2.163 0 00.807 2.385 43.197 43.197 0 007.44 4.31 2.162 2.162 0 002.47-.493l3.775-4.03a36.3 36.3 0 004.09 1.096l1.262 5.408a2.16 2.16 0 001.892 1.66c.724.071 1.423.071 2.137.108v4.63c-6.126 1.033-10.81 6.36-10.81 12.778 0 3.368 1.3 6.432 3.413 8.742-5.53.468-9.903 5.07-9.903 10.722v4.316a2.16 2.16 0 002.163 2.162h34.594a2.16 2.16 0 002.162-2.162v-4.316c0-5.65-4.371-10.251-9.9-10.727 2.112-2.31 3.414-5.373 3.414-8.741 0-6.416-4.685-11.743-10.81-12.779v-4.63c.713-.036 1.41-.036 2.135-.107a2.16 2.16 0 001.892-1.66l1.262-5.408a36.797 36.797 0 004.091-1.095l3.776 4.029a2.17 2.17 0 002.47.493 43.32 43.32 0 007.437-4.31 2.164 2.164 0 00.806-2.385l-1.594-5.24c1.06-.945 2.07-1.95 3.014-3.015l5.242 1.596a2.17 2.17 0 002.385-.806c.313-.437.579-.907.875-1.354l7.29 7.295v16.597c-6.126 1.034-10.812 6.361-10.812 12.779 0 3.368 1.302 6.431 3.415 8.741-5.53.473-9.901 5.074-9.901 10.727v4.316a2.16 2.16 0 002.162 2.162h34.595a2.16 2.16 0 002.162-2.162v-4.316c0-5.653-4.372-10.254-9.901-10.727zm-85.234 10.727v2.154H4.326v-2.154a6.503 6.503 0 016.494-6.495H28.1a6.503 6.503 0 016.496 6.495zm-6.487-19.468c0 4.769-3.879 8.649-8.648 8.649-4.77 0-8.65-3.88-8.65-8.65 0-4.769 3.88-8.648 8.65-8.648 4.77 0 8.648 3.879 8.648 8.649zm51.892 19.468v2.154h-30.27v-2.154a6.503 6.503 0 016.495-6.495h17.28a6.503 6.503 0 016.495 6.495zm-6.486-19.468c0 4.769-3.88 8.649-8.65 8.649-4.769 0-8.648-3.88-8.648-8.65 0-4.769 3.88-8.648 8.649-8.648 4.77 0 8.649 3.879 8.649 8.649zm23.792-39.104l-5.084-1.547a2.155 2.155 0 00-2.298.693 32.398 32.398 0 01-4.473 4.474 2.166 2.166 0 00-.695 2.299l1.547 5.083a39.455 39.455 0 01-4.044 2.344l-3.658-3.907a2.156 2.156 0 00-2.337-.547 32.36 32.36 0 01-6.078 1.626 2.16 2.16 0 00-1.756 1.64l-1.223 5.248a37.604 37.604 0 01-4.68 0l-1.223-5.248a2.162 2.162 0 00-1.756-1.64 32.232 32.232 0 01-6.076-1.626 2.143 2.143 0 00-2.34.544l-3.66 3.908a38.99 38.99 0 01-4.043-2.342l1.548-5.083a2.165 2.165 0 00-.694-2.299 32.34 32.34 0 01-4.473-4.474 2.158 2.158 0 00-2.298-.693l-5.084 1.545a39.359 39.359 0 01-2.343-4.042l3.906-3.66a2.16 2.16 0 00.548-2.336 32.283 32.283 0 01-1.627-6.078 2.159 2.159 0 00-1.64-1.756l-5.249-1.224a35.928 35.928 0 01-.077-2.339c0-.765.025-1.546.073-2.34l5.248-1.224a2.159 2.159 0 001.64-1.756 32.221 32.221 0 011.626-6.074 2.16 2.16 0 00-.544-2.34l-3.907-3.661a38.707 38.707 0 012.342-4.043l5.082 1.548a2.159 2.159 0 002.299-.696 32.449 32.449 0 014.474-4.472 2.164 2.164 0 00.694-2.298l-1.546-5.083a39.455 39.455 0 014.043-2.344l3.659 3.907c.594.638 1.52.852 2.337.547a32.338 32.338 0 016.078-1.626 2.161 2.161 0 001.756-1.64l1.223-5.25a37.604 37.604 0 014.68 0l1.223 5.248a2.16 2.16 0 001.756 1.641c2.071.342 4.114.89 6.075 1.626.82.311 1.742.095 2.34-.545l3.66-3.907a38.99 38.99 0 014.044 2.342l-1.549 5.083a2.168 2.168 0 00.695 2.298 32.398 32.398 0 014.473 4.475 2.156 2.156 0 002.298.693l5.084-1.545a39.553 39.553 0 012.343 4.042l-3.907 3.66a2.16 2.16 0 00-.547 2.337 32.27 32.27 0 011.626 6.076 2.16 2.16 0 001.642 1.756l5.247 1.225a35.97 35.97 0 01.004 4.678l-5.247 1.224a2.16 2.16 0 00-1.642 1.756 32.323 32.323 0 01-1.626 6.078 2.16 2.16 0 00.547 2.336l3.908 3.66a39.104 39.104 0 01-2.344 4.044zm12.964 30.455c4.77 0 8.649 3.879 8.649 8.649 0 4.769-3.879 8.649-8.649 8.649s-8.648-3.88-8.648-8.65c0-4.769 3.878-8.648 8.648-8.648zm15.135 30.27h-30.27v-2.153a6.503 6.503 0 016.495-6.495h17.28a6.503 6.503 0 016.495 6.495v2.154z"/><path d="M64.866 15.137c-15.498 0-28.108 12.609-28.108 28.108s12.61 28.108 28.108 28.108c15.498 0 28.108-12.61 28.108-28.108 0-15.499-12.61-28.108-28.108-28.108zm-15.03 46.52c.543-5.457 5.127-9.763 10.706-9.763h8.648c5.579 0 10.162 4.306 10.704 9.764a23.658 23.658 0 01-15.028 5.371 23.659 23.659 0 01-15.03-5.371zm15.03-14.087c-4.77 0-8.649-3.88-8.649-8.649 0-4.77 3.88-8.649 8.649-8.649 4.77 0 8.649 3.88 8.649 8.649 0 4.769-3.88 8.649-8.65 8.649zm18.672 10.36a15.25 15.25 0 00-9.734-9.628c2.48-2.366 4.035-5.693 4.035-9.381 0-7.155-5.818-12.973-12.973-12.973-7.155 0-12.973 5.818-12.973 12.973 0 3.688 1.554 7.015 4.036 9.38a15.25 15.25 0 00-9.734 9.628c-3.191-4.048-5.113-9.142-5.113-14.684 0-13.114 10.67-23.783 23.784-23.783 13.113 0 23.784 10.669 23.784 23.783 0 5.542-1.923 10.636-5.112 14.686zm33.22-16.847h4.324v4.325h-4.324zm8.648 0h4.325v4.325h-4.325zm0 8.649h4.325v4.324h-4.325zm0-17.297h4.325v4.324h-4.325zM.001 41.083h4.324v4.325H.001zm0 8.649h4.324v4.324H.001zm0-17.297h4.324v4.324H.001zm8.649 8.648h4.324v4.325H8.65z"/></g></svg>