<?xml version="1.0" encoding="UTF-8"?>
<svg width="24px" height="16px" viewBox="0 0 24 16" version="1.1" xmlns="http://www.w3.org/2000/svg" xmlns:xlink="http://www.w3.org/1999/xlink">
    <!-- Generator: Sketch 55.1 (78136) - https://sketchapp.com -->
    <title>azerbaijan</title>
    <desc>Created with Sketch.</desc>
    <g id="Профайл" stroke="none" stroke-width="1" fill="none" fill-rule="evenodd">
        <g id="Профайл-—-языки" transform="translate(-465.000000, -993.000000)" fill-rule="nonzero">
            <g id="azerbaijan" transform="translate(465.000000, 993.000000)">
                <path d="M0,10.6622857 L23.9532164,10.6622857 L23.9532164,15.5664762 C23.9532164,15.798619 23.7682807,15.9868571 23.5402105,15.9868571 L0.413005848,15.9868571 C0.184935673,15.9868571 0,15.798619 0,15.5664762 L0,10.6622857 Z" id="Path" fill="#73AF00"></path>
                <path d="M0.413005848,0.0131428571 L23.5402573,0.0131428571 C23.7683275,0.0131428571 23.9532632,0.201380952 23.9532632,0.43352381 L23.9532632,5.33771429 L0,5.33771429 L0,0.43352381 C0,0.201380952 0.184935673,0.0131428571 0.413005848,0.0131428571 Z" id="Path" fill="#82AFFF"></path>
                <rect id="Rectangle" fill="#FF4B55" x="0" y="5.33761905" width="23.9532164" height="5.32428571"></rect>
                <g id="Group" transform="translate(9.871345, 5.857143)" fill="#F5F5F5">
                    <path d="M2.66853801,3.88609524 C1.74175439,3.88609524 0.989894737,3.12080952 0.989894737,2.17666667 C0.989894737,1.23419048 1.74175439,0.467238095 2.66853801,0.467238095 C3.01338012,0.467238095 3.33136842,0.575142857 3.59635088,0.757857143 C3.63691228,0.785857143 3.68322807,0.73152381 3.64926316,0.695571429 C3.25319298,0.27647619 2.69263158,0.0207142857 2.07115789,0.0423333333 C1.00336842,0.0794285714 0.119438596,0.950761905 0.0511812865,2.03604762 C-0.026994152,3.27909524 0.940023392,4.31214286 2.14404678,4.31214286 C2.73707602,4.31214286 3.27008187,4.0597619 3.65076023,3.65628571 C3.68435088,3.62066667 3.63794152,3.56719048 3.59780117,3.59490476 C3.33253801,3.77804762 3.0139883,3.88609524 2.66853801,3.88609524 Z" id="Path"></path>
                    <path d="M4.13810526,1.12433333 L4.3122807,1.6227619 L4.7817076,1.39566667 C4.81707602,1.37852381 4.8539883,1.41609524 4.8371462,1.45209524 L4.61403509,1.92990476 L5.1037193,2.10719048 C5.14063158,2.12052381 5.14063158,2.17366667 5.1037193,2.187 L4.61403509,2.36428571 L4.8371462,2.84209524 C4.8539883,2.87809524 4.81707602,2.91566667 4.7817076,2.89852381 L4.3122807,2.67142857 L4.13810526,3.16985714 C4.12500585,3.20742857 4.07279532,3.20742857 4.05969591,3.16985714 L3.88552047,2.67142857 L3.41609357,2.89852381 C3.38072515,2.91566667 3.34381287,2.87809524 3.36065497,2.84209524 L3.58376608,2.36428571 L3.09408187,2.187 C3.05716959,2.17366667 3.05716959,2.12052381 3.09408187,2.10719048 L3.58376608,1.92990476 L3.36065497,1.45209524 C3.34381287,1.41609524 3.38072515,1.37852381 3.41609357,1.39566667 L3.88552047,1.6227619 L4.05969591,1.12433333 C4.07284211,1.08680952 4.12500585,1.08680952 4.13810526,1.12433333 Z" id="Path"></path>
                </g>
            </g>
        </g>
    </g>
</svg>