<?xml version="1.0" encoding="UTF-8"?>
<svg width="24px" height="16px" viewBox="0 0 24 16" version="1.1" xmlns="http://www.w3.org/2000/svg" xmlns:xlink="http://www.w3.org/1999/xlink">
    <!-- Generator: Sketch 55.1 (78136) - https://sketchapp.com -->
    <title>belarus</title>
    <desc>Created with Sketch.</desc>
    <g id="Профайл" stroke="none" stroke-width="1" fill="none" fill-rule="evenodd">
        <g id="Профайл-—-языки" transform="translate(-465.000000, -419.000000)" fill-rule="nonzero">
            <g id="belarus" transform="translate(465.000000, 419.000000)">
                <path d="M23.5861875,15.9868571 L0.4138125,15.9868571 C0.185296875,15.9868571 0,15.798619 0,15.5664762 L0,11.7832381 L24,11.7832381 L24,15.5664762 C24,15.7986667 23.8147031,15.9868571 23.5861875,15.9868571 Z" id="Path" fill="#73AF00"></path>
                <path d="M23.5861875,0.0131428571 L0.4138125,0.0131428571 C0.185296875,0.0131428571 0,0.201380952 0,0.43352381 L0,11.7832381 L24,11.7832381 L24,0.43352381 C24,0.201380952 23.8147031,0.0131428571 23.5861875,0.0131428571 Z" id="Path" fill="#FF4B55"></path>
                <path d="M3.31035937,15.9868571 L0.4138125,15.9868571 C0.185296875,15.9868571 0,15.798619 0,15.5664762 L0,0.43352381 C0,0.201380952 0.185296875,0.0131428571 0.4138125,0.0131428571 L3.31035937,0.0131428571 L3.31035937,15.9868571 Z" id="Path" fill="#F5F5F5"></path>
                <path d="M0.414046875,15.2887143 L0.560390625,15.2887143 L0.560390625,14.8720476 L0.414046875,14.8720476 L0.414046875,15.2887143 Z M1.58207812,15.2887143 L1.72846875,15.2887143 L1.72846875,14.8720476 L1.58207812,14.8720476 L1.58207812,15.2887143 Z M2.75085938,15.2887143 L2.89654687,15.2887143 L2.89654687,14.8720476 L2.75085938,14.8720476 L2.75085938,15.2887143 Z M0.9988125,14.1715714 L1.14370313,14.1715714 L1.14370313,13.8243333 L0.9988125,13.8243333 L0.9988125,14.1715714 Z M2.16754688,14.1715714 L2.31323437,14.1715714 L2.31323437,13.8243333 L2.16754688,13.8243333 L2.16754688,14.1715714 Z M0.414046875,13.2657619 L0.560390625,13.2657619 L0.560390625,12.8490952 L0.414046875,12.8490952 L0.414046875,13.2657619 Z M1.58207812,13.2657619 L1.72846875,13.2657619 L1.72846875,12.8490952 L1.58207812,12.8490952 L1.58207812,13.2657619 Z M2.75085938,13.2657619 L2.89654687,13.2657619 L2.89654687,12.8490952 L2.75085938,12.8490952 L2.75085938,13.2657619 Z M0.70753125,13.8243333 L0.852421875,13.8243333 L0.852421875,13.474 L0.9988125,13.474 L0.9988125,13.1267619 L1.14370313,13.1267619 L1.14370313,13.474 L1.29084375,13.474 L1.29084375,13.8243333 L1.43573438,13.8243333 L1.43573438,14.1715714 L1.29084375,14.1715714 L1.29084375,14.5217619 L1.14370313,14.5217619 L1.14370313,14.8719524 L0.9988125,14.8719524 L0.9988125,14.5217619 L0.852421875,14.5217619 L0.852421875,14.1715714 L0.70753125,14.1715714 L0.70753125,13.8243333 Z M1.87560937,13.8243333 L2.02195312,13.8243333 L2.02195312,13.474 L2.16759375,13.474 L2.16759375,13.1267619 L2.31328125,13.1267619 L2.31328125,13.474 L2.45892187,13.474 L2.45892187,13.8243333 L2.60526562,13.8243333 L2.60526562,14.1715714 L2.45892187,14.1715714 L2.45892187,14.5217619 L2.31328125,14.5217619 L2.31328125,14.8719524 L2.16759375,14.8719524 L2.16759375,14.5217619 L2.02195313,14.5217619 L2.02195313,14.1715714 L1.87560937,14.1715714 L1.87560937,13.8243333 L1.87560937,13.8243333 Z M2.16754688,12.429381 L2.16754688,12.776619 L2.0205,12.776619 L2.0205,13.1268095 L1.87560937,13.1268095 L1.87560937,13.4740476 L1.72846875,13.4740476 L1.72846875,13.824381 L1.58207812,13.824381 L1.58207812,13.4740476 L1.4356875,13.4740476 L1.4356875,13.1268095 L1.29079687,13.1268095 L1.29079687,12.776619 L1.14365625,12.776619 L1.14365625,12.429381 L0.998765625,12.429381 L0.998765625,12.776619 L0.852375,12.776619 L0.852375,13.1268095 L0.707484375,13.1268095 L0.707484375,13.4740476 L0.56034375,13.4740476 L0.56034375,13.824381 L0.414046875,13.824381 L0.414046875,14.171619 L0.560390625,14.171619 L0.560390625,14.5218095 L0.70753125,14.5218095 L0.70753125,14.872 L0.852421875,14.872 L0.852421875,15.2192381 L0.9988125,15.2192381 L0.9988125,15.5665238 L1.14520313,15.5665238 L1.14520313,15.2192381 L1.29084375,15.2192381 L1.29084375,14.872 L1.43573437,14.872 L1.43573437,14.5218095 L1.582125,14.5218095 L1.582125,14.171619 L1.72851562,14.171619 L1.72851562,14.5218095 L1.87565625,14.5218095 L1.87565625,14.872 L2.022,14.872 L2.022,15.2192381 L2.16764062,15.2192381 L2.16764062,15.5665238 L2.31332812,15.5665238 L2.31332812,15.2192381 L2.45896875,15.2192381 L2.45896875,14.872 L2.6053125,14.872 L2.6053125,14.5218095 L2.75170312,14.5218095 L2.75170312,14.171619 L2.89659375,14.171619 L2.89659375,13.824381 L2.75090625,13.824381 L2.75090625,13.4740476 L2.6053125,13.4740476 L2.6053125,13.1268095 L2.45896875,13.1268095 L2.45896875,12.776619 L2.31332812,12.776619 L2.31332812,12.429381 L2.16754688,12.429381 L2.16754688,12.429381 Z M2.52942188,12.0822381 L2.60226563,12.0822381 L2.60226563,11.943381 L2.6758125,11.943381 L2.6758125,12.0822381 L2.74935938,12.0822381 L2.74935938,12.2210476 L2.6758125,12.2210476 L2.6758125,12.3629524 L2.60226563,12.3629524 L2.60226563,12.2210476 L2.52942188,12.2210476 L2.52942188,12.0822381 Z M2.52942188,11.5960476 L2.52942188,11.8014286 L2.457375,11.8014286 L2.457375,12.0127619 L2.38382812,12.0127619 L2.38382812,12.2905714 L2.457375,12.2905714 L2.457375,12.4988571 L2.52942188,12.4988571 L2.52942188,12.7071429 L2.74940625,12.7071429 L2.74940625,12.4988571 L2.82225,12.4988571 L2.82225,12.2905714 L2.89429687,12.2905714 L2.89429687,12.0127619 L2.82225,12.0127619 L2.82225,11.8014286 L2.74940625,11.8014286 L2.74940625,11.5960476 L2.52942188,11.5960476 Z M0.560390625,12.0791429 L0.6339375,12.0791429 L0.6339375,11.9403333 L0.707484375,11.9403333 L0.707484375,12.0791429 L0.77878125,12.0791429 L0.77878125,12.2210476 L0.707484375,12.2210476 L0.707484375,12.3599048 L0.6339375,12.3599048 L0.6339375,12.2210476 L0.560390625,12.2210476 L0.560390625,12.0791429 L0.560390625,12.0791429 Z M0.560390625,11.593 L0.560390625,11.801381 L0.487546875,11.801381 L0.487546875,12.0096667 L0.414046875,12.0096667 L0.414046875,12.2904762 L0.487546875,12.2904762 L0.487546875,12.4987619 L0.560390625,12.4987619 L0.560390625,12.7070476 L0.778828125,12.7070476 L0.778828125,12.4987619 L0.852375,12.4987619 L0.852375,12.2904762 L0.923765625,12.2904762 L0.923765625,12.0096667 L0.852375,12.0096667 L0.852375,11.801381 L0.778828125,11.801381 L0.778828125,11.593 L0.560390625,11.593 L0.560390625,11.593 Z M1.36359375,12.0791429 L1.43564062,12.0791429 L1.43564062,11.9403333 L1.50998437,11.9403333 L1.50998437,12.0791429 L1.58203125,12.0791429 L1.58203125,12.2210476 L1.50998437,12.2210476 L1.50998437,12.3599048 L1.43564063,12.3599048 L1.43564063,12.2210476 L1.36359375,12.2210476 L1.36359375,12.0791429 Z M1.72846875,12.0791429 L1.80201563,12.0791429 L1.80201563,11.9403333 L1.8755625,11.9403333 L1.8755625,12.0791429 L1.94760938,12.0791429 L1.94760938,12.2210476 L1.8755625,12.2210476 L1.8755625,12.3599048 L1.80201563,12.3599048 L1.80201563,12.2210476 L1.72846875,12.2210476 L1.72846875,12.0791429 Z M1.72846875,11.593 L1.72846875,11.801381 L1.58207813,11.801381 L1.58207813,11.593 L1.36364062,11.593 L1.36364062,11.801381 L1.29079688,11.801381 L1.29079688,12.0096667 L1.21725,12.0096667 L1.21725,12.2904762 L1.29079688,12.2904762 L1.29079688,12.4987619 L1.36364062,12.4987619 L1.36364062,12.7070476 L1.58207813,12.7070476 L1.58207813,12.4987619 L1.72846875,12.4987619 L1.72846875,12.7070476 L1.94765625,12.7070476 L1.94765625,12.4987619 L2.02195313,12.4987619 L2.02195313,12.2904762 L2.09334375,12.2904762 L2.09334375,12.0096667 L2.02195313,12.0096667 L2.02195313,11.801381 L1.94765625,11.801381 L1.94765625,11.593 L1.72846875,11.593 L1.72846875,11.593 Z M0.414046875,11.4510952 L0.560390625,11.4510952 L0.560390625,11.0344762 L0.414046875,11.0344762 L0.414046875,11.4510952 Z M1.58207812,11.4510952 L1.72846875,11.4510952 L1.72846875,11.0344762 L1.58207812,11.0344762 L1.58207812,11.4510952 Z M2.75085938,11.4510952 L2.89654687,11.4510952 L2.89654687,11.0344762 L2.75085938,11.0344762 L2.75085938,11.4510952 Z M0.414046875,9.70890476 L0.560390625,9.70890476 L0.560390625,9.43119048 L0.414046875,9.43119048 L0.414046875,9.70890476 Z M2.75085938,9.70890476 L2.89654687,9.70890476 L2.89654687,9.43119048 L2.75085938,9.43119048 L2.75085938,9.70890476 Z M1.58207812,8.73366667 L1.72846875,8.73366667 L1.72846875,8.38642857 L1.58207812,8.38642857 L1.58207812,8.73366667 Z M0.414046875,7.79171429 L0.414046875,8 L0.414046875,8.003 L0.414046875,8.21128571 L0.560390625,8.21128571 L0.560390625,8.003 L0.560390625,8 L0.560390625,7.79171429 L0.414046875,7.79171429 Z M1.21720312,7.79171429 L1.21720312,8 L1.21720312,8.003 L1.21720312,8.21128571 L1.36359375,8.21128571 L1.36359375,8.003 L1.36359375,8 L1.36359375,7.79171429 L1.21720312,7.79171429 Z M1.94765625,7.79171429 L1.94765625,8 L1.94765625,8.003 L1.94765625,8.21128571 L2.09329688,8.21128571 L2.09329688,8.003 L2.09329688,8 L2.09329688,7.79171429 L1.94765625,7.79171429 Z M2.75085938,7.79171429 L2.75085938,8 L2.75085938,8.003 L2.75085938,8.21128571 L2.89654687,8.21128571 L2.89654687,8.003 L2.89654687,8 L2.89654687,7.79171429 L2.75085938,7.79171429 Z M1.80201562,7.54719048 L1.80201562,7.68604762 L1.72846875,7.68604762 L1.72846875,7.79171429 L1.58207812,7.79171429 L1.58207812,7.68604762 L1.51003125,7.68604762 L1.51003125,7.54719048 L1.36364062,7.54719048 L1.36364062,7.75547619 L1.4356875,7.75547619 L1.4356875,7.86114286 L1.51003125,7.86114286 L1.51003125,8 L1.51003125,8.003 L1.51003125,8.13890476 L1.4356875,8.13890476 L1.4356875,8.24457143 L1.36364062,8.24457143 L1.36364062,8.45285714 L1.51003125,8.45285714 L1.51003125,8.31404762 L1.58207812,8.31404762 L1.58207812,8.21133333 L1.72846875,8.21133333 L1.72846875,8.31404762 L1.80201562,8.31404762 L1.80201562,8.45285714 L1.94765625,8.45285714 L1.94765625,8.24457143 L1.87560937,8.24457143 L1.87560937,8.13890476 L1.8020625,8.13890476 L1.8020625,8.003 L1.8020625,8 L1.8020625,7.86114286 L1.87560937,7.86114286 L1.87560937,7.75547619 L1.94765625,7.75547619 L1.94765625,7.54719048 L1.80201562,7.54719048 L1.80201562,7.54719048 Z M1.58207812,7.61652381 L1.72846875,7.61652381 L1.72846875,7.26928571 L1.58207812,7.26928571 L1.58207812,7.61652381 Z M0.414046875,6.57180952 L0.560390625,6.57180952 L0.560390625,6.29409524 L0.414046875,6.29409524 L0.414046875,6.57180952 Z M2.75085938,6.57180952 L2.89654687,6.57180952 L2.89654687,6.29409524 L2.75085938,6.29409524 L2.75085938,6.57180952 Z M0.414046875,4.96857143 L0.560390625,4.96857143 L0.560390625,4.54895238 L0.414046875,4.54895238 L0.414046875,4.96857143 Z M1.58207812,4.96857143 L1.72846875,4.96857143 L1.72846875,4.54895238 L1.58207812,4.54895238 L1.58207812,4.96857143 Z M2.75085938,4.96857143 L2.89654687,4.96857143 L2.89654687,4.54895238 L2.75085938,4.54895238 L2.75085938,4.96857143 Z M0.9988125,8.00604762 L0.9988125,7.997 L0.9988125,7.997 L0.9988125,7.86109524 L1.14370313,7.86109524 L1.14370313,7.61952381 L1.29084375,7.61952381 L1.29084375,7.33871429 L1.51003125,7.33871429 L1.51003125,7.00966667 L1.58207813,7.00966667 L1.58207813,6.84961905 L1.65567188,6.84961905 L1.72846875,6.84961905 L1.72846875,7.00661905 L1.80201563,7.00661905 L1.80201563,7.3387619 L2.02190625,7.3387619 L2.02190625,7.47761905 L2.02190625,7.61952381 L2.16754688,7.61952381 L2.16754688,7.86109524 L2.31323438,7.86109524 L2.31323438,8 L2.31323438,8.13885714 L2.16754688,8.13885714 L2.16754688,8.38642857 L2.02190625,8.38642857 L2.02190625,8.52528571 L2.02190625,8.66414286 L1.80201563,8.66414286 L1.80201563,8.99328571 L1.72846875,8.99328571 L1.72846875,9.15028571 L1.65567188,9.15028571 L1.58207813,9.15028571 L1.58207813,8.99328571 L1.51003125,8.99328571 L1.51003125,8.66414286 L1.29084375,8.66414286 L1.29084375,8.38633333 L1.14370313,8.38633333 L1.14370313,8.1387619 L0.9988125,8.1387619 L0.9988125,8.00604762 Z M2.16754688,4.1292381 L2.16754688,4.47942857 L2.0205,4.47942857 L2.0205,4.82666667 L1.87560937,4.82666667 L1.87560937,5.177 L1.72846875,5.177 L1.72846875,5.45471429 L1.72846875,5.52419048 L1.58207812,5.52419048 L1.58207812,5.17695238 L1.4356875,5.17695238 L1.4356875,4.82661905 L1.29079687,4.82661905 L1.29079687,4.47938095 L1.14365625,4.47938095 L1.14365625,4.12914286 L0.998765625,4.12914286 L0.998765625,4.47938095 L0.852375,4.47938095 L0.852375,4.82661905 L0.705984375,4.82661905 L0.705984375,5.17695238 L0.56034375,5.17695238 L0.56034375,5.45466667 L0.56034375,5.52414286 L0.414046875,5.52414286 L0.414046875,5.87433333 L0.560390625,5.87433333 L0.560390625,6.22452381 L0.70603125,6.22452381 L0.70603125,6.5717619 L0.852421875,6.5717619 L0.852421875,6.91904762 L0.9988125,6.91904762 L0.9988125,6.5717619 L1.14370313,6.5717619 L1.14370313,6.22452381 L1.29084375,6.22452381 L1.29084375,5.87433333 L1.14370313,5.87433333 L1.14370313,5.45461905 L1.29084375,5.45461905 L1.29084375,5.52409524 L1.29084375,5.73542857 L1.43573438,5.73542857 L1.43573438,6.29404762 L1.51007812,6.29404762 L1.51007812,6.6382381 L1.29089062,6.6412381 L1.29089062,6.91904762 L1.14375,6.91904762 L1.14375,7.12733333 L0.998859375,7.12733333 L0.998859375,7.47752381 L0.85246875,7.47752381 L0.85246875,7.12733333 L0.706078125,7.12733333 L0.706078125,6.91904762 L0.5604375,6.91904762 L0.5604375,6.71066667 L0.414046875,6.71066667 L0.414046875,7.33866667 L0.560390625,7.33866667 L0.560390625,7.61947619 L0.70603125,7.61947619 L0.70603125,7.86104762 L0.852421875,7.86104762 L0.852421875,8 L0.852421875,8.003 L0.852421875,8.13890476 L0.70603125,8.13890476 L0.70603125,8.38647619 L0.560390625,8.38647619 L0.560390625,8.66428571 L0.414046875,8.66428571 L0.414046875,9.29228571 L0.560390625,9.29228571 L0.560390625,9.08090476 L0.70603125,9.08090476 L0.70603125,8.87261905 L0.852421875,8.87261905 L0.852421875,8.52538095 L0.9988125,8.52538095 L0.9988125,8.87261905 L1.14370313,8.87261905 L1.14370313,9.08090476 L1.29084375,9.08090476 L1.29084375,9.36171429 L1.51003125,9.36471429 L1.51003125,9.70890476 L1.4356875,9.70890476 L1.4356875,10.2675238 L1.29079688,10.2675238 L1.29079688,10.4758095 L1.29079688,10.5483333 L1.14365625,10.5483333 L1.14365625,10.125619 L1.29079688,10.125619 L1.29079688,9.77838095 L1.14365625,9.77838095 L1.14365625,9.43114286 L0.998765625,9.43114286 L0.998765625,9.08080952 L0.852375,9.08080952 L0.852375,9.43114286 L0.705984375,9.43114286 L0.705984375,9.77838095 L0.56034375,9.77838095 L0.56034375,10.125619 L0.414046875,10.125619 L0.414046875,10.4758095 L0.560390625,10.4758095 L0.560390625,10.5483333 L0.560390625,10.8230476 L0.70753125,10.8230476 L0.70753125,11.173381 L0.852421875,11.173381 L0.852421875,11.5235714 L0.9988125,11.5235714 L0.9988125,11.8708095 L0.9988125,11.8708095 L0.9988125,11.8708095 L1.14370313,11.8708095 L1.14370313,11.5235714 L1.29084375,11.5235714 L1.29084375,11.173381 L1.43573437,11.173381 L1.43573437,10.8230476 L1.582125,10.8230476 L1.582125,10.4758095 L1.72851562,10.4758095 L1.72851562,10.5483333 L1.72851562,10.8230476 L1.87565625,10.8230476 L1.87565625,11.173381 L2.022,11.173381 L2.022,11.5235714 L2.16764062,11.5235714 L2.16764062,11.8708095 L2.31332812,11.8708095 L2.31332812,11.5235714 L2.45896875,11.5235714 L2.45896875,11.173381 L2.6053125,11.173381 L2.6053125,10.8230476 L2.75090625,10.8230476 L2.75090625,10.4758095 L2.89654687,10.4758095 L2.89654687,10.125619 L2.75085937,10.125619 L2.75085937,9.77838095 L2.60526562,9.77838095 L2.60526562,9.43114286 L2.45892187,9.43114286 L2.45892187,9.08080952 L2.31328125,9.08080952 L2.31328125,9.43114286 L2.16759375,9.43114286 L2.16759375,9.77838095 L2.02054687,9.77838095 L2.02054687,10.125619 L2.16759375,10.125619 L2.16759375,10.4758095 L2.16759375,10.5483333 L2.02054687,10.5483333 L2.02054687,10.4758095 L2.02054687,10.2675238 L1.87565625,10.2675238 L1.87565625,9.70890476 L1.85479687,9.70890476 L1.80210937,9.70890476 L1.80210937,9.36166667 L1.85479687,9.36166667 L1.89421875,9.36166667 L1.94770313,9.36166667 L2.022,9.36166667 L2.022,9.08085714 L2.16764062,9.08085714 L2.16764062,8.87257143 L2.31332812,8.87257143 L2.31332812,8.52533333 L2.45896875,8.52533333 L2.45896875,8.87257143 L2.6053125,8.87257143 L2.6053125,9.08085714 L2.75170312,9.08085714 L2.75170312,9.2922381 L2.89659375,9.2922381 L2.89659375,8.6642381 L2.75165625,8.6642381 L2.75165625,8.38642857 L2.60526562,8.38642857 L2.60526562,8.13885714 L2.45892187,8.13885714 L2.45892187,8.003 L2.45892187,8 L2.45892187,7.86114286 L2.60526562,7.86114286 L2.60526562,7.61957143 L2.75165625,7.61957143 L2.75165625,7.3387619 L2.89659375,7.3387619 L2.89659375,6.7107619 L2.75165625,6.7107619 L2.75165625,6.91914286 L2.60526562,6.91914286 L2.60526562,7.12742857 L2.45892187,7.12742857 L2.45892187,7.47761905 L2.31328125,7.47761905 L2.31328125,7.12742857 L2.16759375,7.12742857 L2.16759375,6.91914286 L2.02195313,6.91914286 L2.02195313,6.64133333 L1.94765625,6.64133333 L1.89417187,6.64133333 L1.85475,6.64133333 L1.8020625,6.64133333 L1.8020625,6.29409524 L1.85475,6.29409524 L1.87560937,6.29409524 L1.87560937,5.73547619 L2.0205,5.73547619 L2.0205,5.52414286 L2.0205,5.45466667 L2.16754688,5.45466667 L2.16754688,5.52414286 L2.16754688,5.87433333 L2.0205,5.87433333 L2.0205,6.22452381 L2.16754688,6.22452381 L2.16754688,6.5717619 L2.31323437,6.5717619 L2.31323437,6.91904762 L2.458875,6.91904762 L2.458875,6.5717619 L2.60521875,6.5717619 L2.60521875,6.22452381 L2.7508125,6.22452381 L2.7508125,5.87433333 L2.89659375,5.87433333 L2.89659375,5.52414286 L2.75090625,5.52414286 L2.75090625,5.17690476 L2.6053125,5.17690476 L2.6053125,4.82657143 L2.45896875,4.82657143 L2.45896875,4.47933333 L2.31332812,4.47933333 L2.31332812,4.12914286 L2.16754688,4.12914286 L2.16754688,4.1292381 Z M0.560390625,3.782 L0.63253125,3.782 L0.63253125,3.64314286 L0.70753125,3.64314286 L0.70753125,3.782 L0.778828125,3.782 L0.778828125,3.92085714 L0.70753125,3.92085714 L0.70753125,4.0627619 L0.63253125,4.0627619 L0.63253125,3.92085714 L0.560390625,3.92085714 L0.560390625,3.782 L0.560390625,3.782 Z M0.560390625,3.50119048 L0.487546875,3.50119048 L0.487546875,3.71252381 L0.414046875,3.71252381 L0.414046875,3.99033333 L0.487546875,3.99033333 L0.487546875,4.20166667 L0.560390625,4.20166667 L0.560390625,4.41004762 L0.778828125,4.41004762 L0.778828125,4.20166667 L0.852375,4.20166667 L0.852375,3.99033333 L0.923765625,3.99033333 L0.923765625,3.71252381 L0.852375,3.71252381 L0.852375,3.50119048 L0.778828125,3.50119048 L0.778828125,3.29590476 L0.560390625,3.29590476 C0.560390625,3.29590476 0.560390625,3.50119048 0.560390625,3.50119048 Z M1.36359375,3.782 L1.43564062,3.782 L1.43564062,3.64314286 L1.50998437,3.64314286 L1.50998437,3.782 L1.58203125,3.782 L1.58203125,3.92085714 L1.50998437,3.92085714 L1.50998437,4.0627619 L1.43564063,4.0627619 L1.43564063,3.92085714 L1.36359375,3.92085714 L1.36359375,3.782 Z M1.72846875,3.782 L1.80201563,3.782 L1.80201563,3.64314286 L1.8755625,3.64314286 L1.8755625,3.782 L1.94760938,3.782 L1.94760938,3.92085714 L1.8755625,3.92085714 L1.8755625,4.0627619 L1.80201563,4.0627619 L1.80201563,3.92085714 L1.72846875,3.92085714 L1.72846875,3.782 Z M1.36359375,3.50119048 L1.29075,3.50119048 L1.29075,3.71252381 L1.21720312,3.71252381 L1.21720312,3.99033333 L1.29075,3.99033333 L1.29075,4.20166667 L1.36359375,4.20166667 L1.36359375,4.41004762 L1.58203125,4.41004762 L1.58203125,4.20166667 L1.72842187,4.20166667 L1.72842187,4.41004762 L1.94760937,4.41004762 L1.94760937,4.20166667 L2.02190625,4.20166667 L2.02190625,3.99033333 L2.09329688,3.99033333 L2.09329688,3.71252381 L2.02190625,3.71252381 L2.02190625,3.50119048 L1.94760937,3.50119048 L1.94760937,3.29590476 L1.72842187,3.29590476 L1.72842187,3.50119048 L1.58203125,3.50119048 L1.58203125,3.29590476 L1.36359375,3.29590476 L1.36359375,3.50119048 Z M2.52942188,3.779 L2.60226563,3.779 L2.60226563,3.64309524 L2.6758125,3.64309524 L2.6758125,3.779 L2.74935938,3.779 L2.74935938,3.92090476 L2.6758125,3.92090476 L2.6758125,4.05971429 L2.60226563,4.05971429 L2.60226563,3.92090476 L2.52942188,3.92090476 L2.52942188,3.779 Z M2.52942188,3.29290476 L2.52942188,3.50119048 L2.457375,3.50119048 L2.457375,3.71252381 L2.38382812,3.71252381 L2.38382812,3.99033333 L2.457375,3.99033333 L2.457375,4.19861905 L2.52942188,4.19861905 L2.52942188,4.407 L2.74940625,4.407 L2.74940625,4.19861905 L2.82225,4.19861905 L2.82225,3.99033333 L2.89429687,3.99033333 L2.89429687,3.71252381 L2.82225,3.71252381 L2.82225,3.50119048 L2.74940625,3.50119048 L2.74940625,3.29290476 L2.52942188,3.29290476 Z M0.414046875,3.154 L0.560390625,3.154 L0.560390625,2.73733333 L0.414046875,2.73733333 L0.414046875,3.154 Z M1.58207812,3.154 L1.72846875,3.154 L1.72846875,2.73733333 L1.58207812,2.73733333 L1.58207812,3.154 Z M2.75085938,3.154 L2.89654687,3.154 L2.89654687,2.73733333 L2.75085938,2.73733333 L2.75085938,3.154 Z M0.9988125,2.1787619 L1.14370313,2.1787619 L1.14370313,1.82842857 L0.9988125,1.82842857 L0.9988125,2.1787619 Z M2.16754688,2.1787619 L2.31323437,2.1787619 L2.31323437,1.82842857 L2.16754688,1.82842857 L2.16754688,2.1787619 Z M0.414046875,1.13104762 L0.560390625,1.13104762 L0.560390625,0.714380952 L0.414046875,0.714380952 L0.414046875,1.13104762 Z M1.58207812,1.13104762 L1.72846875,1.13104762 L1.72846875,0.714380952 L1.58207812,0.714380952 L1.58207812,1.13104762 Z M2.75085938,1.13104762 L2.89654687,1.13104762 L2.89654687,0.714380952 L2.75085938,0.714380952 L2.75085938,1.13104762 Z M0.70753125,1.82847619 L0.852421875,1.82847619 L0.852421875,1.4812381 L0.9988125,1.4812381 L0.9988125,1.13104762 L1.14370313,1.13104762 L1.14370313,1.4812381 L1.29084375,1.4812381 L1.29084375,1.82847619 L1.43573438,1.82847619 L1.43573438,2.17880952 L1.29084375,2.17880952 L1.29084375,2.52604762 L1.14370313,2.52604762 L1.14370313,2.8762381 L0.9988125,2.8762381 L0.9988125,2.52604762 L0.852421875,2.52604762 L0.852421875,2.17880952 L0.70753125,2.17880952 L0.70753125,1.82847619 Z M1.87560937,1.82847619 L2.02195312,1.82847619 L2.02195312,1.4812381 L2.16759375,1.4812381 L2.16759375,1.13104762 L2.31328125,1.13104762 L2.31328125,1.4812381 L2.45892187,1.4812381 L2.45892187,1.82847619 L2.60526562,1.82847619 L2.60526562,2.17880952 L2.45892187,2.17880952 L2.45892187,2.52604762 L2.31328125,2.52604762 L2.31328125,2.8762381 L2.16759375,2.8762381 L2.16759375,2.52604762 L2.02195313,2.52604762 L2.02195313,2.17880952 L1.87560937,2.17880952 L1.87560937,1.82847619 L1.87560937,1.82847619 Z M2.16754688,0.43352381 L2.16754688,0.783857143 L2.02190625,0.783857143 L2.02190625,1.13109524 L1.8755625,1.13109524 L1.8755625,1.48128571 L1.72842187,1.48128571 L1.72842187,1.82852381 L1.58203125,1.82852381 L1.58203125,1.48128571 L1.43564062,1.48128571 L1.43564062,1.13109524 L1.29075,1.13109524 L1.29075,0.783857143 L1.14515625,0.783857143 L1.14515625,0.43352381 L0.998765625,0.43352381 L0.998765625,0.783857143 L0.852375,0.783857143 L0.852375,1.13109524 L0.707484375,1.13109524 L0.707484375,1.48128571 L0.56034375,1.48128571 L0.56034375,1.82852381 L0.414046875,1.82852381 L0.414046875,2.17885714 L0.560390625,2.17885714 L0.560390625,2.52609524 L0.70753125,2.52609524 L0.70753125,2.87628571 L0.852421875,2.87628571 L0.852421875,3.22647619 L0.9988125,3.22647619 L0.9988125,3.57371429 L1.14370313,3.57371429 L1.14370313,3.22647619 L1.29084375,3.22647619 L1.29084375,2.87628571 L1.43573438,2.87628571 L1.43573438,2.52609524 L1.582125,2.52609524 L1.582125,2.17885714 L1.72851562,2.17885714 L1.72851562,2.52609524 L1.87565625,2.52609524 L1.87565625,2.87628571 L2.02054687,2.87628571 L2.02054687,3.22647619 L2.16759375,3.22647619 L2.16759375,3.57371429 L2.31328125,3.57371429 L2.31328125,3.22647619 L2.45892188,3.22647619 L2.45892188,2.87628571 L2.60526562,2.87628571 L2.60526562,2.52609524 L2.75085938,2.52609524 L2.75085938,2.17885714 L2.89654687,2.17885714 L2.89654687,1.82852381 L2.75160938,1.82852381 L2.75160938,1.48128571 L2.60521875,1.48128571 L2.60521875,1.13109524 L2.458875,1.13109524 L2.458875,0.783857143 L2.31323438,0.783857143 L2.31323438,0.43352381 C2.31323437,0.43352381 2.16754688,0.43352381 2.16754688,0.43352381 Z" id="Shape" fill="#FF4B55"></path>
            </g>
        </g>
    </g>
</svg>