<?xml version="1.0" encoding="UTF-8"?>
<svg width="24px" height="16px" viewBox="0 0 24 16" version="1.1" xmlns="http://www.w3.org/2000/svg" xmlns:xlink="http://www.w3.org/1999/xlink">
    <!-- Generator: Sketch 55.1 (78136) - https://sketchapp.com -->
    <title>china</title>
    <desc>Created with Sketch.</desc>
    <g id="Профайл" stroke="none" stroke-width="1" fill="none" fill-rule="evenodd">
        <g id="Профайл-—-языки" transform="translate(-465.000000, -801.000000)" fill-rule="nonzero">
            <g id="china" transform="translate(465.000000, 801.000000)">
                <path d="M23.5402105,15.9869048 L0.413005848,15.9869048 C0.184935673,15.9869048 0,15.7986667 0,15.5665238 L0,0.43352381 C0,0.201380952 0.184935673,0.0131428571 0.413005848,0.0131428571 L23.5402573,0.0131428571 C23.7683275,0.0131428571 23.9532632,0.201380952 23.9532632,0.43352381 L23.9532632,15.5665238 C23.9532632,15.7987143 23.7682807,15.9869048 23.5402105,15.9869048 Z" id="Path" fill="#FF4B55"></path>
                <g id="Group" transform="translate(1.824561, 1.190476)" fill="#FFE15A">
                    <path d="M2.15237427,1.32061905 L2.54610526,2.5222381 L3.79054971,2.53204762 C3.95167251,2.53328571 4.01847953,2.74261905 3.88884211,2.84 L2.88776608,3.59242857 L3.26311111,4.80014286 C3.31167251,4.95652381 3.13679532,5.08580952 3.0057076,4.99047619 L1.99330994,4.25385714 L0.980912281,4.99042857 C0.849824561,5.08580952 0.674947368,4.95642857 0.723508772,4.80009524 L1.0988538,3.59238095 L0.0977777778,2.84 C-0.0318596491,2.74257143 0.0349473684,2.53328571 0.196070175,2.53204762 L1.44051462,2.5222381 L1.83424561,1.32061905 C1.88523977,1.165 2.1014269,1.165 2.15237427,1.32061905 Z" id="Path"></path>
                    <path d="M6.67129825,1.61671429 L6.95363743,2.00861905 L7.40926316,1.86357143 C7.46825731,1.84480952 7.51677193,1.91328571 7.48065497,1.96428571 L7.20173099,2.35861905 L7.47803509,2.75485714 C7.51382456,2.80614286 7.46484211,2.87428571 7.4059883,2.85509524 L6.95129825,2.70695238 L6.66643275,3.09690476 C6.62956725,3.14738095 6.55073684,3.121 6.55050292,3.05814286 L6.54839766,2.57219048 L6.096,2.41690476 C6.03747368,2.3967619 6.0377076,2.31238095 6.09642105,2.29266667 L6.54975439,2.14047619 L6.55508772,1.65457143 C6.55574269,1.5917619 6.63476023,1.566 6.67129825,1.61671429 Z" id="Path"></path>
                    <path d="M4.95237427,0.448619048 L5.42699415,0.501095238 L5.62947368,0.061047619 C5.6557193,0.0040952381 5.73805848,0.0138571429 5.75069006,0.0754285714 L5.8482807,0.551047619 L6.3220117,0.611047619 C6.38334503,0.618809524 6.39967251,0.701571429 6.3460117,0.732857143 L5.93174269,0.974285714 L6.02208187,1.45142857 C6.03377778,1.5132381 5.96149708,1.55457143 5.91569591,1.51233333 L5.56205848,1.18590476 L5.14418713,1.4207619 C5.09010526,1.45119048 5.02905263,1.39395238 5.05440936,1.33657143 L5.25010526,0.893333333 L4.90147368,0.561333333 C4.85637427,0.518571429 4.89094737,0.441857143 4.95237427,0.448619048 Z" id="Path"></path>
                    <path d="M5.70269006,5.15780952 L5.42035088,5.54971429 L4.96472515,5.40466667 C4.90573099,5.38590476 4.85721637,5.45438095 4.89333333,5.50538095 L5.17225731,5.89971429 L4.89595322,6.29595238 C4.86016374,6.3472381 4.9091462,6.41538095 4.968,6.39619048 L5.42269006,6.24804762 L5.70755556,6.638 C5.74442105,6.68847619 5.82325146,6.66209524 5.82348538,6.5992381 L5.82559064,6.11328571 L6.2779883,5.958 C6.3365614,5.93785714 6.3362807,5.85347619 6.27756725,5.8337619 L5.82423392,5.68157143 L5.81890058,5.19566667 C5.81815205,5.13290476 5.73922807,5.10704762 5.70269006,5.15780952 Z" id="Path"></path>
                    <path d="M7.42152047,4.06014286 L6.94690058,4.11261905 L6.74442105,3.67257143 C6.71817544,3.61561905 6.63583626,3.62538095 6.62320468,3.68695238 L6.52556725,4.16257143 L6.05183626,4.22257143 C5.99050292,4.23033333 5.97417544,4.31309524 6.02783626,4.34438095 L6.44210526,4.58580952 L6.35176608,5.06295238 C6.34007018,5.1247619 6.41235088,5.16609524 6.45815205,5.12385714 L6.81178947,4.79742857 L7.22966082,5.03228571 C7.28374269,5.06271429 7.34479532,5.00547619 7.3194386,4.94809524 L7.12374269,4.50485714 L7.47237427,4.17285714 C7.51761404,4.13009524 7.48304094,4.05338095 7.42152047,4.06014286 Z" id="Path"></path>
                </g>
            </g>
        </g>
    </g>
</svg>