<?xml version="1.0" encoding="UTF-8"?>
<svg width="24px" height="16px" viewBox="0 0 24 16" version="1.1" xmlns="http://www.w3.org/2000/svg" xmlns:xlink="http://www.w3.org/1999/xlink">
    <!-- Generator: Sketch 55.1 (78136) - https://sketchapp.com -->
    <title>georgia</title>
    <desc>Created with Sketch.</desc>
    <g id="Профайл" stroke="none" stroke-width="1" fill="none" fill-rule="evenodd">
        <g id="Профайл-—-языки" transform="translate(-465.000000, -451.000000)" fill-rule="nonzero">
            <g id="georgia" transform="translate(465.000000, 451.000000)">
                <path d="M23.5402105,15.9869048 L0.413005848,15.9869048 C0.184935673,15.9869048 0,15.7986667 0,15.5665238 L0,0.43352381 C0,0.201380952 0.184935673,0.0131428571 0.413005848,0.0131428571 L23.5402573,0.0131428571 C23.7683275,0.0131428571 23.9532632,0.201380952 23.9532632,0.43352381 L23.9532632,15.5665238 C23.9532632,15.7987143 23.7682807,15.9869048 23.5402105,15.9869048 Z" id="Path" fill="#F5F5F5"></path>
                <g id="Group" fill="#FF4B55">
                    <polygon id="Path" points="23.9532164 6.73895238 13.2155789 6.73895238 13.2155789 0.0131904762 10.7376374 0.0131904762 10.7376374 6.73895238 0 6.73895238 0 9.26114286 10.7376374 9.26114286 10.7376374 15.9869048 13.2155789 15.9869048 13.2155789 9.26114286 23.9532164 9.26114286"></polygon>
                    <path d="M7.02077193,2.80161905 C6.61169591,2.84347619 6.21094737,2.88542857 5.80963743,2.92742857 C5.85090058,2.51890476 5.89207018,2.111 5.93328655,1.69466667 C5.55812865,1.74404762 5.17960234,1.74404762 4.80444444,1.69466667 C4.84556725,2.111 4.88678363,2.51895238 4.92809357,2.92742857 C4.52673684,2.88547619 4.12594152,2.84352381 3.71695906,2.80161905 C3.76547368,3.18342857 3.76547368,3.5687619 3.71695906,3.95057143 C4.12603509,3.90871429 4.52678363,3.8667619 4.92809357,3.8247619 C4.88683041,4.23328571 4.84561404,4.64119048 4.80444444,5.05752381 C5.17960234,5.00814286 5.55812865,5.00814286 5.93328655,5.05752381 C5.89216374,4.64119048 5.85090058,4.2332381 5.80963743,3.8247619 C6.21099415,3.86671429 6.61174269,3.90866667 7.02077193,3.95057143 C6.97230409,3.5687619 6.97230409,3.18338095 7.02077193,2.80161905 Z" id="Path"></path>
                    <path d="M20.2363509,2.80161905 C19.8272749,2.84347619 19.4265263,2.88542857 19.0252164,2.92742857 C19.0664795,2.51890476 19.1076491,2.111 19.1488655,1.69466667 C18.7737076,1.74404762 18.3951813,1.74404762 18.0200234,1.69466667 C18.0611462,2.111 18.1023626,2.51895238 18.1436725,2.92742857 C17.7423158,2.88547619 17.3415205,2.84352381 16.932538,2.80161905 C16.9810526,3.18342857 16.9810526,3.5687619 16.932538,3.95057143 C17.341614,3.90871429 17.7423626,3.8667619 18.1436725,3.8247619 C18.1024094,4.23328571 18.061193,4.64119048 18.0200234,5.05752381 C18.3951813,5.00814286 18.7737076,5.00814286 19.1488655,5.05752381 C19.1077427,4.64119048 19.0664795,4.2332381 19.0252164,3.8247619 C19.4265731,3.86671429 19.8273216,3.90866667 20.2363509,3.95057143 C20.187883,3.5687619 20.187883,3.18338095 20.2363509,2.80161905 Z" id="Path"></path>
                    <path d="M7.02077193,12.0495238 C6.61169591,12.091381 6.21094737,12.1333333 5.80963743,12.1753333 C5.85090058,11.7668095 5.89207018,11.3589048 5.93328655,10.9425714 C5.55812865,10.9919524 5.17960234,10.9919524 4.80444444,10.9425714 C4.84556725,11.3589048 4.88678363,11.7668571 4.92809357,12.1753333 C4.52673684,12.133381 4.12594152,12.0914286 3.71695906,12.0495238 C3.76547368,12.4313333 3.76547368,12.8166667 3.71695906,13.1984762 C4.12603509,13.156619 4.52678363,13.1146667 4.92809357,13.0726667 C4.88683041,13.4811905 4.84561404,13.8890952 4.80444444,14.3054286 C5.17960234,14.2560476 5.55812865,14.2560476 5.93328655,14.3054286 C5.89216374,13.8890952 5.85090058,13.4811429 5.80963743,13.0726667 C6.21099415,13.114619 6.61174269,13.1565714 7.02077193,13.1984762 C6.97230409,12.8167143 6.97230409,12.4313333 7.02077193,12.0495238 Z" id="Path"></path>
                    <path d="M20.2363509,12.0495238 C19.8272749,12.091381 19.4265263,12.1333333 19.0252164,12.1753333 C19.0664795,11.7668095 19.1076491,11.3589048 19.1488655,10.9425714 C18.7737076,10.9919524 18.3951813,10.9919524 18.0200234,10.9425714 C18.0611462,11.3589048 18.1023626,11.7668571 18.1436725,12.1753333 C17.7423158,12.133381 17.3415205,12.0914286 16.932538,12.0495238 C16.9810526,12.4313333 16.9810526,12.8166667 16.932538,13.1984762 C17.341614,13.156619 17.7423626,13.1146667 18.1436725,13.0726667 C18.1024094,13.4811905 18.061193,13.8890952 18.0200234,14.3054286 C18.3951813,14.2560476 18.7737076,14.2560476 19.1488655,14.3054286 C19.1077427,13.8890952 19.0664795,13.4811429 19.0252164,13.0726667 C19.4265731,13.114619 19.8273216,13.1565714 20.2363509,13.1984762 C20.187883,12.8167143 20.187883,12.4313333 20.2363509,12.0495238 Z" id="Path"></path>
                </g>
            </g>
        </g>
    </g>
</svg>