<?xml version="1.0" encoding="UTF-8"?>
<svg width="24px" height="16px" viewBox="0 0 24 16" version="1.1" xmlns="http://www.w3.org/2000/svg" xmlns:xlink="http://www.w3.org/1999/xlink">
    <!-- Generator: Sketch 55.1 (78136) - https://sketchapp.com -->
    <title>kyrgyzstan</title>
    <desc>Created with Sketch.</desc>
    <g id="Профайл" stroke="none" stroke-width="1" fill="none" fill-rule="evenodd">
        <g id="Профайл-—-языки" transform="translate(-465.000000, -515.000000)" fill-rule="nonzero">
            <g id="kyrgyzstan" transform="translate(465.000000, 515.000000)">
                <path d="M23.5402105,15.9869048 L0.413005848,15.9869048 C0.184935673,15.9869048 0,15.7986667 0,15.5665238 L0,0.43352381 C0,0.201380952 0.184935673,0.0131428571 0.413005848,0.0131428571 L23.5402573,0.0131428571 C23.7683275,0.0131428571 23.9532632,0.201380952 23.9532632,0.43352381 L23.9532632,15.5665238 C23.9532632,15.7987143 23.7682807,15.9869048 23.5402105,15.9869048 Z" id="Path" fill="#FF4B55"></path>
                <g id="Group" transform="translate(7.391813, 3.333333)" fill="#FFE15A">
                    <path d="M8.95312281,5.92038095 C8.95312281,5.92038095 8.13038596,5.7807619 7.52093567,5.26633333 C7.3411462,5.11457143 7.08023392,4.99861905 6.82610526,4.91290476 C7.03040936,4.90366667 7.24711111,4.90947619 7.45188304,4.95161905 C8.30016374,5.12619048 9.12266667,4.70709524 9.12266667,4.70709524 C9.12266667,4.70709524 8.29277193,4.79233333 7.57202339,4.45885714 C7.37707602,4.36866667 7.12425731,4.32619048 6.87747368,4.30828571 C7.05497076,4.25633333 7.24332164,4.21566667 7.42928655,4.20519048 C8.2934269,4.15642857 8.98554386,3.53980952 8.98554386,3.53980952 C8.98554386,3.53980952 8.20360234,3.8352381 7.42353216,3.69747619 C7.19635088,3.65733333 6.91747368,3.68738095 6.65796491,3.74047619 C6.82867836,3.63133333 7.01665497,3.52933333 7.21169591,3.46366667 C8.03330994,3.18695238 8.54325146,2.4077619 8.54325146,2.4077619 C8.54325146,2.4077619 7.86418713,2.9007619 7.07583626,2.97509524 C6.84173099,2.99714286 6.57511111,3.10414286 6.33450292,3.22733333 C6.47330994,3.07242857 6.63176608,2.91909524 6.80720468,2.80061905 C7.5282807,2.31352381 7.81876023,1.42519048 7.81876023,1.42519048 C7.81876023,1.42519048 7.29118129,2.0827619 6.54980117,2.36571429 C6.34769591,2.44285714 6.13824561,2.59733333 5.95012865,2.76380952 C6.04004678,2.59742857 6.14573099,2.431 6.27129825,2.28804762 C6.84809357,1.63133333 6.9085848,0.697142857 6.9085848,0.697142857 C6.9085848,0.697142857 6.56130994,1.46904762 5.9142924,1.93347619 C5.72566082,2.06890476 5.54938012,2.29119048 5.40276023,2.51585714 C5.44757895,2.31557143 5.50947368,2.10785714 5.60177778,1.92066667 C5.99003509,1.13338095 5.80874854,0.21552381 5.80874854,0.21552381 C5.80874854,0.21552381 5.67157895,1.05295238 5.16617544,1.67328571 C5.01707602,1.85628571 4.90315789,2.12185714 4.81894737,2.38061905 C4.80987135,2.17266667 4.81557895,1.95209524 4.85698246,1.74366667 C5.02849123,0.880238095 4.61674854,0.043047619 4.61674854,0.043047619 C4.61674854,0.043047619 4.70049123,0.887761905 4.37281871,1.62138095 C4.28421053,1.81980952 4.24247953,2.07714286 4.22488889,2.32833333 C4.17384795,2.14766667 4.13389474,1.95595238 4.12360234,1.76666667 C4.07569591,0.887095238 3.46989474,0.182619048 3.46989474,0.182619048 C3.46989474,0.182619048 3.76014035,0.97852381 3.62479532,1.77252381 C3.58535673,2.0037619 3.61487719,2.28761905 3.66704094,2.55180952 C3.55981287,2.37804762 3.45960234,2.18671429 3.39508772,1.98814286 C3.12322807,1.15185714 2.3577076,0.632809524 2.3577076,0.632809524 C2.3577076,0.632809524 2.84205848,1.324 2.91508772,2.12642857 C2.93674854,2.36471429 3.04187135,2.63619048 3.16294737,2.88104762 C3.01076023,2.7397619 2.86011696,2.57847619 2.74367251,2.39985714 C2.26512281,1.66590476 1.39237427,1.37028571 1.39237427,1.37028571 C1.39237427,1.37028571 2.03840936,1.90728571 2.31639766,2.66190476 C2.39218713,2.86761905 2.54395322,3.08085714 2.70750877,3.27228571 C2.54404678,3.1807619 2.38053801,3.07319048 2.24009357,2.94538095 C1.59490058,2.35828571 0.677099415,2.29671429 0.677099415,2.29671429 C0.677099415,2.29671429 1.43546199,2.65019048 1.89174269,3.30880952 C2.02470175,3.5007619 2.2431345,3.6802381 2.46376608,3.82947619 C2.26704094,3.78385714 2.06297076,3.72085714 1.87911111,3.62690476 C1.10563743,3.23171429 0.203883041,3.4162381 0.203883041,3.4162381 C0.203883041,3.4162381 1.02661988,3.55585714 1.63607018,4.07028571 C1.81585965,4.22204762 2.07677193,4.338 2.33099415,4.42371429 C2.12669006,4.43295238 1.9099883,4.42714286 1.70521637,4.385 C0.856935673,4.21042857 0.0344327485,4.62952381 0.0344327485,4.62952381 C0.0344327485,4.62952381 0.864327485,4.54428571 1.58507602,4.87780952 C1.78002339,4.968 2.03284211,5.01047619 2.27962573,5.02838095 C2.10212865,5.08033333 1.91377778,5.121 1.72781287,5.13147619 C0.863672515,5.1802381 0.171555556,5.79685714 0.171555556,5.79685714 C0.171555556,5.79685714 0.953497076,5.50142857 1.73356725,5.63919048 C1.96074854,5.67933333 2.23962573,5.64928571 2.49918129,5.59619048 C2.32846784,5.70533333 2.14049123,5.80733333 1.94540351,5.873 C1.12378947,6.14971429 0.613847953,6.92890476 0.613847953,6.92890476 C0.613847953,6.92890476 1.29291228,6.43590476 2.08126316,6.36157143 C2.31536842,6.33952381 2.58208187,6.23252381 2.82264327,6.10928571 C2.68383626,6.26419048 2.52538012,6.41752381 2.34989474,6.53604762 C1.62881871,7.02314286 1.33833918,7.91147619 1.33833918,7.91147619 C1.33833918,7.91147619 1.86591813,7.25390476 2.60729825,6.97095238 C2.80935673,6.89380952 3.0188538,6.73933333 3.20692398,6.57285714 C3.11705263,6.73919048 3.01132164,6.90566667 2.88584795,7.04857143 C2.30905263,7.70528571 2.2485614,8.63947619 2.2485614,8.63947619 C2.2485614,8.63947619 2.59583626,7.86757143 3.24290058,7.40314286 C3.43153216,7.26771429 3.60781287,7.04542857 3.75443275,6.82085714 C3.70961404,7.02114286 3.6477193,7.22880952 3.5554152,7.416 C3.16715789,8.20328571 3.34844444,9.12114286 3.34844444,9.12114286 C3.34844444,9.12114286 3.48561404,8.28371429 3.99101754,7.66338095 C4.14011696,7.48038095 4.25403509,7.21480952 4.33824561,6.95604762 C4.34732164,7.16409524 4.34161404,7.38461905 4.30021053,7.59304762 C4.12870175,8.45647619 4.54044444,9.29361905 4.54044444,9.29361905 C4.54044444,9.29361905 4.45670175,8.44895238 4.78437427,7.71533333 C4.87298246,7.51690476 4.91471345,7.25952381 4.93230409,7.00838095 C4.98334503,7.18904762 5.02329825,7.3807619 5.03359064,7.57004762 C5.08149708,8.44961905 5.68729825,9.15409524 5.68729825,9.15409524 C5.68729825,9.15409524 5.39705263,8.35814286 5.53239766,7.56419048 C5.57183626,7.33295238 5.54231579,7.04909524 5.49015205,6.78495238 C5.59738012,6.95871429 5.69759064,7.15 5.76210526,7.34857143 C6.03396491,8.18485714 6.79948538,8.70390476 6.79948538,8.70390476 C6.79948538,8.70390476 6.3151345,8.01271429 6.24210526,7.2102381 C6.22044444,6.97195238 6.11532164,6.70047619 5.99424561,6.45561905 C6.14643275,6.59690476 6.29707602,6.75819048 6.41352047,6.93680952 C6.89207018,7.6707619 7.76481871,7.96642857 7.76481871,7.96642857 C7.76481871,7.96642857 7.11878363,7.42942857 6.84079532,6.67480952 C6.76500585,6.46914286 6.61323977,6.25590476 6.44968421,6.06447619 C6.61309942,6.15595238 6.77660819,6.26357143 6.91705263,6.39128571 C7.56224561,6.97838095 8.48004678,7.03995238 8.48004678,7.03995238 C8.48004678,7.03995238 7.72168421,6.68647619 7.26540351,6.02785714 C7.13235088,5.83585714 6.91396491,5.65638095 6.69323977,5.50719048 C6.8900117,5.55280952 7.09403509,5.61580952 7.27794152,5.7097619 C8.05136842,6.10490476 8.95312281,5.92038095 8.95312281,5.92038095 Z M4.58381287,6.80119048 C3.42577778,6.80119048 2.48701754,5.84566667 2.48701754,4.66695238 C2.48701754,3.4882381 3.42577778,2.53271429 4.58381287,2.53271429 C5.74184795,2.53271429 6.68060819,3.4882381 6.68060819,4.66695238 C6.68060819,5.84566667 5.74184795,6.80119048 4.58381287,6.80119048 Z" id="Shape"></path>
                    <path d="M3.91901754,3.8032381 C3.96374269,3.76771429 4.00823392,3.73204762 4.0534269,3.70033333 C3.75635088,3.56280952 3.48893567,3.4967619 3.30133333,3.46719048 C3.27148538,3.5002381 3.24453801,3.53571429 3.21716959,3.57095238 C3.40140351,3.60738095 3.64893567,3.67690476 3.91901754,3.8032381 Z" id="Path"></path>
                    <path d="M3.39153216,3.373 C3.59312281,3.39619048 3.88495906,3.45728571 4.20874854,3.59904762 C4.26301754,3.56609524 4.31700585,3.53695238 4.37108772,3.50880952 C4.02147368,3.36271429 3.70587135,3.30828571 3.48865497,3.29147619 C3.456,3.31842857 3.42212865,3.3437619 3.39153216,3.373 Z" id="Path"></path>
                    <path d="M4.44126316,4.3622381 C4.3994386,4.32204762 4.35709942,4.284 4.31438596,4.24804762 C3.92182456,4.62833333 3.57838596,5.18295238 3.42334503,5.98766667 C3.4797193,6.039 3.53567251,6.09090476 3.59822222,6.13457143 C3.71214035,5.31614286 4.04603509,4.7512381 4.44126316,4.3622381 Z" id="Path"></path>
                    <path d="M4.28902924,4.0087619 C4.33352047,3.97233333 4.37796491,3.9357619 4.42306433,3.90319048 C4.36814035,3.86752381 4.31340351,3.83619048 4.2588538,3.80566667 C4.21211696,3.8382381 4.16533333,3.8697619 4.11915789,3.90638095 C4.17567251,3.93804762 4.23218713,3.9717619 4.28902924,4.0087619 Z" id="Path"></path>
                    <path d="M5.37384795,3.90571429 C5.71040936,4.20661905 6.01805848,4.63033333 6.23695906,5.2177619 C6.2931462,5.04333333 6.3311345,4.86047619 6.3311345,4.66695238 C6.3311345,4.29952381 6.2214269,3.9582381 6.03387135,3.67480952 C5.86030409,3.70995238 5.62727485,3.77861905 5.37384795,3.90571429 Z" id="Path"></path>
                    <path d="M4.45389474,4.12309524 C4.49773099,4.1562381 4.54067836,4.19366667 4.58381287,4.23047619 C4.62690058,4.19361905 4.66984795,4.1562381 4.71373099,4.12309524 C4.67059649,4.08652381 4.62755556,4.05052381 4.58381287,4.01766667 C4.54007018,4.05057143 4.49707602,4.08652381 4.45389474,4.12309524 Z" id="Path"></path>
                    <path d="M4.58381287,3.60809524 C4.52893567,3.63642857 4.4740117,3.66838095 4.41880702,3.70161905 C4.47373099,3.731 4.5285614,3.76252381 4.58381287,3.79704762 C4.63906433,3.76257143 4.69394152,3.73104762 4.74881871,3.70161905 C4.69361404,3.66833333 4.63869006,3.63642857 4.58381287,3.60809524 Z" id="Path"></path>
                    <path d="M3.23293567,5.7822381 C3.41777778,5.01390476 3.76622222,4.48752381 4.15616374,4.12542857 C4.10166082,4.0862381 4.04734503,4.05028571 3.99288889,4.01704762 C3.61763743,4.35290476 3.27808187,4.8382381 3.0688655,5.53747619 C3.11709942,5.6242381 3.17160234,5.70542857 3.23293567,5.7822381 Z" id="Path"></path>
                    <path d="M3.79377778,3.90571429 C3.54035088,3.77857143 3.30732164,3.71 3.1337076,3.6747619 C2.94615205,3.95819048 2.83644444,4.29947619 2.83644444,4.66690476 C2.83644444,4.86042857 2.87443275,5.04328571 2.93061988,5.21771429 C3.14956725,4.63028571 3.45716959,4.20661905 3.79377778,3.90571429 Z" id="Path"></path>
                    <path d="M4.58381287,3.40852381 C4.95555556,3.25219048 5.29847953,3.19666667 5.54236257,3.182 C5.26694737,2.99742857 4.93819883,2.88842857 4.58381287,2.88842857 C4.2294269,2.88842857 3.90067836,2.99747619 3.62526316,3.182 C3.8691462,3.19666667 4.21207018,3.25214286 4.58381287,3.40852381 Z" id="Path"></path>
                    <path d="M4.58381287,4.51266667 C4.23532164,4.9057619 3.94769591,5.47014286 3.85436257,6.27842857 C4.07695906,6.38309524 4.32252632,6.44547619 4.58381287,6.44547619 C4.8451462,6.44547619 5.09066667,6.38309524 5.31326316,6.27842857 C5.21992982,5.47019048 4.93230409,4.9057619 4.58381287,4.51266667 Z" id="Path"></path>
                    <path d="M5.17473684,4.01704762 C5.12032749,4.05038095 5.0660117,4.0862381 5.01146199,4.12542857 C5.40135673,4.48747619 5.74984795,5.01390476 5.93469006,5.7822381 C5.99602339,5.70538095 6.05052632,5.6242381 6.09876023,5.53747619 C5.88959064,4.83828571 5.5499883,4.35290476 5.17473684,4.01704762 Z" id="Path"></path>
                    <path d="M5.74423392,5.98766667 C5.58919298,5.18295238 5.24575439,4.62838095 4.85319298,4.24804762 C4.81043275,4.284 4.76814035,4.32204762 4.72631579,4.3622381 C5.12154386,4.7512381 5.4554386,5.31614286 5.56930994,6.13452381 C5.63190643,6.09090476 5.68785965,6.039 5.74423392,5.98766667 Z" id="Path"></path>
                    <path d="M4.79653801,3.5087619 C4.85061988,3.53690476 4.90465497,3.56609524 4.95887719,3.599 C5.28266667,3.4572381 5.57450292,3.39614286 5.77609357,3.37295238 C5.74549708,3.34371429 5.71162573,3.31838095 5.67897076,3.29138095 C5.46175439,3.30828571 5.14615205,3.36271429 4.79653801,3.5087619 Z" id="Path"></path>
                    <path d="M4.87859649,4.0087619 C4.9354386,3.9717619 4.99195322,3.93809524 5.04846784,3.90638095 C5.00233918,3.8697619 4.95550877,3.8382381 4.90877193,3.80566667 C4.85422222,3.8362381 4.79953216,3.86752381 4.7445614,3.90319048 C4.78961404,3.9357619 4.83410526,3.97238095 4.87859649,4.0087619 Z" id="Path"></path>
                    <path d="M5.24860819,3.8032381 C5.51869006,3.67690476 5.76622222,3.60738095 5.95036257,3.571 C5.92299415,3.5357619 5.89609357,3.5002381 5.86619883,3.4672381 C5.67859649,3.49680952 5.41118129,3.56280952 5.11410526,3.70038095 C5.15939181,3.732 5.20392982,3.76771429 5.24860819,3.8032381 Z" id="Path"></path>
                </g>
            </g>
        </g>
    </g>
</svg>