<?xml version="1.0" encoding="UTF-8"?>
<svg width="24px" height="16px" viewBox="0 0 24 16" version="1.1" xmlns="http://www.w3.org/2000/svg" xmlns:xlink="http://www.w3.org/1999/xlink">
    <!-- Generator: Sketch 55.1 (78136) - https://sketchapp.com -->
    <title>moldova</title>
    <desc>Created with Sketch.</desc>
    <g id="Профайл" stroke="none" stroke-width="1" fill="none" fill-rule="evenodd">
        <g id="Профайл-—-языки" transform="translate(-465.000000, -611.000000)" fill-rule="nonzero">
            <g id="moldova" transform="translate(465.000000, 611.000000)">
                <path d="M15.9999844,0.013 L23.5861875,0.013 C23.8147031,0.013 24,0.201238095 24,0.433380952 L24,15.566381 C24,15.7985238 23.8147031,15.9867619 23.5861875,15.9867619 L15.9999844,15.9867619 L15.9999844,0.013 Z" id="Path" fill="#FF4B55"></path>
                <rect id="Rectangle" fill="#FFE15A" x="8.00015625" y="0.0131904762" width="8.00015625" height="15.9738095"></rect>
                <path d="M0.4138125,0.013 L8.00001562,0.013 L8.00001562,15.9867143 L0.4138125,15.9867143 C0.185296875,15.9867143 0,15.7984762 0,15.5663333 L0,0.433333333 C0,0.201190476 0.185296875,0.013 0.4138125,0.013 Z" id="Path" fill="#41479B"></path>
                <polygon id="Rectangle" fill="#FFCD5A" transform="translate(13.100245, 10.211146) rotate(140.807752) translate(-13.100245, -10.211146) " points="12.972381 9.46291216 13.2396479 9.46084752 13.2281084 10.9593804 12.9608415 10.961445"></polygon>
                <polygon id="Rectangle" fill="#FFBE5A" transform="translate(12.836966, 9.884386) rotate(140.831935) translate(-12.836966, -9.884386) " points="12.5722986 9.5566834 13.1067103 9.55255576 13.1016325 10.2120886 12.5672207 10.2162163"></polygon>
                <polygon id="Rectangle" fill="#FFCD5A" transform="translate(11.014926, 10.211236) rotate(39.192248) translate(-11.014926, -10.211236) " points="10.8755228 9.46093681 11.1427897 9.46300145 11.1543292 10.9615343 10.8870623 10.9594696"></polygon>
                <polygon id="Rectangle" fill="#FFBE5A" transform="translate(11.277312, 9.884447) rotate(39.168065) translate(-11.277312, -9.884447) " points="11.007567 9.55261694 11.5419788 9.55674458 11.5470567 10.2162774 11.0126449 10.2121498"></polygon>
                <polygon id="Path" fill="#FFE15A" points="11.7253125 9.98014286 11.0614219 11.3290476 11.9908594 12.0034762 11.9908594 10.1150476"></polygon>
                <polygon id="Path" fill="#FFCD5A" points="12.2564531 9.98014286 12.9203438 11.3290476 11.9908594 12.0034762 11.9908594 10.1150476"></polygon>
                <path d="M10.1319375,9.98014286 L10.1319375,6.473 L10.5302812,6.473 C10.5302812,6.473 10.5302812,8.76614286 10.5302812,9.1707619 C10.5302812,9.57547619 10.1319375,9.98014286 10.1319375,9.98014286 Z" id="Path" fill="#FFBE5A"></path>
                <path d="M9.86634375,10.654619 L9.86634375,6.473 L10.2646875,6.473 C10.2646875,6.473 10.2646875,9.44057143 10.2646875,9.8452381 C10.2646406,10.2499048 9.86634375,10.654619 9.86634375,10.654619 Z" id="Path" fill="#FFCD5A"></path>
                <path d="M9.60079688,11.1941905 L9.60079688,6.47304762 L9.99914062,6.47304762 C9.99914062,6.47304762 9.99914062,9.98019048 9.99914062,10.3848571 C9.99914062,10.7894762 9.60079688,11.1941905 9.60079688,11.1941905 Z" id="Path" fill="#FFE15A"></path>
                <path d="M10.5302813,6.60790476 C10.5302813,6.60790476 10.5302813,8.53004762 10.5302813,9.17080952 C10.5302813,9.84528571 11.4929531,9.75533333 11.9908594,10.2499048 C12.4888125,9.75528571 13.4514375,9.8452381 13.4514375,9.17080952 C13.4514375,8.53009524 13.4514375,6.60790476 13.4514375,6.60790476 L10.5302813,6.60790476 L10.5302813,6.60790476 Z" id="Path" fill="#FF4B55"></path>
                <path d="M10.5302813,8.09171429 C10.5302813,8.5187619 10.5302813,8.93304762 10.5302813,9.17085714 C10.5302813,9.84533333 11.4929531,9.75538095 11.9908594,10.2499524 C12.4888125,9.75533333 13.4514375,9.84528571 13.4514375,9.17080952 C13.4514375,8.93304762 13.4514375,8.51871429 13.4514375,8.09166667 L10.5302813,8.09171429 L10.5302813,8.09171429 Z" id="Path" fill="#41479B"></path>
                <g id="Group" transform="translate(10.640625, 4.571429)" fill="#FFE15A">
                    <polygon id="Path" points="1.35023438 5.27380952 0.951890625 5.00404762 0.951890625 4.86914286 1.0846875 4.73428571 1.0846875 3.92490476 0.68634375 3.65514286 1.0846875 3.11557143 1.2174375 3.11557143 1.35023438 3.25052381 1.48303125 3.11557143 1.61582813 3.11557143 2.01417187 3.65514286 1.61582813 3.92490476 1.61582813 4.73428571 1.74857812 4.86914286 1.74857812 5.00404762"></polygon>
                    <path d="M0.81909375,2.17138095 C0.81909375,2.17138095 0.288,2.30628571 0.288,2.84585714 C0.288,3.38542857 0.81909375,3.65519048 0.81909375,3.65519048 L1.08464062,3.25052381 C0.287953125,2.98071429 0.81909375,2.17138095 0.81909375,2.17138095 Z" id="Path"></path>
                    <path d="M1.881375,2.17138095 C1.881375,2.17138095 2.41246875,2.30628571 2.41246875,2.84585714 C2.41246875,3.38542857 1.881375,3.65519048 1.881375,3.65519048 L1.61582813,3.25052381 C2.41246875,2.98071429 1.881375,2.17138095 1.881375,2.17138095 Z" id="Path"></path>
                    <polygon id="Path" points="0.02240625 3.52028571 0.287953125 3.65514286 0.553546875 3.52028571 0.287953125 3.38538095"></polygon>
                    <polygon id="Path" points="2.14692187 3.52028571 2.41246875 3.65514286 2.6780625 3.52028571 2.41246875 3.38538095"></polygon>
                    <polygon id="Path" points="1.35023438 2.23880952 1.44679688 2.33928571 1.5849375 2.33757143 1.58334375 2.47795238 1.68220313 2.57604762 1.58334375 2.67409524 1.5849375 2.81447619 1.44679688 2.81280952 1.35023438 2.91328571 1.25371875 2.81280952 1.11548437 2.81447619 1.11717187 2.67409524 1.0183125 2.57604762 1.11717187 2.47795238 1.11548437 2.33757143 1.25371875 2.33928571"></polygon>
                    <path d="M0.4485,4.10938095 L0.54421875,4.21757143 L0.67734375,4.16395238 C0.746296875,4.13619048 0.810984375,4.21233333 0.773859375,4.27757143 L0.7021875,4.40352381 L0.793546875,4.51561905 C0.84084375,4.57361905 0.789515625,4.65971429 0.717,4.644 L0.5769375,4.61361905 L0.50025,4.73652381 C0.460546875,4.80014286 0.364125,4.77714286 0.356390625,4.70219048 L0.341484375,4.55747619 L0.20278125,4.52138095 C0.130921875,4.50266667 0.122671875,4.40242857 0.19040625,4.37185714 L0.32128125,4.31280952 L0.312234375,4.16761905 C0.3076875,4.09228571 0.398953125,4.05333333 0.4485,4.10938095 Z" id="Path"></path>
                    <path d="M2.21704688,4.41690476 C2.24634375,4.26347619 2.3709375,4.15485714 2.51620313,4.13847619 C2.48639063,4.12219048 2.45470313,4.10871429 2.41978125,4.10185714 C2.23378125,4.0652381 2.05378125,4.18871429 2.01773438,4.37761905 C1.9816875,4.56657143 2.1031875,4.74942857 2.2891875,4.78604762 C2.32415625,4.79295238 2.35851562,4.79252381 2.39207813,4.78871429 C2.26340625,4.71838095 2.18779688,4.57033333 2.21704688,4.41690476 Z" id="Path"></path>
                    <path d="M0.81909375,2.03647619 L1.08464062,0.687571429 L0.553546875,0.282904762 L0.68634375,0.148 L0.951890625,0.148 C0.951890625,0.148 1.0846875,0.0130952381 1.35023437,0.0130952381 C1.61578125,0.0130952381 1.88132812,0.148 1.88132812,0.552619048 C1.88132812,0.957238095 2.014125,2.03638095 2.014125,2.03638095 L0.81909375,2.03638095 L0.81909375,2.03647619 L0.81909375,2.03647619 Z" id="Path"></path>
                </g>
                <path d="M10.5302812,6.06833333 C10.2369375,6.06833333 9.9991875,6.30990476 9.9991875,6.60785714 L11.0614687,6.60785714 C11.0614219,6.30990476 10.8235781,6.06833333 10.5302812,6.06833333 Z" id="Path" fill="#FFAA5A"></path>
                <g id="Group" transform="translate(9.562500, 5.380952)" fill="#FFBE5A">
                    <path d="M0.834984375,1.22695238 L0.038296875,1.22695238 L0.038296875,0.329095238 C0.038296875,0.15447619 0.17765625,0.012952381 0.3495,0.012952381 L0.52378125,0.012952381 C0.695671875,0.012952381 0.834984375,0.15452381 0.834984375,0.329095238 L0.834984375,1.22695238 L0.834984375,1.22695238 Z" id="Path"></path>
                    <path d="M4.28732813,4.59919048 L4.28732813,1.09204762 L3.88898438,1.09204762 C3.88898438,1.09204762 3.88898438,3.38519048 3.88898438,3.78980952 C3.88898438,4.19452381 4.28732813,4.59919048 4.28732813,4.59919048 Z" id="Path"></path>
                </g>
                <path d="M14.115375,10.654619 L14.115375,6.473 L13.7170312,6.473 C13.7170312,6.473 13.7170312,9.44057143 13.7170312,9.8452381 C13.7170312,10.2499048 14.115375,10.654619 14.115375,10.654619 Z" id="Path" fill="#FFCD5A"></path>
                <path d="M14.3809687,11.1941905 L14.3809687,6.47304762 L13.982625,6.47304762 C13.982625,6.47304762 13.982625,9.98019048 13.982625,10.3848571 C13.9825781,10.7894762 14.3809687,11.1941905 14.3809687,11.1941905 Z" id="Path" fill="#FFE15A"></path>
                <path d="M13.4514844,6.06833333 C13.7448281,6.06833333 13.9825781,6.30990476 13.9825781,6.60785714 L12.9202969,6.60785714 C12.9203437,6.30990476 13.1581406,6.06833333 13.4514844,6.06833333 Z" id="Path" fill="#FFAA5A"></path>
                <path d="M13.5842813,6.60790476 L14.3809687,6.60790476 L14.3809687,5.71004762 C14.3809687,5.53542857 14.2416094,5.39390476 14.0697656,5.39390476 L13.8955312,5.39390476 C13.7236406,5.39390476 13.5843281,5.53547619 13.5843281,5.71004762 L13.5842813,6.60790476 L13.5842813,6.60790476 Z" id="Path" fill="#FFBE5A"></path>
                <polygon id="Rectangle" fill="#FFAA5A" transform="translate(14.107071, 9.642727) rotate(31.339120) translate(-14.107071, -9.642727) " points="13.9944534 7.83375634 14.1944796 7.83516072 14.2196884 11.451698 14.0196622 11.4502937"></polygon>
                <polygon id="Rectangle" fill="#FFE15A" transform="translate(13.503763, 10.725335) rotate(128.638333) translate(-13.503763, -10.725335) " points="13.2372296 10.5184272 13.7735121 10.5143153 13.7702965 10.9322436 13.2340141 10.9363555"></polygon>
                <polygon id="Rectangle" fill="#FFCD5A" transform="translate(14.835604, 8.424048) rotate(31.326352) translate(-14.835604, -8.424048) " points="14.6662114 8.03538767 14.9995968 8.03772783 15.0049975 8.81270844 14.6716121 8.81036828"></polygon>
                <g id="Group" transform="translate(8.953125, 8.190476)" fill="#73AF00">
                    <polygon id="Rectangle" transform="translate(1.033858, 1.511732) rotate(57.118809) translate(-1.033858, -1.511732) " points="-0.712105584 1.4325307 2.7788936 1.45751506 2.77985464 1.59093351 -0.711144543 1.56594915"></polygon>
                    <path d="M1.33185938,1.39919048 C1.28423438,1.45404762 1.25264063,1.5372381 1.24467187,1.63314286 C1.1791875,1.566 1.104,1.5232381 1.03396875,1.5117619 C1.0155,1.58133333 1.023,1.66857143 1.05642188,1.7567619 C0.96703125,1.7247619 0.87946875,1.71985714 0.810703125,1.74147619 C0.8300625,1.84090476 0.909796875,1.94880952 1.032,2.02285714 C1.15415625,2.09695238 1.28554688,2.11695238 1.38084375,2.08704762 L1.408125,2.06914286 C1.47407813,1.99309524 1.51003125,1.8632381 1.49371875,1.71966667 C1.47726562,1.57609524 1.41309375,1.45795238 1.33185938,1.39919048 Z" id="Path"></path>
                </g>
                <ellipse id="Oval" fill="#FF4B55" cx="10.3476562" cy="10.2689048" rx="1" ry="1"></ellipse>
                <path d="M9.780375,8.79671429 C9.73275,8.85157143 9.70115625,8.9347619 9.6931875,9.03066667 C9.62770312,8.96352381 9.55251562,8.9207619 9.48248437,8.90928571 C9.46401562,8.97885714 9.47151562,9.06609524 9.5049375,9.15428571 C9.41554687,9.12228571 9.32798437,9.11738095 9.25921875,9.139 C9.27857812,9.23842857 9.3583125,9.34633333 9.48051562,9.42038095 C9.60267187,9.49447619 9.7340625,9.51447619 9.82935937,9.48457143 L9.85664062,9.46666667 C9.92259375,9.39061905 9.95854687,9.2607619 9.94223437,9.11719048 C9.92582812,8.97357143 9.86165625,8.85542857 9.780375,8.79671429 Z" id="Path" fill="#73AF00"></path>
                <ellipse id="Oval" fill="#FF4B55" cx="9.84328125" cy="9.47604762" rx="1" ry="1"></ellipse>
                <path d="M9.2758125,8.0037619 C9.2281875,8.05861905 9.19659375,8.14180952 9.188625,8.23771429 C9.12314062,8.17057143 9.04795312,8.12780952 8.97792187,8.11633333 C8.95945312,8.18590476 8.96695312,8.27314286 9.000375,8.36133333 C8.91098437,8.32933333 8.82342187,8.32442857 8.75465625,8.34604762 C8.77401562,8.44547619 8.85375,8.55338095 8.97595312,8.62742857 C9.09810937,8.70152381 9.2295,8.72152381 9.32479687,8.69161905 L9.35207812,8.67371429 C9.41803125,8.59766667 9.45398437,8.46780952 9.43767187,8.3242381 C9.42117187,8.18061905 9.35704687,8.06247619 9.2758125,8.0037619 Z" id="Path" fill="#73AF00"></path>
                <ellipse id="Oval" fill="#FF4B55" cx="9.3384375" cy="8.68319048" rx="1" ry="1"></ellipse>
                <g id="Group" transform="translate(10.265625, 4.285714)" fill="#FFE15A">
                    <polygon id="Rectangle" transform="translate(0.345467, 6.440196) rotate(51.361667) translate(-0.345467, -6.440196) " points="0.0757176786 6.22917547 0.612000128 6.23328735 0.615215673 6.65121564 0.0789332237 6.64710376"></polygon>
                    <rect id="Rectangle" x="0.92859375" y="0.0293809524" width="1" height="1"></rect>
                    <rect id="Rectangle" x="0.79546875" y="0.164142857" width="1" height="1"></rect>
                </g>
                <polygon id="Path" fill="#FF875A" points="11.1941719 4.85433333 11.5925156 5.15785714 11.5925156 4.71947619 11.3269688 4.71947619"></polygon>
                <path d="M11.3269687,4.3147619 L11.3269687,4.44966667 L11.4597656,4.44966667 L11.4597656,4.58457143 L11.3269687,4.58457143 L11.3269687,4.71947619 L11.5925156,4.71947619 C11.5925156,4.71947619 11.7253125,4.58457143 11.9908594,4.58457143 C12.2564062,4.58457143 12.5219531,4.71947619 12.5219531,5.12409524 C12.5219531,5.5287619 12.65475,6.60785714 12.65475,6.60785714 L12.9202969,6.60785714 C12.9202969,6.30985714 13.1580937,6.06833333 13.4513906,6.06833333 C13.4975156,6.06833333 13.5414844,6.07614286 13.5841875,6.08742857 L13.5841875,5.79857143 C13.5841875,5.57509524 13.7625469,5.39390476 13.9825313,5.39390476 C14.2025156,5.39390476 14.380875,5.57509524 14.380875,5.79857143 L14.380875,6.47304762 L14.380875,6.60795238 L14.380875,8.99014286 L14.5523438,8.704 L14.4956719,8.66895238 L14.8940156,8.00409524 L14.9506875,8.03914286 L14.9506875,8.03914286 L15.0357656,8.09180952 L15.1775625,8.17947619 L14.7792188,8.84433333 L14.7225,8.80928571 L14.380875,9.37947619 L14.380875,11.194381 C14.380875,11.194381 14.0638125,10.871381 13.9959375,10.5140476 C13.9474219,10.4507143 13.8915469,10.3699524 13.842375,10.2782381 L13.6904062,10.5318571 L13.8316875,10.6465714 L13.5000469,11.0680476 L13.4119687,10.9965238 L13.261875,11.2470476 L13.0917656,11.1418095 L13.255125,10.8691429 L13.1758125,10.8047143 L13.2887344,10.6611429 L12.9403125,10.2270476 L12.8373281,10.3122857 L12.5275312,9.92609524 C12.4450781,9.9597619 12.3635625,9.9967619 12.2851406,10.0390476 L12.9201563,11.3292857 L11.9906719,12.0037619 L11.0611875,11.3292857 L11.6962031,10.0390476 C11.6493281,10.0137619 11.6017031,9.98980952 11.553,9.968 L11.2768594,10.3122857 L11.173875,10.2270476 L10.8254531,10.6611429 L10.938375,10.8047143 L10.8255937,10.8962857 L10.9797187,11.1384762 L10.8682031,11.2117143 L10.7213438,10.9809524 L10.6141406,11.068 L10.2825,10.6465238 L10.4315156,10.5255238 L10.3525313,10.401381 C10.3506563,10.4014286 10.3488281,10.4014762 10.3469531,10.4014762 C10.3035469,10.4014762 10.2610313,10.3818095 10.2357656,10.3420476 C10.2249844,10.3251429 10.2191719,10.3066667 10.2165938,10.288 C10.1916094,10.2864762 10.1662969,10.2828571 10.1399531,10.2764762 C10.0905938,10.3689048 10.0343438,10.4502857 9.98554688,10.5140476 C9.91771875,10.8714286 9.60060938,11.194381 9.60060938,11.194381 L9.60060938,9.47366667 C9.56048438,9.46085714 9.52003125,9.44457143 9.48023438,9.42042857 C9.35807813,9.34633333 9.27829688,9.23842857 9.2589375,9.13904762 C9.286875,9.13028571 9.31785938,9.12590476 9.35085938,9.12590476 C9.39914063,9.12590476 9.45164063,9.13538095 9.50470313,9.15433333 C9.48740625,9.10861905 9.47732813,9.06338095 9.474,9.02052381 L9.34340625,8.81528571 C9.34153125,8.81533333 9.33970313,8.81538095 9.33782813,8.81538095 C9.29442188,8.81538095 9.25190625,8.79571429 9.22664063,8.75595238 C9.21585938,8.73904762 9.21004688,8.72057143 9.20742188,8.70190476 C9.13392188,8.69742857 9.05339063,8.67457143 8.97571875,8.62752381 C8.8535625,8.55342857 8.77378125,8.44552381 8.75442188,8.34614286 C8.78235938,8.33738095 8.81339063,8.333 8.84634375,8.333 C8.894625,8.333 8.947125,8.34242857 9.0001875,8.36142857 C8.96676563,8.27319048 8.95926563,8.186 8.97773438,8.11642857 C9.04776563,8.12790476 9.12295313,8.17066667 9.1884375,8.23780952 C9.19640625,8.14190476 9.228,8.05871429 9.27557813,8.00385714 C9.35685938,8.06261905 9.42098438,8.1807619 9.43729688,8.32438095 C9.44770313,8.41571429 9.43514063,8.49966667 9.4089375,8.56961905 C9.42464063,8.5797619 9.43884375,8.59266667 9.44957813,8.60961905 C9.47596875,8.65109524 9.47503125,8.70095238 9.454875,8.74214286 L9.58546875,8.94738095 C9.59053125,8.9502381 9.5955,8.95366667 9.6005625,8.95685714 L9.6005625,6.60809524 L9.6005625,6.47319048 L9.6005625,5.79871429 C9.6005625,5.5752381 9.77892188,5.39404762 9.99890625,5.39404762 C10.2188906,5.39404762 10.39725,5.5752381 10.39725,5.79871429 L10.39725,6.08757143 C10.4399063,6.07633333 10.483875,6.06847619 10.5300469,6.06847619 C10.8233906,6.06847619 11.0611406,6.31004762 11.0611406,6.608 L11.4594844,6.608 L11.7250313,5.25909524 L11.5922344,5.15795238 L11.3266875,4.95561905 L11.3266875,5.25914286 L11.1938906,5.25914286 L11.1938906,4.58466667 L11.0610938,4.58466667 L11.0610938,4.4497619 L11.1938906,4.4497619 L11.1938906,4.31485714 L11.3272031,4.31485714 L11.3269687,4.3147619 Z M13.4584687,10.445381 L13.5075,10.3830476 L13.5336094,10.4042381 L13.7476406,10.0470476 C13.7289844,9.981 13.7170312,9.9132381 13.7170312,9.84528571 C13.7170312,9.83866667 13.7170312,9.82957143 13.7170312,9.82157143 C13.6011562,9.66671429 13.4514844,9.41895238 13.4514844,9.17080952 C13.4514844,9.45490476 13.2798281,9.60290476 13.0448906,9.71661905 L13.2492656,9.97142857 L13.146375,10.0565714 L13.4584687,10.445381 L13.4584687,10.445381 Z M10.5360469,10.440619 L10.6070156,10.383 L10.6560469,10.4453333 L10.9681406,10.0564286 L10.86525,9.97128571 L11.0342344,9.76061905 C10.7505938,9.64028571 10.5302344,9.49285714 10.5302344,9.1707619 C10.5302344,9.35138095 10.450875,9.53161905 10.3630312,9.67628571 C10.40475,9.73847619 10.4362031,9.818 10.4467031,9.91009524 C10.4571094,10.0014286 10.4445469,10.085381 10.4183437,10.1553333 C10.4340469,10.1654762 10.44825,10.178381 10.4589844,10.1953333 C10.485375,10.2368095 10.4844375,10.286619 10.4642812,10.3278571 L10.5360469,10.440619 L10.5360469,10.440619 Z M11.3269688,4.21361905 L11.1941719,4.21361905 C11.1391875,4.21361905 11.0946094,4.25890476 11.0946094,4.3147619 L11.0946094,4.34847619 L11.0614219,4.34847619 C11.0064375,4.34847619 10.9618594,4.3937619 10.9618594,4.44961905 L10.9618594,4.58452381 C10.9618594,4.64038095 11.0064375,4.68566667 11.0614219,4.68566667 L11.0946094,4.68566667 L11.0946094,5.25895238 C11.0946094,5.31480952 11.1391875,5.36009524 11.1941719,5.36009524 L11.3269688,5.36009524 C11.3819531,5.36009524 11.4265313,5.31480952 11.4265313,5.25895238 L11.4265313,5.15780952 L11.53275,5.23871429 L11.6152969,5.30161905 L11.3780156,6.50666667 L11.1530625,6.50666667 C11.1051563,6.20128571 10.8441094,5.96714286 10.5301875,5.96714286 C10.5191719,5.96714286 10.5081563,5.96752381 10.497,5.96819048 L10.497,5.79852381 C10.497,5.51961905 10.2735938,5.29266667 9.99904688,5.29266667 C9.7245,5.29266667 9.50109375,5.51961905 9.50109375,5.79852381 L9.50109375,6.473 L9.50109375,6.60790476 L9.50109375,8.1592381 C9.46514063,8.05852381 9.4066875,7.9742381 9.33342188,7.9212381 C9.31598438,7.90861905 9.29578125,7.90247619 9.27576563,7.90247619 C9.2480625,7.90247619 9.22059375,7.91419048 9.20104688,7.93671429 C9.17039063,7.97209524 9.14517188,8.01514286 9.126375,8.06371429 C9.08278125,8.03971429 9.03792188,8.02352381 8.99367188,8.01628571 C8.98832813,8.01538095 8.98303125,8.01495238 8.97778125,8.01495238 C8.93348438,8.01495238 8.89364063,8.04504762 8.88173438,8.0897619 C8.8700625,8.13366667 8.86617188,8.18185714 8.86982813,8.23209524 C8.862,8.23171429 8.85421875,8.23152381 8.84648438,8.23152381 C8.80335938,8.23152381 8.76253125,8.23747619 8.72517188,8.24919048 C8.67646875,8.26447619 8.64698438,8.31466667 8.65682813,8.36547619 C8.68260938,8.49766667 8.78273438,8.62804762 8.92476563,8.71409524 C8.99029688,8.75380952 9.06145313,8.78104762 9.1336875,8.79433333 C9.13659375,8.79990476 9.13973438,8.80533333 9.14310938,8.81061905 C9.17578125,8.862 9.2270625,8.89733333 9.28570313,8.91052381 L9.35826563,9.02457143 C9.35582813,9.02452381 9.3534375,9.02452381 9.35104688,9.02452381 C9.30792188,9.02452381 9.26709375,9.03047619 9.22973438,9.04219048 C9.18103125,9.05747619 9.15154688,9.10766667 9.16139063,9.15847619 C9.18717188,9.29066667 9.28729688,9.42104762 9.42932813,9.50709524 C9.45201563,9.52085714 9.47564063,9.53304762 9.50114063,9.54404762 L9.50114063,11.1939524 C9.50114063,11.2349048 9.52546875,11.2718095 9.5626875,11.2874286 C9.57501563,11.2925714 9.58790625,11.2950952 9.60070313,11.2950952 C9.62667188,11.2950952 9.65217188,11.2848095 9.67125,11.2653333 C9.68479688,11.2515714 9.997125,10.93 10.0785469,10.5568095 C10.1120156,10.5120952 10.1429531,10.467 10.1710781,10.4218571 C10.2031406,10.4594762 10.2465,10.4854286 10.2949688,10.496381 L10.2992813,10.5030952 L10.220625,10.567 C10.2,10.5837619 10.1867344,10.6081429 10.1838281,10.6348571 C10.180875,10.6614762 10.1885156,10.6882857 10.2050156,10.7092381 L10.5366563,11.1307143 C10.5531563,11.1516667 10.5771563,11.1651429 10.6034531,11.1680952 C10.6071094,11.1685238 10.6108125,11.1687143 10.6144688,11.1687143 C10.6369688,11.1687143 10.6589063,11.161 10.676625,11.1465714 L10.6978125,11.129381 L10.7848594,11.2661905 C10.7992031,11.2887143 10.82175,11.3045714 10.8475781,11.3101905 C10.8545156,11.3117143 10.8615,11.3124286 10.8684844,11.3124286 C10.8875156,11.3124286 10.9063594,11.3069048 10.9225313,11.2961905 L10.9869375,11.2539048 L10.9723594,11.2835714 C10.9504219,11.3280952 10.9636875,11.3821905 11.0035313,11.4111429 L11.9330156,12.085619 C11.9503594,12.0981905 11.9706094,12.1044762 11.9909063,12.1044762 C12.0112031,12.1044762 12.0314531,12.0981905 12.0487969,12.085619 L12.9782813,11.4111429 C13.0181719,11.3821905 13.0313906,11.3281429 13.0094531,11.2835714 L12.4189688,10.0838095 C12.444,10.0718095 12.4701094,10.0599048 12.4974375,10.0479524 L12.7603594,10.3757143 C12.7800469,10.4002381 12.8087344,10.4129524 12.8376563,10.4129524 C12.8597813,10.4129524 12.8820469,10.4054762 12.9005156,10.3901905 L12.9263438,10.3688571 L13.161,10.6612381 L13.0982813,10.7409524 C13.0817813,10.7619048 13.0741875,10.7886667 13.0770938,10.8153333 C13.0800469,10.8420476 13.0932656,10.8664286 13.1138906,10.8831905 L13.1247656,10.892 L13.0069219,11.088619 C12.9783281,11.1363333 12.9932344,11.1985238 13.0402031,11.227619 L13.2103125,11.3328571 C13.2260156,11.3425714 13.2439688,11.347619 13.2621563,11.347619 C13.2700313,11.347619 13.2779531,11.3466667 13.2856875,11.3447143 C13.3113281,11.3383333 13.3335,11.3219524 13.3472344,11.299 L13.4385,11.1466667 C13.4568281,11.161381 13.4785781,11.1685238 13.5002813,11.1685238 C13.5294844,11.1685238 13.5584531,11.1554762 13.5781406,11.1305238 L13.9097813,10.7090476 C13.9219688,10.6935238 13.9289531,10.6754762 13.9309688,10.6571429 C14.0391563,10.9858571 14.298375,11.2526667 14.3106563,11.2651905 C14.3296875,11.2845714 14.3552344,11.2949524 14.3812031,11.2949524 C14.3940469,11.2949524 14.4068906,11.2924286 14.4192188,11.2872857 C14.4564375,11.271619 14.4807656,11.2347619 14.4807656,11.1938095 L14.4807656,9.40728571 L14.7590625,8.94290476 C14.7658594,8.94433333 14.7726563,8.94504762 14.7794531,8.94504762 C14.8130625,8.94504762 14.845875,8.9277619 14.864625,8.89642857 L15.2629688,8.23157143 C15.27675,8.20866667 15.2809219,8.18114286 15.2746406,8.15504762 C15.2683594,8.129 15.2521875,8.10647619 15.2296406,8.09252381 L15.0878438,8.00485714 L15.0028125,7.9522381 L14.946,7.91714286 C14.929875,7.90714286 14.9119688,7.90242857 14.8943906,7.90242857 C14.8607813,7.90242857 14.8279688,7.91971429 14.8092656,7.95104762 L14.4808125,8.4992381 L14.4808125,6.60757143 L14.4808125,6.47266667 L14.4808125,5.79842857 C14.4808125,5.51952381 14.2574063,5.29257143 13.9828594,5.29257143 C13.7083125,5.29257143 13.4849063,5.51952381 13.4849063,5.79842857 L13.4849063,5.96809524 C13.4737969,5.96742857 13.4627344,5.96704762 13.4517188,5.96704762 C13.1377969,5.96704762 12.87675,6.20119048 12.8288438,6.50657143 L12.7432031,6.50657143 C12.7117969,6.241 12.6217969,5.45071429 12.6217969,5.12395238 C12.6217969,4.65157143 12.2959688,4.4832381 11.9910938,4.4832381 C11.7652969,4.4832381 11.6196094,4.57066667 11.557125,4.61814286 L11.5538438,4.61814286 C11.5575,4.60757143 11.5595156,4.5962381 11.5595156,4.58442857 L11.5595156,4.44952381 C11.5595156,4.39366667 11.5149375,4.34838095 11.4599531,4.34838095 L11.4267656,4.34838095 L11.4267656,4.31466667 C11.4265313,4.25890476 11.3819531,4.21361905 11.3269688,4.21361905 L11.3269688,4.21361905 Z M10.4789062,9.67614286 C10.5044063,9.63057143 10.526625,9.58561905 10.54575,9.54133333 C10.6287656,9.65452381 10.7482031,9.735 10.8753281,9.79871429 L10.7881406,9.90742857 C10.7714531,9.9282381 10.7635781,9.95490476 10.76625,9.98161905 C10.7689219,10.0083333 10.7819062,10.0328571 10.8023906,10.0497619 L10.8279844,10.071 L10.6505625,10.2920476 C10.6404375,10.287 10.6294219,10.2837619 10.6179844,10.2824286 C10.6143281,10.282 10.6105781,10.2818095 10.6069687,10.2818095 C10.5970312,10.2818095 10.5872812,10.2833333 10.5778594,10.2862381 C10.5824062,10.235381 10.5705469,10.1843333 10.5426562,10.1404286 C10.5392812,10.1351429 10.5356719,10.1299524 10.531875,10.125 C10.5495937,10.0526667 10.554375,9.97557143 10.5456562,9.89852381 C10.5366563,9.81942857 10.5138281,9.74371429 10.4789062,9.67614286 L10.4789062,9.67614286 Z M13.1990156,9.74866667 C13.2867187,9.69671429 13.3718906,9.63090476 13.4364844,9.54247619 C13.4873437,9.66042857 13.5541875,9.76771429 13.6174687,9.85528571 C13.6182656,9.91161905 13.6258594,9.96961905 13.6404844,10.0311905 L13.4893125,10.2835238 C13.4805937,10.2851429 13.4719687,10.288 13.4638594,10.2920476 L13.2864375,10.071 L13.3120312,10.0497619 C13.3325156,10.0328095 13.3455,10.0082857 13.3481719,9.98161905 C13.3508437,9.95495238 13.3430156,9.9282381 13.3262812,9.90742857 L13.1990156,9.74866667 L13.1990156,9.74866667 Z M11.277,10.4132381 C11.3059219,10.4132381 11.3345625,10.4005238 11.3542969,10.376 L11.52225,10.1666667 L11.0677031,11.0901905 C11.0664844,11.0878571 11.065125,11.0855714 11.0636719,11.0832857 L10.9584844,10.9179048 L11.0009062,10.8834286 C11.0215312,10.8666667 11.0347969,10.8422857 11.0377031,10.8155714 C11.0406562,10.7889524 11.0330156,10.7621429 11.0165156,10.7412381 L10.9537969,10.6615238 L11.1884531,10.3690952 L11.2142812,10.3904286 C11.2326094,10.4058571 11.254875,10.4132381 11.277,10.4132381 L11.277,10.4132381 Z M13.8210937,10.5081429 L13.8457075,10.4719524 C13.8673378,10.5004286 13.8902467,10.5288095 13.9143276,10.5570952 C13.9164587,10.565619 13.9186963,10.5740476 13.9210938,10.5825238 C13.9160858,10.577 13.9103319,10.5719048 13.9038854,10.5672857 L13.8210937,10.5081429 L13.8210937,10.5081429 Z" id="Shape" fill="#FFAA5A"></path>
            </g>
        </g>
    </g>
</svg>