<?xml version="1.0" encoding="UTF-8"?>
<svg width="24px" height="16px" viewBox="0 0 24 16" version="1.1" xmlns="http://www.w3.org/2000/svg" xmlns:xlink="http://www.w3.org/1999/xlink">
    <!-- Generator: Sketch 55.1 (78136) - https://sketchapp.com -->
    <title>spain</title>
    <desc>Created with Sketch.</desc>
    <g id="Профайл" stroke="none" stroke-width="1" fill="none" fill-rule="evenodd">
        <g id="Профайл-—-языки" transform="translate(-465.000000, -833.000000)" fill-rule="nonzero">
            <g id="spain" transform="translate(465.000000, 833.000000)">
                <path d="M0.413005848,15.9869048 L23.5402573,15.9869048 C23.7683275,15.9869048 23.9532632,15.7986667 23.9532632,15.5665238 L23.9532632,0.43352381 C23.9532632,0.201380952 23.7683275,0.0131428571 23.5402573,0.0131428571 L0.413005848,0.0131428571 C0.184935673,0.0131428571 0,0.201380952 0,0.43352381 L0,15.5665238 C0,15.7987143 0.184935673,15.9869048 0.413005848,15.9869048 Z" id="Path" fill="#C8414B"></path>
                <rect id="Rectangle" fill="#FFD250" x="0" y="3.3762381" width="23.9532164" height="9.24809524"></rect>
                <path d="M10.1181754,8.00004762 L10.4683509,6.39619048 C10.5006316,6.24847619 10.3901754,6.10838095 10.2414971,6.10838095 L9.9948538,6.10838095 C9.84622222,6.10838095 9.73581287,6.24847619 9.768,6.39619048 L10.1181754,8.00004762 Z" id="Path" fill="#C8414B"></path>
                <rect id="Rectangle" fill="#F5F5F5" x="9.70526316" y="7.15909524" width="1" height="3.57285714"></rect>
                <rect id="Rectangle" fill="#FAB446" x="9.49847953" y="6.73909524" width="1.23897076" height="1"></rect>
                <g id="Group" transform="translate(3.555556, 6.095238)" fill="#C8414B">
                    <rect id="Rectangle" x="5.11719298" y="1.90480952" width="2.06502924" height="1"></rect>
                    <polygon id="Path" points="7.18208187 3.5862381 5.94311111 3.16590476 5.94311111 2.74552381 7.18208187 3.16590476"></polygon>
                    <path d="M0.367812865,1.90480952 L0.717988304,0.300952381 C0.750269006,0.153238095 0.639812865,0.0131428571 0.491134503,0.0131428571 L0.244491228,0.0131428571 C0.0958596491,0.0131428571 -0.0145497076,0.153238095 0.0176374269,0.300952381 L0.367812865,1.90480952 Z" id="Path"></path>
                </g>
                <path d="M5.36884211,6.73895238 C5.14077193,6.73895238 4.95583626,6.92719048 4.95583626,7.15933333 L4.95583626,9.89166667 C4.95583626,10.402381 5.42414035,11.3629524 7.02077193,11.3629524 C8.61740351,11.3629524 9.0857076,10.4024286 9.0857076,9.89166667 L9.0857076,7.15933333 C9.0857076,6.92719048 8.90077193,6.73895238 8.67270175,6.73895238 L5.36884211,6.73895238 L5.36884211,6.73895238 Z" id="Path" fill="#F5F5F5"></path>
                <g id="Group" transform="translate(4.912281, 6.714286)" fill="#C8414B">
                    <path d="M2.10849123,2.12647619 L0.0435555556,2.12647619 L0.0435555556,0.445047619 C0.0435555556,0.212904762 0.228491228,0.0246666667 0.456561404,0.0246666667 L2.10849123,0.0246666667 L2.10849123,2.12647619 Z" id="Path"></path>
                    <path d="M2.10849123,2.12647619 L4.1734269,2.12647619 L4.1734269,3.17738095 C4.1734269,3.75780952 3.71120468,4.22828571 3.14095906,4.22828571 L3.14095906,4.22828571 C2.57071345,4.22828571 2.10849123,3.75780952 2.10849123,3.17738095 L2.10849123,2.12647619 L2.10849123,2.12647619 Z" id="Path"></path>
                </g>
                <path d="M4.95583626,8.8407619 L7.02077193,8.8407619 L7.02077193,9.89166667 C7.02077193,10.4720952 6.55854971,10.9425714 5.98830409,10.9425714 L5.98830409,10.9425714 C5.41805848,10.9425714 4.95583626,10.4720952 4.95583626,9.89166667 L4.95583626,8.8407619 L4.95583626,8.8407619 Z" id="Path" fill="#FAB446"></path>
                <g id="Group" transform="translate(5.333333, 8.809524)" fill="#C8414B">
                    <path d="M1.27443275,1.91814286 L1.27443275,0.0312380952 L0.861426901,0.0312380952 L0.861426901,2.11185714 C1.01506433,2.08014286 1.15387135,2.01090476 1.27443275,1.91814286 Z" id="Path"></path>
                    <path d="M0.448467836,2.11185714 L0.448467836,0.0312380952 L0.0354619883,0.0312380952 L0.0354619883,1.91814286 C0.156070175,2.01090476 0.294877193,2.08014286 0.448467836,2.11185714 Z" id="Path"></path>
                </g>
                <rect id="Rectangle" fill="#FFB441" x="5.36888889" y="8.00004762" width="1.23897076" height="1"></rect>
                <g id="Group" transform="translate(5.333333, 7.142857)" fill="#FAB446">
                    <rect id="Rectangle" x="0.0355555556" y="0.0162380952" width="1.23897076" height="1"></rect>
                    <rect id="Rectangle" x="0.241871345" y="0.266238095" width="1" height="1"></rect>
                </g>
                <rect id="Rectangle" fill="#F5F5F5" x="3.51017544" y="7.15909524" width="1" height="3.57285714"></rect>
                <g id="Group" transform="translate(3.274854, 6.714286)" fill="#FAB446">
                    <rect id="Rectangle" x="0.029005848" y="3.80814286" width="1.23897076" height="1"></rect>
                    <rect id="Rectangle" x="0.029005848" y="0.0248095238" width="1.23897076" height="1"></rect>
                </g>
                <rect id="Rectangle" fill="#5064AA" x="3.09754386" y="10.9424286" width="1.65192982" height="1"></rect>
                <rect id="Rectangle" fill="#FAB446" x="9.70526316" y="10.5224286" width="1.23897076" height="1"></rect>
                <rect id="Rectangle" fill="#5064AA" x="9.29216374" y="10.9424286" width="1.65192982" height="1"></rect>
                <rect id="Rectangle" fill="#FAB446" x="5.7819883" y="6.31861905" width="2.47794152" height="1"></rect>
                <rect id="Rectangle" fill="#FFB441" x="6.81450292" y="5.05766667" width="1" height="1.26109524"></rect>
                <g id="Group" transform="translate(5.146199, 4.380952)" fill="#F5F5F5">
                    <path d="M1.46156725,1.30709524 C1.11995322,1.30709524 0.842105263,1.0242381 0.842105263,0.676571429 C0.842105263,0.328857143 1.12,0.046047619 1.46156725,0.046047619 C1.80318129,0.046047619 2.08102924,0.328904762 2.08102924,0.676571429 C2.08107602,1.0242381 1.80318129,1.30709524 1.46156725,1.30709524 Z M1.46156725,0.466380952 C1.34764912,0.466380952 1.25506433,0.560571429 1.25506433,0.676571429 C1.25506433,0.79252381 1.34760234,0.886761905 1.46156725,0.886761905 C1.57553216,0.886761905 1.66807018,0.792571429 1.66807018,0.676571429 C1.66807018,0.560619048 1.57553216,0.466380952 1.46156725,0.466380952 Z" id="Shape"></path>
                    <path d="M2.28757895,1.30709524 C1.94596491,1.30709524 1.66811696,1.0242381 1.66811696,0.676571429 C1.66811696,0.328857143 1.9460117,0.046047619 2.28757895,0.046047619 C2.62919298,0.046047619 2.90704094,0.328904762 2.90704094,0.676571429 C2.90704094,1.0242381 2.6291462,1.30709524 2.28757895,1.30709524 Z M2.28757895,0.466380952 C2.17366082,0.466380952 2.08107602,0.560571429 2.08107602,0.676571429 C2.08107602,0.79252381 2.17361404,0.886761905 2.28757895,0.886761905 C2.40149708,0.886761905 2.49408187,0.792571429 2.49408187,0.676571429 C2.49403509,0.560619048 2.40149708,0.466380952 2.28757895,0.466380952 Z" id="Shape"></path>
                    <path d="M3.11354386,1.72747619 C2.77192982,1.72747619 2.49408187,1.44461905 2.49408187,1.09695238 C2.49408187,0.749238095 2.77197661,0.466428571 3.11354386,0.466428571 C3.45515789,0.466428571 3.73300585,0.749285714 3.73300585,1.09695238 C3.73300585,1.44461905 3.45511111,1.72747619 3.11354386,1.72747619 Z M3.11354386,0.886761905 C2.99962573,0.886761905 2.90704094,0.980952381 2.90704094,1.09695238 C2.90704094,1.21290476 2.99957895,1.30714286 3.11354386,1.30714286 C3.22746199,1.30714286 3.32004678,1.21295238 3.32004678,1.09695238 C3.32004678,0.980952381 3.22746199,0.886761905 3.11354386,0.886761905 Z" id="Shape"></path>
                    <path d="M0.635602339,1.72747619 C0.293988304,1.72747619 0.0161403509,1.44461905 0.0161403509,1.09695238 C0.0161403509,0.749238095 0.294035088,0.466428571 0.635602339,0.466428571 C0.977216374,0.466428571 1.25506433,0.749285714 1.25506433,1.09695238 C1.25511111,1.44461905 0.977216374,1.72747619 0.635602339,1.72747619 Z M0.635602339,0.886761905 C0.521684211,0.886761905 0.429099415,0.980952381 0.429099415,1.09695238 C0.429099415,1.21290476 0.521637427,1.30714286 0.635602339,1.30714286 C0.749567251,1.30714286 0.842105263,1.21290476 0.842105263,1.09690476 C0.842105263,0.980952381 0.749567251,0.886761905 0.635602339,0.886761905 Z" id="Shape"></path>
                </g>
                <path d="M8.25974269,9.68147619 L8.25974269,9.89166667 C8.25974269,10.0075714 8.16711111,10.1018571 8.05323977,10.1018571 C7.93936842,10.1018571 7.84673684,10.0075714 7.84673684,9.89166667 L7.84673684,9.68147619 L8.25974269,9.68147619 L8.25974269,9.68147619 Z M8.67270175,9.26114286 L7.43373099,9.26114286 L7.43373099,9.89166667 C7.43373099,10.239381 7.71162573,10.5221905 8.05319298,10.5221905 C8.39480702,10.5221905 8.67265497,10.2393333 8.67265497,9.89166667 L8.67265497,9.26114286 L8.67270175,9.26114286 Z" id="Shape" fill="#FAB446"></path>
                <path d="M8.05323977,8.42042857 L8.05323977,8.42042857 C7.82516959,8.42042857 7.64023392,8.23219048 7.64023392,8.00004762 L7.64023392,7.57966667 C7.64023392,7.34752381 7.82516959,7.15928571 8.05323977,7.15928571 L8.05323977,7.15928571 C8.28130994,7.15928571 8.46624561,7.34752381 8.46624561,7.57966667 L8.46624561,8.00004762 C8.46624561,8.23219048 8.28130994,8.42042857 8.05323977,8.42042857 Z" id="Path" fill="#FFA0D2"></path>
                <ellipse id="Oval" fill="#5064AA" cx="7.02081871" cy="8.84052381" rx="1" ry="1"></ellipse>
                <rect id="Rectangle" fill="#FAB446" x="6.81450292" y="4.21671429" width="1" height="1.26109524"></rect>
                <path d="M5.78180117,6.31861905 L5.36879532,5.8982381 L5.61071345,5.652 C5.98465497,5.27138095 6.49188304,5.05752381 7.02077193,5.05752381 L7.02077193,5.05752381 C7.54966082,5.05752381 8.05684211,5.27138095 8.43083041,5.652 L8.67274854,5.8982381 L8.25974269,6.31861905 L5.78180117,6.31861905 Z" id="Path" fill="#C8414B"></path>
                <g id="Group" transform="translate(5.941520, 5.666667)" fill="#FFD250">
                    <ellipse id="Oval" cx="1.07929825" cy="0.454830409" rx="1" ry="1"></ellipse>
                    <ellipse id="Oval" cx="0.253099415" cy="0.454830409" rx="1" ry="1"></ellipse>
                    <ellipse id="Oval" cx="1.90502924" cy="0.454830409" rx="1" ry="1"></ellipse>
                </g>
                <g id="Group" transform="translate(3.274854, 8.000000)" fill="#C8414B">
                    <rect id="Rectangle" x="0.029005848" y="4.76190476e-05" width="2.06502924" height="1"></rect>
                    <polygon id="Path" points="0.0290526316 1.68147619 1.26797661 1.26114286 1.26797661 0.840761905 0.0290526316 1.26114286"></polygon>
                </g>
            </g>
        </g>
    </g>
</svg>