<?xml version="1.0" encoding="UTF-8"?>
<svg width="24px" height="16px" viewBox="0 0 24 16" version="1.1" xmlns="http://www.w3.org/2000/svg" xmlns:xlink="http://www.w3.org/1999/xlink">
    <!-- Generator: Sketch 55.1 (78136) - https://sketchapp.com -->
    <title>tajikistan</title>
    <desc>Created with Sketch.</desc>
    <g id="Профайл" stroke="none" stroke-width="1" fill="none" fill-rule="evenodd">
        <g id="Профайл-—-языки" transform="translate(-465.000000, -643.000000)" fill-rule="nonzero">
            <g id="tajikistan" transform="translate(465.000000, 643.000000)">
                <path d="M0,10.6622857 L23.9532164,10.6622857 L23.9532164,15.5664762 C23.9532164,15.798619 23.7682807,15.9868571 23.5402105,15.9868571 L0.413005848,15.9868571 C0.184935673,15.9868571 0,15.798619 0,15.5664762 L0,10.6622857 Z" id="Path" fill="#73AF00"></path>
                <path d="M0.413005848,0.0131428571 L23.5402573,0.0131428571 C23.7683275,0.0131428571 23.9532632,0.201380952 23.9532632,0.43352381 L23.9532632,5.33771429 L0,5.33771429 L0,0.43347619 C0,0.201333333 0.184935673,0.0131428571 0.413005848,0.0131428571 Z" id="Path" fill="#FF4B55"></path>
                <rect id="Rectangle" fill="#F5F5F5" x="0" y="5.33761905" width="23.9532164" height="5.32428571"></rect>
                <g id="Group" transform="translate(9.263158, 5.714286)" fill="#FFCD5A">
                    <path d="M1.35995322,3.78738095 C1.53164912,3.69933333 1.63209357,3.55419048 1.68584795,3.44942857 C1.99345029,3.654 2.25702924,3.58452381 2.39438596,3.51909524 C2.52842105,3.45519048 2.63878363,3.35095238 2.71242105,3.24471429 C2.78610526,3.35095238 2.89646784,3.45519048 3.03045614,3.51909524 C3.16776608,3.58452381 3.43134503,3.65385714 3.73899415,3.44942857 C3.79270175,3.55419048 3.8931462,3.69928571 4.06488889,3.78738095 C4.16388304,3.83814286 4.27298246,3.86361905 4.39139181,3.86361905 C4.51302924,3.86361905 4.64439766,3.83680952 4.78474854,3.78328571 L4.7165848,3.5982381 C4.49338012,3.68342857 4.304,3.68804762 4.1540117,3.61185714 C3.94404678,3.50533333 3.87396491,3.27042857 3.87340351,3.26847619 L3.83246784,3.12261905 L3.7179883,3.21966667 C3.51597661,3.39090476 3.30680702,3.43290476 3.11279532,3.34014286 C2.91578947,3.2462381 2.80945029,3.05619048 2.80945029,2.99919048 L2.80945029,2.14647619 C2.85146199,2.05242857 2.94414035,1.98657143 3.05207018,1.98657143 C3.08916959,1.98657143 3.12584795,1.9947619 3.16102924,2.01090476 L3.28116959,2.06609524 L3.26301754,1.93314286 C3.22493567,1.65380952 2.98816374,1.44319048 2.71237427,1.44319048 C2.43653801,1.44319048 2.19981287,1.65380952 2.16173099,1.93314286 L2.14357895,2.06609524 L2.2637193,2.01090476 C2.2988538,1.9947619 2.33557895,1.98657143 2.37267836,1.98657143 C2.48060819,1.98657143 2.57333333,2.05242857 2.61529825,2.14647619 L2.61529825,2.99919048 C2.61529825,3.05619048 2.50900585,3.2462381 2.31195322,3.34014286 C2.11803509,3.43285714 1.90877193,3.391 1.70676023,3.21966667 L1.59312281,3.12385714 L1.55134503,3.26809524 C1.55069006,3.27042857 1.4805614,3.50533333 1.27059649,3.61185714 C1.12046784,3.68809524 0.931181287,3.68352381 0.708023392,3.5982381 L0.639859649,3.78328571 C0.780163743,3.83680952 0.911625731,3.86361905 1.03321637,3.86361905 C1.15181287,3.86357143 1.26091228,3.83819048 1.35995322,3.78738095 Z M2.37267836,1.83833333 C2.36107602,1.83833333 2.34952047,1.83880952 2.33796491,1.83985714 C2.40294737,1.69242857 2.54825731,1.59133333 2.71237427,1.59133333 C2.87644444,1.59133333 3.02180117,1.69242857 3.08678363,1.83985714 C2.93585965,1.82633333 2.79307602,1.90138095 2.71237427,2.02028571 C2.63789474,1.91038095 2.51340351,1.83833333 2.37267836,1.83833333 Z" id="Shape"></path>
                    <path d="M1.03162573,4.41557143 L1.0931462,4.60295238 C1.50582456,4.4627619 2.09609357,4.38233333 2.71242105,4.38233333 C3.32874854,4.38233333 3.91901754,4.4627619 4.33169591,4.60295238 L4.39321637,4.41557143 C3.96149708,4.26880952 3.34881871,4.18466667 2.71242105,4.18466667 C2.07602339,4.18471429 1.46334503,4.26880952 1.03162573,4.41557143 Z" id="Path"></path>
                    <path d="M2.71242105,3.98714421 C2.81361404,3.98747619 2.90273684,3.9262381 2.9631345,3.84380952 C2.92299415,3.81857143 2.86938012,3.80380952 2.80865497,3.79614286 C2.80870175,3.79390476 2.80945029,3.79185714 2.80945029,3.78957143 C2.80945029,3.70485714 2.77015205,3.63171429 2.71242105,3.592 C2.65464327,3.63171429 2.61539181,3.70485714 2.61539181,3.78957143 C2.61539181,3.79180952 2.61609357,3.79385714 2.61618713,3.79614286 C2.55550877,3.80380952 2.50189474,3.81852381 2.4617076,3.84380952 C2.5220117,3.9262381 2.61118129,3.98738095 2.71242105,3.98714421 Z" id="Path"></path>
                    <path d="M1.82152047,4.08047619 C1.92070175,4.06019048 1.99607018,3.98204762 2.03901754,3.889 C1.99471345,3.87242857 1.93927485,3.86890476 1.87836257,3.8737619 C1.87794152,3.87157143 1.87826901,3.86938095 1.87780117,3.86714286 C1.86119298,3.78419048 1.80832749,3.72047619 1.74390643,3.69333333 C1.69511111,3.74404762 1.67097076,3.82371429 1.68762573,3.90666667 C1.68809357,3.90890476 1.68916959,3.9107619 1.68963743,3.91295238 C1.6317193,3.93280952 1.58203509,3.95814286 1.54769591,3.99109524 C1.62306433,4.05957143 1.72238596,4.10138095 1.82152047,4.08047619 Z" id="Path"></path>
                    <path d="M3.68093567,3.69328571 C3.61651462,3.72042857 3.56364912,3.78414286 3.54704094,3.86709524 C3.5465731,3.86933333 3.54690058,3.87147619 3.54647953,3.87371429 C3.48556725,3.86885714 3.43012865,3.87238095 3.38582456,3.88895238 C3.42877193,3.98204762 3.50414035,4.06014286 3.60332164,4.08042857 C3.70245614,4.10133333 3.80177778,4.05952381 3.87719298,3.991 C3.84280702,3.95809524 3.79316959,3.93271429 3.73525146,3.91285714 C3.73576608,3.91066667 3.73684211,3.90880952 3.73726316,3.90657143 C3.75387135,3.82366667 3.72968421,3.744 3.68093567,3.69328571 Z" id="Path"></path>
                    <path d="M2.68650292,0.0547619048 L2.62109942,0.254333333 L2.41445614,0.255952381 C2.38769591,0.256142857 2.37660819,0.290904762 2.39812865,0.307095238 L2.56435088,0.432047619 L2.50203509,0.632619048 C2.4939883,0.658571429 2.52299415,0.680047619 2.54479532,0.664238095 L2.71293567,0.541904762 L2.88107602,0.664238095 C2.90287719,0.680047619 2.93188304,0.658619048 2.92383626,0.632619048 L2.86147368,0.432047619 L3.02769591,0.307095238 C3.04921637,0.290904762 3.03812865,0.256190476 3.01136842,0.255952381 L2.80472515,0.254333333 L2.73932164,0.0547619048 C2.7308538,0.0289047619 2.69497076,0.0289047619 2.68650292,0.0547619048 Z" id="Path"></path>
                    <path d="M1.50353216,0.384047619 L1.43812865,0.583619048 L1.23148538,0.585238095 C1.20472515,0.585428571 1.19363743,0.620190476 1.21515789,0.636380952 L1.38138012,0.761333333 L1.31901754,0.961904762 C1.31097076,0.987857143 1.33997661,1.00933333 1.36177778,0.99352381 L1.52991813,0.871190476 L1.69805848,0.99352381 C1.71985965,1.00933333 1.7488655,0.987904762 1.74081871,0.961904762 L1.67845614,0.761333333 L1.84467836,0.636380952 C1.86619883,0.620190476 1.85511111,0.58547619 1.82835088,0.585238095 L1.6217076,0.583619048 L1.55630409,0.384047619 C1.54788304,0.358190476 1.512,0.358190476 1.50353216,0.384047619 Z" id="Path"></path>
                    <path d="M0.63405848,1.27319048 L0.568654971,1.4727619 L0.362011696,1.47438095 C0.335251462,1.47457143 0.324163743,1.50933333 0.345684211,1.52552381 L0.511906433,1.65047619 L0.449590643,1.85104762 C0.44154386,1.877 0.470549708,1.89847619 0.492350877,1.88266667 L0.660491228,1.76033333 L0.828631579,1.88266667 C0.850432749,1.89847619 0.879438596,1.87704762 0.871391813,1.85104762 L0.809076023,1.65047619 L0.975298246,1.52552381 C0.996818713,1.50933333 0.985730994,1.47461905 0.95897076,1.47438095 L0.752327485,1.4727619 L0.686923977,1.27319048 C0.678409357,1.24738095 0.642526316,1.24738095 0.63405848,1.27319048 Z" id="Path"></path>
                    <path d="M0.314573099,2.47519048 L0.249169591,2.6747619 L0.0425263158,2.67638095 C0.0157660819,2.67657143 0.00467836257,2.71133333 0.0261988304,2.72752381 L0.192421053,2.85247619 L0.13005848,3.05304762 C0.122011696,3.079 0.151017544,3.10047619 0.172818713,3.08466667 L0.340959064,2.96233333 L0.509099415,3.08466667 C0.530900585,3.10047619 0.559906433,3.07904762 0.551859649,3.05304762 L0.489497076,2.85247619 L0.655719298,2.72752381 C0.677239766,2.71133333 0.666152047,2.67661905 0.639391813,2.67638095 L0.432748538,2.6747619 L0.367345029,2.47519048 C0.358923977,2.44933333 0.323040936,2.44933333 0.314573099,2.47519048 Z" id="Path"></path>
                    <path d="M3.92336842,0.384047619 L3.98877193,0.583619048 L4.1954152,0.585238095 C4.22217544,0.585428571 4.23326316,0.620190476 4.21174269,0.636380952 L4.04552047,0.761333333 L4.10788304,0.961904762 C4.11592982,0.987857143 4.08692398,1.00933333 4.06512281,0.99352381 L3.89698246,0.871190476 L3.72884211,0.99352381 C3.70704094,1.00933333 3.67803509,0.987904762 3.68608187,0.961904762 L3.74844444,0.761333333 L3.58222222,0.636380952 C3.56070175,0.620190476 3.57178947,0.58547619 3.59854971,0.585238095 L3.80519298,0.583619048 L3.87059649,0.384047619 C3.87901754,0.358190476 3.91490058,0.358190476 3.92336842,0.384047619 Z" id="Path"></path>
                    <path d="M4.79284211,1.27319048 L4.85824561,1.4727619 L5.06488889,1.47438095 C5.09164912,1.47457143 5.10273684,1.50933333 5.08121637,1.52552381 L4.91499415,1.65047619 L4.97735673,1.85104762 C4.98540351,1.877 4.95639766,1.89847619 4.93459649,1.88266667 L4.76645614,1.76033333 L4.59831579,1.88266667 C4.57651462,1.89847619 4.54750877,1.87704762 4.55555556,1.85104762 L4.61791813,1.65047619 L4.45169591,1.52552381 C4.43017544,1.50933333 4.44126316,1.47461905 4.46802339,1.47438095 L4.67466667,1.4727619 L4.74007018,1.27319048 C4.74849123,1.24738095 4.78437427,1.24738095 4.79284211,1.27319048 Z" id="Path"></path>
                    <path d="M5.11232749,2.47519048 L5.17773099,2.6747619 L5.38437427,2.67638095 C5.4111345,2.67657143 5.42222222,2.71133333 5.40070175,2.72752381 L5.23447953,2.85247619 L5.29679532,3.05304762 C5.30484211,3.079 5.27583626,3.10047619 5.25403509,3.08466667 L5.08589474,2.96233333 L4.91775439,3.08466667 C4.89595322,3.10047619 4.86694737,3.07904762 4.87499415,3.05304762 L4.93730994,2.85247619 L4.77108772,2.72752381 C4.74956725,2.71133333 4.76065497,2.67661905 4.7874152,2.67638095 L4.99405848,2.6747619 L5.05946199,2.47519048 C5.06797661,2.44933333 5.10385965,2.44933333 5.11232749,2.47519048 Z" id="Path"></path>
                </g>
            </g>
        </g>
    </g>
</svg>