<?xml version="1.0" encoding="UTF-8"?>
<svg width="24px" height="16px" viewBox="0 0 24 16" version="1.1" xmlns="http://www.w3.org/2000/svg" xmlns:xlink="http://www.w3.org/1999/xlink">
    <!-- Generator: Sketch 55.1 (78136) - https://sketchapp.com -->
    <title>turkmenistan</title>
    <desc>Created with Sketch.</desc>
    <g id="Профайл" stroke="none" stroke-width="1" fill="none" fill-rule="evenodd">
        <g id="Профайл-—-языки" transform="translate(-465.000000, -675.000000)" fill-rule="nonzero">
            <g id="turkmenistan" transform="translate(465.000000, 675.000000)">
                <path d="M23.5402105,15.9867143 L0.413005848,15.9867143 C0.184935673,15.9867143 0,15.7984762 0,15.5663333 L0,0.433380952 C0,0.201238095 0.184935673,0.013 0.413005848,0.013 L23.5402573,0.013 C23.7683275,0.013 23.9532632,0.201238095 23.9532632,0.433380952 L23.9532632,15.5663333 C23.9532632,15.7985714 23.7682807,15.9867143 23.5402105,15.9867143 Z" id="Path" fill="#73AF00"></path>
                <rect id="Rectangle" fill="#FF4B55" x="3.30385965" y="0.0131904762" width="4.13005848" height="15.9738095"></rect>
                <polygon id="Path" fill="#F5F5F5" points="7.02077193 1.83457143 6.19480702 2.53519048 4.54283041 2.53519048 3.7168655 1.83457143 3.7168655 1.13395238 4.54283041 0.433380952 6.19480702 0.433380952 7.02077193 1.13395238"></polygon>
                <g id="Group" transform="translate(3.695906, 3.333333)" fill="#73AF00">
                    <polygon id="Path" points="3.3248655 4.38628571 2.49890058 5.08695238 0.846923977 5.08695238 0.0209590643 4.38628571 0.0209590643 3.68571429 0.846923977 2.98509524 2.49890058 2.98509524 3.3248655 3.68571429"></polygon>
                    <polygon id="Path" points="3.3248655 1.4437619 2.49890058 2.14438095 0.846923977 2.14438095 0.0209590643 1.4437619 0.0209590643 0.743190476 0.846923977 0.0425714286 2.49890058 0.0425714286 3.3248655 0.743190476"></polygon>
                    <polygon id="Path" points="3.3248655 7.32880952 2.49890058 8.02942857 0.846923977 8.02942857 0.0209590643 7.32880952 0.0209590643 6.62828571 0.846923977 5.92761905 2.49890058 5.92761905 3.3248655 6.62828571"></polygon>
                </g>
                <g id="Group" transform="translate(3.274854, 0.000000)" fill="#FFB400">
                    <polygon id="Path" points="0.0290526316 2.11480952 0.855017544 2.95552381 0.0290526316 3.7962381"></polygon>
                    <polygon id="Path" points="4.15887719 3.7962381 3.33291228 2.95552381 4.15887719 2.11480952"></polygon>
                    <polygon id="Path" points="0.0290526316 5.05733333 0.855017544 5.89804762 0.0290526316 6.7387619"></polygon>
                    <polygon id="Path" points="4.15887719 6.7387619 3.33291228 5.89804762 4.15887719 5.05733333"></polygon>
                    <polygon id="Path" points="0.0290526316 7.99985714 0.855017544 8.84057143 0.0290526316 9.68128571"></polygon>
                    <polygon id="Path" points="4.15887719 9.68128571 3.33291228 8.84057143 4.15887719 7.99985714"></polygon>
                    <polygon id="Path" points="0.0290526316 10.942381 0.855017544 11.7830952 0.0290526316 12.6238095"></polygon>
                    <polygon id="Path" points="4.15887719 12.6238095 3.33291228 11.7830952 4.15887719 10.942381"></polygon>
                    <polygon id="Path" points="0.0290526316 0.013 0.855017544 0.013 0.0290526316 0.853714286"></polygon>
                    <polygon id="Path" points="4.15887719 0.853714286 3.33291228 0.013 4.15887719 0.013"></polygon>
                    <rect id="Rectangle" x="1.88725146" y="3.37604762" width="1" height="2.10190476"></rect>
                </g>
                <rect id="Rectangle" fill="#FF4B55" x="4.54269006" y="4.21652381" width="1.65192982" height="1"></rect>
                <g id="Group" transform="translate(3.695906, 0.428571)" fill="#FFB400">
                    <polygon id="Path" points="2.91185965 3.29761905 2.49890058 2.94733333 2.49890058 5.04914286 2.91185965 4.69880952"></polygon>
                    <polygon id="Path" points="0.433964912 4.69880952 0.846923977 5.04914286 0.846923977 2.94738095 0.433964912 3.29761905"></polygon>
                    <polygon id="Path" points="1.67288889 0.00480952381 0.84697076 0.00480952381 0.0209590643 0.705380952 0.0209590643 1.05571429 1.67288889 1.05571429"></polygon>
                    <polygon id="Path" points="1.67288889 2.10661905 2.49890058 2.10661905 3.3248655 1.406 3.3248655 1.05571429 1.67288889 1.05571429"></polygon>
                </g>
                <polygon id="Path" fill="#FF4B55" points="5.36879532 2.11480952 4.54283041 1.4867619 5.36879532 0.853714286 6.19480702 1.4867619"></polygon>
                <g id="Group" transform="translate(4.538012, 0.809524)" fill="#73AF00">
                    <polygon id="Path" points="0.830783626 1.30528571 1.65679532 0.677238095 1.65356725 0.674761905 0.830783626 0.674761905"></polygon>
                    <polygon id="Path" points="0.830783626 0.674761905 0.830783626 0.0441904762 0.00809356725 0.674761905"></polygon>
                </g>
                <rect id="Rectangle" fill="#FF4B55" x="4.54269006" y="6.73890476" width="1.65192982" height="1.26109524"></rect>
                <rect id="Rectangle" fill="#FFB400" x="6.19461988" y="7.15890476" width="1" height="1"></rect>
                <rect id="Rectangle" fill="#F5F5F5" x="5.16210526" y="7.15890476" width="1" height="1"></rect>
                <rect id="Rectangle" fill="#FF4B55" x="5.16210526" y="9.68128571" width="1" height="1"></rect>
                <g id="Group" transform="translate(4.538012, 10.095238)" fill="#FFB400">
                    <rect id="Rectangle" x="1.24397661" y="0.0129122807" width="1" height="1"></rect>
                    <rect id="Rectangle" x="0.00467836257" y="0.0129122807" width="1" height="1"></rect>
                </g>
                <rect id="Rectangle" fill="#FF4B55" x="5.16210526" y="10.5217619" width="1" height="1"></rect>
                <rect id="Rectangle" fill="#FFB400" x="4.13005848" y="7.15890476" width="1" height="1"></rect>
                <polygon id="Path" fill="#F5F5F5" points="7.02077193 13.6046667 6.19480702 14.3052857 4.54283041 14.3052857 3.7168655 13.6046667 3.7168655 12.9041429 4.54283041 12.2034762 6.19480702 12.2034762 7.02077193 12.9041429"></polygon>
                <g id="Group" transform="translate(3.695906, 12.190476)" fill="#FFB400">
                    <polygon id="Path" points="1.67288889 0.013 0.84697076 0.013 0.0209590643 0.713619048 0.0209590643 1.06390476 1.67288889 1.06390476"></polygon>
                    <polygon id="Path" points="1.67288889 2.11480952 2.49890058 2.11480952 3.3248655 1.41419048 3.3248655 1.06390476 1.67288889 1.06390476"></polygon>
                </g>
                <polygon id="Path" fill="#FF4B55" points="6.19480702 13.4645238 5.36879532 13.8849048 4.54283041 13.4645238 4.54283041 13.0441905 5.36879532 12.6238095 6.19480702 13.0441905"></polygon>
                <g id="Group" transform="translate(8.888889, 1.904762)" fill="#F5F5F5">
                    <path d="M4.21099415,0.397142857 C4.16701754,0.375142857 4.12720468,0.433380952 4.16290058,0.467619048 C4.63026901,0.91652381 4.92561404,1.54695238 4.92561404,2.25014286 C4.92561404,3.63142857 3.83480702,4.73961905 2.49352047,4.73961905 C2.24594152,4.73961905 2.00748538,4.70033333 1.78254971,4.6287619 C1.73595322,4.61395238 1.70577778,4.67757143 1.74591813,4.70595238 C2.13805848,4.98342857 2.61071345,5.14928571 3.12669006,5.14928571 C4.4857076,5.14928571 5.59625731,4.04095238 5.59625731,2.63961905 C5.59621053,1.6547619 5.02830409,0.806142857 4.21099415,0.397142857 Z" id="Path"></path>
                    <path d="M0.85019883,2.01904762 L0.749192982,2.30995238 L0.986853801,2.50142857 C1.01763743,2.5262381 0.999719298,2.57661905 0.960467836,2.57557143 L0.657450292,2.56761905 L0.552,2.85685714 C0.538339181,2.89433333 0.485707602,2.89252381 0.474573099,2.8542381 L0.388350877,2.55847619 L0.0854736842,2.5457619 C0.0462222222,2.54414286 0.0316725146,2.49261905 0.064,2.47 L0.313730994,2.29514286 L0.232,1.998 C0.221426901,1.95952381 0.26502924,1.92947619 0.296187135,1.95380952 L0.536748538,2.14152381 L0.789146199,1.97057143 C0.821707602,1.94842857 0.863251462,1.98138095 0.85019883,2.01904762 Z" id="Path"></path>
                    <path d="M2.07752047,2.65 L1.97651462,2.94090476 L2.21417544,3.13238095 C2.24495906,3.15719048 2.22704094,3.20757143 2.18778947,3.20652381 L1.88477193,3.19857143 L1.77932164,3.48780952 C1.76566082,3.52528571 1.71302924,3.52347619 1.70189474,3.48519048 L1.61567251,3.18942857 L1.31279532,3.17671429 C1.27354386,3.17509524 1.25899415,3.12357143 1.29132164,3.10095238 L1.54105263,2.92609524 L1.45932164,2.62895238 C1.44874854,2.59047619 1.49235088,2.56042857 1.52350877,2.5847619 L1.76407018,2.77247619 L2.01646784,2.60152381 C2.04907602,2.57942857 2.0905731,2.61238095 2.07752047,2.65 Z" id="Path"></path>
                    <path d="M2.06512281,1.3502381 L1.96411696,1.64114286 L2.20177778,1.83261905 C2.2325614,1.85742857 2.21464327,1.90780952 2.17539181,1.9067619 L1.87237427,1.89880952 L1.76692398,2.18804762 C1.75326316,2.22552381 1.70063158,2.22371429 1.68949708,2.18542857 L1.60327485,1.88966667 L1.30039766,1.87695238 C1.2611462,1.87533333 1.24659649,1.82380952 1.27892398,1.80119048 L1.52865497,1.62633333 L1.44692398,1.32919048 C1.43635088,1.29071429 1.47995322,1.26066667 1.51111111,1.285 L1.75167251,1.47271429 L2.00407018,1.3017619 C2.03667836,1.27966667 2.07822222,1.31261905 2.06512281,1.3502381 Z" id="Path"></path>
                    <path d="M2.10694737,0.0957142857 L2.00594152,0.386619048 L2.24360234,0.578095238 C2.27438596,0.602904762 2.25646784,0.653285714 2.21721637,0.652238095 L1.91419883,0.644285714 L1.80874854,0.93352381 C1.79508772,0.971 1.74245614,0.969190476 1.73132164,0.930904762 L1.64509942,0.635142857 L1.34222222,0.622428571 C1.30297076,0.620809524 1.28842105,0.569285714 1.32074854,0.546666667 L1.57047953,0.371809524 L1.48874854,0.0746666667 C1.47817544,0.0361904762 1.52177778,0.00614285714 1.55293567,0.0304761905 L1.79349708,0.218190476 L2.04589474,0.0472380952 C2.07845614,0.0250952381 2.12,0.058047619 2.10694737,0.0957142857 Z" id="Path"></path>
                    <path d="M3.30952047,0.726666667 L3.20851462,1.01757143 L3.44617544,1.20904762 C3.47695906,1.23385714 3.45904094,1.2842381 3.41978947,1.28319048 L3.11677193,1.2752381 L3.01132164,1.56447619 C2.99766082,1.60195238 2.94502924,1.60014286 2.93389474,1.56185714 L2.84767251,1.26609524 L2.54479532,1.25338095 C2.50554386,1.2517619 2.49099415,1.2002381 2.52332164,1.17761905 L2.77305263,1.0027619 L2.69132164,0.705619048 C2.68074854,0.667142857 2.72435088,0.637095238 2.75550877,0.661428571 L2.99607018,0.849142857 L3.24846784,0.678190476 C3.28102924,0.656047619 3.3225731,0.689 3.30952047,0.726666667 Z" id="Path"></path>
                </g>
            </g>
        </g>
    </g>
</svg>