<?xml version="1.0" encoding="UTF-8"?>
<svg width="24px" height="16px" viewBox="0 0 24 16" version="1.1" xmlns="http://www.w3.org/2000/svg" xmlns:xlink="http://www.w3.org/1999/xlink">
    <!-- Generator: Sketch 55.1 (78136) - https://sketchapp.com -->
    <title>united-arab-emirates</title>
    <desc>Created with Sketch.</desc>
    <g id="Профайл" stroke="none" stroke-width="1" fill="none" fill-rule="evenodd">
        <g id="Профайл-—-языки" transform="translate(-465.000000, -865.000000)" fill-rule="nonzero">
            <g id="united-arab-emirates" transform="translate(465.000000, 865.000000)">
                <path d="M23.9532632,5.3377619 L7.43377778,5.3377619 L7.43377778,0.0131904762 L23.5402573,0.0131904762 C23.7683275,0.0131904762 23.9532632,0.201428571 23.9532632,0.433571429 L23.9532632,5.3377619 L23.9532632,5.3377619 Z" id="Path" fill="#73AF00"></path>
                <path d="M23.5402105,15.9869048 L7.43377778,15.9869048 L7.43377778,10.6623333 L23.9532164,10.6623333 L23.9532164,15.5665238 C23.9532164,15.7987143 23.7682807,15.9869048 23.5402105,15.9869048 Z" id="Path" fill="#464655"></path>
                <rect id="Rectangle" fill="#F5F5F5" x="7.43391813" y="5.33766667" width="16.5192982" height="5.32428571"></rect>
                <path d="M7.43377778,15.9869048 L0.413005848,15.9869048 C0.184935673,15.9869048 0,15.7986667 0,15.5665238 L0,0.43352381 C0,0.201380952 0.184935673,0.0131428571 0.413005848,0.0131428571 L7.43377778,0.0131428571 L7.43377778,15.9869048 Z" id="Path" fill="#FF4B55"></path>
            </g>
        </g>
    </g>
</svg>