<?xml version="1.0" encoding="UTF-8"?>
<svg width="24px" height="16px" viewBox="0 0 24 16" version="1.1" xmlns="http://www.w3.org/2000/svg" xmlns:xlink="http://www.w3.org/1999/xlink">
    <!-- Generator: Sketch 55.1 (78136) - https://sketchapp.com -->
    <title>uzbekistan</title>
    <desc>Created with Sketch.</desc>
    <g id="Профайл" stroke="none" stroke-width="1" fill="none" fill-rule="evenodd">
        <g id="Профайл-—-языки" transform="translate(-465.000000, -707.000000)" fill-rule="nonzero">
            <g id="uzbekistan" transform="translate(465.000000, 707.000000)">
                <path d="M23.9532632,5.3377619 L0,5.3377619 L0,0.43352381 C0,0.201380952 0.184935673,0.0131428571 0.413005848,0.0131428571 L23.5402573,0.0131428571 C23.7683275,0.0131428571 23.9532632,0.201380952 23.9532632,0.43352381 L23.9532632,5.3377619 L23.9532632,5.3377619 Z" id="Path" fill="#82AFFF"></path>
                <path d="M23.5402105,15.9869048 L0.413005848,15.9869048 C0.184935673,15.9869048 0,15.7986667 0,15.5665238 L0,10.6623333 L23.9532164,10.6623333 L23.9532164,15.5665238 C23.9532164,15.7987143 23.7682807,15.9869048 23.5402105,15.9869048 Z" id="Path" fill="#73AF00"></path>
                <rect id="Rectangle" fill="#F5F5F5" x="0" y="5.33766667" width="23.9532164" height="5.32428571"></rect>
                <g id="Group" transform="translate(0.000000, 4.857143)" fill="#FF4B55">
                    <rect id="Rectangle" x="0" y="0.00766666667" width="23.9532164" height="1"></rect>
                    <rect id="Rectangle" x="0" y="5.61385714" width="23.9532164" height="1"></rect>
                </g>
                <g id="Group" transform="translate(2.619883, 0.571429)" fill="#F5F5F5">
                    <path d="M2.68963743,3.432 C1.84416374,3.432 1.15883041,2.73609524 1.15883041,1.87861905 C1.15883041,1.018 1.84411696,0.318952381 2.68963743,0.318952381 C2.69291228,0.318952381 2.69609357,0.318952381 2.69927485,0.319 C2.74905263,0.319666667 2.76650292,0.252380952 2.72261988,0.228428571 C2.46226901,0.0863809524 2.1651462,0.006 1.84926316,0.00833333333 C0.837614035,0.0156666667 0.0158596491,0.868952381 0.026619883,1.89866667 C0.0371929825,2.9177619 0.855719298,3.74266667 1.86250292,3.74266667 C2.17403509,3.74266667 2.46699415,3.66242857 2.72411696,3.52233333 C2.76785965,3.49847619 2.75017544,3.43119048 2.7005848,3.43190476 C2.69684211,3.432 2.69323977,3.432 2.68963743,3.432 Z" id="Path"></path>
                    <path d="M3.88832749,3.00242857 L3.81997661,3.21109524 L3.60388304,3.2127619 C3.57590643,3.21295238 3.56430409,3.24933333 3.58680702,3.2662381 L3.76065497,3.39690476 L3.6954386,3.60661905 C3.68701754,3.6337619 3.71738012,3.6562381 3.74016374,3.63966667 L3.91597661,3.5117619 L4.09178947,3.63966667 C4.1145731,3.6562381 4.14488889,3.6337619 4.13651462,3.60661905 L4.07129825,3.39690476 L4.24509942,3.2662381 C4.26760234,3.24933333 4.256,3.21295238 4.22802339,3.2127619 L4.01192982,3.21109524 L3.94357895,3.00242857 C3.93473684,2.97542857 3.89721637,2.97542857 3.88832749,3.00242857 Z" id="Path"></path>
                    <path d="M5.41080702,3.00242857 L5.34245614,3.21109524 L5.12636257,3.2127619 C5.09838596,3.21295238 5.08678363,3.24933333 5.10928655,3.2662381 L5.28308772,3.39690476 L5.21787135,3.60661905 C5.20945029,3.6337619 5.23981287,3.6562381 5.26259649,3.63966667 L5.43840936,3.5117619 L5.61422222,3.63966667 C5.63700585,3.6562381 5.66732164,3.6337619 5.65894737,3.60661905 L5.59373099,3.39690476 L5.76753216,3.2662381 C5.79003509,3.24933333 5.77843275,3.21295238 5.75045614,3.2127619 L5.53436257,3.21109524 L5.4660117,3.00242857 C5.45716959,2.97542857 5.41960234,2.97542857 5.41080702,3.00242857 Z" id="Path"></path>
                    <path d="M6.93323977,3.00242857 L6.86488889,3.21109524 L6.64879532,3.2127619 C6.62081871,3.21295238 6.60921637,3.24933333 6.6317193,3.2662381 L6.80556725,3.39690476 L6.74035088,3.60661905 C6.73192982,3.6337619 6.7622924,3.6562381 6.78507602,3.63966667 L6.96088889,3.5117619 L7.13670175,3.63966667 C7.15948538,3.6562381 7.18980117,3.6337619 7.1814269,3.60661905 L7.11621053,3.39690476 L7.2900117,3.2662381 C7.31251462,3.24933333 7.30091228,3.21295238 7.27293567,3.2127619 L7.05684211,3.21109524 L6.98849123,3.00242857 C6.97964912,2.97542857 6.94208187,2.97542857 6.93323977,3.00242857 Z" id="Path"></path>
                    <path d="M8.45567251,3.00242857 L8.38732164,3.21109524 L8.17122807,3.2127619 C8.14325146,3.21295238 8.13164912,3.24933333 8.15415205,3.2662381 L8.32795322,3.39690476 L8.26273684,3.60661905 C8.25431579,3.6337619 8.28467836,3.6562381 8.30746199,3.63966667 L8.48327485,3.5117619 L8.65908772,3.63966667 C8.68187135,3.6562381 8.71218713,3.6337619 8.70381287,3.60661905 L8.63859649,3.39690476 L8.81239766,3.2662381 C8.83490058,3.24933333 8.82329825,3.21295238 8.79532164,3.2127619 L8.57922807,3.21109524 L8.51087719,3.00242857 C8.50208187,2.97542857 8.46451462,2.97542857 8.45567251,3.00242857 Z" id="Path"></path>
                    <path d="M9.97815205,3.00242857 L9.90980117,3.21109524 L9.6937076,3.2127619 C9.66573099,3.21295238 9.65412865,3.24933333 9.67663158,3.2662381 L9.85047953,3.39690476 L9.78526316,3.60661905 C9.77684211,3.6337619 9.80720468,3.6562381 9.8299883,3.63966667 L10.0058012,3.5117619 L10.181614,3.63966667 C10.2043977,3.6562381 10.2347135,3.6337619 10.2263392,3.60661905 L10.1611228,3.39690476 L10.3349708,3.2662381 C10.3574737,3.24933333 10.3458713,3.21295238 10.3178947,3.2127619 L10.1018012,3.21109524 L10.0334503,3.00242857 C10.0245146,2.97542857 9.98699415,2.97542857 9.97815205,3.00242857 Z" id="Path"></path>
                    <path d="M5.41080702,1.55614286 L5.34245614,1.76480952 L5.12636257,1.76647619 C5.09838596,1.76666667 5.08678363,1.80304762 5.10928655,1.81995238 L5.28308772,1.95061905 L5.21787135,2.16033333 C5.20945029,2.18747619 5.23981287,2.20995238 5.26259649,2.19338095 L5.43840936,2.06547619 L5.61422222,2.19338095 C5.63700585,2.20995238 5.66732164,2.18747619 5.65894737,2.16033333 L5.59373099,1.95061905 L5.76753216,1.81995238 C5.79003509,1.80304762 5.77843275,1.76666667 5.75045614,1.76647619 L5.53436257,1.76480952 L5.4660117,1.55614286 C5.45716959,1.52904762 5.41960234,1.52904762 5.41080702,1.55614286 Z" id="Path"></path>
                    <path d="M6.93323977,1.55614286 L6.86488889,1.76480952 L6.64879532,1.76647619 C6.62081871,1.76666667 6.60921637,1.80304762 6.6317193,1.81995238 L6.80556725,1.95061905 L6.74035088,2.16033333 C6.73192982,2.18747619 6.7622924,2.20995238 6.78507602,2.19338095 L6.96088889,2.06547619 L7.13670175,2.19338095 C7.15948538,2.20995238 7.18980117,2.18747619 7.1814269,2.16033333 L7.11621053,1.95061905 L7.2900117,1.81995238 C7.31251462,1.80304762 7.30091228,1.76666667 7.27293567,1.76647619 L7.05684211,1.76480952 L6.98849123,1.55614286 C6.97964912,1.52904762 6.94208187,1.52904762 6.93323977,1.55614286 Z" id="Path"></path>
                    <path d="M8.45567251,1.55614286 L8.38732164,1.76480952 L8.17122807,1.76647619 C8.14325146,1.76666667 8.13164912,1.80304762 8.15415205,1.81995238 L8.32795322,1.95061905 L8.26273684,2.16033333 C8.25431579,2.18747619 8.28467836,2.20995238 8.30746199,2.19338095 L8.48327485,2.06547619 L8.65908772,2.19338095 C8.68187135,2.20995238 8.71218713,2.18747619 8.70381287,2.16033333 L8.63859649,1.95061905 L8.81239766,1.81995238 C8.83490058,1.80304762 8.82329825,1.76666667 8.79532164,1.76647619 L8.57922807,1.76480952 L8.51087719,1.55614286 C8.50208187,1.52904762 8.46451462,1.52904762 8.45567251,1.55614286 Z" id="Path"></path>
                    <path d="M9.97815205,1.55614286 L9.90980117,1.76480952 L9.6937076,1.76647619 C9.66573099,1.76666667 9.65412865,1.80304762 9.67663158,1.81995238 L9.85047953,1.95061905 L9.78526316,2.16033333 C9.77684211,2.18747619 9.80720468,2.20995238 9.8299883,2.19338095 L10.0058012,2.06547619 L10.181614,2.19338095 C10.2043977,2.20995238 10.2347135,2.18747619 10.2263392,2.16033333 L10.1611228,1.95061905 L10.3349708,1.81995238 C10.3574737,1.80304762 10.3458713,1.76666667 10.3178947,1.76647619 L10.1018012,1.76480952 L10.0334503,1.55614286 C10.0245146,1.52904762 9.98699415,1.52904762 9.97815205,1.55614286 Z" id="Path"></path>
                    <path d="M6.93323977,3.00242857 L6.86488889,3.21109524 L6.64879532,3.2127619 C6.62081871,3.21295238 6.60921637,3.24933333 6.6317193,3.2662381 L6.80556725,3.39690476 L6.74035088,3.60661905 C6.73192982,3.6337619 6.7622924,3.6562381 6.78507602,3.63966667 L6.96088889,3.5117619 L7.13670175,3.63966667 C7.15948538,3.6562381 7.18980117,3.6337619 7.1814269,3.60661905 L7.11621053,3.39690476 L7.2900117,3.2662381 C7.31251462,3.24933333 7.30091228,3.21295238 7.27293567,3.2127619 L7.05684211,3.21109524 L6.98849123,3.00242857 C6.97964912,2.97542857 6.94208187,2.97542857 6.93323977,3.00242857 Z" id="Path"></path>
                    <path d="M6.93323977,0.109761905 L6.86488889,0.318428571 L6.64879532,0.320095238 C6.62081871,0.320285714 6.60921637,0.356666667 6.6317193,0.373571429 L6.80556725,0.504238095 L6.74035088,0.713952381 C6.73192982,0.741095238 6.7622924,0.763571429 6.78507602,0.747 L6.96088889,0.619095238 L7.13670175,0.747 C7.15948538,0.763571429 7.18980117,0.741095238 7.1814269,0.713952381 L7.11621053,0.504238095 L7.2900117,0.373571429 C7.31251462,0.356666667 7.30091228,0.320285714 7.27293567,0.320095238 L7.05684211,0.318428571 L6.98849123,0.109761905 C6.97964912,0.0827619048 6.94208187,0.0827619048 6.93323977,0.109761905 Z" id="Path"></path>
                    <path d="M8.45567251,3.00242857 L8.38732164,3.21109524 L8.17122807,3.2127619 C8.14325146,3.21295238 8.13164912,3.24933333 8.15415205,3.2662381 L8.32795322,3.39690476 L8.26273684,3.60661905 C8.25431579,3.6337619 8.28467836,3.6562381 8.30746199,3.63966667 L8.48327485,3.5117619 L8.65908772,3.63966667 C8.68187135,3.6562381 8.71218713,3.6337619 8.70381287,3.60661905 L8.63859649,3.39690476 L8.81239766,3.2662381 C8.83490058,3.24933333 8.82329825,3.21295238 8.79532164,3.2127619 L8.57922807,3.21109524 L8.51087719,3.00242857 C8.50208187,2.97542857 8.46451462,2.97542857 8.45567251,3.00242857 Z" id="Path"></path>
                    <path d="M9.97815205,3.00242857 L9.90980117,3.21109524 L9.6937076,3.2127619 C9.66573099,3.21295238 9.65412865,3.24933333 9.67663158,3.2662381 L9.85047953,3.39690476 L9.78526316,3.60661905 C9.77684211,3.6337619 9.80720468,3.6562381 9.8299883,3.63966667 L10.0058012,3.5117619 L10.181614,3.63966667 C10.2043977,3.6562381 10.2347135,3.6337619 10.2263392,3.60661905 L10.1611228,3.39690476 L10.3349708,3.2662381 C10.3574737,3.24933333 10.3458713,3.21295238 10.3178947,3.2127619 L10.1018012,3.21109524 L10.0334503,3.00242857 C10.0245146,2.97542857 9.98699415,2.97542857 9.97815205,3.00242857 Z" id="Path"></path>
                    <path d="M8.45567251,0.109761905 L8.38732164,0.318428571 L8.17122807,0.320095238 C8.14325146,0.320285714 8.13164912,0.356666667 8.15415205,0.373571429 L8.32795322,0.504238095 L8.26273684,0.713952381 C8.25431579,0.741095238 8.28467836,0.763571429 8.30746199,0.747 L8.48327485,0.619095238 L8.65908772,0.747 C8.68187135,0.763571429 8.71218713,0.741095238 8.70381287,0.713952381 L8.63859649,0.504238095 L8.81239766,0.373571429 C8.83490058,0.356666667 8.82329825,0.320285714 8.79532164,0.320095238 L8.57922807,0.318428571 L8.51087719,0.109761905 C8.50208187,0.0827619048 8.46451462,0.0827619048 8.45567251,0.109761905 Z" id="Path"></path>
                    <path d="M9.97815205,0.109761905 L9.90980117,0.318428571 L9.6937076,0.320095238 C9.66573099,0.320285714 9.65412865,0.356666667 9.67663158,0.373571429 L9.85047953,0.504238095 L9.78526316,0.713952381 C9.77684211,0.741095238 9.80720468,0.763571429 9.8299883,0.747 L10.0058012,0.619095238 L10.181614,0.747 C10.2043977,0.763571429 10.2347135,0.741095238 10.2263392,0.713952381 L10.1611228,0.504238095 L10.3349708,0.373571429 C10.3574737,0.356666667 10.3458713,0.320285714 10.3178947,0.320095238 L10.1018012,0.318428571 L10.0334503,0.109761905 C10.0245146,0.0827619048 9.98699415,0.0827619048 9.97815205,0.109761905 Z" id="Path"></path>
                </g>
            </g>
        </g>
    </g>
</svg>