<svg width="24" height="24" xmlns="http://www.w3.org/2000/svg"><g fill="none" fill-rule="evenodd"><path d="M20 2H8c-1.1 0-2 .9-2 2v12c0 1.1.9 2 2 2h12c1.1 0 2-.9 2-2V4c0-1.1-.9-2-2-2zm-8.5 9.5c0 .83-.67 1.5-1.5 1.5H7.5V7H10c.83 0 1.5.67 1.5 1.5v3zm5 0c0 .83-.67 1.5-1.5 1.5h-1a1.5 1.5 0 01-1.5-1.5v-3A1.5 1.5 0 0114 7h1c.83 0 1.5.67 1.5 1.5v3zm4 1.5H19a1.5 1.5 0 01-1.5-1.5v-3A1.5 1.5 0 0119 7h1.5v1.5H19v3h1.5V13zM4 6H2v14c0 1.1.9 2 2 2h14v-2H4V6zm5 5.5h1v-3H9v3zm5 0h1v-3h-1v3z" fill="#1588EE" fill-rule="nonzero"/><path d="M0 0h24v24H0z"/></g></svg>