<svg width="24" height="24" xmlns="http://www.w3.org/2000/svg"><g fill="none" fill-rule="evenodd"><path d="M17.5 13a4.5 4.5 0 110 9 4.5 4.5 0 010-9zM12 13c.24 0 .501.01.778.032a6.514 6.514 0 00-1.242 1.88c-2.737.133-5.465 1.4-5.628 2.03L5.9 17v1.1h5.127a6.46 6.46 0 00.471 1.9H4v-3c0-2.66 5.33-4 8-4zm7.828 3.588l-3.24 3.24a2.5 2.5 0 003.24-3.24zM17.5 15a2.5 2.5 0 00-2.328 3.412l3.24-3.24A2.494 2.494 0 0017.5 15zM12 4c2.21 0 4 1.79 4 4s-1.79 4-4 4-4-1.79-4-4 1.79-4 4-4zm0 1.9a2.1 2.1 0 100 4.2 2.1 2.1 0 000-4.2z" fill="#BFBFBF" fill-rule="nonzero"/><path d="M0 0h24v24H0z"/></g></svg>