<svg xmlns="http://www.w3.org/2000/svg" width="24" height="24"><g fill="none" fill-rule="evenodd"><path fill="#BFBFBF" fill-rule="nonzero" d="M20 13.586L21.414 15l-2.5 2.5 2.5 2.5L20 21.414l-2.5-2.5-2.5 2.5L13.586 20l2.5-2.5-2.5-2.5L15 13.586l2.5 2.5 2.5-2.5zM12 13c.475 0 1.035.042 1.634.127L11.762 15c-2.547.072-5.357 1.225-5.733 1.933L6 17v1h7.76l-1.998 2H4v-3c0-2.66 5.33-4 8-4zm0-9c2.21 0 4 1.79 4 4s-1.79 4-4 4-4-1.79-4-4 1.79-4 4-4zm0 2c-1.1 0-2 .9-2 2s.9 2 2 2 2-.9 2-2-.9-2-2-2z"/><path d="M0 0h24v24H0z"/></g></svg>