<svg width="20" height="20" xmlns="http://www.w3.org/2000/svg"><g fill="none" fill-rule="evenodd"><path d="M16.667 12.917a9.467 9.467 0 01-2.975-.475.85.85 0 00-.85.2l-1.834 1.833a12.538 12.538 0 01-5.491-5.492L7.35 7.142a.8.8 0 00.208-.834 9.467 9.467 0 01-.475-2.975.836.836 0 00-.833-.833H3.333a.836.836 0 00-.833.833C2.5 11.158 8.842 17.5 16.667 17.5a.836.836 0 00.833-.833V13.75a.836.836 0 00-.833-.833zM15.833 10H17.5A7.5 7.5 0 0010 2.5v1.667A5.83 5.83 0 0115.833 10zM12.5 10h1.667c0-2.3-1.867-4.167-4.167-4.167V7.5c1.383 0 2.5 1.117 2.5 2.5z" fill="#BFBFBF" fill-rule="nonzero"/><path d="M0 0h20v20H0z"/></g></svg>