<svg width="32" height="32" xmlns="http://www.w3.org/2000/svg"><g fill="none" fill-rule="evenodd"><circle fill="#1588EE" cx="16" cy="16" r="16"/><path d="M13.5 7.667l-1.525 1.666H9.333c-.916 0-1.666.75-1.666 1.667v10c0 .917.75 1.667 1.666 1.667h13.334c.916 0 1.666-.75 1.666-1.667V11c0-.917-.75-1.667-1.666-1.667h-2.642L18.5 7.667h-5zm2.5 12.5A4.168 4.168 0 0111.833 16c0-2.3 1.867-4.167 4.167-4.167S20.167 13.7 20.167 16 18.3 20.167 16 20.167zm0-1.5a2.667 2.667 0 100-5.334 2.667 2.667 0 000 5.334z" fill="#FFF" fill-rule="nonzero"/><path d="M6 6h20v20H6z"/></g></svg>