<svg xmlns="http://www.w3.org/2000/svg" width="24" height="24"><defs><filter id="a"><feColorMatrix in="SourceGraphic" values="0 0 0 0 0.082353 0 0 0 0 0.533333 0 0 0 0 0.933333 0 0 0 1.000000 0"/></filter></defs><g filter="url(#a)" transform="translate(-8 -4)" fill="none" fill-rule="evenodd"><path fill="#BFBFBF" fill-rule="nonzero" d="M20 9.75c-4.167 0-7.725 2.592-9.167 6.25 1.442 3.658 5 6.25 9.167 6.25s7.725-2.592 9.167-6.25c-1.442-3.658-5-6.25-9.167-6.25zm0 10.417c-2.3 0-4.167-1.867-4.167-4.167S17.7 11.833 20 11.833 24.167 13.7 24.167 16 22.3 20.167 20 20.167zm0-6.667c-1.383 0-2.5 1.117-2.5 2.5s1.117 2.5 2.5 2.5 2.5-1.117 2.5-2.5-1.117-2.5-2.5-2.5z"/><path d="M10 6h20v20H10z"/></g></svg>