<svg xmlns="http://www.w3.org/2000/svg" width="24" height="24"><defs><filter id="a"><feColorMatrix in="SourceGraphic" values="0 0 0 0 0.082353 0 0 0 0 0.533333 0 0 0 0 0.933333 0 0 0 1.000000 0"/></filter></defs><g filter="url(#a)" transform="translate(-8 -4)" fill="none" fill-rule="evenodd"><path fill="#BFBFBF" fill-rule="nonzero" d="M20 11.833c2.3 0 4.167 1.867 4.167 4.167 0 .542-.109 1.05-.3 1.525l2.433 2.433A9.846 9.846 0 0029.158 16c-1.441-3.658-5-6.25-9.166-6.25a9.703 9.703 0 00-3.317.583l1.8 1.8c.475-.191.983-.3 1.525-.3zm-8.333-2.275l1.9 1.9.383.384A9.84 9.84 0 0010.833 16c1.442 3.658 5 6.25 9.167 6.25 1.292 0 2.525-.25 3.65-.7l.35.35 2.442 2.433 1.058-1.058L12.725 8.5l-1.058 1.058zm4.608 4.609l1.292 1.291A2.338 2.338 0 0017.5 16c0 1.383 1.117 2.5 2.5 2.5.183 0 .367-.025.542-.067l1.291 1.292a4.13 4.13 0 01-1.833.442A4.169 4.169 0 0115.833 16c0-.658.167-1.275.442-1.833zm3.592-.65l2.625 2.625.016-.134c0-1.383-1.116-2.5-2.5-2.5l-.141.009z"/><path d="M10 6h20v20H10z"/></g></svg>