<svg width="24" height="24" xmlns="http://www.w3.org/2000/svg"><g fill="none" fill-rule="evenodd"><path d="M12 5.75c-4.167 0-7.725 2.592-9.167 6.25 1.442 3.658 5 6.25 9.167 6.25s7.725-2.592 9.167-6.25c-1.442-3.658-5-6.25-9.167-6.25zm0 10.417A4.168 4.168 0 017.833 12C7.833 9.7 9.7 7.833 12 7.833S16.167 9.7 16.167 12 14.3 16.167 12 16.167zM12 9.5A2.497 2.497 0 009.5 12c0 1.383 1.117 2.5 2.5 2.5s2.5-1.117 2.5-2.5-1.117-2.5-2.5-2.5z" fill="#1588EE" fill-rule="nonzero"/><path d="M2 2h20v20H2z"/></g></svg>