<svg width="30" height="40" xmlns="http://www.w3.org/2000/svg"><g fill="#4167BB"><path d="M20.027 4.984C15.695 2.761 10.477 3.611 7.042 7.1c-3.992 4.055-4.391 10.519-.93 15.037a.616.616 0 00.872.11.636.636 0 00.108-.884c-3.078-4.017-2.722-9.766.828-13.371 3.054-3.103 7.695-3.859 11.548-1.882a.616.616 0 00.834-.278.635.635 0 00-.275-.847zm4.957 5.035a.616.616 0 00-.834-.279.635.635 0 00-.275.847 10.226 10.226 0 01-1.853 11.726c-3.55 3.606-9.21 3.967-13.166.84a.614.614 0 00-.87.111.637.637 0 00.108.885 11.043 11.043 0 006.867 2.39 11.12 11.12 0 007.939-3.334c3.434-3.488 4.271-8.787 2.084-13.186zM23.38 7.618a11.487 11.487 0 00-.99-1.006.614.614 0 00-.877.054.637.637 0 00.054.89 10.256 10.256 0 01.883.897.615.615 0 00.876.055.637.637 0 00.054-.89z"/><path d="M29.62 16.282a2.168 2.168 0 000-2.236l-.816-1.36a.899.899 0 01-.117-.599l.243-1.57c.124-.8-.2-1.594-.845-2.07l-1.265-.935a.888.888 0 01-.335-.509l-.369-1.546a2.122 2.122 0 00-1.557-1.582L23.036 3.5a.873.873 0 01-.5-.34l-.921-1.285a2.09 2.09 0 00-2.038-.859l-1.547.248a.863.863 0 01-.59-.12L16.1.316a2.078 2.078 0 00-2.2 0l-1.34.83a.863.863 0 01-.59.118l-1.546-.247a2.09 2.09 0 00-2.038.858l-.92 1.286a.88.88 0 01-.501.34l-1.523.374c-.774.19-1.37.796-1.558 1.582l-.369 1.547a.887.887 0 01-.335.508l-1.265.935a2.153 2.153 0 00-.845 2.07l.243 1.571a.899.899 0 01-.117.6l-.817 1.36a2.168 2.168 0 000 2.235l.817 1.36c.108.18.15.392.117.6l-.243 1.57c-.124.8.2 1.593.844 2.07l1.266.935a.888.888 0 01.335.508l.368 1.547a2.122 2.122 0 001.558 1.582l.636.156-4.304 9.751a.638.638 0 00.066.632c.133.183.352.28.574.252l3.463-.42L7.87 39.73a.618.618 0 001.075-.103l4.396-9.959.557.345a2.088 2.088 0 002.201 0l.578-.357 4.4 9.971a.621.621 0 00.567.373.62.62 0 00.51-.27l1.994-2.905 3.464.42a.617.617 0 00.573-.252.638.638 0 00.067-.632l-4.307-9.756.612-.15a2.123 2.123 0 001.558-1.582l.369-1.547a.888.888 0 01.334-.508l1.266-.935c.645-.477.969-1.27.845-2.07l-.243-1.572a.899.899 0 01.117-.599l.816-1.36zM8.262 38.096l-1.58-2.303a.617.617 0 00-.584-.265l-2.744.333 3.921-8.884a.875.875 0 01.19.191l.92 1.286c.087.122.186.233.293.331l-2.064 4.677c-.14.317 0 .69.312.833a.62.62 0 00.82-.317l2.057-4.66c.202.028.41.027.62-.006l1.547-.247a.858.858 0 01.277.002l-3.985 9.029zm18.41-2.235l-2.745-.333a.616.616 0 00-.583.265l-1.58 2.303-3.988-9.033a.86.86 0 01.254.002l1.546.247c.218.035.435.034.645.002l2.058 4.663a.62.62 0 00.82.318.634.634 0 00.313-.833l-2.072-4.694c.1-.095.192-.199.274-.314l.92-1.285a.878.878 0 01.21-.207l3.928 8.899zm1.889-20.235l-.817 1.36c-.26.434-.361.95-.284 1.451l.244 1.571a.89.89 0 01-.349.855l-1.266.935a2.15 2.15 0 00-.81 1.231l-.37 1.547a.876.876 0 01-.643.653l-1.523.374a2.12 2.12 0 00-1.212.824l-.92 1.286a.863.863 0 01-.842.354l-1.546-.247a2.09 2.09 0 00-1.43.287l-1.339.83a.858.858 0 01-.908 0l-1.34-.83a2.092 2.092 0 00-1.429-.288l-1.547.248a.863.863 0 01-.841-.355l-.92-1.285a2.115 2.115 0 00-1.213-.824l-1.523-.374a.876.876 0 01-.643-.653l-.369-1.547a2.151 2.151 0 00-.811-1.232l-1.265-.935a.889.889 0 01-.35-.854l.244-1.57a2.178 2.178 0 00-.283-1.452l-.817-1.36a.895.895 0 010-.923l.817-1.36c.26-.434.361-.95.283-1.452l-.243-1.571a.89.89 0 01.349-.855L3.91 8.53c.405-.299.693-.736.81-1.23l.37-1.548a.876.876 0 01.642-.653l1.523-.374c.488-.12.918-.412 1.213-.824l.92-1.285a.863.863 0 01.842-.354l1.546.247a2.089 2.089 0 001.43-.288l1.339-.83a.858.858 0 01.908 0l1.34.83c.427.265.934.367 1.429.288l1.547-.247a.864.864 0 01.841.354l.92 1.285c.295.412.726.705 1.213.824l1.523.375c.32.078.566.328.643.653L25.28 7.3c.117.494.406.932.81 1.231l1.266.935c.267.197.4.524.349.854l-.243 1.571a2.178 2.178 0 00.283 1.452l.817 1.36c.17.284.17.638 0 .923z"/><path d="M22.263 13.203a1.115 1.115 0 00-.935-.78l-3.734-.45-1.576-3.467A1.11 1.11 0 0015 7.844a1.11 1.11 0 00-1.019.662l-1.575 3.468-3.735.45c-.44.053-.797.351-.934.779a1.14 1.14 0 00.305 1.188l2.761 2.593-.733 3.747a1.136 1.136 0 001.099 1.363c.187 0 .376-.049.55-.147l3.28-1.866 3.282 1.866c.387.22.85.192 1.207-.073.359-.264.528-.702.441-1.143l-.733-3.747 2.762-2.593a1.14 1.14 0 00.305-1.188zm-4.164 3.095a.637.637 0 00-.188.586l.75 3.834-3.358-1.91a.613.613 0 00-.606 0l-3.359 1.91.75-3.834a.636.636 0 00-.187-.586l-2.826-2.653 3.822-.46a.622.622 0 00.49-.363L15 9.273l1.612 3.55a.62.62 0 00.49.361l3.822.46-2.825 2.654z"/></g></svg>