<svg width="22" height="21" xmlns="http://www.w3.org/2000/svg"><path d="M16.75 18.675l3.5-2.1v-3.25l-3.5 2.1v3.25zm-1.5 0v-3.25l-3.5-2.1v3.25l3.5 2.1zm-10 0v-3.25l-3.5-2.1v3.25l3.5 2.1zm1.5 0l3.5-2.1v-3.25l-3.5 2.1v3.25zm9.252-8.8l-3.543 2.126L16 14.125 19.542 12l-3.54-2.124zm-.752-1.298V5.323l-3.5 2.101v3.252l3.5-2.099zM2.458 12L6 14.125 9.543 12 6 9.875 2.458 12zM6.75 8.575l3.5 2.1v-3.25l-3.5-2.099v3.25zm.706-4.574L11 6.125 14.54 4 11 1.875 7.456 4zM5.25 8.575v-5L11 .125l5.75 3.45v5l5 3v5.85L16 20.875l-5-3-5 3-5.75-3.45v-5.85l5-3z" fill="#4167BB"/></svg>