<svg width="40" height="30" xmlns="http://www.w3.org/2000/svg"><g fill="none" fill-rule="evenodd"><path d="M1.5 27A1.5 1.5 0 003 28.5h25.25a.75.75 0 110 1.5H3a3 3 0 01-3-3V3a3 3 0 013-3h1l4 8h8l-4-8h2l4 8h8l-4-8h2l4 8h8l-4-8h5a3 3 0 013 3v24a3 3 0 01-3 3h-5.25a.75.75 0 110-1.5H37a1.5 1.5 0 001.5-1.5V3A1.5 1.5 0 0037 1.5h-2.573l2.915 5.83A1.5 1.5 0 0136 9.5H8a1.5 1.5 0 01-1.342-.83L3.073 1.5C2.172 1.5 1.5 2.172 1.5 3v24zm8.25-10h1.5a.75.75 0 110 1.5h-1.5a.75.75 0 110-1.5zm5 0h15.5a.75.75 0 110 1.5h-15.5a.75.75 0 110-1.5z" fill="#4167BB" fill-rule="nonzero"/><path d="M0-5h40v40H0z"/></g></svg>