<svg width="120" height="120" xmlns="http://www.w3.org/2000/svg"><g fill="none"><path d="M115.38 37.432H59.888C47.486 37.42 37.422 47.464 37.41 59.866a22.456 22.456 0 002.866 11L12.531 23.26C32.739-2.896 70.325-7.717 96.48 12.492a59.848 59.848 0 0118.899 24.94z" fill="#F44336"/><path d="M119.771 59.888c-.028 33.061-26.822 59.855-59.883 59.883a53.468 53.468 0 01-7.485-.499L79.35 71.116c6.176-10.752 2.494-24.474-8.234-30.69a22.247 22.247 0 00-11.178-2.994h55.441a59.045 59.045 0 014.392 22.456z" fill="#FFC107"/><path d="M79.35 71.116l-26.947 48.156h-.05C19.56 115.129-3.665 85.186.479 52.394A59.849 59.849 0 0112.53 23.259l27.745 47.607.15.25c6.187 10.749 19.916 14.446 30.665 8.259a22.454 22.454 0 008.259-8.259z" fill="#4CAF50"/><path d="M79.35 71.116c-6.187 10.749-19.917 14.446-30.665 8.259a22.458 22.458 0 01-8.259-8.259l-.15-.25c-6.063-10.819-2.208-24.504 8.611-30.568a22.457 22.457 0 0111.001-2.866h.05a22.247 22.247 0 0111.178 2.994c10.729 6.216 14.41 19.938 8.234 30.69z" fill="#F44336"/><path d="M79.35 71.116c-6.187 10.749-19.917 14.446-30.665 8.259a22.458 22.458 0 01-8.259-8.259l-.15-.25c-6.063-10.819-2.208-24.504 8.611-30.568a22.457 22.457 0 0111.001-2.866h.05a22.247 22.247 0 0111.178 2.994c10.729 6.216 14.41 19.938 8.234 30.69z" fill="#2196F3"/><path d="M59.803 84.84a24.77 24.77 0 01-12.39-3.324 25.043 25.043 0 01-9.148-9.152c-6.89-11.934-2.8-27.194 9.133-34.084a24.954 24.954 0 0112.49-3.343c13.78-.01 24.96 11.152 24.97 24.932a24.95 24.95 0 01-3.342 12.495 25.091 25.091 0 01-21.713 12.475zm.13-44.913a19.907 19.907 0 00-17.361 9.98c-5.512 9.558-2.233 21.775 7.325 27.287 9.558 5.512 21.775 2.233 27.287-7.325 5.512-9.547 2.241-21.755-7.306-27.268a19.962 19.962 0 00-9.94-2.674h-.005z" fill="#FAFAFA"/></g></svg>