<svg width="80" height="64" xmlns="http://www.w3.org/2000/svg"><g fill="none" fill-rule="evenodd"><path d="M46.735 35.218H41.21a17.741 17.741 0 00-1.708-4.125l3.906-3.908a1.14 1.14 0 000-1.612l-5.09-5.093a1.14 1.14 0 00-1.612 0L32.8 24.39a17.73 17.73 0 00-4.123-1.709v-5.527c0-.63-.51-1.14-1.14-1.14h-7.199c-.63 0-1.14.51-1.14 1.14v5.527a17.726 17.726 0 00-4.122 1.709l-3.907-3.909a1.14 1.14 0 00-1.611 0l-5.092 5.093a1.14 1.14 0 000 1.612l3.907 3.908a17.754 17.754 0 00-1.708 4.125H1.14a1.14 1.14 0 00-1.139 1.14v7.202c0 .63.51 1.14 1.14 1.14h5.524a17.73 17.73 0 001.708 4.124l-3.907 3.908a1.14 1.14 0 000 1.612l5.091 5.093a1.14 1.14 0 001.612 0l3.907-3.908c1.3.742 2.68 1.314 4.123 1.708v5.527c0 .63.51 1.14 1.139 1.14h7.2a1.14 1.14 0 001.139-1.14v-5.527A17.734 17.734 0 0032.8 55.53l3.907 3.908a1.14 1.14 0 001.611 0l5.091-5.093a1.14 1.14 0 000-1.612l-3.907-3.908A17.746 17.746 0 0041.21 44.7h5.525c.63 0 1.14-.51 1.14-1.14v-7.202c0-.63-.51-1.14-1.14-1.14zm-1.14 7.202h-5.278a1.14 1.14 0 00-1.113.896 15.5 15.5 0 01-2.099 5.067 1.14 1.14 0 00.154 1.421l3.733 3.734-3.48 3.481-3.733-3.734a1.139 1.139 0 00-1.42-.154 15.488 15.488 0 01-5.066 2.1 1.14 1.14 0 00-.895 1.113v5.28h-4.922v-5.28a1.14 1.14 0 00-.896-1.114 15.486 15.486 0 01-5.065-2.099 1.14 1.14 0 00-1.42.154l-3.733 3.734-3.48-3.481 3.733-3.734a1.14 1.14 0 00.154-1.421 15.5 15.5 0 01-2.099-5.067 1.14 1.14 0 00-1.113-.896H2.28v-4.923h5.278a1.14 1.14 0 001.113-.896c.395-1.805 1.1-3.51 2.098-5.067a1.14 1.14 0 00-.153-1.421l-3.733-3.734 3.48-3.48 3.733 3.733c.378.379.97.442 1.42.154a15.488 15.488 0 015.065-2.1 1.14 1.14 0 00.896-1.113v-5.28h4.922v5.28c0 .536.372 1 .895 1.114a15.488 15.488 0 015.066 2.099 1.14 1.14 0 001.42-.154l3.733-3.734 3.48 3.481-3.733 3.734a1.14 1.14 0 00-.154 1.42 15.502 15.502 0 012.099 5.068 1.14 1.14 0 001.113.896h5.278v4.923z" fill="#4167BB" fill-rule="nonzero"/><circle stroke="#4167BB" stroke-width="2.4" cx="23.93" cy="39.95" r="8.8"/><path d="M78.705 14.88h-4.019a13.83 13.83 0 00-1.174-2.838L76.353 9.2a1.14 1.14 0 000-1.612l-3.89-3.892a1.14 1.14 0 00-1.612 0L68.01 6.54a13.75 13.75 0 00-2.836-1.175v-4.02c0-.63-.51-1.14-1.14-1.14h-5.501c-.63 0-1.14.51-1.14 1.14v4.02a13.72 13.72 0 00-2.835 1.175l-2.842-2.843a1.14 1.14 0 00-1.611 0l-3.89 3.892a1.14 1.14 0 000 1.612l2.841 2.842c-.496.9-.889 1.85-1.175 2.837h-4.018c-.63 0-1.14.51-1.14 1.14v5.504c0 .63.51 1.14 1.14 1.14h4.018a13.87 13.87 0 001.175 2.837l-2.841 2.842a1.14 1.14 0 000 1.612l3.89 3.892a1.14 1.14 0 001.611 0l2.842-2.843c.9.496 1.848.89 2.836 1.175v4.02c0 .63.51 1.14 1.139 1.14h5.502c.629 0 1.14-.51 1.14-1.14v-4.02a13.797 13.797 0 002.835-1.175l2.841 2.843a1.14 1.14 0 001.612 0l3.89-3.892a1.14 1.14 0 000-1.612L73.512 25.5c.496-.9.889-1.85 1.174-2.837h4.019c.63 0 1.14-.51 1.14-1.14v-5.504c0-.63-.511-1.14-1.14-1.14zM73.8 20.382a1.14 1.14 0 00-1.113.896 11.577 11.577 0 01-1.567 3.785 1.14 1.14 0 00.154 1.42l2.662 2.664-2.279 2.28-2.662-2.663a1.14 1.14 0 00-1.42-.154 11.565 11.565 0 01-3.784 1.567 1.14 1.14 0 00-.896 1.114v3.766h-3.223v-3.766a1.14 1.14 0 00-.896-1.114 11.56 11.56 0 01-3.783-1.567 1.14 1.14 0 00-1.42.154l-2.662 2.663-2.28-2.28 2.663-2.663a1.14 1.14 0 00.153-1.421 11.579 11.579 0 01-1.567-3.785 1.14 1.14 0 00-1.113-.896h-3.765V17.16h3.765a1.14 1.14 0 001.113-.896c.296-1.35.823-2.623 1.567-3.785a1.14 1.14 0 00-.153-1.42l-2.662-2.664 2.279-2.28 2.662 2.663c.379.38.97.443 1.42.154a11.572 11.572 0 013.784-1.567 1.14 1.14 0 00.895-1.114V2.484h3.223V6.25c0 .536.373 1 .896 1.114 1.349.295 2.622.822 3.784 1.567.45.29 1.041.225 1.42-.154l2.662-2.663 2.28 2.28-2.663 2.663a1.14 1.14 0 00-.154 1.421 11.577 11.577 0 011.567 3.785 1.14 1.14 0 001.113.896h3.765v3.224H73.8z" fill="#4167BB" fill-rule="nonzero"/><path d="M61.28 24.37a5.6 5.6 0 100-11.2 5.6 5.6 0 000 11.2zm0 2.4a8 8 0 110-16 8 8 0 010 16zM37.649 7.17h-.003a1.14 1.14 0 00-1.14 1.137l-.002.7a1.14 1.14 0 001.136 1.142h.004a1.14 1.14 0 001.139-1.136l.002-.7a1.14 1.14 0 00-1.136-1.143zm-.014 4.618h-.003a1.14 1.14 0 00-1.14 1.136l-.001.7a1.14 1.14 0 001.136 1.143h.003a1.14 1.14 0 001.14-1.137l.001-.7a1.14 1.14 0 00-1.136-1.142zm2.664-1.952l-.7-.002h-.003a1.14 1.14 0 00-.003 2.28l.699.002h.003a1.14 1.14 0 00.004-2.28zm-4.617-.014l-.7-.002h-.003a1.14 1.14 0 00-.003 2.28l.699.002h.003a1.14 1.14 0 00.004-2.28zM53.95 39.147h-.003a1.14 1.14 0 00-1.139 1.137l-.002.7a1.14 1.14 0 001.136 1.142h.003a1.14 1.14 0 001.14-1.136l.002-.7a1.14 1.14 0 00-1.136-1.143zm-.013 4.617h-.003a1.14 1.14 0 00-1.14 1.137l-.001.7a1.14 1.14 0 001.135 1.142h.004a1.14 1.14 0 001.14-1.136l.001-.7a1.14 1.14 0 00-1.136-1.143zm2.663-1.951l-.699-.002h-.003a1.14 1.14 0 00-.004 2.28l.7.002h.003a1.14 1.14 0 00.003-2.28zm-4.615-.013l-.7-.002h-.003a1.14 1.14 0 00-.003 2.28l.699.001h.003a1.14 1.14 0 00.004-2.28z" fill="#4167BB" fill-rule="nonzero"/></g></svg>