<svg width="30" height="40" xmlns="http://www.w3.org/2000/svg"><g fill="none" fill-rule="evenodd"><path d="M4 .75A3.25 3.25 0 00.75 4v32A3.25 3.25 0 004 39.25h25a.25.25 0 00.25-.25V1A.25.25 0 0029 .75H4z" stroke="#4167BB" stroke-width="1.5"/><path d="M4 .75a3.25 3.25 0 100 6.5h25a.25.25 0 00.25-.25V1A.25.25 0 0029 .75H4z" stroke="#4167BB" stroke-width="1.5"/><path fill="#4167BB" d="M4 7h1.5v32H4z"/><path d="M8.5 22.274l3-5.334 3 5.334V7H16v17.182a1 1 0 01-1.872.49L11.5 20l-2.628 4.673A1 1 0 017 24.183V16.75a.75.75 0 111.5 0v5.524z" fill="#4167BB" fill-rule="nonzero"/><path d="M9.65 4.5h6.1l-1.25 2H16L18 3H9L7 6.5v6.75a.75.75 0 101.5 0V6.5l1.15-2z" fill="#4167BB" fill-rule="nonzero"/><path d="M25.75 3.25H29v1.5h-3.25a.75.75 0 110-1.5z" fill="#4167BB"/></g></svg>