<svg width="38" height="39" xmlns="http://www.w3.org/2000/svg"><g fill="none" fill-rule="evenodd"><path d="M36.5 13V7A1.5 1.5 0 0035 5.5h-3.041a3 3 0 01-5.918 0H11.96a3 3 0 01-5.918 0H3A1.5 1.5 0 001.5 7v6h2.75a.75.75 0 110 1.5H1.5V36A1.5 1.5 0 003 37.5h25.25a.75.75 0 110 1.5H3a3 3 0 01-3-3V7a3 3 0 013-3h3V3a3 3 0 116 0v1h14V3a3 3 0 016 0v1h3a3 3 0 013 3v29a3 3 0 01-3 3h-3.25a.75.75 0 110-1.5H35a1.5 1.5 0 001.5-1.5V14.5H7.75a.75.75 0 110-1.5H36.5zM9 1.5A1.5 1.5 0 007.5 3v2a1.5 1.5 0 003 0V3A1.5 1.5 0 009 1.5zm20 0A1.5 1.5 0 0027.5 3v2a1.5 1.5 0 003 0V3A1.5 1.5 0 0029 1.5zm-9.535 28.05l2.245 1.18-.429-2.5a1 1 0 01.288-.885l1.816-1.77-2.51-.364a1 1 0 01-.753-.547L19 22.389l-1.122 2.275a1 1 0 01-.753.547l-2.51.364 1.816 1.77a1 1 0 01.288.886l-.43 2.5 2.246-1.181a1 1 0 01.93 0zM15.195 33a.5.5 0 01-.726-.526l.727-4.238-3.079-3.001a.5.5 0 01.277-.853l4.255-.618 1.903-3.856a.5.5 0 01.896 0l1.903 3.856 4.255.618a.5.5 0 01.277.853l-3.079 3.001.727 4.238a.5.5 0 01-.725.527L19 31l-3.806 2z" fill="#4167BB" fill-rule="nonzero"/><path d="M-1-1h40v40H-1z"/></g></svg>