<svg width="117" height="120" xmlns="http://www.w3.org/2000/svg"><defs><radialGradient cx="47.778%" cy="39.538%" fx="47.778%" fy="39.538%" r="128.347%" gradientTransform="matrix(.81314 0 0 1 .09 0)" id="c"><stop stop-color="#960E18" offset="30%"/><stop stop-color="#B11927" stop-opacity=".74" offset="35.1%"/><stop stop-color="#DB293D" stop-opacity=".343" offset="43.5%"/><stop stop-color="#F5334B" stop-opacity=".094" offset="49.7%"/><stop stop-color="#FF3750" stop-opacity="0" offset="53%"/></radialGradient><radialGradient cx="79.305%" cy="-40.886%" fx="79.305%" fy="-40.886%" r="193.792%" gradientTransform="matrix(.83955 0 0 1 .127 0)" id="h"><stop stop-color="#FFF44F" offset="11.3%"/><stop stop-color="#FF980E" offset="45.6%"/><stop stop-color="#FF5634" offset="62.2%"/><stop stop-color="#FF3647" offset="71.6%"/><stop stop-color="#E31587" offset="90.4%"/></radialGradient><radialGradient cx="49.996%" cy="-29.998%" fx="49.996%" fy="-29.998%" r="314.953%" gradientTransform="matrix(1 0 0 .58897 0 -.123)" id="d"><stop stop-color="#FFF44F" offset="13.2%"/><stop stop-color="#FFDC3E" offset="25.2%"/><stop stop-color="#FF9D12" offset="50.6%"/><stop stop-color="#FF980E" offset="52.6%"/></radialGradient><radialGradient cx="19.455%" cy="110.087%" fx="19.455%" fy="110.087%" r="111.743%" gradientTransform="matrix(1 0 0 .91227 0 .097)" id="e"><stop stop-color="#3A8EE6" offset="35.3%"/><stop stop-color="#5C79F0" offset="47.2%"/><stop stop-color="#9059FF" offset="66.9%"/><stop stop-color="#C139E6" offset="100%"/></radialGradient><radialGradient cx="58.238%" cy="36.619%" fx="58.238%" fy="36.619%" r="59.246%" gradientTransform="scale(1 .91227) rotate(-13.592 .73 .384)" id="f"><stop stop-color="#9059FF" stop-opacity="0" offset="20.6%"/><stop stop-color="#8C4FF3" stop-opacity=".064" offset="27.8%"/><stop stop-color="#7716A8" stop-opacity=".45" offset="74.7%"/><stop stop-color="#6E008B" stop-opacity=".6" offset="97.5%"/></radialGradient><radialGradient cx="85.913%" cy="-12.934%" fx="85.913%" fy="-12.934%" r="128.347%" gradientTransform="matrix(.81314 0 0 1 .16 0)" id="b"><stop stop-color="#FFBD4F" offset="12.9%"/><stop stop-color="#FFAC31" offset="18.6%"/><stop stop-color="#FF9D17" offset="24.7%"/><stop stop-color="#FF980E" offset="28.3%"/><stop stop-color="#FF563B" offset="40.3%"/><stop stop-color="#FF3750" offset="46.7%"/><stop stop-color="#F5156C" offset="71%"/><stop stop-color="#EB0878" offset="78.2%"/><stop stop-color="#E50080" offset="86%"/></radialGradient><radialGradient cx="208.116%" cy="-103.936%" fx="208.116%" fy="-103.936%" r="293.24%" gradientTransform="matrix(1 0 0 .9963 0 -.004)" id="g"><stop stop-color="#FFE226" offset="0%"/><stop stop-color="#FFDB27" offset="12.1%"/><stop stop-color="#FFC82A" offset="29.5%"/><stop stop-color="#FFA930" offset="50.2%"/><stop stop-color="#FF7E37" offset="73.2%"/><stop stop-color="#FF7139" offset="79.2%"/></radialGradient><radialGradient cx="6.322%" cy="-10.342%" fx="6.322%" fy="-10.342%" r="348.744%" gradientTransform="scale(1 .47353) rotate(83.976 .127 -.16)" id="i"><stop stop-color="#FFF44F" offset="0%"/><stop stop-color="#FFE847" offset="6%"/><stop stop-color="#FFC830" offset="16.8%"/><stop stop-color="#FF980E" offset="30.4%"/><stop stop-color="#FF8B16" offset="35.6%"/><stop stop-color="#FF672A" offset="45.5%"/><stop stop-color="#FF3647" offset="57%"/><stop stop-color="#E31587" offset="73.7%"/></radialGradient><radialGradient cx="15.372%" cy="-42.681%" fx="15.372%" fy="-42.681%" r="238.693%" gradientTransform="matrix(.9813 0 0 1 .003 0)" id="j"><stop stop-color="#FFF44F" offset="13.7%"/><stop stop-color="#FF980E" offset="48%"/><stop stop-color="#FF5634" offset="59.2%"/><stop stop-color="#FF3647" offset="65.5%"/><stop stop-color="#E31587" offset="90.4%"/></radialGradient><radialGradient cx="155.387%" cy="-44.592%" fx="155.387%" fy="-44.592%" r="312.831%" gradientTransform="matrix(.89553 0 0 1 .162 0)" id="k"><stop stop-color="#FFF44F" offset="9.4%"/><stop stop-color="#FFE141" offset="23.1%"/><stop stop-color="#FFAF1E" offset="50.9%"/><stop stop-color="#FF980E" offset="62.6%"/></radialGradient><linearGradient x1="87.259%" y1="15.492%" x2="9.369%" y2="93.116%" id="a"><stop stop-color="#FFF44F" offset="4.8%"/><stop stop-color="#FFE847" offset="11.1%"/><stop stop-color="#FFC830" offset="22.5%"/><stop stop-color="#FF980E" offset="36.8%"/><stop stop-color="#FF8B16" offset="40.1%"/><stop stop-color="#FF672A" offset="46.2%"/><stop stop-color="#FF3647" offset="53.4%"/><stop stop-color="#E31587" offset="70.5%"/></linearGradient><linearGradient x1="86.323%" y1="15.077%" x2="20.047%" y2="83.535%" id="l"><stop stop-color="#FFF44F" stop-opacity=".8" offset="16.7%"/><stop stop-color="#FFF44F" stop-opacity=".634" offset="26.6%"/><stop stop-color="#FFF44F" stop-opacity=".217" offset="48.9%"/><stop stop-color="#FFF44F" stop-opacity="0" offset="60%"/></linearGradient></defs><g fill="none"><path d="M111.924 40.24c-2.526-6.078-7.65-12.64-11.663-14.715a60.399 60.399 0 015.888 17.646l.01.098C99.587 26.88 88.44 20.274 79.337 5.886a70.648 70.648 0 01-1.369-2.226 18.36 18.36 0 01-.64-1.2A10.58 10.58 0 0176.46.157a.15.15 0 00-.132-.15.207.207 0 00-.11 0c-.008 0-.02.014-.029.017-.008.003-.028.016-.041.022l.022-.039c-14.602 8.55-19.557 24.378-20.013 32.295a29.08 29.08 0 00-15.999 6.167 17.38 17.38 0 00-1.5-1.137 26.952 26.952 0 01-.163-14.21A43.057 43.057 0 0024.5 33.937h-.027c-2.304-2.92-2.142-12.55-2.01-14.562-.682.274-1.332.62-1.941 1.03a42.338 42.338 0 00-5.682 4.868 50.767 50.767 0 00-5.434 6.52v.01-.01a49.1 49.1 0 00-7.8 17.614l-.079.384c-.109.511-.504 3.073-.571 3.63 0 .043-.009.084-.013.127A55.406 55.406 0 000 61.563v.3C.026 92.04 23.137 117.18 53.205 119.74c30.068 2.56 57.097-18.31 62.226-48.047.097-.75.177-1.493.264-2.25a59.785 59.785 0 00-3.771-29.204zM44.919 85.747c.272.13.527.272.806.396l.04.026a30.247 30.247 0 01-.846-.422z" fill="url(#a)"/><path d="M111.924 40.24c-2.526-6.078-7.65-12.64-11.663-14.715a60.399 60.399 0 015.888 17.646v.056l.01.061a52.65 52.65 0 01-1.809 39.237c-6.662 14.297-22.79 28.95-48.035 28.238-27.278-.773-51.3-21.014-55.791-47.525-.818-4.18 0-6.3.41-9.697A43.314 43.314 0 000 61.563v.3C.026 92.04 23.137 117.18 53.205 119.74c30.068 2.56 57.097-18.31 62.226-48.047.097-.75.177-1.493.264-2.25a59.785 59.785 0 00-3.771-29.204z" fill="url(#b)"/><path d="M111.924 40.24c-2.526-6.078-7.65-12.64-11.663-14.715a60.399 60.399 0 015.888 17.646v.056l.01.061a52.65 52.65 0 01-1.809 39.237c-6.662 14.297-22.79 28.95-48.035 28.238-27.278-.773-51.3-21.014-55.791-47.525-.818-4.18 0-6.3.41-9.697A43.314 43.314 0 000 61.563v.3C.026 92.04 23.137 117.18 53.205 119.74c30.068 2.56 57.097-18.31 62.226-48.047.097-.75.177-1.493.264-2.25a59.785 59.785 0 00-3.771-29.204z" fill="url(#c)"/><path d="M83.673 47.074c.126.089.243.177.361.266a31.65 31.65 0 00-5.4-7.043C60.566 22.225 73.9 1.113 76.148.04l.023-.033c-14.602 8.55-19.557 24.378-20.013 32.295.678-.046 1.35-.103 2.043-.103a29.34 29.34 0 0125.473 14.875z" fill="url(#d)"/><path d="M58.237 50.683c-.096 1.446-5.205 6.434-6.991 6.434-16.532 0-19.215 10-19.215 10 .732 8.421 6.6 15.357 13.694 19.026.323.168.652.32.98.468.57.252 1.139.485 1.708.7a25.852 25.852 0 007.564 1.459c28.976 1.359 34.589-34.65 13.679-45.1a20.07 20.07 0 0114.017 3.404A29.34 29.34 0 0058.2 32.2c-.69 0-1.365.057-2.043.103a29.08 29.08 0 00-15.999 6.167c.886.75 1.887 1.752 3.995 3.83 3.944 3.886 14.062 7.912 14.084 8.384z" fill="url(#e)"/><path d="M58.237 50.683c-.096 1.446-5.205 6.434-6.991 6.434-16.532 0-19.215 10-19.215 10 .732 8.421 6.6 15.357 13.694 19.026.323.168.652.32.98.468.57.252 1.139.485 1.708.7a25.852 25.852 0 007.564 1.459c28.976 1.359 34.589-34.65 13.679-45.1a20.07 20.07 0 0114.017 3.404A29.34 29.34 0 0058.2 32.2c-.69 0-1.365.057-2.043.103a29.08 29.08 0 00-15.999 6.167c.886.75 1.887 1.752 3.995 3.83 3.944 3.886 14.062 7.912 14.084 8.384z" fill="url(#f)"/><path d="M37.447 36.535c.471.3.86.561 1.2.797a26.952 26.952 0 01-.163-14.21A43.057 43.057 0 0024.49 33.937c.284-.007 8.717-.159 12.957 2.598z" fill="url(#g)"/><path d="M.531 63.238c4.487 26.511 28.514 46.752 55.791 47.525 25.245.714 41.373-13.941 48.036-28.238a52.65 52.65 0 001.809-39.237v-.055c0-.044-.009-.07 0-.056l.01.098c2.063 13.465-4.786 26.51-15.493 35.332l-.033.075c-20.862 16.99-40.827 10.251-44.868 7.5a30.247 30.247 0 01-.846-.421c-12.163-5.814-17.188-16.896-16.111-26.4a14.93 14.93 0 01-13.772-8.663 21.927 21.927 0 0121.373-.858 28.95 28.95 0 0021.828.858c-.022-.472-10.14-4.5-14.085-8.385-2.107-2.077-3.108-3.078-3.994-3.83a17.38 17.38 0 00-1.5-1.136c-.345-.236-.733-.49-1.2-.797-4.24-2.757-12.674-2.605-12.953-2.598h-.026c-2.305-2.92-2.142-12.55-2.01-14.562-.682.274-1.333.62-1.941 1.03a42.338 42.338 0 00-5.682 4.868 50.767 50.767 0 00-5.458 6.506v.009-.01a49.1 49.1 0 00-7.8 17.614c-.028.118-2.093 9.148-1.075 13.831z" fill="url(#h)"/><path d="M78.638 40.297a31.65 31.65 0 015.4 7.05c.319.242.618.482.871.714 13.18 12.15 6.274 29.325 5.76 30.548 10.707-8.822 17.55-21.867 15.493-35.333-6.576-16.395-17.722-23.002-26.826-37.39a70.648 70.648 0 01-1.369-2.226 18.36 18.36 0 01-.64-1.2A10.58 10.58 0 0176.46.157a.15.15 0 00-.132-.15.207.207 0 00-.11 0c-.008 0-.02.014-.029.017-.008.003-.028.016-.041.022-2.249 1.067-15.582 22.18 2.49 40.251z" fill="url(#i)"/><path d="M84.9 48.054a12.125 12.125 0 00-.872-.714 14.123 14.123 0 00-.361-.266 20.07 20.07 0 00-14.017-3.403c20.91 10.455 15.3 46.458-13.68 45.099a25.852 25.852 0 01-7.564-1.46 30.645 30.645 0 01-1.707-.699c-.329-.15-.658-.3-.982-.468l.041.026c4.041 2.758 24 9.498 44.868-7.5l.033-.075c.52-1.215 7.427-18.395-5.76-30.54z" fill="url(#j)"/><path d="M32.031 67.117s2.684-10 19.215-10c1.786 0 6.9-4.988 6.991-6.434a28.95 28.95 0 01-21.828-.858 21.927 21.927 0 00-21.373.858 14.93 14.93 0 0013.772 8.663c-1.078 9.505 3.947 20.587 16.111 26.4.272.13.527.271.806.396-7.1-3.668-12.962-10.604-13.694-19.025z" fill="url(#k)"/><path d="M111.924 40.24c-2.526-6.078-7.65-12.64-11.663-14.715a60.399 60.399 0 015.888 17.646l.01.098C99.587 26.88 88.44 20.274 79.337 5.886a70.648 70.648 0 01-1.369-2.226 18.36 18.36 0 01-.64-1.2A10.58 10.58 0 0176.46.157a.15.15 0 00-.132-.15.207.207 0 00-.11 0c-.008 0-.02.014-.029.017-.008.003-.028.016-.041.022l.022-.039c-14.602 8.55-19.557 24.378-20.013 32.295.678-.046 1.35-.103 2.043-.103a29.34 29.34 0 0125.473 14.875 20.07 20.07 0 00-14.017-3.403c20.91 10.455 15.3 46.458-13.679 45.099a25.852 25.852 0 01-7.564-1.46 30.645 30.645 0 01-1.707-.699c-.329-.15-.658-.3-.982-.468l.041.026a30.247 30.247 0 01-.846-.422c.272.13.527.272.806.396-7.1-3.669-12.962-10.605-13.694-19.026 0 0 2.684-10 19.215-10 1.786 0 6.9-4.988 6.991-6.434-.022-.472-10.14-4.5-14.084-8.385-2.108-2.077-3.108-3.078-3.995-3.83a17.38 17.38 0 00-1.5-1.136 26.952 26.952 0 01-.163-14.21A43.057 43.057 0 0024.5 33.937h-.027c-2.304-2.92-2.142-12.55-2.01-14.562-.682.274-1.332.62-1.941 1.03a42.338 42.338 0 00-5.682 4.868 50.767 50.767 0 00-5.434 6.52v.01-.01a49.1 49.1 0 00-7.8 17.614l-.079.384c-.109.511-.6 3.11-.67 3.667 0 .042 0-.043 0 0A67.641 67.641 0 000 61.563v.3C.026 92.04 23.137 117.18 53.205 119.74c30.068 2.56 57.097-18.31 62.226-48.047.097-.75.177-1.493.264-2.25a59.785 59.785 0 00-3.771-29.204z" fill="url(#l)"/></g></svg>