<svg width="119" height="120" xmlns="http://www.w3.org/2000/svg"><defs><linearGradient x1="50%" y1="98.37%" x2="50%" y2="1.455%" id="a"><stop stop-color="#ED1F33" offset="0%"/><stop stop-color="#ED1F33" offset="30%"/><stop stop-color="#A51C21" offset="100%"/></linearGradient><linearGradient x1="50%" y1="99.148%" x2="50%" y2=".391%" id="b"><stop stop-color="#9A1A1F" offset="0%"/><stop stop-color="#EF3547" offset="70%"/><stop stop-color="#EF3547" offset="100%"/></linearGradient></defs><g fill="none"><path d="M39.72 26.833c-6.546 7.727-10.787 19.15-11.075 31.972v2.789c.288 12.82 4.528 24.244 11.074 31.971 8.494 11.03 21.12 18.024 35.22 18.024 8.674 0 16.79-2.648 23.73-7.253-10.422 9.325-24.164 15.013-39.237 15.069-.075 0-.149.003-.224.003C26.508 119.408 0 92.899 0 60.2 0 28.446 24.998 2.532 56.388 1.06a60.02 60.02 0 012.82-.068c15.159 0 28.984 5.699 39.458 15.068-6.94-4.603-15.054-7.25-23.726-7.25-14.1 0-26.727 6.993-35.22 18.023" fill="url(#a)" transform="matrix(1 0 0 -1 0 120.4)"/><path d="M39.719 93.566c5.433 6.414 12.451 10.281 20.118 10.281 17.235 0 31.208-19.541 31.208-43.647 0-24.105-13.973-43.646-31.208-43.646-7.666 0-14.685 3.868-20.117 10.28C48.213 15.804 60.84 8.81 74.94 8.81c8.672 0 16.786 2.649 23.726 7.251 12.12 10.841 19.75 26.598 19.75 44.14 0 17.54-7.628 33.295-19.746 44.136-6.94 4.605-15.057 7.254-23.73 7.254-14.1 0-26.727-6.994-35.221-18.025" fill="url(#b)" transform="matrix(1 0 0 -1 0 120.401)"/></g></svg>