<svg width="40" height="36" xmlns="http://www.w3.org/2000/svg"><g fill="none" fill-rule="evenodd"><path d="M1.5 12.668V33A1.5 1.5 0 003 34.5h27.25a.75.75 0 110 1.5H3a3 3 0 01-3-3V9a3 3 0 013-3h9V3a3 3 0 013-3h10a3 3 0 013 3v3h9a3 3 0 013 3v24a3 3 0 01-3 3h-3.25a.75.75 0 110-1.5H37a1.5 1.5 0 001.5-1.5V12.668c-3.436 4.643-8.578 7.947-14.5 8.985V24a2 2 0 01-2 2h-4a2 2 0 01-2-2v-2.347a22.863 22.863 0 01-8.49-3.337c-.662-.429.177-1.662.96-1.164A21.415 21.415 0 0016 20.128V18a2 2 0 012-2h4a2 2 0 012 2v2.128A21.484 21.484 0 0038.5 9.962V9A1.5 1.5 0 0037 7.5H3A1.5 1.5 0 001.5 9v.962a21.622 21.622 0 004.48 5.341c.775.667-.285 1.732-.976 1.137A23.135 23.135 0 011.5 12.668zM13.5 6h13V3A1.5 1.5 0 0025 1.5H15A1.5 1.5 0 0013.5 3v3zM18 17.5a.5.5 0 00-.5.5v6a.5.5 0 00.5.5h4a.5.5 0 00.5-.5v-6a.5.5 0 00-.5-.5h-4z" fill="#4167BB" fill-rule="nonzero"/><path d="M0-2h40v40H0z"/></g></svg>