<svg width="120" height="120" xmlns="http://www.w3.org/2000/svg"><defs><radialGradient cx="50.228%" cy="42.71%" fx="50.228%" fy="42.71%" r="54.251%" id="b"><stop stop-color="#06C2E7" offset="0%"/><stop stop-color="#0DB8EC" offset="25%"/><stop stop-color="#12AEF1" offset="50%"/><stop stop-color="#1F86F9" offset="75%"/><stop stop-color="#107DDD" offset="100%"/></radialGradient><linearGradient x1="50%" y1="100%" x2="50%" y2="0%" id="a"><stop stop-color="#BDBDBD" offset="0%"/><stop stop-color="#FFF" offset="100%"/></linearGradient></defs><g fill="none"><path d="M119.88 59.834a59.726 59.726 0 01-59.726 59.726C27.168 119.56.428 92.82.428 59.834.428 26.848 27.168.108 60.154.108a59.726 59.726 0 0159.726 59.726h0z" stroke="#CDCDCD" stroke-width=".508" fill="url(#a)" stroke-linecap="round" stroke-linejoin="round"/><path d="M115.2 59.834c0 30.4-24.645 55.046-55.046 55.046S5.108 90.235 5.108 59.834 29.753 4.788 60.154 4.788c30.4 0 55.046 24.645 55.046 55.046z" fill="url(#b)"/><path d="M60.154 7.658a.8.8 0 00-.803.803v9.257a.8.8 0 00.803.803.8.8 0 00.802-.803V8.461a.8.8 0 00-.802-.803zm-5.25.332a.8.8 0 00-.878.882l.404 3.873a.8.8 0 00.882.715.8.8 0 00.714-.881l-.404-3.873a.8.8 0 00-.718-.716zm10.537.004a.8.8 0 00-.72.715l-.407 3.873a.801.801 0 00.715.882.8.8 0 00.882-.714l.407-3.873a.8.8 0 00-.877-.883zm-15.93.778a.8.8 0 00-.781.969l1.916 9.056a.8.8 0 00.952.62.8.8 0 00.619-.952L50.3 9.409a.8.8 0 00-.79-.637zm21.323.008a.8.8 0 00-.79.636L68.12 18.47a.8.8 0 00.619.952.8.8 0 00.951-.618l1.924-9.056a.8.8 0 00-.78-.969zm-26.47 1.444a.8.8 0 00-.832 1.048l1.202 3.703a.801.801 0 001.012.515.8.8 0 00.515-1.01l-1.204-3.704a.8.8 0 00-.694-.552zm31.588.002a.8.8 0 00-.694.552l-1.204 3.703a.8.8 0 00.515 1.011.8.8 0 001.011-.515l1.204-3.703a.8.8 0 00-.832-1.049zm-36.679 1.86a.8.8 0 00-.719 1.13l3.76 8.458a.8.8 0 001.06.408.8.8 0 00.407-1.06l-3.76-8.458a.8.8 0 00-.748-.478zm41.826.029a.802.802 0 00-.748.476l-3.772 8.454a.8.8 0 00.406 1.06.8.8 0 001.06-.406l3.772-8.454a.8.8 0 00-.718-1.13zm-46.55 2.471a.8.8 0 00-.75 1.203l1.946 3.372a.8.8 0 001.096.294.8.8 0 00.294-1.097l-1.947-3.372a.8.8 0 00-.64-.4zm51.21 0a.798.798 0 00-.639.4l-1.947 3.372a.8.8 0 00.294 1.097.8.8 0 001.096-.294l1.947-3.372a.8.8 0 00-.751-1.203zM29.96 17.447a.805.805 0 00-.622 1.274l5.435 7.493c.261.36.762.44 1.122.179a.8.8 0 00.178-1.121l-5.436-7.493a.8.8 0 00-.677-.332zm60.443.041a.8.8 0 00-.677.33l-5.446 7.486a.8.8 0 00.177 1.122c.36.261.86.182 1.121-.177l5.446-7.486a.801.801 0 00-.62-1.275zM25.86 20.886a.797.797 0 00-.579.206.8.8 0 00-.06 1.133l2.606 2.895a.8.8 0 001.134.06.801.801 0 00.059-1.134l-2.605-2.894a.8.8 0 00-.555-.266zm68.593.006a.803.803 0 00-.554.265l-2.606 2.894a.801.801 0 00.06 1.134.8.8 0 001.133-.06l2.606-2.893a.801.801 0 00-.639-1.34zm-72.523 3.77a.803.803 0 00-.495 1.398l6.88 6.194a.8.8 0 001.134-.06.8.8 0 00-.06-1.133l-6.88-6.193a.8.8 0 00-.579-.206zm76.472.027a.799.799 0 00-.579.205l-6.884 6.189a.8.8 0 00-.06 1.133.801.801 0 001.133.06l6.884-6.188a.8.8 0 00.06-1.134.8.8 0 00-.554-.265zm-79.74 4.175a.8.8 0 00-.677.331.8.8 0 00.177 1.121l3.15 2.29a.8.8 0 001.121-.178.801.801 0 00-.177-1.121l-3.15-2.29a.802.802 0 00-.444-.153zm83.006.03a.803.803 0 00-.444.153l-3.152 2.286a.801.801 0 00-.178 1.121.8.8 0 001.12.179l3.152-2.287a.8.8 0 00.179-1.121.8.8 0 00-.677-.331zm-86.06 4.453a.798.798 0 00-.64.4.8.8 0 00.295 1.096l8.016 4.629a.8.8 0 001.097-.294.8.8 0 00-.294-1.096l-8.017-4.629a.802.802 0 00-.457-.106zm89.092 0a.794.794 0 00-.457.106l-8.017 4.629a.8.8 0 00-.294 1.096.8.8 0 001.096.294l8.018-4.629a.8.8 0 00.293-1.096.8.8 0 00-.639-.4zm-91.402 4.778a.799.799 0 00-.748.476.8.8 0 00.406 1.06l3.556 1.586a.8.8 0 001.06-.406.8.8 0 00-.406-1.06l-3.556-1.586a.8.8 0 00-.312-.07zm93.727.033a.802.802 0 00-.312.07l-3.557 1.584a.8.8 0 00-.407 1.06.801.801 0 001.06.406l3.557-1.584a.8.8 0 00.407-1.06.8.8 0 00-.748-.476zM11.24 43.12a.8.8 0 00-.694.552.8.8 0 00.514 1.011l8.802 2.868a.801.801 0 001.011-.514.8.8 0 00-.514-1.012l-8.802-2.868a.803.803 0 00-.317-.037zm97.84.035a.778.778 0 00-.318.037l-8.803 2.861a.8.8 0 00-.515 1.012.8.8 0 001.011.515l8.803-2.862a.801.801 0 00.516-1.011.801.801 0 00-.695-.552zM9.957 48.362a.8.8 0 00-.79.636.8.8 0 00.618.952l3.81.81a.8.8 0 00.951-.619.8.8 0 00-.618-.952l-3.809-.81a.787.787 0 00-.162-.017zm100.394.007a.987.987 0 00-.162.017l-3.81.81a.8.8 0 00-.617.951.801.801 0 00.951.619l3.81-.81a.801.801 0 00.618-.951.801.801 0 00-.79-.637v.001zM8.987 53.635a.8.8 0 00-.719.714.8.8 0 00.713.883l9.206.973a.801.801 0 00.883-.714.801.801 0 00-.714-.882l-9.206-.974a.823.823 0 00-.163 0zm102.342.069a.736.736 0 00-.163 0l-9.207.962a.8.8 0 00-.715.881.8.8 0 00.882.715l9.206-.96a.8.8 0 00.715-.882.8.8 0 00-.718-.716zM8.831 59.033a.8.8 0 00-.802.802.8.8 0 00.802.803h3.894a.801.801 0 00.803-.803.801.801 0 00-.803-.802H8.831zm98.751 0a.8.8 0 00-.802.802.8.8 0 00.802.803h3.894a.8.8 0 00.803-.803.8.8 0 00-.803-.802h-3.894zm-89.237 4.375a.733.733 0 00-.163 0l-9.207.961a.8.8 0 00-.715.882.8.8 0 00.882.714l9.207-.96a.8.8 0 00.715-.882.8.8 0 00-.719-.715zm83.613.056a.8.8 0 00-.72.715.8.8 0 00.714.883l9.206.973a.801.801 0 00.882-.714.801.801 0 00-.714-.883l-9.205-.973a.827.827 0 00-.163 0zm-88.202 5.422a.82.82 0 00-.162.017l-3.81.81a.8.8 0 00-.618.951.8.8 0 00.952.618l3.81-.808a.8.8 0 00.618-.952.8.8 0 00-.79-.636zm92.795.008a.8.8 0 00-.79.636.8.8 0 00.618.952l3.81.809a.8.8 0 00.95-.618.801.801 0 00-.617-.952l-3.81-.81a.787.787 0 00-.161-.017zm-86.381 3.16a.778.778 0 00-.317.038l-8.804 2.861a.8.8 0 00-.515 1.012.8.8 0 001.012.515l8.803-2.862a.801.801 0 00.515-1.011.801.801 0 00-.694-.552zm79.96.03a.8.8 0 00-.695.55.8.8 0 00.514 1.012l8.802 2.868a.8.8 0 001.011-.514.8.8 0 00-.514-1.012l-8.802-2.868a.803.803 0 00-.317-.037zm-83.32 6.239a.8.8 0 00-.31.07l-3.558 1.583a.8.8 0 00-.407 1.06.8.8 0 001.06.406l3.557-1.583a.8.8 0 00.407-1.06.8.8 0 00-.749-.476zm86.674.03a.799.799 0 00-.748.476.8.8 0 00.406 1.06l3.556 1.586a.8.8 0 001.06-.406.8.8 0 00-.406-1.06l-3.556-1.586a.8.8 0 00-.312-.07zm-79.747 1.74a.794.794 0 00-.458.106l-8.016 4.628a.8.8 0 00-.294 1.096.8.8 0 001.096.294l8.017-4.628a.801.801 0 00.294-1.097.8.8 0 00-.64-.4zm72.834 0a.799.799 0 00-.639.4.801.801 0 00.294 1.096l8.017 4.628a.801.801 0 001.096-.294.8.8 0 00-.293-1.096L97.028 80.2a.8.8 0 00-.457-.107zm-74.834 6.792a.804.804 0 00-.444.153l-3.151 2.287a.8.8 0 00-.179 1.12.8.8 0 001.121.179l3.152-2.287a.8.8 0 00.178-1.12.801.801 0 00-.677-.332zm76.814.027a.8.8 0 00-.677.33.801.801 0 00.178 1.122l3.15 2.289a.8.8 0 001.121-.178.8.8 0 00-.177-1.12l-3.15-2.29a.802.802 0 00-.445-.153zm-69.676.277a.798.798 0 00-.579.205l-6.884 6.189a.8.8 0 00-.06 1.133.8.8 0 001.133.06l6.884-6.188a.8.8 0 00.06-1.134.8.8 0 00-.554-.265zm62.538.022a.803.803 0 00-.495 1.399l6.88 6.193c.33.297.837.27 1.134-.06a.8.8 0 00-.06-1.133l-6.88-6.193a.8.8 0 00-.579-.206zm-56.007 5.88a.8.8 0 00-.677.33l-5.446 7.485a.8.8 0 00.177 1.122.8.8 0 001.121-.177l5.446-7.486a.801.801 0 00-.62-1.275zm49.45.033a.803.803 0 00-.622 1.274l5.436 7.493a.8.8 0 001.12.178.8.8 0 00.179-1.12l-5.436-7.494a.8.8 0 00-.676-.331zm-56.48 1.156a.803.803 0 00-.554.265l-2.605 2.894a.801.801 0 00.059 1.133.8.8 0 001.133-.06l2.606-2.893a.801.801 0 00-.638-1.34zm63.55.004a.796.796 0 00-.578.205.8.8 0 00-.06 1.134l2.605 2.894a.8.8 0 001.133.06.801.801 0 00.06-1.134l-2.605-2.894a.8.8 0 00-.555-.265zm-48.915 3.21a.798.798 0 00-.748.476l-3.772 8.454a.8.8 0 00.406 1.06.8.8 0 001.06-.406l3.772-8.454a.8.8 0 00-.718-1.13zm34.235.023a.802.802 0 00-.72 1.129l3.76 8.459a.801.801 0 001.06.407.8.8 0 00.407-1.059l-3.76-8.459a.801.801 0 00-.747-.477zm-40.862 2.59a.798.798 0 00-.64.4l-1.946 3.373a.8.8 0 00.294 1.096.8.8 0 001.096-.294l1.947-3.372a.8.8 0 00-.751-1.202zm47.54 0a.8.8 0 00-.75 1.203l1.946 3.373a.8.8 0 001.096.293.8.8 0 00.294-1.096l-1.947-3.372a.8.8 0 00-.639-.4zm-32.517.121a.8.8 0 00-.79.636l-1.923 9.056a.8.8 0 00.618.951.8.8 0 00.952-.618l1.924-9.055a.8.8 0 00-.78-.969zm17.465.006a.8.8 0 00-.78.968l1.917 9.057a.8.8 0 00.951.619.8.8 0 00.619-.951l-1.918-9.056a.8.8 0 00-.789-.637zm-8.718.914a.8.8 0 00-.803.802v9.257a.8.8 0 00.803.803.8.8 0 00.802-.803v-9.257a.8.8 0 00-.802-.802zm-14.732 2.99a.801.801 0 00-.694.553l-1.204 3.703a.8.8 0 00.515 1.012.801.801 0 001.011-.516l1.204-3.703a.8.8 0 00-.832-1.048zm29.457.003a.801.801 0 00-.832 1.048l1.203 3.703a.8.8 0 001.012.515.8.8 0 00.515-1.01l-1.203-3.704a.8.8 0 00-.695-.552zm-19.763 2.062a.8.8 0 00-.72.715l-.406 3.873a.8.8 0 00.714.882.8.8 0 00.882-.714l.407-3.873a.8.8 0 00-.877-.883zm10.043.004a.8.8 0 00-.878.882l.405 3.874a.8.8 0 00.881.714.8.8 0 00.715-.881l-.404-3.873a.8.8 0 00-.719-.716z" fill="#F4F2F3"/><path fill-opacity=".05" fill="#000" d="M98.399 26.185L53.894 54.339h-.047v.048l-.048.048-26.375 44.822 39.722-31.571.047-.048v-.047z"/><path fill="#CD151E" d="M53.56 54.435l13.347 13.25 29.617-43.2z"/><path fill="#FA5153" d="M53.609 54.34l6.72 6.625 36.195-36.48z"/><path fill="#ACACAC" d="M53.609 54.34l13.346 13.25-41.946 28.934z"/><path fill="#EEE" d="M25.009 96.524l35.32-35.559-6.72-6.626z"/></g></svg>