<svg width="16" height="16" xmlns="http://www.w3.org/2000/svg"><path d="M4.667 12.667v-1c0-.184.149-.334.333-.334h5.333c.184 0 .334.15.334.334v1h4v-8h-.334A.333.333 0 0114 4.333V.667H2V2h6.667v.667H2v.666h2V4H2v.333c0 .184-.15.334-.333.334h-.334v8h3.334zm.666 0H10V12H5.333v.667zM1.333 4V.667H.667V4h.666zm-1-4h15.334c.184 0 .333.15.333.333v4c0 .184-.15.334-.333.334h-.334v8h.334c.184 0 .333.149.333.333v2.667c0 .184-.15.333-.333.333H.333A.333.333 0 010 15.667V13c0-.184.15-.333.333-.333h.334v-8H.333A.333.333 0 010 4.333v-4C0 .15.15 0 .333 0zm.334 13.333v2h14.666v-2H.667zm.666.667H2v.667h-.667V14zm1.334 0h.666v.667h-.666V14zm2.666 0H6v.667h-.667V14zm1.334 0h2.666v.667H6.667V14zM10 14h.667v.667H10V14zm2.667 0h.666v.667h-.666V14zM14 14h.667v.667H14V14zM14.667.667V4h.666V.667h-.666zm-11.334.666H4V2h-.667v-.667zm2 0H6V2h-.667v-.667zm2 0H8V2h-.667v-.667zM4.667 4v-.667H6V4H4.667zm2 0v-.667h2V4h-2zm6.666-2H14v.667h-.667V2zm0 1.333H14V4h-.667v-.667zm-2.666 2h-.334A.333.333 0 0110 5V4h-.333a.333.333 0 01-.334-.333v-2c0-.184.15-.334.334-.334h2.666c.184 0 .334.15.334.334v2c0 .184-.15.333-.334.333H12v1c0 .184-.15.333-.333.333h-.334V6h-.666v-.667zM11.333 4h-.666v.667h.666V4zM10 2v1.333h2V2h-2zm.667 4.667h.666v.666h-.666v-.666zm-3.202 4.272l-1.947-.974a.333.333 0 01-.137-.47l1.974-3.29c.1-.273.523-.273.623 0l1.974 3.29c.1.167.037.383-.136.47l-1.948.974a.361.361 0 01-.403 0zM8 10.127l1.196-.597L8 7.537v2.59zm-.667 0v-2.59L6.138 9.53l1.195.597z" fill="#4167BB"/></svg>