<svg xmlns="http://www.w3.org/2000/svg" xmlns:xlink="http://www.w3.org/1999/xlink" width="25" height="34"><defs><circle id="a" cx="25" cy="25" r="25"/></defs><g fill="none" fill-rule="evenodd" transform="translate(-13 -8)"><mask id="b" fill="#fff"><use xlink:href="#a"/></mask><g fill="#4167BB" fill-rule="nonzero" stroke="#4167BB" stroke-width=".2" mask="url(#b)"><path d="M35.39 30.119V26.79l-1.421.547-.004-.01-.034-.06a3.66 3.66 0 00-2.418-1.6l-3.42-.614v-.267a5.163 5.163 0 002.508-3.467 2.07 2.07 0 001.662-2.017v-5.088a3.235 3.235 0 00-2.335-3.099l-.26-.258A6.415 6.415 0 0025.127 9c-3.538 0-6.417 2.845-6.417 6.342v3.96a2.07 2.07 0 001.662 2.017 5.164 5.164 0 002.507 3.467v.267l-3.42.614c-.99.178-1.87.76-2.416 1.598l-.031.075-1.43-.55v3.329c-.862 0-1.564.693-1.564 1.545v2.06c0 .852.702 1.546 1.564 1.546v1.897l9.904 3.807 9.903-3.807V35.27c.863 0 1.564-.694 1.564-1.546v-2.06c0-.852-.701-1.545-1.564-1.545zm-6.32-3.843l2.257.405c.664.12 1.253.499 1.645 1.038l-5.043 1.938 1.14-3.381zm-5.103-1.018a5.248 5.248 0 003.04 0l-1.52 1.126-1.52-1.126zm.726 1.826l-1.063 1.05-.69-2.045.331-.06 1.422 1.055zm3.009-1.054l.332.06-.69 2.045-1.064-1.05 1.422-1.055zm2.997-5.841v-1.774c.31.179.521.507.521.887s-.21.708-.52.887zm-10.425 0a1.025 1.025 0 01-.521-.887c0-.38.211-.708.521-.887v1.774zm0-3.463v.589c-.185.047-.36.12-.521.213v-2.186c0-2.928 2.411-5.312 5.376-5.312 1.435 0 2.786.553 3.801 1.556l.46.455.14.034a2.206 2.206 0 011.69 2.14v3.313a2.062 2.062 0 00-.52-.213v-.589h-1.654a4.552 4.552 0 01-3.61-1.782l-.414-.547-1.035 1.024a4.512 4.512 0 01-3.192 1.305h-.52zm1.043 3.606v-2.6a5.545 5.545 0 003.407-1.583l.202-.2a5.614 5.614 0 004.12 1.808h.61v2.575c0 2.272-1.87 4.12-4.17 4.12-2.299 0-4.17-1.848-4.17-4.12zm-1.67 6.349l2.257-.405 1.14 3.381L18 27.72c.393-.54.982-.919 1.647-1.038zm-4.585 7.043v-2.06c0-.284.234-.515.521-.515.862 0 1.564.693 1.564 1.545s-.702 1.545-1.564 1.545a.519.519 0 01-.521-.515zm9.903 5.943l-8.34-3.204v-1.412a2.576 2.576 0 001.564-2.357 2.576 2.576 0 00-1.563-2.357v-2.04l8.34 3.204v8.166zm-1.547-9.866l2.069-2.044 2.069 2.044-2.07.795-2.068-.795zm10.93 6.662l-8.34 3.204V31.5l8.34-3.205v2.041a2.576 2.576 0 00-1.564 2.357c0 1.054.645 1.959 1.564 2.357v1.412zm1.564-2.739a.519.519 0 01-.522.515 1.556 1.556 0 01-1.563-1.545c0-.852.701-1.545 1.563-1.545.288 0 .522.23.522.515v2.06z"/></g></g></svg>