<svg xmlns="http://www.w3.org/2000/svg" xmlns:xlink="http://www.w3.org/1999/xlink" viewBox="0 0 100 100"><circle fill="#7563C7" cx="50.3" cy="50.5" r="40"/><circle opacity=".16" cx="50.3" cy="50.5" r="36.7"/><path fill="#FFC500" d="M62.8 56c-1.4 0-2.7-.5-3.8-1.5-.2-.2-.3-.5-.3-.7 0-.3.2-.5.5-.6 1.1-.5 1.8-1.6 1.8-2.7 0-1.2-.7-2.3-1.8-2.7-.3-.1-.4-.3-.5-.6 0-.3.1-.5.3-.7 1-.9 2.4-1.5 3.8-1.5 3.1 0 5.6 2.5 5.6 5.6 0 2.9-2.5 5.4-5.6 5.4zm-18.4-.7c-2.7 0-4.9-2.2-4.9-4.9s2.2-4.9 4.9-4.9 4.9 2.2 4.9 4.9-2.2 4.9-4.9 4.9zm0-11.1c-.4 0-.7-.3-.7-.7V39c0-.4.3-.7.7-.7.4 0 .7.3.7.7v4.4c0 .4-.3.8-.7.8zm0 18.4c-.4 0-.7-.3-.7-.7v-4.4c0-.4.3-.7.7-.7.4 0 .7.3.7.7v4.4c0 .4-.3.7-.7.7zm-7-11.4H33c-.4 0-.7-.3-.7-.7s.3-.7.7-.7h4.4c.4 0 .7.3.7.7s-.3.7-.7.7zm18.4 0h-4.4c-.4 0-.7-.3-.7-.7s.3-.7.7-.7h4.4c.4 0 .7.3.7.7s-.3.7-.7.7zm-16.4-5c-.2 0-.4-.1-.5-.2l-3.1-3.1c-.3-.3-.3-.7 0-1 .3-.3.7-.3 1 0l3.1 3.1c.3.3.3.7 0 1-.1.1-.3.2-.5.2zm13.1 13.1c-.2 0-.4-.1-.5-.2L48.9 56c-.3-.3-.3-.7 0-1s.7-.3 1 0l3.1 3c.3.3.3.7 0 1-.2.2-.4.3-.5.3zm-16.2 0c-.2 0-.4-.1-.5-.2-.3-.3-.3-.7 0-1l3.1-3.1c.3-.3.7-.3 1 0s.3.7 0 1l-3.1 3c-.2.2-.3.3-.5.3zm13-13.1c-.2 0-.4-.1-.5-.2-.3-.3-.3-.7 0-1l3.1-3.1c.3-.3.7-.3 1 0 .3.3.3.7 0 1L49.8 46c-.1.1-.3.2-.5.2z"/><path fill="#FFC500" d="M50.3 23.3c-14.9 0-27.1 12.2-27.1 27.1 0 14.9 12.2 27.1 27.1 27.1s27.1-12.2 27.1-27.1c0-14.9-12.1-27.1-27.1-27.1zm0 49.6c-12.4 0-22.4-10.1-22.4-22.4C27.9 38.1 38 28 50.3 28c12.4 0 22.4 10.1 22.4 22.4 0 12.4-10 22.5-22.4 22.5zm0 0"/><image overflow="visible" width="526" height="526" xlink:href="4403DFD6.png" transform="matrix(.24 0 0 .24 -12.791 -12.65)"/></svg>