<svg xmlns="http://www.w3.org/2000/svg" xmlns:xlink="http://www.w3.org/1999/xlink" viewBox="0 0 100 100"><circle fill="#7563C7" cx="50.6" cy="49.6" r="40"/><circle opacity=".16" cx="50.6" cy="49.6" r="36.7"/><path d="M47.5 40.4H36.6v-6c0-.7-.4-1.3-1.1-1.6-.6-.3-1.4-.1-1.9.4l-15 15.1c-.3.3-.5.8-.5 1.2 0 .5.2.9.5 1.2l15.1 15.1c.3.3.8.5 1.2.5.2 0 .4 0 .7-.1.6-.3 1.1-.9 1.1-1.6v-6h10.9c.9 0 1.7-.8 1.7-1.7V42.1c-.1-1-.8-1.7-1.8-1.7zm-1.7 14.9H34.9c-.9 0-1.7.8-1.7 1.7v3.5l-11-11 11-11V42c0 .9.8 1.7 1.7 1.7h10.9v11.6zm36.9-7L67.6 33.2c-.5-.5-1.2-.6-1.9-.4-.6.3-1.1.9-1.1 1.6v6H53.8c-.9 0-1.7.8-1.7 1.7V57c0 .9.8 1.7 1.7 1.7h10.9v6c0 .7.4 1.3 1.1 1.6.2.1.4.1.7.1.4 0 .9-.2 1.2-.5l15.1-15.1c.3-.3.5-.8.5-1.2-.1-.5-.2-.9-.6-1.3zM68.1 60.6V57c0-.9-.8-1.7-1.7-1.7H55.5V43.8h10.9c.9 0 1.7-.8 1.7-1.7v-3.5l11 11-11 11zm0 0" fill="#00CD6A"/><image overflow="visible" width="572" height="441" xlink:href="B2E847F7.png" transform="matrix(.24 0 0 .24 -17.947 -3.285)"/></svg>