<svg xmlns="http://www.w3.org/2000/svg" xmlns:xlink="http://www.w3.org/1999/xlink" viewBox="0 0 100 100"><circle fill="#7563C7" cx="51.7" cy="49.5" r="40"/><circle opacity=".16" cx="51.7" cy="49.5" r="36.7"/><path fill="none" d="M46.8 45.3h-3.2c-.3 0-.5.2-.5.5v10.7c0 .3.2.5.5.5h3.2c.3 0 .5-.2.5-.5V45.8c.1-.3-.2-.5-.5-.5z"/><path fill="#FF800B" d="M47.4 56.5c0 .3-.2.5-.5.5h-3.2c-.3 0-.5-.2-.5-.5V45.8c0-.3.2-.5.5-.5h3.2c.3 0 .5.2.5.5v10.7zm.8-.4h9.7c.4 0 .7-.3.7-.7V55c0-.4-.3-.7-.7-.7-.2 0-.4-.2-.4-.4s.2-.4.4-.4h.7c.4 0 .8-.4.8-.8v-.2c0-.4-.4-.8-.8-.8-.2 0-.4-.2-.4-.4s.2-.4.4-.4h.4c.4 0 .8-.4.8-.8v-.2c0-.4-.4-.8-.8-.8-.2 0-.4-.2-.4-.4s.2-.4.4-.4h.5c.5 0 .8-.4.8-.8V47c0-.5-.4-.8-.8-.8h-6.7c-.2 0-.3-.1-.4-.2-.1-.1-.1-.3 0-.4l.5-.9c.3-.6.6-1.3.8-2l.1-.5c.2-.6-.1-1.3-.7-1.6l-.3-.2h-.1s-.1 0-.1.1c-1 2-2.3 3.7-4 5.2l-.4.4v10z"/><defs><path id="a" d="M24 19.3h55.5v48.3H24z"/></defs><clipPath id="b"><use xlink:href="#a" overflow="visible"/></clipPath><path clip-path="url(#b)" fill="#FF800B" d="M78.9 64.6L53.3 20.2c-.3-.6-1-1-1.7-1s-1.3.4-1.7 1L24.2 64.7c-.3.6-.3 1.3 0 1.9.3.6 1 1 1.7 1h51.4c1.1 0 1.9-.9 1.9-1.9 0-.4-.1-.8-.3-1.1zm-49.6-.9l22.3-38.6 22.3 38.6H29.3zm0 0"/><image overflow="visible" width="661" height="660" xlink:href="43DB4D89.png" transform="matrix(.24 0 0 .24 -28.858 -29.407)"/></svg>