<svg xmlns="http://www.w3.org/2000/svg" xmlns:xlink="http://www.w3.org/1999/xlink" viewBox="0 0 100 100"><circle fill="#7563C7" cx="50.9" cy="49.8" r="40"/><circle opacity=".16" cx="50.9" cy="49.8" r="36.7"/><path fill="#00CD6A" d="M26.4 45.7l7-2.3.4-7.7c0-.5.4-1 .8-1.1L53 28.5c.4-.1.9 0 1.2.2l6.5 5.6 9-3c.6-.2 1.2.1 1.5.6l4.7 9.3c.2.3.2.7 0 1-.1.3-.4.6-.8.7L71 44.4c-.3 2.4-2 4.6-4.3 5.3-2.4.8-5 .1-6.7-1.7l-15.1 5c-.3 2.4-2 4.6-4.3 5.3-2.4.8-5 .1-6.7-1.7l-3.5 1.2c-.6.2-1.3-.1-1.6-.8l-3.3-9.8c-.1-.6.3-1.3.9-1.5zm4.5 9.4l3.1-1c.5-.2 1.1 0 1.4.5 1 1.4 2.8 2 4.4 1.5 1.6-.5 2.7-2.1 2.7-3.8 0-.5.3-1 .8-1.2L60 45.5c.5-.2 1.1 0 1.4.5 1 1.4 2.8 2 4.4 1.5 1.6-.5 2.7-2.1 2.7-3.8 0-.5.3-1 .8-1.2l3.8-1.3-3.5-7.2-8.6 2.9c-.4.1-.9 0-1.2-.2L53.2 31l-17 5.6-.4 7.7c0 .5-.4 1-.8 1.1l-6.6 2.2 2.5 7.5zm0 0"/><path fill="#00CD6A" d="M82.6 46.6L27.8 64.8c-.5.2-1.1-.1-1.3-.7-.2-.5.1-1.1.7-1.3L82 44.6c.5-.2 1.1.1 1.3.7.1.5-.2 1.1-.7 1.3zm-43.3 19l-15.1 5.2c-.5.2-1.1-.1-1.3-.7-.2-.5.1-1.1.7-1.3l15.1-5.2c.5-.2 1.1.1 1.3.7.2.5-.1 1.1-.7 1.3zm-12.5-6.1L19.6 62c-.5.2-1.1-.1-1.3-.7s.1-1.1.7-1.3l7.2-2.6c.5-.2 1.1.1 1.3.7s-.2 1.2-.7 1.4z"/><image overflow="visible" width="572" height="477" xlink:href="4D669DA0.png" transform="matrix(.24 0 0 .24 -17.77 -7.602)"/></svg>