<svg xmlns="http://www.w3.org/2000/svg" xmlns:xlink="http://www.w3.org/1999/xlink" viewBox="0 0 100 100"><circle fill="#7563C7" cx="50.2" cy="49.8" r="40"/><circle opacity=".16" cx="50.2" cy="49.8" r="36.7"/><path fill="#00CD6A" d="M58.5 75.6c.7 3.3-.2 4.3-3.3 4.2-.5 0-1-.4-1.4-.7-.2-.2-.3-.6-.5-.8-.9-1.3-.5-3.6-3-3.6-2.6-.1-2.4 2.1-3 3.5-.7 1.4-1.4 1.8-3.1 1.5-2.5-.4-3-1.7-2.6-3.8.2-1.5.3-2.7-1.4-3.5-1.7-.8-2.4.3-3.3 1.2-1.1 1.1-2 2.5-4.1 1.1-2.2-1.4-1.9-2.8-1-4.7.5-.9.6-2.4.2-3.3-.7-1.6-2.1-1.2-3.6-.6-3 1.3-3.6.9-4.9-1.9-1.1-2.4 1.5-2.7 2.3-4 .5-.7 1-1.8.8-2.4-.3-.8-1.3-1.4-2.1-2-.3-.2-.8-.1-1.2-.1-2.4.2-3.3-.9-3.3-3.3 0-2 1.2-2.2 2.5-2.7 1.2-.4 2.8-.1 3.1-2.2.3-2.2-1.2-2.6-2.6-3.3-.1 0-.1-.1-.2-.1-1.7-.7-1.9-1.8-1.5-3.5.6-2.2 1.9-2.4 3.7-2.1 1.4.3 2.8.9 3.8-1s-.3-2.7-1.2-3.8c-1.1-1.3-1.6-2.5-.1-4.1 1.4-1.5 2.6-1.8 4.1-.5.4.3.8.8 1.2.8.9.1 2.2.3 2.8-.2.6-.5.8-1.7.8-2.6-.1-1.6-1.6-3.2.7-4.5 2.6-1.4 3.1-1.3 4.7 1.2.7 1 1 2.4 2.9 2.1 2.1-.3 2.1-1.7 2.3-3.2.2-2.1.9-3.3 3.4-3.1 1.6.1 2.4.6 2.6 2.2.1.7 0 1.4.4 1.9.5.8 1.2 1.8 2 1.9.8.1 1.9-.5 2.5-1.1 1.2-1.2 1.4-3.7 4.2-2.4 2.1.9 2.7 2.1 1.9 4.2-.5 1.3-1 2.5.6 3.7 1.6 1.1 2.6.2 3.7-.6 1.4-.9 2.6-1.8 4.2 0s1.2 3.2-.2 4.7c-1 1.1-1.8 2-.8 3.6s2.1 1.2 3.4.9c2.1-.5 3.6-.1 4.2 2.4.3 1.4.1 2.4-1.3 3-.4.2-.7.4-1.1.6-1.3.5-2.2 1.1-2.1 2.8.2 1.7 1.3 1.8 2.5 2.2 1.3.5 3.1.2 3.1 2.4 0 3.1-.3 3.5-3.4 3.7-1.4.1-2.7 0-3.3 1.8-.7 2 .8 2.4 1.7 3.3 2.2 1.9 2.4 3.6.1 5.4-.7.5-2.2.1-3.3-.2-1.3-.3-2.3-1.1-3.5.2-1.4 1.4-.6 2.5.1 3.7 1.2 1.9 1 3.3-1.1 4.7-2.1 1.4-3.1-.1-4.1-1.3-1.1-1.3-2.4-2-3.7-.7-.6.8-.8 2-1.2 3zm-8.2-5.3c11.4 0 20.3-9 20.3-20.3 0-11.2-9.2-20.4-20.3-20.4C39.1 29.6 30 38.8 30 50c-.1 11.4 8.9 20.3 20.3 20.3z"/><path fill-rule="evenodd" clip-rule="evenodd" fill="#00CD6A" d="M55.9 52.2c-.1-.1-.3-.2-.5-.2s-.4.1-.5.2l-.6.6-2.6-2.6 2.9-2.9 1.2-1.2c1.7.7 3.7.3 5-1 1.2-1.2 1.6-2.9 1.2-4.5l-.1-.5-3.1 3.1-2.6-2.6 3.1-3.1-.4-.1c-1.6-.4-3.3 0-4.5 1.2-1.3 1.3-1.7 3.3-1 5l-1.2 1.2-2.9 2.9-5.8-5.8-1.2-2.1s0-.1-.1-.1L40 38.2c-.1-.1-.3-.1-.4 0l-.9.9c-.1.1-.1.3 0 .4l1.5 2.1.1.1 2.1 1.2 5.8 5.8-2.9 2.9-1.3 1.2c-1.7-.7-3.7-.3-5 1-1.2 1.2-1.6 2.9-1.2 4.5l.1.5 3.1-3.1 2.6 2.6-3.1 3.1.5.1c1.6.4 3.3 0 4.5-1.2 1.3-1.3 1.7-3.3 1-5l1.2-1.2 2.9-2.9c.9.8 1.7 1.7 2.6 2.6l-.6.6c-.1.1-.2.3-.2.5s.1.4.2.5l6.6 6.6c.1.1.3.2.5.2s.4-.1.5-.2l2.3-2.3c.1-.1.2-.3.2-.5s-.1-.4-.2-.5l-6.6-6.5zm3.4 8.4l-5.1-5.1.5-.5 5.1 5.1-.5.5zm1.2-1.3l-5.1-5.1.5-.5 5.1 5.1-.5.5z"/><image overflow="visible" width="552" height="551" xlink:href="5734ADD2.png" transform="matrix(.24 0 0 .24 -15.89 -16.285)"/></svg>