<svg xmlns="http://www.w3.org/2000/svg" xmlns:xlink="http://www.w3.org/1999/xlink" viewBox="0 0 100 100"><circle fill="#7563C7" cx="50.2" cy="45.8" r="40"/><circle opacity=".16" cx="50.2" cy="45.8" r="36.7"/><g fill="#1289F4"><path d="M37.9 57.9c-3.4 0-6.8-.5-8.5-1.5-.5-.3-.8-.6-.8-.6.5-6.8 1.9-7.9 4.6-10.2l.7-.6c1.2.6 2.6.9 4 .9.6 0 1.1-.1 1.6-.1v-3.2c-.5.1-1 .2-1.6.2-3.5 0-6.4-2.9-6.4-6.4 0-3.5 2.9-6.4 6.4-6.4 3.5 0 6.4 2.9 6.4 6.4 0 .5-.1.9-.2 1.4h3.2c.1-.5.1-.9.1-1.4 0-5.3-4.3-9.5-9.5-9.5-5.3 0-9.5 4.3-9.5 9.5 0 2.7 1.1 5.1 2.9 6.8h-.1c-3.2 2.7-5.1 4.6-5.7 12.4 0 1 .4 2.3 2.3 3.5C30 60.4 34.1 61 37.9 61v-3.1zm18.5-20.1c-.1-.5-.2-.9-.2-1.4 0-3.5 2.9-6.4 6.4-6.4 3.5 0 6.4 2.9 6.4 6.4 0 3.5-2.9 6.4-6.4 6.4-.5 0-1-.1-1.5-.2v3.2c.5.1 1 .1 1.5.1 1.4 0 2.8-.3 4-.9l.7.6c2.7 2.3 4 3.4 4.6 10.1 0 .2-.2.5-.8.8-1.7 1-5.1 1.5-8.5 1.5v3.1c3.8 0 7.9-.7 10.1-1.9 1.9-1.1 2.3-2.5 2.3-3.6-.6-7.7-2.4-9.6-5.7-12.3l-.1-.1c1.8-1.7 2.8-4.1 2.8-6.8 0-5.3-4.3-9.5-9.5-9.5-5.3 0-9.5 4.3-9.5 9.5 0 .5 0 1 .1 1.4h3.3z"/><path d="M57 55.6c1.7-1.8 2.8-4.2 2.8-6.8 0-5.3-4.3-9.5-9.5-9.5-5.3 0-9.5 4.3-9.5 9.5 0 2.7 1.1 5.1 2.9 6.8h-.1c-3.2 2.7-5.1 4.6-5.7 12.4 0 1 .4 2.3 2.3 3.5 2.3 1.3 6.2 2 10.1 2 3.9 0 7.8-.7 10.1-2 1.9-1.1 2.3-2.5 2.3-3.6-.7-7.7-2.5-9.6-5.7-12.3zm-6.8-13.3c3.5 0 6.4 2.9 6.4 6.4 0 3.5-2.9 6.4-6.4 6.4-3.5 0-6.4-2.9-6.4-6.4 0-3.5 2.9-6.4 6.4-6.4zm8.6 26.5c-1.5.9-4.3 1.4-7.3 1.5 0 0-.8.1-2.5 0-2.9-.1-5.7-.6-7.2-1.5-.5-.3-.8-.6-.8-.6.5-6.8 1.9-7.9 4.6-10.2l.7-.6s3.8 1.7 8 0l.7.6c2.7 2.3 4 3.4 4.6 10.1-.1.1-.3.4-.8.7z"/></g><image overflow="visible" width="507" height="495" xlink:href="F09132A1.png" transform="matrix(.24 0 0 .24 -10.535 -9.165)"/></svg>