<svg xmlns="http://www.w3.org/2000/svg" xmlns:xlink="http://www.w3.org/1999/xlink" viewBox="0 0 100 100"><circle fill="#7563C7" cx="50.7" cy="50.3" r="40"/><circle opacity=".16" cx="50.7" cy="50.3" r="36.7"/><path d="M40.3 55.9v-2.4l1.6-.3v-5.6l-1.3.4-.7-2.3 3.7-1h1.7v8.5l1.6.3v2.4h-6.6zm7.3-6.8v-2.8h3.1v2.8h-3.1zm0 4.8v-2.8h3.1v2.8h-3.1zm12.7 1c-.4.3-.8.7-1.2 1h-4.6l-2.4-2v-7.3l2.4-2h4.8l2.4 2v7.3c-.6.4-1 .7-1.4 1zm-4.5-7.5l-.4.3v5l.5.4h2l.5-.4v-5l-.4-.3h-2.2z" fill="#00CD6A"/><defs><path id="a" d="M20.5 27.9H81v44.7H20.5z"/></defs><clipPath id="b"><use xlink:href="#a" overflow="visible"/></clipPath><path clip-path="url(#b)" fill="#00CD6A" d="M50.6 27.9c-12.3 0-22.3 10-22.3 22.3s10 22.3 22.3 22.3 22.3-10 22.3-22.3-10-22.3-22.3-22.3zm0 40.7c-10.1 0-18.4-8.3-18.4-18.4 0-10.1 8.3-18.4 18.4-18.4C60.8 31.8 69 40 69 50.2c0 10.1-8.2 18.4-18.4 18.4zm0 0"/><path clip-path="url(#b)" fill="#00CD6A" d="M32 31.6c.8-.8.8-2 0-2.7-.8-.8-2-.8-2.7 0-11.8 11.8-11.8 30.9 0 42.7.4.4.9.6 1.4.6.5 0 1-.2 1.4-.6.8-.8.8-2 0-2.7-10.3-10.4-10.3-27.1-.1-37.3zm40-2.7c-.8-.8-2-.8-2.7 0-.8.8-.8 2 0 2.7 10.3 10.3 10.3 27 0 37.2-.8.8-.8 2 0 2.7.4.4.9.6 1.4.6.5 0 1-.2 1.4-.6 11.6-11.7 11.6-30.9-.1-42.6zm0 0"/><image overflow="visible" width="552" height="487" xlink:href="EBF9D94B.png" transform="matrix(.24 0 0 .24 -15.526 -8.074)"/></svg>