<svg xmlns="http://www.w3.org/2000/svg" xmlns:xlink="http://www.w3.org/1999/xlink" viewBox="0 0 100 100"><circle fill="#7563C7" cx="50.2" cy="49.6" r="40"/><circle opacity=".16" cx="50.2" cy="49.6" r="36.7"/><image overflow="visible" width="455" height="549" xlink:href="8B32A974.png" transform="matrix(.24 0 0 .24 -4.268 -16.205)"/><g fill="#FF4B3A"><path d="M64.4 45.5c-1.8.2-3.5.3-5.1.6-1.7.3-2.9-.4-3.9-1.7-.8-1-1.5-1.9-2.5-3.1-.7 3.1-1.3 5.9-1.8 8.8-.1.5.4 1.2.8 1.8 1.4 2.1 2.7 4.2 4.1 6.2 1.3 1.9 1.9 4 2 6.2.2 4 .3 8.1.4 12.1.1 1.7-.6 2.6-2.1 2.7-1.5.1-2.4-.7-2.6-2.3-.5-3.9-.9-7.7-1.5-11.6-.1-.9-.4-1.9-1-2.6-1.5-1.8-3.1-3.4-4.9-5.3-.4 1.7-.5 3.2-1 4.5-.5 1.4-1.1 2.9-1.9 4.1-2.3 3.4-4.8 6.6-7.2 9.9-1 1.4-2 1.6-3.3.8-1.3-.9-1.6-2.2-.7-3.5 1.9-3 3.9-5.9 5.7-8.9.7-1.1 1.3-2.4 1.5-3.7 1.5-8.7 3.9-17.1 6.4-25.5.3-1 .9-2 1.6-2.7 1.6-1.8 3.8-1.7 5.4 0 .6.6 1.1 1.4 1.6 2.1 1.5 2.3 3 4.6 4.6 6.9.3.4.9.7 1.3.7 1.5.1 3.1 0 4.7 0 .2-1.5.3-2.9.5-4.3.1-.6.1-1.4 1-1.3.8.1.6.8.6 1.4-.2 1.3-.3 2.7-.5 4.1.3 0 .4.1.6.1 1.1.1 1.7.7 1.7 1.6 0 .9-.6 1.6-1.7 1.7-.8.1-1.1.3-1.2 1.1-.8 7.3-1.7 14.7-2.6 22l-1.2 9.9c-.1.4-.3.8-.5 1.2-.1.1-.6.1-.7 0-.2-.3-.4-.7-.4-1 .3-3.1.7-6.2 1.1-9.3l2.1-17.7c.1-2.2.4-4 .6-6z"/><path d="M35.5 37.6c-1.6 0-1.5-.8-1.3-1.8l1.2-4.8c.2-1 .9-1.4 1.8-1.2 2.4.6 4.8 1.3 7.2 2 .9.2 1.1.8.8 1.7-1.4 4.8-2.7 9.5-4 14.3-.4 1.5-.6 1.8-2.3 1.8-1.1 0-2.3 0-3.4-.3-2-.5-3-1.9-2.9-4 .1-2.7.9-5.3 2.9-7.7zm24.2-12.3c0 3.1-2.5 5.5-5.6 5.5-3 0-5.4-2.5-5.4-5.5s2.4-5.5 5.5-5.5 5.5 2.4 5.5 5.5z"/></g></svg>