<svg width="24" height="24" xmlns="http://www.w3.org/2000/svg"><path d="M5.06 5.003c1.669.004 4.706.383 6.286 2.88a.663.663 0 01.098.356V19.26c-1.925-1.977-4.716-2.318-6.382-2.322a.711.711 0 01-.716-.702V5.706c0-.189.074-.366.21-.499a.712.712 0 01.502-.204h.001zm14.594 11.233a.711.711 0 01-.716.702c-1.666.004-4.457.345-6.382 2.322V8.24c0-.131.034-.254.098-.356 1.58-2.498 4.617-2.877 6.287-2.88h.001c.19 0 .367.072.502.203.136.133.21.31.21.498v10.531zm1.63-8.804a.71.71 0 01.716.702v11.16a.693.693 0 01-.269.55.725.725 0 01-.607.135c-1.714-.383-4.723-.83-7.576-.143 1.65-1.533 3.98-1.804 5.392-1.807 1.007-.003 1.825-.807 1.825-1.793V7.432h.52zm-18.05 8.804c0 .986.82 1.79 1.825 1.793 1.413.003 3.743.274 5.393 1.806-2.853-.685-5.862-.24-7.576.144a.724.724 0 01-.607-.136.693.693 0 01-.269-.548V8.134a.71.71 0 01.716-.702h.518v8.804z" fill="#4167BB"/></svg>