<svg width="24" height="24" xmlns="http://www.w3.org/2000/svg"><path d="M19.071 4.929A9.934 9.934 0 0012 2a9.934 9.934 0 00-7.071 2.929A9.934 9.934 0 002 12a9.934 9.934 0 002.929 7.071A9.934 9.934 0 0012 22c1.336 0 2.631-.26 3.829-.756a9.984 9.984 0 003.242-2.173A9.934 9.934 0 0022 12a9.934 9.934 0 00-2.929-7.071zm-3.64 9.674a8.731 8.731 0 015.382-2.175 8.796 8.796 0 01-2.17 5.387l-3.212-3.212zm5.362-3.347h0a9.945 9.945 0 00-6.192 2.517L12.83 12l5.814-5.815a8.79 8.79 0 012.15 5.07zm-8.847 6.308a9.949 9.949 0 00-.69 3.229s0 0 0 0a8.79 8.79 0 01-5.07-2.15L12 12.83l1.773 1.772a9.904 9.904 0 00-1.827 2.963zM8.568 9.397a8.738 8.738 0 01-5.381 2.174 8.794 8.794 0 012.17-5.386l3.211 3.212zm-2.383-4.04a8.794 8.794 0 015.387-2.17 8.732 8.732 0 01-2.175 5.381L6.185 5.357zm5.87 1.08a9.95 9.95 0 00.688-3.23h.001c1.825.153 3.61.87 5.07 2.15L12 11.17 10.227 9.4a9.91 9.91 0 001.827-2.963zm-8.848 6.307s0 0 0 0A9.952 9.952 0 009.4 10.227L11.17 12l-5.814 5.815a8.79 8.79 0 01-2.15-5.07h0zm9.221 8.07a8.732 8.732 0 012.175-5.383l3.212 3.212a8.795 8.795 0 01-5.387 2.17h0z" stroke="#4167BB" stroke-width=".3" fill="#4167BB"/></svg>