<svg width="24" height="16" xmlns="http://www.w3.org/2000/svg"><g fill="none"><path d="M0 10.662h23.953v4.904c0 .233-.185.42-.413.42H.413a.417.417 0 01-.413-.42v-4.904z" fill="#73AF00"/><path d="M.413.013H23.54c.228 0 .413.188.413.42v4.905H0V.434C0 .2.185.014.413.014z" fill="#82AFFF"/><path fill="#FF4B55" d="M0 5.338h23.953v5.324H0z"/><g fill="#F5F5F5"><path d="M12.54 9.743c-.927 0-1.679-.765-1.679-1.71 0-.942.752-1.709 1.679-1.709.345 0 .663.108.928.291.04.028.087-.026.053-.062a2.063 2.063 0 00-1.578-.654c-1.068.038-1.952.909-2.02 1.994-.079 1.243.888 2.276 2.092 2.276.593 0 1.126-.252 1.507-.656.034-.035-.013-.089-.053-.061a1.627 1.627 0 01-.93.291z"/><path d="M14.01 6.981l.174.499.47-.227c.034-.017.071.02.054.056l-.223.478.49.177c.037.014.037.067 0 .08l-.49.177.223.478c.017.036-.02.074-.055.057l-.47-.227-.174.498a.041.041 0 01-.078 0l-.174-.498-.47.227c-.035.017-.072-.02-.055-.057l.223-.478-.49-.177c-.036-.013-.036-.066 0-.08l.49-.177-.223-.478c-.017-.036.02-.073.055-.056l.47.227.174-.499a.041.041 0 01.078 0z"/></g></g></svg>