<svg width="24" height="16" xmlns="http://www.w3.org/2000/svg"><g fill="none"><path d="M23.586 15.987H.414a.417.417 0 01-.414-.42v-3.784h24v3.783c0 .233-.185.42-.414.42z" fill="#73AF00"/><path d="M23.586.013H.414A.417.417 0 000 .433v11.35h24V.433a.417.417 0 00-.414-.42z" fill="#FF4B55"/><path d="M3.31 15.987H.414a.417.417 0 01-.414-.42V.433C0 .2.185.014.414.014H3.31v15.973z" fill="#F5F5F5"/><path d="M.414 15.289H.56v-.417H.414v.417zm1.168 0h.146v-.417h-.146v.417zm1.169 0h.146v-.417H2.75v.417zM.999 14.172h.145v-.348H.999v.348zm1.169 0h.145v-.348h-.145v.348zm-1.754-.906H.56v-.417H.414v.417zm1.168 0h.146v-.417h-.146v.417zm1.169 0h.146v-.417H2.75v.417zm-2.043.558h.144v-.35H1v-.347h.145v.347h.147v.35h.145v.348H1.29v.35h-.147v.35H.999v-.35H.852v-.35H.708v-.348zm1.168 0h.146v-.35h.146v-.347h.145v.347h.146v.35h.146v.348H2.46v.35h-.146v.35h-.145v-.35h-.146v-.35h-.146v-.348zm.292-1.395v.348H2.02v.35h-.145v.347h-.148v.35h-.146v-.35h-.146v-.347H1.29v-.35h-.147v-.348H.999v.348H.852v.35H.707v.347H.56v.35H.414v.348H.56v.35h.148v.35h.144v.347H1v.348h.146v-.348h.146v-.347h.145v-.35h.146v-.35h.147v.35h.147v.35h.146v.347h.146v.348h.145v-.348h.146v-.347h.146v-.35h.147v-.35h.145v-.348H2.75v-.35h-.146v-.347H2.46v-.35h-.146v-.348h-.145zm.361-.347h.073v-.139h.074v.14h.073v.138h-.073v.142h-.074v-.142H2.53v-.139zm0-.486v.205h-.072v.212h-.073v.278h.073v.208h.072v.208h.22V12.5h.073v-.208h.072v-.278h-.072V11.8H2.75v-.205h-.22zm-1.969.483h.074v-.139h.073v.14H.78v.141H.707v.139H.634v-.139H.56v-.142zm0-.486v.208H.488v.209H.414v.28h.074v.209H.56v.208h.22v-.208h.073v-.209h.072v-.28H.852v-.21H.78v-.208H.56zm.804.486h.072v-.139h.074v.14h.072v.141H1.51v.139h-.074v-.139h-.072v-.142zm.364 0h.074v-.139h.074v.14h.072v.141h-.072v.139h-.074v-.139h-.074v-.142zm0-.486v.208h-.146v-.208h-.218v.208H1.29v.209h-.074v.28h.074v.209h.073v.208h.218v-.208h.146v.208h.22v-.208h.074v-.209h.071v-.28h-.071v-.21h-.074v-.208h-.22zm-1.314-.142H.56v-.417H.414v.417zm1.168 0h.146v-.417h-.146v.417zm1.169 0h.146v-.417H2.75v.417zM.414 9.71H.56v-.28H.414v.278zm2.337 0h.146v-.28H2.75v.278zm-1.169-.975h.146v-.348h-.146v.348zM.414 7.792v.419H.56v-.419H.414zm.803 0v.419h.147v-.419h-.147zm.73 0v.419h.146v-.419h-.145zm.804 0v.419h.146v-.419H2.75zm-.949-.245v.139h-.074v.106h-.146v-.106H1.51v-.139h-.146v.208h.072v.106h.074v.278h-.074v.106h-.072v.208h.146v-.139h.072v-.103h.146v.103h.074v.139h.146v-.208h-.072v-.106h-.074V7.86h.074v-.106h.072v-.208h-.146zm-.22.07h.146v-.348h-.146v.348zM.414 6.572H.56v-.278H.414v.278zm2.337 0h.146v-.278H2.75v.278zM.414 4.969H.56v-.42H.414v.42zm1.168 0h.146v-.42h-.146v.42zm1.169 0h.146v-.42H2.75v.42zM.999 8.006v-.145h.145V7.62h.147v-.281h.219v-.33h.072v-.16h.146v.158h.074v.332h.22v.281h.146v.241h.145v.278h-.145v.247h-.146v.278h-.22v.33h-.074v.156h-.146v-.157H1.51v-.329h-.22v-.278h-.146V8.14H.999v-.133zm1.169-3.877v.35H2.02v.348h-.145v.35h-.148v.348h-.146v-.348h-.146v-.35H1.29v-.348h-.147v-.35H.999v.35H.852v.348H.706v.35H.56v.348H.414v.35H.56v.35h.146v.347h.146v.347H1v-.347h.145v-.347h.147v-.35h-.147v-.42h.147v.28h.145v.559h.074v.344l-.22.003v.278h-.146v.208H.999v.35H.852v-.35H.706V6.92H.56v-.208H.414v.628H.56v.28h.146v.242h.146v.278H.706v.247H.56v.278H.414v.628H.56v-.211h.146v-.208h.146v-.348H1v.348h.145v.208h.147v.28l.219.004v.344h-.074v.559H1.29v.279h-.147v-.422h.147v-.348h-.147v-.347H.999v-.35H.852v.35H.706v.347H.56v.348H.414v.35H.56v.347h.148v.35h.144v.35H1v.348h.145v-.347h.147v-.35h.145v-.351h.146v-.347h.147v.347h.147v.35h.146v.35h.146v.348h.145v-.347h.146v-.35h.146v-.351h.146v-.347h.146v-.35H2.75v-.348h-.146v-.347H2.46v-.35h-.146v.35h-.145v.347H2.02v.348h.147v.422H2.02v-.28h-.145v-.56h-.074v-.346h.221V9.08h.146v-.208h.145v-.348h.146v.348h.146v.208h.147v.211h.145v-.628h-.145v-.278h-.147V8.14H2.46v-.28h.146v-.24h.147v-.281h.145V6.71h-.145v.208h-.147v.208H2.46v.35h-.146v-.35h-.145V6.92h-.146v-.278h-.22v-.347h.073v-.559h.146v-.28h.147v.42H2.02v.35h.147v.347h.145v.347h.146v-.347h.146v-.347h.146v-.35h.146v-.35H2.75v-.348h-.146v-.35H2.46V4.48h-.146v-.35h-.145zM.56 3.782h.073v-.139h.075v.139h.07v.139h-.07v.142H.633V3.92H.56v-.139zm0-.28H.488v.21H.414v.278h.074v.212H.56v.208h.22v-.208h.073V3.99h.072v-.277H.852V3.5H.78v-.205H.56V3.5zm.804.28h.072v-.139h.074v.139h.072v.139H1.51v.142h-.074V3.92h-.072v-.139zm.364 0h.074v-.139h.074v.139h.072v.139h-.072v.142h-.074V3.92h-.074v-.139zm-.364-.28H1.29v.21h-.074v.278h.074v.212h.073v.208h.218v-.208h.146v.208h.22v-.208h.074V3.99h.071v-.277h-.071V3.5h-.074v-.205h-.22V3.5h-.146v-.205h-.218V3.5zm1.165.277h.073v-.136h.074v.136h.073v.142h-.073v.139h-.074v-.14H2.53v-.14zm0-.486V3.5h-.072v.212h-.073v.277h.073V4.2h.072v.208h.22V4.2h.073v-.21h.072v-.277h-.072V3.5H2.75v-.208h-.22zM.414 3.154H.56v-.417H.414v.417zm1.168 0h.146v-.417h-.146v.417zm1.169 0h.146v-.417H2.75v.417zM.999 2.179h.145v-.35H.999v.35zm1.169 0h.145v-.35h-.145v.35zM.414 1.13H.56V.714H.414v.417zm1.168 0h.146V.714h-.146v.417zm1.169 0h.146V.714H2.75v.417zm-2.043.697h.144V1.48H1v-.35h.145v.35h.147v.347h.145v.35H1.29v.348h-.147v.35H.999v-.35H.852v-.347H.708v-.35zm1.168 0h.146V1.48h.146v-.35h.145v.35h.146v.347h.146v.35H2.46v.348h-.146v.35h-.145v-.35h-.146v-.347h-.146v-.35zM2.168.434v.35h-.146v.347h-.146v.35h-.148v.348h-.146V1.48h-.146v-.35H1.29V.784h-.146v-.35H1v.35H.852v.347H.707v.35H.56v.348H.414v.35H.56v.347h.148v.35h.144v.35H1v.348h.145v-.348h.147v-.35h.145v-.35h.146V2.18h.147v.347h.147v.35h.145v.35h.147v.348h.145v-.348h.146v-.35h.146v-.35h.146V2.18h.146v-.35h-.145v-.35h-.147v-.35H2.46V.784h-.146v-.35h-.145z" fill="#FF4B55"/></g></svg>