<svg width="24" height="16" xmlns="http://www.w3.org/2000/svg"><g fill="none"><path d="M23.54 15.987H.413a.417.417 0 01-.413-.42V.434C0 .2.185.014.413.014H23.54c.228 0 .413.187.413.42v15.133c0 .232-.185.42-.413.42z" fill="#FF4B55"/><path d="M3.977 2.511l.394 1.202 1.244.01c.161 0 .228.21.098.307l-1 .753.375 1.208c.048.156-.127.285-.258.19l-1.012-.737-1.013.737c-.13.095-.305-.034-.257-.19l.375-1.208-1-.753c-.13-.097-.063-.306.098-.307l1.244-.01.394-1.202a.167.167 0 01.318 0zm4.519.296l.282.392.456-.145c.059-.019.107.05.071.1l-.279.395.277.396c.035.052-.014.12-.072.1l-.455-.148-.285.39a.064.064 0 01-.116-.038l-.002-.486-.452-.156a.066.066 0 010-.124l.453-.152.006-.486c0-.063.08-.089.116-.038zM6.777 1.64l.475.052.202-.44a.064.064 0 01.121.014l.098.476.474.06c.06.007.077.09.024.121l-.415.242.09.477c.012.062-.06.103-.106.06l-.353-.326-.418.235c-.054.03-.115-.027-.09-.084l.196-.443-.349-.332c-.045-.043-.01-.12.05-.113zm.75 4.708l-.282.392-.456-.145c-.059-.019-.107.05-.071.1l.279.395-.276.396c-.036.052.013.12.072.1l.454-.147.285.39c.037.05.116.024.116-.04l.002-.485.453-.156c.058-.02.058-.104 0-.124l-.454-.152-.006-.486a.064.064 0 00-.116-.038zM9.246 5.25l-.475.053-.202-.44a.064.064 0 00-.121.014l-.098.476-.474.06c-.06.008-.077.09-.024.122l.415.241-.09.477c-.012.062.06.104.106.061l.353-.326.418.235c.054.03.115-.027.09-.084l-.196-.444.349-.332c.045-.042.01-.12-.05-.112z" fill="#FFE15A"/></g></svg>