<svg width="24" height="16" xmlns="http://www.w3.org/2000/svg"><g fill="none"><path d="M23.54 15.987H.413a.417.417 0 01-.413-.42V.434C0 .2.185.014.413.014H23.54c.228 0 .413.187.413.42v15.133c0 .232-.185.42-.413.42z" fill="#F5F5F5"/><g fill="#FF4B55"><path d="M23.953 6.739H13.216V.013h-2.478V6.74H0v2.522h10.738v6.726h2.478V9.26h10.737z"/><path d="M7.02 2.802c-.408.041-.81.083-1.21.125l.123-1.232a4.32 4.32 0 01-1.129 0l.124 1.232-1.211-.125c.048.381.048.767 0 1.149l1.211-.126-.124 1.233a4.32 4.32 0 011.13 0L5.81 3.825l1.21.126a4.558 4.558 0 010-1.15zm13.216 0c-.409.041-.81.083-1.21.125l.123-1.232a4.32 4.32 0 01-1.129 0l.124 1.232-1.211-.125c.048.381.048.767 0 1.149l1.21-.126-.123 1.233a4.32 4.32 0 011.129 0l-.124-1.233 1.211.126a4.558 4.558 0 010-1.15zM7.02 12.05c-.408.041-.81.083-1.21.125l.123-1.232a4.32 4.32 0 01-1.129 0l.124 1.232c-.401-.042-.802-.084-1.211-.125.048.381.048.767 0 1.148.409-.041.81-.083 1.211-.125l-.124 1.232a4.32 4.32 0 011.13 0l-.124-1.232c.401.042.802.084 1.21.125a4.558 4.558 0 010-1.148zm13.216 0c-.409.041-.81.083-1.21.125l.123-1.232a4.32 4.32 0 01-1.129 0l.124 1.232c-.402-.042-.802-.084-1.211-.125.048.381.048.767 0 1.148.409-.041.81-.083 1.21-.125l-.123 1.232a4.32 4.32 0 011.129 0l-.124-1.232c.402.042.802.084 1.211.125a4.558 4.558 0 010-1.148z"/></g></g></svg>