<svg width="24" height="16" xmlns="http://www.w3.org/2000/svg"><g fill="none"><path d="M23.54 15.987H.413a.417.417 0 01-.413-.42V.434C0 .2.185.014.413.014H23.54c.228 0 .413.187.413.42v15.133c0 .232-.185.42-.413.42z" fill="#FF4B55"/><g fill="#FFE15A"><path d="M16.345 9.254s-.823-.14-1.432-.654c-.18-.152-.441-.268-.695-.354.204-.009.42-.003.626.039.848.175 1.67-.245 1.67-.245s-.83.086-1.55-.248c-.195-.09-.448-.132-.695-.15a2.49 2.49 0 01.552-.103c.864-.05 1.556-.666 1.556-.666s-.782.296-1.562.158c-.227-.04-.506-.01-.765.043.17-.11.358-.211.554-.277.821-.277 1.331-1.056 1.331-1.056s-.679.493-1.467.567c-.234.022-.501.13-.742.253a2.63 2.63 0 01.473-.427c.721-.487 1.012-1.375 1.012-1.375s-.528.657-1.27.94c-.201.077-.41.232-.6.398.09-.166.197-.333.322-.476.577-.656.637-1.59.637-1.59s-.347.771-.994 1.236c-.189.135-.365.358-.511.582.044-.2.106-.408.199-.595.388-.787.207-1.705.207-1.705s-.138.837-.643 1.458c-.15.183-.263.448-.347.707a2.704 2.704 0 01.038-.637c.171-.863-.24-1.7-.24-1.7s.083.844-.244 1.578c-.089.198-.13.455-.148.707a2.616 2.616 0 01-.102-.562c-.047-.88-.653-1.584-.653-1.584s.29.796.155 1.59c-.04.231-.01.515.042.78a2.66 2.66 0 01-.272-.565c-.272-.836-1.037-1.355-1.037-1.355s.484.691.557 1.494c.022.238.127.51.248.754a2.647 2.647 0 01-.42-.48c-.478-.735-1.35-1.03-1.35-1.03s.645.537.923 1.291c.076.206.228.42.391.61a2.534 2.534 0 01-.467-.326c-.645-.587-1.563-.649-1.563-.649s.758.354 1.215 1.012c.133.192.35.372.572.52a2.568 2.568 0 01-.585-.202c-.774-.395-1.675-.21-1.675-.21s.822.14 1.432.654c.18.151.44.267.695.353a2.54 2.54 0 01-.626-.039c-.848-.174-1.67.245-1.67.245s.83-.085 1.55.248c.195.09.448.133.694.15a2.49 2.49 0 01-.551.104c-.865.049-1.557.665-1.557.665s.782-.295 1.562-.157c.228.04.506.01.766-.043-.17.109-.359.21-.554.276-.821.277-1.331 1.056-1.331 1.056s.679-.493 1.467-.567c.234-.022.5-.13.741-.252a2.63 2.63 0 01-.472.426c-.721.487-1.012 1.376-1.012 1.376s.528-.658 1.27-.94c.201-.078.41-.232.599-.399-.09.167-.196.333-.321.476-.577.657-.638 1.59-.638 1.59s.348-.771.995-1.236c.188-.135.365-.357.511-.582-.045.2-.106.408-.199.595-.388.788-.207 1.705-.207 1.705s.137-.837.643-1.457c.149-.183.263-.449.347-.708.01.208.003.429-.038.637-.171.864.24 1.701.24 1.701s-.083-.845.244-1.578c.089-.199.13-.456.148-.707.051.18.091.372.101.561.048.88.654 1.584.654 1.584s-.29-.796-.155-1.59c.04-.23.01-.515-.042-.779.107.174.207.365.272.564.272.836 1.037 1.355 1.037 1.355s-.484-.691-.557-1.493c-.022-.239-.127-.51-.248-.755.152.141.303.303.42.481.478.734 1.35 1.03 1.35 1.03s-.645-.537-.923-1.292c-.076-.206-.228-.419-.392-.61.164.091.327.199.468.327.645.587 1.563.648 1.563.648s-.759-.353-1.215-1.012c-.133-.192-.351-.371-.572-.52.197.045.4.108.585.202.773.395 1.675.21 1.675.21zm-4.37.88C10.819 10.135 9.88 9.18 9.88 8c0-1.178.939-2.134 2.097-2.134s2.096.956 2.096 2.134c0 1.179-.938 2.135-2.096 2.135z"/><path d="M11.31 7.137c.046-.036.09-.072.135-.103a2.888 2.888 0 00-.752-.233c-.03.033-.057.068-.084.103.184.037.432.106.702.233zm-.527-.431c.202.024.494.085.818.226a2.62 2.62 0 01.162-.09 2.9 2.9 0 00-.883-.217c-.032.027-.066.052-.097.081zm1.05.99a2.594 2.594 0 00-.127-.115c-.392.38-.736.935-.89 1.74.056.051.111.103.174.147.114-.819.448-1.383.843-1.772zm-.153-.354c.045-.036.09-.073.135-.105a2.874 2.874 0 00-.164-.098c-.047.033-.094.064-.14.1.056.032.113.066.17.103zm1.086-.103c.336.301.644.725.863 1.312.056-.174.094-.357.094-.55 0-.368-.11-.71-.297-.993a2.674 2.674 0 00-.66.231zm-.92.217c.044.034.086.071.13.108.043-.037.086-.074.13-.108a2.856 2.856 0 00-.13-.105 2.916 2.916 0 00-.13.105zm.13-.515c-.055.029-.11.06-.165.094.055.03.11.06.165.095a2.79 2.79 0 01.165-.095 2.892 2.892 0 00-.165-.094zm-1.351 2.175c.185-.769.533-1.295.923-1.657a2.595 2.595 0 00-.163-.109c-.376.336-.715.822-.924 1.52.048.088.102.169.164.246zm.561-1.877a2.676 2.676 0 00-.66-.23 1.792 1.792 0 00-.298.991c0 .194.038.377.094.551.22-.587.527-1.011.864-1.312zm.79-.497a2.96 2.96 0 01.958-.227 1.715 1.715 0 00-1.917 0c.244.015.587.07.959.227zm0 1.104c-.349.393-.636.957-.73 1.766.223.104.468.167.73.167.261 0 .506-.063.73-.167-.094-.808-.382-1.373-.73-1.766zm.591-.496a2.74 2.74 0 00-.164.109c.39.362.739.888.924 1.657.06-.077.115-.158.164-.245-.21-.7-.55-1.185-.924-1.52zm.569 1.971c-.155-.805-.498-1.36-.891-1.74a2.573 2.573 0 00-.127.115c.395.389.73.953.843 1.772.063-.044.119-.096.175-.147zm-.948-2.479c.054.028.108.057.163.09.323-.141.615-.203.817-.226-.03-.029-.065-.054-.097-.081a2.905 2.905 0 00-.883.217zm.082.5a3.01 3.01 0 01.17-.102c-.046-.037-.093-.068-.14-.101-.054.03-.109.062-.164.098.045.032.09.069.134.105zm.37-.205c.27-.127.518-.196.702-.233-.027-.035-.054-.07-.084-.103-.188.03-.455.095-.752.233.045.031.09.067.134.103z"/></g></g></svg>