<svg width="24" height="16" xmlns="http://www.w3.org/2000/svg"><g fill="none"><path d="M16 .013h7.586c.229 0 .414.188.414.42v15.133c0 .233-.185.42-.414.42H16V.014z" fill="#FF4B55"/><path fill="#FFE15A" d="M8 .013h8v15.974H8z"/><path d="M.414.013H8v15.974H.414a.417.417 0 01-.414-.42V.432C0 .2.185.012.414.012z" fill="#41479B"/><path fill="#FFCD5A" d="M13.672 10.71l-.206.17-.938-1.168.206-.17z"/><path fill="#FFBE5A" d="M13.25 9.971l-.413.341-.412-.515.412-.34z"/><path fill="#FFCD5A" d="M11.381 9.542l.206.17-.938 1.169-.206-.17z"/><path fill="#FFBE5A" d="M11.278 9.457l.411.34-.412.515-.412-.34z"/><path fill="#FFE15A" d="M11.725 9.98l-.664 1.349.93.674v-1.888z"/><path fill="#FFCD5A" d="M12.256 9.98l.664 1.349-.93.674v-1.888z"/><path d="M10.132 9.98V6.473h.398v2.698c0 .404-.398.81-.398.81z" fill="#FFBE5A"/><path d="M9.866 10.655V6.473h.399v3.372c0 .405-.399.81-.399.81z" fill="#FFCD5A"/><path d="M9.6 11.194V6.473h.4v3.912c0 .404-.4.81-.4.81z" fill="#FFE15A"/><path d="M10.53 6.608V9.17c0 .674.963.584 1.46 1.079.499-.495 1.461-.405 1.461-1.08v-2.56h-2.92z" fill="#FF4B55"/><path d="M10.53 8.092V9.17c0 .674.963.584 1.46 1.079.499-.495 1.461-.405 1.461-1.08V8.093h-2.92z" fill="#41479B"/><g fill="#FFE15A"><path d="M11.99 9.845l-.397-.27v-.134l.132-.135v-.81l-.398-.27.398-.539h.133l.133.135.133-.135h.132l.399.54-.399.27v.809l.133.135v.134z"/><path d="M11.46 6.743s-.531.135-.531.674c0 .54.53.81.53.81l.266-.405c-.796-.27-.265-1.08-.265-1.08zm1.062 0s.531.135.531.674c0 .54-.531.81-.531.81l-.266-.405c.797-.27.266-1.08.266-1.08z"/><path d="M10.663 8.092l.266.135.265-.135-.265-.135zm2.125 0l.265.135.266-.135-.266-.135zM11.99 6.81l.097.1.139-.001-.002.14.099.098-.099.099.002.14-.139-.002-.096.1-.097-.1-.138.002.002-.14-.1-.099.1-.098-.002-.14.138.002zm-.9 1.87l.095.109.133-.054c.069-.027.134.049.096.114l-.071.126.091.112c.047.058-.004.144-.076.128l-.14-.03-.077.123a.078.078 0 01-.144-.034l-.015-.145-.139-.036c-.071-.019-.08-.12-.012-.15l.13-.059-.008-.145c-.005-.075.087-.114.136-.058zm1.768.308a.344.344 0 01.299-.278.336.336 0 00-.097-.037.343.343 0 00-.402.276.348.348 0 00.272.408c.035.007.07.007.103.003a.35.35 0 01-.175-.372zm-1.398-2.38l.265-1.349-.53-.405.132-.135h.266s.132-.134.398-.134c.265 0 .531.134.531.539s.133 1.484.133 1.484H11.46z"/></g><path d="M10.53 6.068a.535.535 0 00-.53.54h1.061a.535.535 0 00-.53-.54z" fill="#FFAA5A"/><path d="M10.397 6.608h-.796V5.71c0-.175.14-.316.311-.316h.174c.172 0 .311.141.311.316v.898zM13.85 9.98V6.473h-.399v2.698c0 .404.399.81.399.81z" fill="#FFBE5A"/><path d="M14.115 10.655V6.473h-.398v3.372c0 .405.398.81.398.81z" fill="#FFCD5A"/><path d="M14.381 11.194V6.473h-.398v3.912c0 .404.398.81.398.81z" fill="#FFE15A"/><path d="M13.451 6.068c.294 0 .532.242.532.54H12.92c0-.298.238-.54.531-.54z" fill="#FFAA5A"/><path d="M13.584 6.608h.797V5.71a.314.314 0 00-.311-.316h-.174a.314.314 0 00-.312.316v.898z" fill="#FFBE5A"/><path fill="#FFAA5A" d="M14.952 8.04l.17.104-1.86 3.102-.17-.105z"/><path fill="#FFE15A" d="M13.832 10.646l-.332.422-.324-.264.331-.421z"/><path fill="#FFCD5A" d="M14.893 8.004l.284.175-.399.665-.283-.175z"/><g fill="#73AF00"><path d="M9.106 8.193l1.874 2.945-.112.073-1.874-2.945z"/><path d="M10.285 9.59a.411.411 0 00-.087.234.398.398 0 00-.21-.122.411.411 0 00.022.245.395.395 0 00-.246-.015c.02.1.099.207.221.281a.445.445 0 00.349.065l.027-.018a.464.464 0 00.086-.35.461.461 0 00-.162-.32z"/></g><circle fill="#FF4B55" cx="10.348" cy="10.269" r="1"/><path d="M9.78 8.797a.411.411 0 00-.087.234.398.398 0 00-.21-.122.411.411 0 00.022.245.395.395 0 00-.246-.015c.02.1.1.207.222.281a.445.445 0 00.348.065l.028-.018a.464.464 0 00.085-.35.46.46 0 00-.162-.32z" fill="#73AF00"/><circle fill="#FF4B55" cx="9.843" cy="9.476" r="1"/><path d="M9.276 8.004a.411.411 0 00-.087.234.398.398 0 00-.211-.122.411.411 0 00.022.245.395.395 0 00-.245-.015c.019.1.099.207.221.281a.445.445 0 00.349.065l.027-.018a.464.464 0 00.086-.35.461.461 0 00-.162-.32z" fill="#73AF00"/><circle fill="#FF4B55" cx="9.338" cy="8.683" r="1"/><g fill="#FFE15A"><path d="M10.607 10.383l.332.422-.324.263-.332-.421zm.588-6.068h1v1h-1z"/><path d="M11.06 4.45h1v1h-1z"/></g><path fill="#FF875A" d="M11.194 4.854l.399.304v-.439h-.266z"/><path d="M11.327 4.315v.135h.133v.135h-.133v.134h.266s.132-.134.398-.134c.265 0 .531.134.531.54 0 .404.133 1.483.133 1.483h.265c0-.298.238-.54.531-.54.047 0 .09.008.133.02v-.29c0-.223.179-.404.399-.404.22 0 .398.181.398.405V8.99l.171-.286-.056-.035.398-.665.057.035.085.053.142.087-.399.665-.056-.035-.342.57v1.815s-.317-.323-.385-.68a1.763 1.763 0 01-.154-.236l-.152.254.142.115-.332.421-.088-.071-.15.25-.17-.105.163-.273-.08-.064.114-.144-.349-.434-.103.085-.31-.386c-.082.034-.163.07-.242.113l.635 1.29-.93.675-.929-.675.635-1.29a2.17 2.17 0 00-.143-.071l-.276.344-.103-.085-.349.434.113.144-.112.091.154.242-.112.074-.147-.231-.107.087-.332-.421.15-.121-.08-.125h-.005a.13.13 0 01-.13-.113.436.436 0 01-.077-.012c-.05.093-.106.174-.154.238-.068.357-.385.68-.385.68v-1.72a.552.552 0 01-.12-.054.458.458 0 01-.222-.281.308.308 0 01.092-.013c.048 0 .1.01.154.028a.486.486 0 01-.031-.133l-.13-.206h-.006a.13.13 0 01-.13-.113.509.509 0 01-.232-.074.458.458 0 01-.222-.282.308.308 0 01.092-.013c.049 0 .101.01.154.028a.411.411 0 01-.022-.245.4.4 0 01.21.122.411.411 0 01.088-.234.46.46 0 01.161.32.53.53 0 01-.028.246c.016.01.03.023.04.04a.135.135 0 01.006.132l.13.205.016.01V5.799c0-.224.178-.405.398-.405.22 0 .398.181.398.405v.289a.518.518 0 01.133-.02c.293 0 .531.242.531.54h.398l.266-1.349-.133-.101-.265-.202v.303h-.133v-.674h-.133V4.45h.133v-.135h.133zm2.131 6.13l.05-.062.026.021.214-.357a.745.745 0 01-.031-.202v-.023c-.116-.155-.266-.403-.266-.651 0 .284-.171.432-.406.546l.204.254-.103.086.312.388zm-2.922-.004l.071-.058.049.062.312-.389-.103-.085.17-.21c-.284-.12-.505-.268-.505-.59 0 .18-.08.36-.167.505a.527.527 0 01.084.234.53.53 0 01-.029.245.13.13 0 01.041.04.135.135 0 01.005.133l.072.113zm.791-6.227h-.133a.1.1 0 00-.1.1v.034h-.033a.1.1 0 00-.1.102v.135a.1.1 0 00.1.1h.034v.574a.1.1 0 00.1.101h.132a.1.1 0 00.1-.101v-.101l.106.08.082.064-.237 1.205h-.225a.635.635 0 00-.656-.539v-.17a.503.503 0 00-.498-.505.503.503 0 00-.498.506v2.36a.497.497 0 00-.168-.238.098.098 0 00-.132.016.43.43 0 00-.075.127.416.416 0 00-.148-.049.1.1 0 00-.096.075.433.433 0 00-.012.142.48.48 0 00-.145.017.101.101 0 00-.068.116.557.557 0 00.268.35.642.642 0 00.209.08.227.227 0 00.152.116l.072.114h-.007a.405.405 0 00-.121.017.101.101 0 00-.069.116.557.557 0 00.268.35.582.582 0 00.072.036v1.65a.101.101 0 00.1.101c.026 0 .051-.01.07-.03.014-.013.326-.335.408-.708a1.92 1.92 0 00.092-.135.228.228 0 00.124.074l.004.007-.078.064a.102.102 0 00-.016.142l.332.422a.1.1 0 00.14.016l.02-.018.088.137a.1.1 0 00.083.046.098.098 0 00.055-.016l.064-.042-.015.03a.102.102 0 00.032.127l.929.675a.098.098 0 00.116 0l.93-.675a.102.102 0 00.03-.127l-.59-1.2.078-.036.263.328a.099.099 0 00.14.014l.026-.021.235.292-.063.08a.102.102 0 00.016.142l.01.009-.117.197a.102.102 0 00.033.139l.17.105a.099.099 0 00.137-.034l.091-.152a.098.098 0 00.14-.016l.332-.422a.102.102 0 00.021-.052c.108.329.367.596.38.608a.099.099 0 00.17-.071V9.407l.278-.464a.099.099 0 00.106-.047l.398-.664a.102.102 0 00-.033-.14l-.142-.087-.085-.053-.057-.035a.099.099 0 00-.137.034l-.328.548V5.798a.503.503 0 00-.498-.505.503.503 0 00-.498.505v.17a.635.635 0 00-.656.538h-.086c-.031-.265-.121-1.055-.121-1.382 0-.472-.326-.64-.63-.64a.713.713 0 00-.435.134h-.003a.103.103 0 00.006-.034V4.45a.1.1 0 00-.1-.102h-.033v-.033a.1.1 0 00-.1-.101zm-.848 5.462a1.41 1.41 0 00.067-.135.894.894 0 00.33.258l-.088.108a.102.102 0 00.014.143l.026.021-.177.221a.099.099 0 00-.073-.006.232.232 0 00-.046-.161.648.648 0 00-.053-.449zm2.72.073a.78.78 0 00.237-.207c.051.118.118.226.181.313a.85.85 0 00.023.176l-.15.253a.097.097 0 00-.026.008l-.178-.221.026-.021a.102.102 0 00.014-.143L13.2 9.75zm-1.922.664a.099.099 0 00.077-.037l.168-.21-.454.924a.094.094 0 00-.004-.007l-.106-.165.043-.035a.102.102 0 00.016-.142l-.063-.08.234-.292.026.021c.019.016.04.023.063.023zm2.544.095l.025-.036c.021.028.044.057.068.085a.856.856 0 00.007.026.108.108 0 00-.017-.016l-.083-.059z" fill="#FFAA5A"/></g></svg>