<svg width="24" height="16" xmlns="http://www.w3.org/2000/svg"><g fill="none"><path d="M.413 15.987H23.54a.417.417 0 00.413-.42V.434a.417.417 0 00-.413-.42H.413A.417.417 0 000 .433v15.133c0 .232.185.42.413.42z" fill="#C8414B"/><path fill="#FFD250" d="M0 3.376h23.953v9.248H0z"/><path d="M10.118 8l.35-1.604a.235.235 0 00-.227-.288h-.246a.236.236 0 00-.227.288L10.118 8z" fill="#C8414B"/><path fill="#F5F5F5" d="M9.705 7.159h1v3.573h-1z"/><path fill="#FAB446" d="M9.498 6.739h1.239v1H9.498z"/><g fill="#C8414B"><path d="M8.673 8h2.065v1H8.673z"/><path d="M10.738 9.681l-1.24-.42v-.42l1.24.42zM3.923 8l.35-1.604a.235.235 0 00-.226-.288H3.8a.236.236 0 00-.227.288L3.923 8z"/></g><path d="M5.369 6.739a.417.417 0 00-.413.42v2.733c0 .51.468 1.471 2.065 1.471 1.596 0 2.065-.96 2.065-1.471V7.159a.417.417 0 00-.413-.42H5.369z" fill="#F5F5F5"/><path d="M7.02 8.84H4.957V7.16c0-.233.185-.421.413-.421h1.65v2.102zm0 0h2.066v1.052c0 .58-.463 1.05-1.033 1.05-.57 0-1.032-.47-1.032-1.05V8.84z" fill="#C8414B"/><path d="M4.956 8.84H7.02v1.052c0 .58-.462 1.05-1.033 1.05-.57 0-1.032-.47-1.032-1.05V8.84z" fill="#FAB446"/><path d="M6.608 10.728V8.84h-.413v2.08c.153-.031.292-.1.413-.193zm-.826.193v-2.08h-.413v1.887c.12.092.26.162.413.193z" fill="#C8414B"/><path fill="#FFB441" d="M5.369 8h1.239v1H5.369z"/><g fill="#FAB446"><path d="M5.37 7.159h1.238v1H5.37z"/><path d="M5.575 7.409h1v1h-1z"/></g><path fill="#F5F5F5" d="M3.51 7.159h1v3.573h-1z"/><path d="M3.304 10.522h1.239v1h-1.24zm0-3.782h1.239v1h-1.24z" fill="#FAB446"/><path fill="#5064AA" d="M3.098 10.942H4.75v1H3.098z"/><path fill="#FAB446" d="M9.705 10.522h1.239v1H9.705z"/><path fill="#5064AA" d="M9.292 10.942h1.652v1H9.292z"/><path fill="#FAB446" d="M5.782 6.319H8.26v1H5.782z"/><path fill="#FFB441" d="M6.815 5.058h1v1.261h-1z"/><g fill="#F5F5F5"><path d="M6.608 5.688a.626.626 0 01-.62-.63c0-.348.278-.631.62-.631.341 0 .62.283.62.63a.627.627 0 01-.62.631zm0-.84a.209.209 0 00-.207.21c0 .115.093.21.207.21a.208.208 0 00.206-.21.209.209 0 00-.206-.21z"/><path d="M7.434 5.688a.626.626 0 01-.62-.63c0-.348.278-.631.62-.631.341 0 .62.283.62.63a.627.627 0 01-.62.631zm0-.84a.209.209 0 00-.207.21c0 .115.093.21.207.21a.209.209 0 00.206-.21.209.209 0 00-.206-.21z"/><path d="M8.26 6.108a.626.626 0 01-.62-.63c0-.348.278-.63.62-.63.341 0 .62.282.62.63 0 .348-.279.63-.62.63zm0-.84a.209.209 0 00-.207.21c0 .116.093.21.207.21a.209.209 0 00.206-.21.209.209 0 00-.206-.21zm-2.478.84a.626.626 0 01-.62-.63c0-.348.278-.63.62-.63.341 0 .62.282.62.63 0 .348-.279.63-.62.63zm0-.84a.209.209 0 00-.207.21c0 .116.093.21.207.21a.209.209 0 00.206-.21.208.208 0 00-.206-.21z"/></g><path d="M8.26 9.681v.21c0 .117-.093.21-.207.21a.209.209 0 01-.206-.21v-.21h.413zm.413-.42h-1.24v.63c0 .348.279.631.62.631.342 0 .62-.283.62-.63v-.63z" fill="#FAB446"/><path d="M8.053 8.42A.417.417 0 017.64 8v-.42c0-.232.185-.42.413-.42.228 0 .413.188.413.42V8c0 .232-.185.42-.413.42z" fill="#FFA0D2"/><circle fill="#5064AA" cx="7.021" cy="8.841" r="1"/><path fill="#FAB446" d="M6.815 4.217h1v1.261h-1z"/><path d="M5.782 6.319l-.413-.42.242-.247a1.974 1.974 0 012.82 0l.242.246-.413.42H5.782z" fill="#C8414B"/><g transform="translate(5.942 5.667)" fill="#FFD250"><circle cx="1.079" cy=".455" r="1"/><circle cx=".253" cy=".455" r="1"/><circle cx="1.905" cy=".455" r="1"/></g><g fill="#C8414B"><path d="M3.304 8h2.065v1H3.304z"/><path d="M3.304 9.681l1.239-.42v-.42l-1.24.42z"/></g></g></svg>