<svg width="24" height="16" xmlns="http://www.w3.org/2000/svg"><g fill="none"><path d="M0 10.662h23.953v4.904c0 .233-.185.42-.413.42H.413a.417.417 0 01-.413-.42v-4.904z" fill="#73AF00"/><path d="M.413.013H23.54c.228 0 .413.188.413.42v4.905H0V.433c0-.232.185-.42.413-.42z" fill="#FF4B55"/><path fill="#F5F5F5" d="M0 5.338h23.953v5.324H0z"/><g fill="#FFCD5A"><path d="M10.623 9.502a.77.77 0 00.326-.338c.308.204.571.135.709.07a.835.835 0 00.318-.275c.073.106.184.21.318.274.137.066.4.135.708-.07a.706.706 0 00.652.414c.122 0 .254-.026.394-.08l-.068-.184c-.223.085-.413.09-.563.013a.617.617 0 01-.28-.343l-.041-.146-.115.097c-.202.171-.411.213-.605.12-.197-.093-.303-.284-.303-.34V7.86a.267.267 0 01.242-.16.26.26 0 01.11.024l.12.055-.019-.133a.563.563 0 00-.55-.49.563.563 0 00-.551.49l-.018.133.12-.055a.26.26 0 01.109-.024c.108 0 .2.066.242.16v.852c0 .057-.106.248-.303.341-.194.093-.403.051-.605-.12l-.114-.096-.041.144c-.001.003-.071.238-.281.344-.15.076-.34.072-.563-.013l-.068.185c.14.053.272.08.393.08a.706.706 0 00.327-.076zm1.013-1.95l-.035.002a.412.412 0 01.375-.248c.164 0 .309.1.374.248a.412.412 0 00-.374.18.41.41 0 00-.34-.181zm-1.341 2.578l.061.187c.413-.14 1.003-.22 1.62-.22.616 0 1.206.08 1.619.22l.061-.187c-.431-.147-1.044-.231-1.68-.231-.637 0-1.25.084-1.681.23z"/><path d="M11.976 9.701c.1 0 .19-.06.25-.143a.384.384 0 00-.154-.048v-.006a.238.238 0 00-.096-.198.238.238 0 00-.097.198v.006a.383.383 0 00-.154.048.32.32 0 00.25.143zm-.891.094c.099-.02.174-.099.217-.192a.382.382 0 00-.16-.015l-.001-.007a.236.236 0 00-.134-.173.24.24 0 00-.056.213l.002.006a.386.386 0 00-.142.078c.075.069.175.11.274.09zm1.859-.387a.236.236 0 00-.134.173v.007a.382.382 0 00-.161.015.324.324 0 00.217.192c.1.02.199-.021.274-.09a.387.387 0 00-.142-.078L13 9.621a.24.24 0 00-.056-.213zm-.994-3.639l-.066.2-.206.001c-.027 0-.038.035-.017.051l.167.125-.063.2c-.008.027.021.048.043.033l.168-.123.168.123a.028.028 0 00.043-.032l-.062-.2.166-.126c.021-.016.01-.05-.016-.05l-.207-.002-.066-.2a.028.028 0 00-.052 0zm-1.183.329l-.066.2-.206.002a.028.028 0 00-.017.05l.167.126-.063.2c-.008.026.021.048.043.032l.168-.123.168.123c.022.016.051-.006.043-.032l-.062-.2.166-.125c.021-.017.01-.051-.016-.051l-.207-.002-.066-.2a.028.028 0 00-.052 0zm-.87.889l-.065.2-.207.002c-.027 0-.038.035-.016.05l.166.126-.062.2c-.008.026.02.048.043.032l.168-.122.168.122c.022.016.05-.006.043-.032l-.063-.2.166-.125c.022-.016.01-.051-.016-.051l-.207-.002-.065-.2a.028.028 0 00-.053 0zM9.578 8.19l-.066.199-.206.002c-.027 0-.038.035-.017.05l.167.126-.063.2c-.008.026.021.048.043.032l.168-.122.168.122c.022.016.051-.006.043-.032l-.062-.2.166-.125c.021-.016.01-.051-.016-.051l-.207-.002-.065-.2a.028.028 0 00-.053 0zm3.609-2.092l.065.2.207.002c.026 0 .037.034.016.05l-.166.126.062.2c.008.026-.02.048-.043.032l-.168-.123-.168.123c-.022.016-.05-.006-.043-.032l.063-.2-.167-.125c-.021-.017-.01-.051.017-.051l.206-.002.066-.2a.028.028 0 01.053 0zm.869.889l.065.2.207.002c.027 0 .038.035.016.05l-.166.126.063.2c.008.026-.021.048-.043.032l-.168-.122-.169.122c-.021.016-.05-.006-.042-.032l.062-.2-.166-.125c-.022-.016-.01-.051.016-.051l.207-.002.065-.2a.028.028 0 01.053 0zm.319 1.203l.066.199.207.002c.026 0 .037.035.016.05l-.166.126.062.2c.008.026-.021.048-.043.032l-.168-.122-.168.122c-.022.016-.05-.006-.043-.032l.062-.2-.166-.125c-.021-.016-.01-.051.017-.051l.206-.002.066-.2a.028.028 0 01.052 0z"/></g></g></svg>