<svg width="24" height="16" xmlns="http://www.w3.org/2000/svg"><g fill="none"><path d="M23.54 15.987H.413a.417.417 0 01-.413-.42V.432C0 .2.185.012.413.012H23.54c.228 0 .413.188.413.42v15.133c0 .233-.185.42-.413.42z" fill="#73AF00"/><path fill="#FF4B55" d="M3.304.013h4.13v15.974h-4.13z"/><path fill="#F5F5F5" d="M7.02 1.835l-.825.7H4.543l-.826-.7v-.701l.826-.7h1.652l.826.7z"/><path d="M7.02 7.72l-.825.7H4.543l-.826-.7v-.701l.826-.7h1.652l.826.7zm0-2.943l-.825.7H4.543l-.826-.7v-.7l.826-.701h1.652l.826.7zm0 5.885l-.825.7H4.543l-.826-.7v-.7l.826-.701h1.652l.826.7z" fill="#73AF00"/><path d="M3.304 2.115l.826.84-.826.841zm4.13 1.681l-.826-.84.826-.841zm-4.13 1.261l.826.841-.826.84zm4.13 1.682l-.826-.841.826-.84zM3.304 8l.826.84-.826.841zm4.13 1.681l-.826-.84L7.434 8zm-4.13 1.261l.826.841-.826.84zm4.13 1.682l-.826-.84.826-.842zM3.304.013h.826l-.826.84zm4.13.841L6.608.013h.826zM5.162 3.376h1v2.102h-1z" fill="#FFB400"/><path fill="#FF4B55" d="M4.543 4.217h1.652v1H4.543z"/><path d="M6.608 3.726l-.413-.35v2.102l.413-.35zM4.13 5.127l.413.35v-2.1l-.413.35zM5.369.433h-.826l-.826.701v.35h1.652zm0 2.102h.826l.826-.7v-.35H5.369z" fill="#FFB400"/><path fill="#FF4B55" d="M5.369 2.115l-.826-.628.826-.633.826.633z"/><path d="M5.369 2.115l.826-.628-.003-.003h-.823zm0-.631v-.63l-.823.63z" fill="#73AF00"/><path fill="#FF4B55" d="M4.543 6.739h1.652V8H4.543z"/><path fill="#FFB400" d="M6.195 7.159h1v1h-1z"/><path fill="#F5F5F5" d="M5.162 7.159h1v1h-1z"/><path fill="#FF4B55" d="M5.162 9.681h1v1h-1z"/><path d="M5.782 10.108h1v1h-1zm-1.239 0h1v1h-1z" fill="#FFB400"/><path fill="#FF4B55" d="M5.162 10.522h1v1h-1z"/><path fill="#FFB400" d="M4.13 7.159h1v1h-1z"/><path fill="#F5F5F5" d="M7.02 13.605l-.825.7H4.543l-.826-.7v-.7l.826-.702h1.652l.826.701z"/><path d="M5.369 12.203h-.826l-.826.701v.35h1.652zm0 2.102h.826l.826-.7v-.35H5.369z" fill="#FFB400"/><path fill="#FF4B55" d="M6.195 13.465l-.826.42-.826-.42v-.42l.826-.421.826.42z"/><path d="M13.1 2.302c-.044-.022-.084.036-.048.07.467.45.763 1.08.763 1.783 0 1.381-1.091 2.49-2.433 2.49a2.34 2.34 0 01-.71-.111c-.047-.015-.077.048-.037.077a2.38 2.38 0 001.38.443c1.36 0 2.47-1.108 2.47-2.51 0-.984-.568-1.833-1.385-2.242zM9.74 3.924l-.102.29.238.192c.03.025.013.075-.027.074l-.303-.008-.105.29a.04.04 0 01-.078-.003l-.086-.296-.303-.012c-.039-.002-.053-.054-.021-.076l.25-.175-.082-.297c-.01-.039.033-.069.064-.044l.24.187.253-.17c.033-.023.074.01.061.048zm1.226.631l-.1.29.237.192c.03.025.013.075-.026.074l-.303-.008-.106.29a.04.04 0 01-.077-.003l-.086-.296-.303-.013c-.04-.001-.054-.053-.022-.075l.25-.175-.082-.297c-.01-.039.033-.069.064-.044l.241.187.252-.17c.033-.023.074.01.061.048zm-.012-1.3l-.101.29.238.192c.03.025.013.076-.027.075l-.303-.008-.105.289a.04.04 0 01-.078-.003l-.086-.296-.303-.012c-.039-.002-.054-.053-.021-.076l.25-.175-.082-.297c-.01-.039.033-.069.064-.044l.24.187.253-.17c.033-.023.074.01.061.048zM10.996 2l-.101.291.237.192c.031.025.013.075-.026.074l-.303-.008-.105.29a.04.04 0 01-.078-.003l-.086-.296-.303-.013c-.04-.001-.054-.053-.021-.076l.25-.174-.082-.298c-.01-.038.033-.068.064-.044l.24.188.253-.171c.032-.022.074.01.06.048zm1.202.631l-.1.291.237.192c.03.025.013.075-.026.074l-.303-.008-.106.29a.04.04 0 01-.077-.003l-.086-.296-.303-.013c-.04-.001-.054-.053-.022-.076l.25-.174-.082-.298c-.01-.038.033-.068.064-.044l.241.188.252-.171a.04.04 0 01.061.048z" fill="#F5F5F5"/></g></svg>