<svg width="24" height="16" xmlns="http://www.w3.org/2000/svg"><g fill="none"><path d="M23.54 15.987H.413a.417.417 0 01-.413-.42V.434C0 .2.185.014.413.014H23.54c.228 0 .413.187.413.42v15.133c0 .232-.185.42-.413.42z" fill="#41479B"/><path d="M23.953.434a.417.417 0 00-.413-.42h-1.848l-7.65 5.101V.013h-4.13v5.102L2.26.013H.413A.417.417 0 000 .433v1.088l6.564 4.377H0v4.204h6.564L0 14.479v1.088c0 .232.185.42.413.42h1.848l7.65-5.102v5.102h4.13v-5.102l7.652 5.102h1.847a.417.417 0 00.413-.42v-1.088l-6.564-4.377h6.564V5.898H17.39l6.564-4.377V.434z" fill="#F5F5F5"/><g fill="#FF4B55"><path d="M23.953 6.739H13.216V.013h-2.478V6.74H0v2.522h10.738v6.726h2.478V9.26h10.737z"/><path d="M8.372 10.102l-8.36 5.523a.41.41 0 00.401.362h.569l8.907-5.885H8.372zm7.833 0h-1.517l8.894 5.876a.413.413 0 00.371-.412v-.345l-7.748-5.12zM0 .898l7.569 5h1.517L.24.054a.42.42 0 00-.24.38v.464zm15.559 5l8.38-5.537a.41.41 0 00-.399-.348h-.591l-8.907 5.885h1.517z"/></g></g></svg>