<svg width="24" height="16" xmlns="http://www.w3.org/2000/svg"><g fill="none"><path d="M23.953 5.338H0V.434C0 .2.185.014.413.014H23.54c.228 0 .413.187.413.42v4.904z" fill="#82AFFF"/><path d="M23.54 15.987H.413a.417.417 0 01-.413-.42v-4.905h23.953v4.905c0 .232-.185.42-.413.42z" fill="#73AF00"/><path fill="#F5F5F5" d="M0 5.338h23.953v5.324H0z"/><path d="M0 4.865h23.953v1H0zm0 5.606h23.953v1H0z" fill="#FF4B55"/><g fill="#F5F5F5"><path d="M5.31 4.003A1.542 1.542 0 013.779 2.45c0-.86.685-1.56 1.53-1.56h.01c.05.001.067-.066.024-.09a1.79 1.79 0 00-.874-.22c-1.012.007-1.833.86-1.822 1.89.01 1.02.829 1.844 1.835 1.844.312 0 .605-.08.862-.22.044-.024.026-.091-.024-.09h-.01zm1.198-.429l-.068.209-.216.001c-.028 0-.04.037-.017.054l.174.13-.066.21c-.008.027.022.05.045.033l.176-.128.176.128c.022.017.053-.006.044-.033l-.065-.21.174-.13c.022-.017.01-.054-.017-.054l-.216-.001-.069-.21a.029.029 0 00-.055 0zm1.522 0l-.068.209-.216.001c-.028 0-.04.037-.017.054l.174.13-.065.21c-.009.027.022.05.044.033l.176-.128.176.128c.023.017.053-.006.045-.033l-.065-.21.173-.13c.023-.017.011-.054-.017-.054l-.216-.001-.068-.21a.029.029 0 00-.055 0zm1.523 0l-.068.209-.216.001c-.028 0-.04.037-.017.054l.173.13-.065.21c-.008.027.022.05.045.033l.176-.128.176.128c.022.017.053-.006.044-.033l-.065-.21.174-.13c.022-.017.01-.054-.017-.054l-.216-.001-.069-.21a.029.029 0 00-.055 0zm1.523 0l-.069.209-.216.001c-.028 0-.04.037-.017.054l.174.13-.065.21c-.009.027.022.05.044.033l.176-.128.176.128c.023.017.053-.006.045-.033l-.066-.21.174-.13c.023-.017.011-.054-.017-.054l-.216-.001-.068-.21a.029.029 0 00-.055 0zm1.522 0l-.068.209-.216.001c-.028 0-.04.037-.017.054l.173.13-.065.21c-.008.027.022.05.045.033l.176-.128.175.128c.023.017.054-.006.045-.033l-.065-.21.174-.13c.022-.017.01-.054-.017-.054l-.216-.001-.069-.21a.029.029 0 00-.055 0zM8.03 2.128l-.068.208-.216.002c-.028 0-.04.036-.017.053l.174.131-.065.21c-.009.027.022.05.044.033l.176-.128.176.128c.023.016.053-.006.045-.033l-.065-.21.173-.13c.023-.018.011-.054-.017-.054l-.216-.002-.068-.208a.029.029 0 00-.055 0zm1.523 0l-.068.208-.216.002c-.028 0-.04.036-.017.053l.173.131-.065.21c-.008.027.022.05.045.033l.176-.128.176.128c.022.016.053-.006.044-.033l-.065-.21.174-.13c.022-.018.01-.054-.017-.054l-.216-.002-.069-.208a.029.029 0 00-.055 0zm1.523 0l-.069.208-.216.002c-.028 0-.04.036-.017.053l.174.131-.065.21c-.009.027.022.05.044.033l.176-.128.176.128c.023.016.053-.006.045-.033l-.066-.21.174-.13c.023-.018.011-.054-.017-.054l-.216-.002-.068-.208a.029.029 0 00-.055 0zm1.522 0l-.068.208-.216.002c-.028 0-.04.036-.017.053l.173.131-.065.21c-.008.027.022.05.045.033l.176-.128.175.128c.023.016.054-.006.045-.033l-.065-.21.174-.13c.022-.018.01-.054-.017-.054l-.216-.002-.069-.208a.029.029 0 00-.055 0z"/><path d="M9.553 3.574l-.068.209-.216.001c-.028 0-.04.037-.017.054l.173.13-.065.21c-.008.027.022.05.045.033l.176-.128.176.128c.022.017.053-.006.044-.033l-.065-.21.174-.13c.022-.017.01-.054-.017-.054l-.216-.001-.069-.21a.029.029 0 00-.055 0zm0-2.893L9.485.89l-.216.002c-.028 0-.04.036-.017.053l.173.13-.065.21c-.008.028.022.05.045.033l.176-.127.176.127c.022.017.053-.005.044-.033l-.065-.21.174-.13c.022-.017.01-.053-.017-.053L9.677.89 9.608.68a.029.029 0 00-.055 0zm1.523 2.893l-.069.209-.216.001c-.028 0-.04.037-.017.054l.174.13-.065.21c-.009.027.022.05.044.033l.176-.128.176.128c.023.017.053-.006.045-.033l-.066-.21.174-.13c.023-.017.011-.054-.017-.054l-.216-.001-.068-.21a.029.029 0 00-.055 0zm1.522 0l-.068.209-.216.001c-.028 0-.04.037-.017.054l.173.13-.065.21c-.008.027.022.05.045.033l.176-.128.175.128c.023.017.054-.006.045-.033l-.065-.21.174-.13c.022-.017.01-.054-.017-.054l-.216-.001-.069-.21a.029.029 0 00-.055 0zM11.076.681l-.069.209-.216.002c-.028 0-.04.036-.017.053l.174.13-.065.21c-.009.028.022.05.044.033l.176-.127.176.127c.023.017.053-.005.045-.033l-.066-.21.174-.13c.023-.017.011-.053-.017-.053L11.2.89l-.069-.21a.029.029 0 00-.055 0zm1.522 0L12.53.89l-.216.002c-.028 0-.04.036-.017.053l.173.13-.065.21c-.008.028.022.05.045.033l.176-.127.175.127a.03.03 0 00.045-.033l-.065-.21.174-.13c.022-.017.01-.053-.017-.053L12.722.89l-.069-.21a.029.029 0 00-.055 0z"/></g></g></svg>