<?xml version="1.0" encoding="UTF-8"?>
<svg width="24px" height="24px" viewBox="0 0 24 24" version="1.1" xmlns="http://www.w3.org/2000/svg" xmlns:xlink="http://www.w3.org/1999/xlink">
    <!-- Generator: Sketch 55.1 (78136) - https://sketchapp.com -->
    <title>reading</title>
    <desc>Created with Sketch.</desc>
    <g id="reading" stroke="none" stroke-width="1" fill="none" fill-rule="evenodd">
        <path d="M5.05939394,5.00323789 C6.72902357,5.00707048 9.76579125,5.3864978 11.3460606,7.88376652 C11.4103704,7.98552863 11.4444444,8.1085022 11.4444444,8.23940529 L11.4444444,19.2601101 C9.51905724,17.2829515 6.72808081,16.9422467 5.06222222,16.938348 C4.66707071,16.9373568 4.34565657,16.6224229 4.34565657,16.2362555 L4.34565657,5.70552863 C4.34565657,5.51707048 4.42047138,5.34004405 4.5562963,5.20709251 C4.69063973,5.07559471 4.86855219,5.00323789 5.05771044,5.00323789 C5.05824916,5.00323789 5.05885522,5.00323789 5.05939394,5.00323789 Z M19.6543434,16.2362555 C19.6543434,16.6223568 19.3329293,16.9372907 18.9378451,16.9382819 C17.2719865,16.9421806 14.4810101,17.2828855 12.5556229,19.2600441 L12.5556229,8.23940529 C12.5556229,8.1085022 12.5896296,7.98552863 12.6539394,7.88376652 C14.2342761,5.3864978 17.2710438,5.00707048 18.9406061,5.00317181 C18.9411448,5.00317181 18.9417508,5.00317181 18.9423569,5.00317181 C19.1313131,5.00317181 19.3093603,5.07552863 19.4437037,5.20702643 C19.5795286,5.33997797 19.6543434,5.51700441 19.6543434,5.70546256 L19.6543434,16.2362555 Z M21.2843771,7.43178414 C21.6789226,7.43178414 21.9999327,7.74678414 21.9999327,8.13394273 L21.9999327,19.2947357 C21.9999327,19.5094273 21.9018855,19.7094493 21.7309764,19.8432599 C21.5594613,19.9774009 21.3382492,20.0268282 21.1241751,19.9789868 C19.409697,19.5955947 16.4013468,19.1498899 13.5476094,19.8355286 C15.1976431,18.3030837 17.5274747,18.0319604 18.9404714,18.0286564 C19.9468013,18.0262115 20.7654545,17.2222247 20.7654545,16.2362555 L20.7654545,7.43178414 L21.2843771,7.43178414 Z M3.23447811,16.2362555 C3.23447811,17.2222247 4.05319865,18.0262115 5.05946128,18.0285903 C6.47245791,18.0318943 8.80228956,18.3029515 10.4522559,19.8353304 C7.5986532,19.1496916 4.59023569,19.5953304 2.87575758,19.9787885 C2.6613468,20.0267621 2.4403367,19.9771366 2.26895623,19.8430617 C2.09804714,19.7092511 2,19.5092952 2,19.2945374 L2,8.13394273 C2,7.74678414 2.32107744,7.43178414 2.71555556,7.43178414 L3.23447811,7.43178414 L3.23447811,16.2362555 Z" id="Combined-Shape" fill="#4167BB" fill-rule="nonzero"></path>
        <rect id="Rectangle" fill="#D8D8D8" opacity="0" x="0" y="0" width="24" height="24"></rect>
    </g>
</svg>