<?xml version="1.0" encoding="UTF-8"?>
<svg width="24px" height="24px" viewBox="0 0 24 24" version="1.1" xmlns="http://www.w3.org/2000/svg" xmlns:xlink="http://www.w3.org/1999/xlink">
    <!-- Generator: Sketch 55.1 (78136) - https://sketchapp.com -->
    <title>basketball</title>
    <desc>Created with Sketch.</desc>
    <g id="basketball" stroke="none" stroke-width="1" fill="none" fill-rule="evenodd">
        <path d="M19.0710754,4.92892457 C17.1824951,3.04019164 14.671051,2 12,2 C9.32894898,2 6.81750488,3.04019164 4.92892457,4.92892457 C3.04019164,6.81750488 2,9.32894898 2,12 C2,14.671051 3.04019164,17.1824951 4.92892457,19.0710754 C6.81750488,20.9598084 9.32894898,22 12,22 C13.3356018,22 14.6312256,21.7398377 15.8288879,21.2437744 C17.0265503,20.7477112 18.1265564,20.0155945 19.0710754,19.0710754 C20.9598084,17.1824951 22,14.671051 22,12 C22,9.32894898 20.9598084,6.81750488 19.0710754,4.92892457 Z M15.4313965,14.6028442 C16.9363709,13.2809754 18.8121338,12.5229187 20.8131714,12.4284668 C20.7205505,14.3617554 19.9966736,16.2700195 18.6433716,17.8148193 L15.4313965,14.6028442 Z M20.792572,11.2558289 L20.792572,11.2564392 C19.6829529,11.3055725 18.5995789,11.5361328 17.5635071,11.9458313 C16.4715881,12.3775024 15.4776306,12.9912109 14.6013184,13.7726135 L12.8285523,12 L18.6433716,6.18518066 C19.9229736,7.64575195 20.6398316,9.43118285 20.792572,11.2558289 Z M11.9458313,17.5635071 C11.5362854,18.5994263 11.3057251,19.6831055 11.2565918,20.792572 C11.2562866,20.792572 11.256134,20.792572 11.2558289,20.792572 C9.43118285,20.6398316 7.64575195,19.9229736 6.18518066,18.6433716 L12,12.8285523 L13.7726135,14.6013184 C12.9912109,15.4776306 12.3775024,16.4715881 11.9458313,17.5635071 Z M8.56845094,9.39715578 C7.06362914,10.7187195 5.18725586,11.4760132 3.18682859,11.571228 C3.27944945,9.63793945 4.00317383,7.72998047 5.35662844,6.18518066 L8.56845094,9.39715578 Z M6.18518066,5.35662844 C7.72998047,4.00286867 9.63839723,3.27899172 11.5715332,3.18637086 C11.4769287,5.18771363 10.7190246,7.06362914 9.39715578,8.56845094 L6.18518066,5.35662844 Z M12.0541687,6.43634031 C12.4637146,5.40042113 12.6942749,4.31658938 12.7434082,3.20697023 L12.7444763,3.20697023 C14.5686645,3.36016844 16.354248,4.07656859 17.8148193,5.35662844 L12,11.1712952 L10.2273865,9.39868164 C11.0086365,8.5222168 11.622345,7.52841188 12.0541687,6.43634031 Z M3.20742797,12.7441711 C3.20742797,12.7440186 3.20742797,12.7440186 3.20742797,12.7440186 C4.31689453,12.6947327 5.40042113,12.4637146 6.43634031,12.0541687 C7.52841188,11.6224976 8.5222168,11.0087891 9.39868164,10.2273865 L11.1712952,12 L5.35662844,17.8148193 C4.07687379,16.354248 3.36016844,14.5686645 3.20742797,12.7441711 L3.20742797,12.7441711 Z M12.4284668,20.813324 C12.5230713,18.8119812 13.2809754,16.9363709 14.6028442,15.4313965 L17.8148193,18.6433716 C16.2700195,19.9968262 14.361908,20.7205505 12.4284668,20.813324 L12.4284668,20.813324 Z" id="Shape" stroke="#4167BB" stroke-width="0.300000012" fill="#4167BB" fill-rule="nonzero"></path>
        <rect id="Rectangle" fill="#F4F4F4" opacity="0" x="0" y="0" width="24" height="24"></rect>
    </g>
</svg>